<svg width="512" height="512" viewBox="0 0 512 512" fill="none" xmlns="http://www.w3.org/2000/svg">
<g clip-path="url(#clip0)">
<path d="M17 193C156.808 193 235.192 193 375 193V483H17V193Z" fill="#27AAE1"/>
<path d="M277.5 388C289.374 388 299 375.24 299 359.5C299 343.76 289.374 331 277.5 331C265.626 331 256 343.76 256 359.5C256 375.24 265.626 388 277.5 388Z" fill="#4147D6"/>
<path d="M185.085 114.95C186.49 122.454 193.934 128.372 202.715 126.73C211.241 124.95 216.09 116.775 214.495 109.09C212.622 100.154 203.796 95.176 195.434 97.67C187.965 99.899 183.547 107.612 185.085 114.95Z" fill="#1A244E"/>
<path d="M508.239 324.462C426.618 86.8691 432.233 103.148 431.884 102.339C423.388 82.675 406.895 67.3886 386.634 60.3974C383.732 59.3963 219.442 20.9653 214.694 19.3212C200.132 14.2781 179.902 17.1052 165.7 30.1675L24.9067 159.72C9.07825 174.278 0 195.003 0 216.582V445.998C0 473.034 21.8776 495.029 48.7693 495.029H349.983C376.874 495.029 398.752 473.034 398.752 445.998V423.823L482.709 387.892C507.119 377.329 518.474 348.979 508.239 324.462ZM349.983 465.028H48.7693C38.4201 465.028 30.0008 456.491 30.0008 445.998V216.582C30.0008 203.372 35.547 190.694 45.2182 181.799C165.842 70.8077 91.2835 140.038 186.491 52.2361C191.456 47.66 198.311 45.822 205.111 47.872C211.188 49.6871 200.464 40.9528 353.536 181.801C363.205 190.695 368.751 203.372 368.751 216.582V445.998C368.75 456.491 360.331 465.028 349.983 465.028ZM470.85 360.335L398.751 391.19V216.582C398.751 195.003 389.673 174.278 373.846 159.722L268.995 63.2424L377.501 88.9891C389.346 93.2763 399 102.251 404.128 113.747C485.594 350.886 480.099 334.97 480.456 335.791C484.552 345.259 480.218 356.28 470.85 360.335Z" fill="#1A244E"/>
<path d="M241.966 202.303C234.328 199.097 225.535 202.693 222.329 210.331L149.304 384.376C145.138 394.305 152.497 405.184 163.129 405.184C168.991 405.184 174.559 401.727 176.969 395.984L249.994 221.939C253.199 214.299 249.605 205.508 241.966 202.303Z" fill="#1A244E"/>
<path d="M171.664 245.527C171.664 216.576 150.46 193.022 124.396 193.022C98.3327 193.022 77.1301 216.576 77.1301 245.527C77.1301 274.478 98.3337 298.031 124.397 298.031C150.461 298.031 171.664 274.478 171.664 245.527ZM124.397 268.031C115.038 268.031 107.131 257.725 107.131 245.527C107.131 233.329 115.037 223.023 124.397 223.023C133.758 223.023 141.664 233.329 141.664 245.527C141.663 257.725 133.757 268.031 124.397 268.031Z" fill="#1A244E"/>
<path d="M275.759 312.02C249.695 312.02 228.491 335.573 228.491 364.524C228.491 393.475 249.695 417.028 275.759 417.028C301.822 417.028 323.026 393.475 323.026 364.524C323.026 335.573 301.821 312.02 275.759 312.02ZM275.759 387.028C266.399 387.028 258.492 376.722 258.492 364.524C258.492 352.326 266.398 342.02 275.759 342.02C285.119 342.02 293.025 352.326 293.025 364.524C293.025 376.722 285.118 387.028 275.759 387.028Z" fill="#1A244E"/>
</g>
<defs>
<clipPath id="clip0">
<rect width="512" height="512" fill="white"/>
</clipPath>
</defs>
</svg>
