<svg width="70" height="66" viewBox="0 0 70 66" fill="none" xmlns="http://www.w3.org/2000/svg">
<path d="M69.6053 46.699C68.7289 49.1244 66.4853 50.389 66.2228 50.389C48.1849 58.4638 63.3836 51.6604 53.9017 55.9043C30.0313 65.6391 30.4703 66.0836 27.2893 64.8881C23.777 63.566 25.918 66.1377 8.03101 34.3983C6.77866 32.2122 6.53667 28.5536 8.2566 25.8055C20.1703 4.66751 22.0341 0.0541891 27.0104 0.00387639C27.3378 0.0264351 24.7938 -0.506086 51.8208 5.45351C54.0986 5.98535 56.9013 8.13184 58.263 11.0891C58.315 11.2026 57.4701 8.89063 69.4166 41.7265C70.1234 43.3124 70.1904 45.0748 69.6053 46.699Z" fill="#001737"/>
<path d="M54.5031 27.2827V58.6474C54.5031 62.3443 51.5117 65.3508 47.834 65.3508H6.66917C2.99279 65.3508 0 62.3443 0 58.6474V27.2827C0 24.3336 1.24004 21.5008 3.40294 19.5102C23.8649 0.676834 23.7115 0.0364411 27.0103 0.00308162C30.8286 0.00308162 29.6379 -0.246706 51.1002 19.5102C53.2631 21.5008 54.5031 24.3336 54.5031 27.2827Z" fill="#FFEC00"/>
<path d="M54.5036 27.284V58.6488C54.5036 62.3457 51.5113 65.3521 47.8344 65.3521H27.2516V0.00306764C30.784 -0.0043152 30.1322 0.21047 51.1004 19.5115C53.2629 21.5022 54.5036 24.335 54.5036 27.284Z" fill="#FFD92E"/>
<path d="M29.306 12.9884C29.306 15.7006 25.1978 15.6999 25.1978 12.9884C25.1978 10.2764 29.306 10.2769 29.306 12.9884Z" fill="#00357B"/>
<path d="M27.2518 15.0392C27.2518 10.6882 27.0304 10.7832 27.8489 11.0266C30.1336 11.7707 29.5629 15.0392 27.2518 15.0392Z" fill="#001737"/>
<path d="M34.1784 28.0132C25.5827 48.5016 28.0725 42.5674 24.1952 51.8078C23.8658 52.5939 23.1042 53.0656 22.3031 53.0656C20.8497 53.0656 19.8435 51.5794 20.4122 50.2218C21.4397 47.7735 25.7891 37.4077 30.3968 26.4273C30.8357 25.3828 32.0374 24.8906 33.082 25.3294C34.1251 25.7669 34.6173 26.9701 34.1784 28.0132Z" fill="#FF2828"/>
<path d="M34.1782 28.0132L27.2521 44.522V33.9209L30.3966 26.4273C30.8355 25.3828 32.0372 24.8906 33.0818 25.3294C34.1249 25.7669 34.6171 26.9701 34.1782 28.0132Z" fill="#CC0000"/>
<path d="M23.4697 31.2387C23.4697 27.2807 20.5707 24.0605 17.0074 24.0605C13.4441 24.0605 10.5451 27.2807 10.5451 31.2387C10.5451 35.1967 13.4441 38.4168 17.0074 38.4168C20.5707 38.4168 23.4697 35.1967 23.4697 31.2387ZM17.0074 34.3153C15.7277 34.3153 14.6468 32.9064 14.6468 31.2387C14.6468 29.571 15.7277 28.1621 17.0074 28.1621C18.2871 28.1621 19.368 29.571 19.368 31.2387C19.368 32.9064 18.2871 34.3153 17.0074 34.3153Z" fill="#FF2828"/>
<path d="M37.7013 40.3296C34.138 40.3296 31.239 43.5497 31.239 47.5077C31.239 51.4657 34.138 54.6859 37.7013 54.6859C41.2646 54.6859 44.1636 51.4657 44.1636 47.5077C44.1636 43.5497 41.2647 40.3296 37.7013 40.3296ZM37.7013 50.5843C36.4216 50.5843 35.3407 49.1754 35.3407 47.5077C35.3407 45.84 36.4216 44.4312 37.7013 44.4312C38.981 44.4312 40.0619 45.84 40.0619 47.5077C40.0619 49.1754 38.981 50.5843 37.7013 50.5843Z" fill="#CC0000"/>
</svg>
