<svg width="74" height="74" viewBox="0 0 74 74" fill="none" xmlns="http://www.w3.org/2000/svg">
<path d="M9.25 42.7812H34.6875C35.3008 42.7812 35.889 43.0249 36.3227 43.4586C36.7564 43.8922 37 44.4804 37 45.0938V63.5938H6.9375V45.0938C6.9375 44.4804 7.18114 43.8922 7.61482 43.4586C8.04849 43.0249 8.63669 42.7812 9.25 42.7812Z" fill="#AAE1F9"/>
<path d="M24.2812 60.125C20.6014 60.125 17.0722 58.6632 14.4701 56.0611C11.8681 53.459 10.4062 49.9299 10.4062 46.25V42.7812H9.25C8.63669 42.7812 8.04849 43.0249 7.61482 43.4586C7.18114 43.8922 6.9375 44.4804 6.9375 45.0938V63.5938H37V60.125H24.2812Z" fill="#57B7EB"/>
<path d="M16.1875 33.5312H32.375V54.3438H16.1875V33.5312Z" fill="#FCBC04"/>
<path d="M16.1875 35.8438H30.0625V54.3438H16.1875V35.8438Z" fill="#E59730"/>
<path d="M3.46875 63.5938H40.4688V67.0625C40.4688 67.9825 40.1033 68.8648 39.4528 69.5153C38.8023 70.1658 37.92 70.5312 37 70.5312H6.9375C6.01753 70.5312 5.13524 70.1658 4.48472 69.5153C3.83421 68.8648 3.46875 67.9825 3.46875 67.0625V63.5938Z" fill="#D0D8DA"/>
<path d="M11.5625 38.1562H27.75V58.9688H11.5625V38.1562Z" fill="#F9E109"/>
<path d="M26.5938 55.5C23.5272 55.5 20.5862 54.2818 18.4178 52.1134C16.2494 49.945 15.0312 47.0041 15.0312 43.9375V38.1562H11.5625V58.9688H27.75V55.5H26.5938Z" fill="#FCBC04"/>
<path d="M10.4062 68.2188C9.17962 68.2188 8.00324 67.7315 7.13588 66.8641C6.26853 65.9968 5.78125 64.8204 5.78125 63.5938H3.46875V67.0625C3.46875 67.9825 3.83421 68.8648 4.48472 69.5153C5.13524 70.1658 6.01753 70.5312 6.9375 70.5312H37C37.7153 70.53 38.4125 70.3069 38.9957 69.8927C39.5788 69.4785 40.0192 68.8937 40.256 68.2188H10.4062Z" fill="#93999A"/>
<path d="M23.125 45.0938H18.5C18.1933 45.0938 17.8992 44.9719 17.6824 44.7551C17.4656 44.5383 17.3438 44.2442 17.3438 43.9375C17.3438 43.6308 17.4656 43.3367 17.6824 43.1199C17.8992 42.9031 18.1933 42.7812 18.5 42.7812H23.125C23.4317 42.7812 23.7258 42.9031 23.9426 43.1199C24.1594 43.3367 24.2812 43.6308 24.2812 43.9375C24.2812 44.2442 24.1594 44.5383 23.9426 44.7551C23.7258 44.9719 23.4317 45.0938 23.125 45.0938Z" fill="#57B7EB"/>
<path d="M23.125 49.7188H16.1875C15.8808 49.7188 15.5867 49.5969 15.3699 49.3801C15.1531 49.1633 15.0312 48.8692 15.0312 48.5625C15.0312 48.2558 15.1531 47.9617 15.3699 47.7449C15.5867 47.5281 15.8808 47.4062 16.1875 47.4062H23.125C23.4317 47.4062 23.7258 47.5281 23.9426 47.7449C24.1594 47.9617 24.2812 48.2558 24.2812 48.5625C24.2812 48.8692 24.1594 49.1633 23.9426 49.3801C23.7258 49.5969 23.4317 49.7188 23.125 49.7188Z" fill="#57B7EB"/>
<path d="M23.125 54.3438H16.1875C15.8808 54.3438 15.5867 54.2219 15.3699 54.0051C15.1531 53.7883 15.0312 53.4942 15.0312 53.1875C15.0312 52.8808 15.1531 52.5867 15.3699 52.3699C15.5867 52.1531 15.8808 52.0312 16.1875 52.0312H23.125C23.4317 52.0312 23.7258 52.1531 23.9426 52.3699C24.1594 52.5867 24.2812 52.8808 24.2812 53.1875C24.2812 53.4942 24.1594 53.7883 23.9426 54.0051C23.7258 54.2219 23.4317 54.3438 23.125 54.3438Z" fill="#57B7EB"/>
<path d="M15.0312 48.5628C15.0312 48.8695 15.1531 49.1636 15.3699 49.3804C15.5867 49.5972 15.8808 49.7191 16.1875 49.7191H16.591C16.1957 49.0392 15.8714 48.3205 15.6233 47.5742C15.4457 47.6717 15.2974 47.8146 15.1933 47.9883C15.0893 48.162 15.0333 48.3603 15.0312 48.5628Z" fill="#4891D3"/>
<path d="M15.0312 53.1875C15.0312 53.4942 15.1531 53.7883 15.3699 54.0051C15.5867 54.2219 15.8808 54.3438 16.1875 54.3438H21.5791C20.3747 53.7652 19.2794 52.9829 18.3416 52.0312H16.1875C15.8808 52.0312 15.5867 52.1531 15.3699 52.3699C15.1531 52.5867 15.0312 52.8808 15.0312 53.1875Z" fill="#4891D3"/>
<path d="M59.7781 24.0664C58.8583 18.9509 56.0568 14.3649 51.9252 11.2114C47.7935 8.05788 42.6311 6.5652 37.454 7.02722C32.277 7.48924 27.4605 9.87248 23.9525 13.7078C20.4446 17.5431 18.4995 22.5526 18.5 27.7503H23.125C23.1378 23.722 24.6521 19.8432 27.3719 16.8718C30.0918 13.9004 33.8219 12.0499 37.8333 11.6818C41.8447 11.3138 45.8493 12.4546 49.0645 14.8814C52.2797 17.3082 54.4745 20.8466 55.2202 24.8053L52.1052 25.3106L59.1063 32.3753L63.5198 23.4617L59.7781 24.0664Z" fill="#F9E109"/>
<path d="M67.0625 38.1562H50.875C48.9593 38.1562 47.4062 39.7093 47.4062 41.625V67.0625C47.4062 68.9782 48.9593 70.5313 50.875 70.5313H67.0625C68.9782 70.5313 70.5312 68.9782 70.5312 67.0625V41.625C70.5312 39.7093 68.9782 38.1562 67.0625 38.1562Z" fill="#AAE1F9"/>
<path d="M52.5273 38.1562H50.875C49.955 38.1562 49.0727 38.5217 48.4222 39.1722C47.7717 39.8227 47.4062 40.705 47.4062 41.625V67.0625C47.4062 67.9825 47.7717 68.8648 48.4222 69.5153C49.0727 70.1658 49.955 70.5313 50.875 70.5313H67.0625C67.9825 70.5313 68.8648 70.1658 69.5153 69.5153C70.1658 68.8648 70.5312 67.9825 70.5312 67.0625V61.05L52.5273 38.1562Z" fill="#57B7EB"/>
<path d="M52.0312 53.1875V38.1562H50.875C49.955 38.1562 49.0727 38.5217 48.4222 39.1722C47.7717 39.8227 47.4062 40.705 47.4062 41.625V67.0625C47.4062 67.9825 47.7717 68.8648 48.4222 69.5153C49.0727 70.1658 49.955 70.5313 50.875 70.5313H67.0625C67.9825 70.5313 68.8648 70.1658 69.5153 69.5153C70.1658 68.8648 70.5312 67.9825 70.5312 67.0625H65.9062C62.2264 67.0625 58.6972 65.6007 56.0951 62.9986C53.4931 60.3965 52.0312 56.8674 52.0312 53.1875Z" fill="#4891D3"/>
<path d="M52.0312 43.9375C52.6698 43.9375 53.1875 43.4198 53.1875 42.7812C53.1875 42.1427 52.6698 41.625 52.0312 41.625C51.3927 41.625 50.875 42.1427 50.875 42.7812C50.875 43.4198 51.3927 43.9375 52.0312 43.9375Z" fill="#93999A"/>
<path d="M56.6562 43.9375C57.2948 43.9375 57.8125 43.4198 57.8125 42.7812C57.8125 42.1427 57.2948 41.625 56.6562 41.625C56.0177 41.625 55.5 42.1427 55.5 42.7812C55.5 43.4198 56.0177 43.9375 56.6562 43.9375Z" fill="#D0D8DA"/>
<path d="M61.2812 67.0625H56.6562C56.3496 67.0625 56.0555 66.9407 55.8387 66.7238C55.6218 66.507 55.5 66.2129 55.5 65.9062C55.5 65.5996 55.6218 65.3055 55.8387 65.0887C56.0555 64.8718 56.3496 64.75 56.6562 64.75H61.2812C61.5879 64.75 61.882 64.8718 62.0988 65.0887C62.3157 65.3055 62.4375 65.5996 62.4375 65.9062C62.4375 66.2129 62.3157 66.507 62.0988 66.7238C61.882 66.9407 61.5879 67.0625 61.2812 67.0625Z" fill="#93999A"/>
<path d="M55.5 65.9062C55.5 66.2129 55.6218 66.507 55.8387 66.7238C56.0555 66.9407 56.3496 67.0625 56.6563 67.0625H61.2813C61.467 67.0602 61.6494 67.0122 61.8123 66.9229C61.9752 66.8336 62.1136 66.7056 62.2155 66.5503C60.804 66.165 59.4629 65.5573 58.2426 64.75H56.6563C56.3496 64.75 56.0555 64.8718 55.8387 65.0887C55.6218 65.3055 55.5 65.5996 55.5 65.9062Z" fill="#656B76"/>
<path d="M52.0312 43.9375V41.625C51.7246 41.625 51.4305 41.7468 51.2137 41.9637C50.9968 42.1805 50.875 42.4746 50.875 42.7812C50.875 43.0879 50.9968 43.382 51.2137 43.5988C51.4305 43.8157 51.7246 43.9375 52.0312 43.9375Z" fill="#656B76"/>
<path d="M55.6919 42.1812C55.5721 42.3588 55.5055 42.567 55.5 42.7812C55.5 43.0879 55.6218 43.382 55.8387 43.5988C56.0555 43.8157 56.3496 43.9375 56.6563 43.9375C56.7793 43.933 56.9007 43.9084 57.0158 43.8647L55.6919 42.1812Z" fill="#93999A"/>
<path d="M53.1875 47.4062H64.75V61.2812H53.1875V47.4062Z" fill="#F9E109"/>
<path d="M53.1875 47.4062V61.2812H64.75V53.6986L59.8013 47.4062H53.1875Z" fill="#FCBC04"/>
<path d="M63.5938 58.9688C61.4472 58.9688 59.3885 58.116 57.8706 56.5981C56.3527 55.0803 55.5 53.0216 55.5 50.875V47.4062H53.1875V61.2812H64.75V58.9688H63.5938Z" fill="#E59730"/>
<path d="M60.125 53.1875H57.8125C57.5058 53.1875 57.2117 53.0657 56.9949 52.8488C56.7781 52.632 56.6562 52.3379 56.6562 52.0312C56.6562 51.7246 56.7781 51.4305 56.9949 51.2137C57.2117 50.9968 57.5058 50.875 57.8125 50.875H60.125C60.4317 50.875 60.7258 50.9968 60.9426 51.2137C61.1594 51.4305 61.2812 51.7246 61.2812 52.0312C61.2812 52.3379 61.1594 52.632 60.9426 52.8488C60.7258 53.0657 60.4317 53.1875 60.125 53.1875Z" fill="#57B7EB"/>
<path d="M60.125 57.8125H57.8125C57.5058 57.8125 57.2117 57.6907 56.9949 57.4738C56.7781 57.257 56.6562 56.9629 56.6562 56.6562C56.6562 56.3496 56.7781 56.0555 56.9949 55.8387C57.2117 55.6218 57.5058 55.5 57.8125 55.5H60.125C60.4317 55.5 60.7258 55.6218 60.9426 55.8387C61.1594 56.0555 61.2812 56.3496 61.2812 56.6562C61.2812 56.9629 61.1594 57.257 60.9426 57.4738C60.7258 57.6907 60.4317 57.8125 60.125 57.8125Z" fill="#57B7EB"/>
<path d="M56.6562 56.6563C56.6562 56.9629 56.7781 57.257 56.9949 57.4739C57.2117 57.6907 57.5058 57.8125 57.8125 57.8125H59.4405C58.5473 57.2765 57.7657 56.5734 57.1384 55.7417C56.9913 55.845 56.8709 55.9819 56.7871 56.1409C56.7032 56.2999 56.6584 56.4765 56.6562 56.6563Z" fill="#4891D3"/>
<path d="M57.8229 31.0801L60.051 25.774L59.9793 25.7579C59.2507 25.5932 58.5797 25.2354 58.037 24.7221C57.4942 24.2089 57.0995 23.559 56.8944 22.8406C56.0485 20.0594 54.6289 17.4863 52.7272 15.2875C50.8256 13.0887 48.4841 11.3129 45.8539 10.0747C43.2237 8.83653 40.3632 8.16345 37.4568 8.09888C34.5505 8.03431 31.6628 8.5797 28.9802 9.69986C25.797 11.5173 23.151 14.1443 21.3104 17.3142C19.4699 20.4842 18.5003 24.0845 18.5 27.7501H23.125C23.1378 23.7218 24.6521 19.8431 27.3719 16.8717C30.0918 13.9003 33.8219 12.0497 37.8333 11.6817C41.8447 11.3136 45.8493 12.4544 49.0645 14.8812C52.2797 17.308 54.4745 20.8464 55.2202 24.8051L52.1052 25.3104L57.8229 31.0801Z" fill="#FCBC04"/>
<path d="M45.0359 22.027C44.7293 22.0269 44.4353 21.9051 44.2185 21.6882C42.9162 20.3892 41.1519 19.6597 39.3125 19.6597C37.4731 19.6597 35.7088 20.3892 34.4065 21.6882C34.1885 21.8988 33.8964 22.0154 33.5932 22.0127C33.2901 22.0101 33.0001 21.8885 32.7857 21.6741C32.5713 21.4598 32.4497 21.1698 32.4471 20.8666C32.4444 20.5634 32.561 20.2714 32.7716 20.0533C34.5078 18.3213 36.8601 17.3486 39.3125 17.3486C41.7649 17.3486 44.1172 18.3213 45.8534 20.0533C46.0151 20.215 46.1252 20.421 46.1697 20.6452C46.2143 20.8695 46.1914 21.1019 46.1039 21.3132C46.0165 21.5244 45.8683 21.705 45.6782 21.8321C45.4881 21.9591 45.2646 22.0269 45.0359 22.027Z" fill="#F9E109"/>
<path d="M41.7649 25.2982C41.4582 25.2981 41.1642 25.1762 40.9474 24.9594C40.507 24.5387 39.9215 24.3039 39.3125 24.3039C38.7035 24.3039 38.1179 24.5387 37.6775 24.9594C37.4607 25.1763 37.1666 25.2983 36.8599 25.2984C36.5532 25.2985 36.259 25.1768 36.042 24.96C35.8251 24.7432 35.7031 24.449 35.703 24.1423C35.7029 23.8356 35.8246 23.5414 36.0414 23.3244C36.4709 22.8949 36.9808 22.5542 37.5419 22.3218C38.1031 22.0894 38.7045 21.9697 39.3119 21.9697C39.9193 21.9697 40.5207 22.0894 41.0819 22.3218C41.643 22.5542 42.1529 22.8949 42.5823 23.3244C42.744 23.4861 42.8541 23.6921 42.8987 23.9164C42.9433 24.1407 42.9204 24.3731 42.8329 24.5844C42.7454 24.7956 42.5972 24.9762 42.4071 25.1032C42.217 25.2303 41.9935 25.2981 41.7649 25.2982Z" fill="#F9E109"/>
<path d="M39.3125 28.9067C39.9511 28.9067 40.4688 28.3891 40.4688 27.7505C40.4688 27.1119 39.9511 26.5942 39.3125 26.5942C38.6739 26.5942 38.1562 27.1119 38.1562 27.7505C38.1562 28.3891 38.6739 28.9067 39.3125 28.9067Z" fill="#F9E109"/>
</svg>
