<svg width="84" height="84" viewBox="0 0 84 84" fill="none" xmlns="http://www.w3.org/2000/svg">
<path d="M53.8125 47.25H61.6875V61.6875H53.8125V47.25Z" fill="#4367E0"/>
<path d="M61.6875 42H69.5625V61.6875H61.6875V42Z" fill="#4976F2"/>
<path d="M69.5625 35.4375H77.4375V61.6875H69.5625V35.4375Z" fill="#548AFF"/>
<path d="M81.375 63H52.5C52.3076 63 52.1175 62.9577 51.9433 62.876C51.769 62.7944 51.6148 62.6755 51.4917 62.5277L42.3469 51.5539L44.3635 49.8735L53.1147 60.375H81.375V63Z" fill="#D1E4FF"/>
<path d="M43.4158 42.0231L41.776 39.9733L50.3676 33.1001C50.6003 32.9139 50.8895 32.8125 51.1875 32.8125H60.375V35.4375H51.6479L43.4158 42.0231Z" fill="#D1E4FF"/>
<path d="M21 59.0625L18.0093 54.5764C16.5361 52.3667 15.75 49.7703 15.75 47.1145C15.75 43.8199 16.9591 40.6398 19.1479 38.1774L26.25 30.1875L24.7632 26.4706C24.6626 26.2189 24.636 25.9437 24.6866 25.6774C24.7371 25.411 24.8628 25.1647 25.0488 24.9675C25.2348 24.7703 25.4733 24.6303 25.7361 24.5642C25.999 24.498 26.2753 24.5084 26.5325 24.5942C26.8283 24.6928 27.1484 24.6914 27.4433 24.5902C27.7383 24.489 27.9918 24.2936 28.1647 24.0341L29.4595 22.0921C29.6834 21.7561 29.9868 21.4807 30.3428 21.2902C30.6988 21.0997 31.0963 21 31.5 21C31.9037 21 32.3012 21.0997 32.6572 21.2902C33.0132 21.4807 33.3166 21.7561 33.5405 22.0921L34.8353 24.0341C35.0082 24.2936 35.2617 24.489 35.5567 24.5902C35.8516 24.6914 36.1717 24.6928 36.4675 24.5942C36.7246 24.5084 37.001 24.4981 37.2638 24.5642C37.5267 24.6304 37.7652 24.7703 37.9512 24.9675C38.1372 25.1647 38.2628 25.411 38.3134 25.6774C38.364 25.9437 38.3374 26.2189 38.2368 26.4706L36.75 30.1875L43.8521 38.1774C46.0409 40.6398 47.25 43.8199 47.25 47.1145C47.25 49.7703 46.4639 52.3667 44.9907 54.5764L42 59.0625H21Z" fill="#DB8638"/>
<path d="M44.625 61.3199C44.6255 61.8056 44.469 62.2784 44.179 62.6681C43.889 63.0577 43.4809 63.3432 43.0155 63.4822L31.5 66.9374L28.875 72.1874L19.6875 76.1249L14.4375 80.0624H3.9375V62.9999L7.68306 60.1189L20.2076 50.4835C20.6427 50.1494 21.1626 49.9437 21.7085 49.8898C22.2545 49.8358 22.8046 49.9356 23.2967 50.178C23.7889 50.4204 24.2034 50.7957 24.4933 51.2614C24.7833 51.7271 24.9371 52.2646 24.9375 52.8132C24.9377 53.1408 24.8997 53.4673 24.8243 53.7861C24.7503 54.105 24.6385 54.414 24.4913 54.7065L22.3125 59.0624H42.3675C42.664 59.0623 42.9575 59.1207 43.2314 59.2342C43.5053 59.3476 43.7542 59.5139 43.9638 59.7235C44.1735 59.9332 44.3397 60.182 44.4532 60.4559C44.5666 60.7298 44.625 61.0234 44.625 61.3199Z" fill="#FFCEB6"/>
<path d="M19.6875 76.1251L14.4375 80.0626H3.9375V63.0001L7.68305 60.1191L19.6875 76.1251Z" fill="#FFC431"/>
<path d="M35.4375 28.875H27.5625C27.2144 28.875 26.8806 29.0133 26.6344 29.2594C26.3883 29.5056 26.25 29.8394 26.25 30.1875C26.25 30.5356 26.3883 30.8694 26.6344 31.1156C26.8806 31.3617 27.2144 31.5 27.5625 31.5H28.5545C27.4792 33.1089 27.0268 35.0545 27.2821 36.9727C27.3097 37.1626 27.3788 37.344 27.4843 37.5041C27.5899 37.6642 27.7295 37.7992 27.893 37.8993C28.0566 37.9995 28.2402 38.0624 28.4309 38.0836C28.6215 38.1049 28.8145 38.0839 28.9961 38.0221C29.2828 37.9286 29.5282 37.7384 29.6904 37.484C29.8525 37.2296 29.9213 36.9269 29.8851 36.6274C29.7775 35.808 29.8605 34.9747 30.1276 34.1926C30.3948 33.4105 30.8389 32.7006 31.4254 32.1183L31.5 32.0436L31.5745 32.1181C32.161 32.7005 32.6051 33.4104 32.8723 34.1925C33.1395 34.9747 33.2225 35.8079 33.1149 36.6274C33.0787 36.9269 33.1475 37.2296 33.3096 37.484C33.4718 37.7384 33.7172 37.9286 34.0039 38.0221C34.1855 38.0839 34.3785 38.1049 34.5691 38.0836C34.7598 38.0624 34.9434 37.9995 35.107 37.8993C35.2705 37.7992 35.4101 37.6642 35.5157 37.5041C35.6212 37.344 35.6903 37.1626 35.7179 36.9727C35.9732 35.0545 35.5208 33.1089 34.4455 31.5H35.4375C35.7856 31.5 36.1194 31.3617 36.3656 31.1156C36.6117 30.8694 36.75 30.5356 36.75 30.1875C36.75 29.8394 36.6117 29.5056 36.3656 29.2594C36.1194 29.0133 35.7856 28.875 35.4375 28.875Z" fill="#C47220"/>
<path d="M30.8437 44.625H35.4375V42H32.8125V39.375H30.1875V42.0661C29.3907 42.2288 28.6828 42.6815 28.2008 43.3364C27.7189 43.9914 27.4973 44.8019 27.5791 45.611C27.6608 46.42 28.04 47.1699 28.6432 47.7152C29.2464 48.2605 30.0305 48.5625 30.8437 48.5625H32.1562C32.3303 48.5625 32.4972 48.6316 32.6202 48.7547C32.7433 48.8778 32.8125 49.0447 32.8125 49.2188C32.8125 49.3928 32.7433 49.5597 32.6202 49.6828C32.4972 49.8059 32.3303 49.875 32.1562 49.875H27.5624V52.5H30.1875V55.125H32.8125V52.4339C33.6092 52.2712 34.3171 51.8185 34.7991 51.1636C35.281 50.5086 35.5026 49.6981 35.4208 48.889C35.3391 48.08 34.9599 47.3301 34.3567 46.7848C33.7535 46.2395 32.9694 45.9375 32.1562 45.9375H30.8437C30.6697 45.9375 30.5027 45.8684 30.3797 45.7453C30.2566 45.6222 30.1875 45.4553 30.1875 45.2812C30.1875 45.1072 30.2566 44.9403 30.3797 44.8172C30.5027 44.6941 30.6697 44.625 30.8437 44.625Z" fill="#C47220"/>
<path d="M66.9376 3.9375C64.3416 3.93743 61.8039 4.70717 59.6454 6.14937C57.4869 7.59158 55.8045 9.64148 54.8111 12.0398C53.8176 14.4382 53.5576 17.0773 54.0641 19.6234C54.5705 22.1695 55.8206 24.5082 57.6562 26.3439C59.4919 28.1795 61.8306 29.4296 64.3767 29.936C66.9228 30.4425 69.5619 30.1825 71.9603 29.189C74.3586 28.1956 76.4085 26.5132 77.8507 24.3547C79.293 22.1962 80.0627 19.6585 80.0626 17.0625C80.0625 13.5816 78.6796 10.2433 76.2182 7.7819C73.7568 5.32052 70.4185 3.93766 66.9376 3.9375ZM66.9376 22.3125C65.7234 22.3122 64.5468 21.8909 63.6084 21.1203C62.67 20.3498 62.0277 19.2778 61.7911 18.0868C61.5544 16.8959 61.738 15.6597 62.3106 14.589C62.8832 13.5182 63.8093 12.6791 64.9311 12.2146C66.053 11.7501 67.3012 11.6889 68.4631 12.0415C69.625 12.3941 70.6287 13.1386 71.3033 14.1482C71.9778 15.1579 72.2814 16.3702 72.1623 17.5785C72.0433 18.7869 71.5089 19.9166 70.6503 20.7752C69.6656 21.7597 68.3301 22.3126 66.9376 22.3125Z" fill="#FFC431"/>
<path d="M80.0625 17.0625H72.1875C72.1873 15.6702 71.6341 14.3349 70.6496 13.3504C69.6651 12.3659 68.3298 11.8127 66.9375 11.8125V3.9375C70.4184 3.93766 73.7567 5.32052 76.2181 7.7819C78.6795 10.2433 80.0623 13.5816 80.0625 17.0625Z" fill="#FFA100"/>
<path d="M80.0625 17.0625C80.0645 18.7864 79.7259 20.4937 79.0662 22.0864C78.4066 23.6791 77.4388 25.1258 76.2185 26.3435L70.6503 20.7752C71.1385 20.2882 71.5256 19.7094 71.7894 19.0723C72.0532 18.4351 72.1885 17.7521 72.1875 17.0625H80.0625Z" fill="#F78E00"/>
</svg>
