<svg width="45" height="48" viewBox="0 0 45 48" fill="none" xmlns="http://www.w3.org/2000/svg">
<path fill-rule="evenodd" clip-rule="evenodd" d="M1.21616 19.0895L3.37832 31.7694C3.51346 32.4661 3.78373 33.4414 4.59454 34.1381C6.21616 35.3922 12.4323 39.851 12.4323 42.3592V45.564H21.2161L21.081 33.5808C21.081 32.7447 20.9458 32.1874 19.054 31.3513L10.4053 27.3105C8.24319 26.3351 6.7567 29.6793 8.91886 30.6546L16.2161 33.9988C16.6215 34.1381 16.4864 34.8348 15.9459 34.6955L7.83778 30.9333C6.89184 30.5153 7.02697 30.2366 6.7567 29.4006L4.4594 18.8108C3.78373 16.3027 0.810756 16.8601 1.21616 19.0895ZM22.5675 3.62282C27.9729 -2.50811 37.8377 2.64744 37.8377 11.5652C37.8377 17.5568 27.0269 25.3598 22.5675 28.4252C17.9729 25.3598 7.16211 17.5568 7.16211 11.5652C7.16211 2.78678 16.8918 -2.64745 22.5675 3.62282ZM20.6756 8.36036H24.3242V12.8192H28.6486V16.5814H24.3242V21.0402H20.6756V16.5814H16.3513V12.8192H20.6756V8.36036ZM22.5675 26.4745C26.4864 23.827 36.2161 16.442 36.2161 11.5652C36.2161 3.62282 26.8918 -1.11472 22.5675 6.54894C18.108 -1.25406 8.78373 3.76216 8.78373 11.5652C8.78373 16.442 18.6486 23.827 22.5675 26.4745ZM43.9188 19.0895L41.6215 31.7694C41.6215 32.4661 41.3513 33.4414 40.4053 34.1381C38.7837 35.3922 32.7026 39.851 32.7026 42.3592V45.564H23.9188V33.5808C23.9188 32.7447 24.054 32.1874 25.9458 31.3513L34.7296 27.3105C36.8918 26.3351 38.2431 29.6793 36.081 30.6546L28.7837 33.9988C28.3783 34.1381 28.5134 34.8348 29.054 34.6955L37.1621 30.9333C38.108 30.5153 38.108 30.2366 38.2431 29.4006L40.6756 18.8108C41.2161 16.3027 44.1891 16.8601 43.9188 19.0895Z" fill="#76CBD7"/>
</svg>
