<svg width="45" height="48" viewBox="0 0 45 48" fill="none" xmlns="http://www.w3.org/2000/svg">
<path fill-rule="evenodd" clip-rule="evenodd" d="M1.21622 19.0895L3.37838 31.7694C3.51352 32.4661 3.78379 33.4414 4.5946 34.1381C6.21622 35.3922 12.4324 39.851 12.4324 42.3592V45.564H21.2162L21.0811 33.5808C21.0811 32.7447 20.9459 32.1874 19.0541 31.3513L10.4054 27.3105C8.24325 26.3351 6.75676 29.6793 8.91892 30.6546L16.2162 33.9988C16.6216 34.1381 16.4865 34.8348 15.946 34.6955L7.83784 30.9333C6.8919 30.5153 7.02703 30.2366 6.75676 29.4006L4.45946 18.8108C3.78379 16.3027 0.810816 16.8601 1.21622 19.0895ZM22.5676 3.62282C27.973 -2.50811 37.8378 2.64744 37.8378 11.5652C37.8378 17.5568 27.027 25.3598 22.5676 28.4252C17.973 25.3598 7.16217 17.5568 7.16217 11.5652C7.16217 2.78678 16.8919 -2.64745 22.5676 3.62282ZM20.6757 8.36036H24.3243V12.8192H28.6487V16.5814H24.3243V21.0402H20.6757V16.5814H16.3514V12.8192H20.6757V8.36036ZM22.5676 26.4745C26.4865 23.827 36.2162 16.442 36.2162 11.5652C36.2162 3.62282 26.8919 -1.11472 22.5676 6.54894C18.1081 -1.25406 8.78379 3.76216 8.78379 11.5652C8.78379 16.442 18.6487 23.827 22.5676 26.4745ZM43.9189 19.0895L41.6216 31.7694C41.6216 32.4661 41.3514 33.4414 40.4054 34.1381C38.7838 35.3922 32.7027 39.851 32.7027 42.3592V45.564H23.9189V33.5808C23.9189 32.7447 24.0541 32.1874 25.9459 31.3513L34.7297 27.3105C36.8919 26.3351 38.2432 29.6793 36.0811 30.6546L28.7838 33.9988C28.3784 34.1381 28.5135 34.8348 29.0541 34.6955L37.1622 30.9333C38.1081 30.5153 38.1081 30.2366 38.2432 29.4006L40.6757 18.8108C41.2162 16.3027 44.1892 16.8601 43.9189 19.0895Z" fill="#1565D8"/>
</svg>
