<svg width="11" height="11" viewBox="0 0 11 11" fill="none" xmlns="http://www.w3.org/2000/svg">
<path fill-rule="evenodd" clip-rule="evenodd" d="M5.49802 0.0115248C4.74682 -0.0152697 3.99468 0.00498526 3.24601 0.0721709C2.78685 0.0703407 2.33123 0.152557 1.90168 0.314755C1.53021 0.433745 1.19357 0.641974 0.921223 0.921217C0.642675 1.19213 0.43449 1.52695 0.314758 1.89661C0.122413 2.31907 0.0390107 2.78299 0.0721714 3.24599C0.0049853 3.99465 -0.0152698 4.74678 0.0115248 5.49798C-0.0153966 6.25018 0.00485864 7.00333 0.0721714 7.753C0.0707109 8.21114 0.152921 8.66569 0.314758 9.09429C0.43449 9.46395 0.642675 9.79878 0.921223 10.0697C1.19213 10.3482 1.52696 10.5564 1.89662 10.6761C2.32718 10.8421 2.78459 10.9274 3.24601 10.9278C3.99568 10.9951 4.74884 11.0154 5.50105 10.9885C6.25326 11.0154 7.00642 10.9951 7.75609 10.9278C8.21429 10.929 8.66885 10.8464 9.09739 10.6842C9.8414 10.4279 10.426 9.84336 10.6823 9.09935C10.8458 8.66935 10.929 8.21303 10.9279 7.753C10.9279 7.51545 10.9372 7.34241 10.9485 7.1319V7.13189C10.9661 6.80497 10.9886 6.38766 10.9886 5.49798C11.0153 4.74678 10.9951 3.99465 10.9279 3.24599C10.929 2.78779 10.8465 2.33323 10.6843 1.90469C10.5634 1.53132 10.3524 1.19352 10.0698 0.921217C9.79885 0.64267 9.46402 0.434487 9.09436 0.314755C8.66575 0.15292 8.2112 0.0707104 7.75306 0.0721709C7.00338 0.00485861 6.25023 -0.0153965 5.49802 0.0115248ZM5.49802 0.986917C6.23002 0.959334 6.96305 0.979592 7.69241 1.04756C8.04616 1.04326 8.39758 1.10531 8.72846 1.23051C9.18491 1.44325 9.55176 1.8101 9.7645 2.26655C9.88983 2.59774 9.95189 2.94951 9.94745 3.3036C9.94745 3.51209 9.95621 3.66779 9.96706 3.86088V3.8609V3.86092V3.86093C9.98478 4.17614 10.0081 4.59104 10.0081 5.49798C10.0357 6.23032 10.0155 6.96367 9.94745 7.69337C9.95176 8.04711 9.8897 8.39853 9.7645 8.72941C9.55157 9.18548 9.18474 9.55195 8.72846 9.76443C8.3979 9.88951 8.04683 9.95156 7.69342 9.94738C7.48498 9.94738 7.32932 9.95613 7.13629 9.96698L7.13616 9.96699L7.13613 9.96699H7.13612H7.1361H7.13609C6.82087 9.98471 6.40597 10.008 5.49903 10.008C4.76702 10.0356 4.034 10.0154 3.30463 9.94738C2.95089 9.95169 2.59947 9.88963 2.26859 9.76443C1.81137 9.55208 1.44377 9.18519 1.23052 8.7284C1.10544 8.39784 1.04339 8.04677 1.04757 7.69337C1.04757 7.48487 1.03882 7.32918 1.02796 7.13608C1.01025 6.82087 0.986924 6.40597 0.986924 5.49899C0.959341 4.76699 0.979599 4.03397 1.04757 3.30461C1.04326 2.95086 1.10532 2.59945 1.23052 2.26857C1.33719 2.04364 1.48144 1.83854 1.65707 1.66211C1.79933 1.44964 2.01548 1.29762 2.26353 1.23557C2.59441 1.11037 2.94583 1.04831 3.29958 1.05262C4.03017 0.982784 4.76456 0.960837 5.49802 0.986917ZM3.50198 3.50195C4.03046 2.97347 4.75072 2.68196 5.49802 2.69411C7.04656 2.69411 8.30191 3.94944 8.30191 5.49798C8.30191 7.04651 7.04656 8.30185 5.49802 8.30185C3.94947 8.30185 2.69412 7.04651 2.69412 5.49798C2.68198 4.75069 2.97349 4.03043 3.50198 3.50195ZM5.49802 7.32747C5.01023 7.33634 4.53982 7.14641 4.19494 6.80134C3.85006 6.45627 3.66038 5.98576 3.66952 5.49798C3.66066 5.01037 3.85046 4.54012 4.19531 4.19528C4.54016 3.85043 5.01041 3.66063 5.49802 3.6695C5.98563 3.66063 6.45588 3.85043 6.80073 4.19528C7.14558 4.54012 7.33537 5.01037 7.32651 5.49798C7.33537 5.98558 7.14558 6.45583 6.80073 6.80068C6.45588 7.14553 5.98563 7.33532 5.49802 7.32646V7.32747ZM7.75407 2.5718C7.75407 2.20169 8.0541 1.90166 8.42421 1.90166C8.79295 1.90496 9.09107 2.20307 9.09436 2.5718C9.09436 2.94191 8.79432 3.24194 8.42421 3.24194C8.0541 3.24194 7.75407 2.94191 7.75407 2.5718Z" fill="#E8E8E8"/>
</svg>
