<svg width="136" height="41" viewBox="0 0 136 41" fill="none" xmlns="http://www.w3.org/2000/svg">
<path d="M5.1945 17.8024C4.5648 18.4321 4.5648 19.453 5.1945 20.0827L7.34287 22.2311C7.69863 22.5868 7.69863 23.1637 7.34287 23.5194L5.02057 25.8417C4.48692 26.3754 4.48692 27.2406 5.02057 27.7742L5.38016 28.1338C5.91381 28.6675 6.77902 28.6675 7.31267 28.1338L11.605 23.8415C11.6504 23.7961 11.6919 23.7483 11.7296 23.6985C11.7676 23.6482 11.8066 23.5985 11.8511 23.554L12.2167 23.1884C12.3946 23.0105 12.3946 22.7221 12.2167 22.5442L11.7945 22.1221C11.7611 22.0886 11.7308 22.0522 11.701 22.0155C11.6711 21.9787 11.6392 21.9432 11.605 21.909L11.2454 21.5494C11.2112 21.5152 11.1756 21.4832 11.1389 21.4534C11.1022 21.4236 11.0658 21.3933 11.0323 21.3599L7.47484 17.8024C6.84514 17.1727 5.8242 17.1727 5.1945 17.8024Z" fill="url(#paint0_linear)"/>
<path d="M37.2356 12.2311C37.8653 12.8608 37.8653 13.8817 37.2356 14.5114L35.0872 16.6597C34.7315 17.0155 34.7315 17.5923 35.0872 17.9481L37.4095 20.2704C37.9432 20.804 37.9432 21.6692 37.4095 22.2029L37.0499 22.5625C36.5163 23.0961 35.6511 23.0961 35.1174 22.5625L30.8251 18.2702C30.7797 18.2248 30.7382 18.177 30.7005 18.1272C30.6625 18.077 30.6236 18.0273 30.579 17.9827L30.2134 17.6171C30.0355 17.4392 30.0355 17.1508 30.2134 16.9729L30.6354 16.5509C30.6689 16.5174 30.6992 16.481 30.7291 16.4442C30.7589 16.4074 30.7909 16.3719 30.8251 16.3377L31.1847 15.9781C31.2189 15.9439 31.2545 15.9118 31.2912 15.882C31.328 15.8522 31.3644 15.8218 31.3979 15.7884L34.9552 12.2311C35.5849 11.6014 36.6059 11.6014 37.2356 12.2311Z" fill="url(#paint1_linear)"/>
<path fill-rule="evenodd" clip-rule="evenodd" d="M10.0863 11.689C8.73659 13.0387 8.73659 15.2269 10.0863 16.5766L14.3891 20.8794C15.3183 21.8087 15.3183 23.3153 14.3891 24.2445L10.0989 28.5348C8.74223 29.8914 8.74223 32.0909 10.0989 33.4476C11.4555 34.8042 13.655 34.8042 15.0116 33.4476L23.4408 25.0184C23.5454 24.9139 23.6418 24.8044 23.7302 24.6906C23.8228 24.5714 23.9172 24.4533 24.024 24.3466L24.9864 23.3841C25.451 22.9195 25.451 22.1662 24.9864 21.7016L23.8894 20.6045C23.8091 20.5243 23.7358 20.4375 23.6634 20.3501C23.5938 20.2659 23.5196 20.1843 23.4408 20.1056C23.3621 20.0268 23.2805 19.9526 23.1963 19.883C23.1089 19.8106 23.0221 19.7373 22.9419 19.657L14.9738 11.689C13.6242 10.3393 11.4359 10.3393 10.0863 11.689Z" fill="url(#paint2_linear)"/>
<path d="M32.7606 10.8308C34.1883 9.40307 34.1883 7.08831 32.7606 5.66062C31.3329 4.23292 29.0181 4.23292 27.5904 5.66062L19.5297 13.7213L24.2039 18.3954C24.2197 18.4112 24.2497 18.4385 24.3342 18.5085C24.4614 18.6137 24.5844 18.7256 24.7028 18.844C24.8212 18.9624 24.9331 19.0854 25.0383 19.2125C25.1083 19.2971 25.1355 19.3271 25.1513 19.3429L26.2484 20.44C27.41 21.6015 27.41 23.4848 26.2484 24.6464L25.2859 25.6088C25.2649 25.6299 25.2293 25.6704 25.1393 25.7861C25.0699 25.8754 24.9974 25.9628 24.9217 26.0482L27.9582 29.0847C29.1681 30.2946 31.1298 30.2946 32.3397 29.0847L33.155 28.2694C34.3649 27.0595 34.3649 25.0978 33.155 23.8879L27.8897 18.6226C27.0831 17.816 27.0831 16.5082 27.8897 15.7016L32.7606 10.8308Z" fill="url(#paint3_linear)"/>
<path d="M57.5991 24.1498L55.9175 25.9332L55.9175 30.5602L53.3391 30.5602L53.3391 15.7215L55.9175 15.7215L55.9175 22.6823L57.3443 20.9192L61.6858 15.7215L64.8043 15.7215L59.2908 22.2949L65.1203 30.5602L62.0629 30.5602L57.5991 24.1498ZM72.8555 30.5602C72.7468 30.3496 72.6517 30.0065 72.5701 29.5309C71.782 30.353 70.8172 30.764 69.6758 30.764C68.5683 30.764 67.6647 30.448 66.9649 29.8161C66.2651 29.1843 65.9152 28.4029 65.9152 27.4721C65.9152 26.2967 66.35 25.3966 67.2197 24.7715C68.0961 24.1396 69.3463 23.8237 70.9701 23.8237L72.4886 23.8237L72.4886 23.1001C72.4886 22.5294 72.3289 22.0742 72.0096 21.7345C71.6903 21.388 71.2045 21.2147 70.5523 21.2147C69.9883 21.2147 69.5263 21.3574 69.1662 21.6428C68.8061 21.9213 68.6261 22.2779 68.6261 22.7128L66.1496 22.7128C66.1496 22.1081 66.35 21.5442 66.7509 21.0211C67.1517 20.4911 67.6953 20.0766 68.3815 19.7776C69.0745 19.4787 69.8457 19.3293 70.6949 19.3293C71.9858 19.3293 73.0152 19.6555 73.7829 20.3077C74.5507 20.9532 74.9447 21.8636 74.9651 23.039L74.9651 28.0124C74.9651 29.0043 75.1044 29.7958 75.383 30.3869L75.383 30.5602L72.8555 30.5602ZM70.1344 28.7767C70.6236 28.7767 71.0822 28.6577 71.5102 28.4199C71.9451 28.1821 72.2712 27.8629 72.4886 27.462L72.4886 25.383L71.1535 25.383C70.2363 25.383 69.5467 25.5427 69.0847 25.862C68.6227 26.1813 68.3917 26.6331 68.3917 27.2174C68.3917 27.693 68.548 28.0734 68.8605 28.3588C69.1798 28.6373 69.6045 28.7767 70.1344 28.7767ZM77.0951 24.9448C77.0951 23.8645 77.3091 22.8929 77.7372 22.03C78.1652 21.1604 78.7665 20.4945 79.541 20.0325C80.3156 19.5637 81.2056 19.3293 82.2112 19.3293C83.6991 19.3293 84.9051 19.8082 85.8291 20.7662C86.7599 21.7242 87.2627 22.9948 87.3374 24.5779L87.3476 25.1587C87.3476 26.2458 87.137 27.2174 86.7157 28.0735C86.3013 28.9296 85.7034 29.5919 84.9221 30.0607C84.1475 30.5295 83.2507 30.764 82.2315 30.764C80.6757 30.764 79.4289 30.2477 78.4913 29.2149C77.5605 28.1754 77.0951 26.7927 77.0951 25.067L77.0951 24.9448ZM79.5716 25.1587C79.5716 26.2933 79.806 27.1835 80.2748 27.8289C80.7436 28.4676 81.3958 28.7869 82.2315 28.7869C83.0672 28.7869 83.7161 28.4607 84.1781 27.8084C84.6469 27.1562 84.8813 26.2017 84.8813 24.9448C84.8813 23.8305 84.6401 22.9472 84.1577 22.2949C83.6821 21.6427 83.0333 21.3166 82.2112 21.3166C81.4026 21.3166 80.7606 21.6394 80.285 22.2848C79.8094 22.9235 79.5716 23.8814 79.5716 25.1587ZM95.623 27.5638C95.623 27.1222 95.4395 26.7859 95.0726 26.5549C94.7125 26.3239 94.1112 26.1201 93.2688 25.9434C92.4263 25.7668 91.7231 25.5427 91.1592 25.2709C89.9226 24.673 89.3043 23.8066 89.3043 22.672C89.3043 21.7208 89.7052 20.9259 90.5069 20.2872C91.3086 19.6486 92.3278 19.3293 93.5643 19.3293C94.8824 19.3293 95.9457 19.6555 96.7542 20.3077C97.5695 20.9599 97.9772 21.8057 97.9772 22.8452L95.5007 22.8452C95.5007 22.3696 95.324 21.9757 94.9707 21.6631C94.6174 21.3438 94.1486 21.1841 93.5643 21.1841C93.0208 21.1841 92.5758 21.3098 92.2292 21.5612C91.8895 21.8126 91.7197 22.1489 91.7197 22.5702C91.7197 22.9507 91.8793 23.2461 92.1987 23.4567C92.518 23.6673 93.1635 23.8815 94.135 24.0989C95.1066 24.3095 95.8676 24.5643 96.4179 24.8632C96.975 25.1554 97.3861 25.5087 97.651 25.9231C97.9228 26.3376 98.0587 26.8403 98.0587 27.4313C98.0587 28.4233 97.6476 29.2285 96.8255 29.8468C96.0034 30.4583 94.9266 30.764 93.5949 30.764C92.6913 30.764 91.8861 30.601 91.1795 30.2748C90.4729 29.9487 89.9226 29.5003 89.5285 28.9296C89.1345 28.3589 88.9374 27.744 88.9374 27.0849L91.3426 27.0849C91.3766 27.6692 91.5974 28.1211 92.005 28.4404C92.4127 28.7529 92.9528 28.9091 93.6255 28.9091C94.2777 28.9091 94.7737 28.7869 95.1134 28.5423C95.4531 28.2909 95.623 27.9647 95.623 27.5638ZM102.665 20.7356C103.474 19.798 104.496 19.3293 105.732 19.3293C108.083 19.3293 109.276 20.6711 109.31 23.3548L109.31 30.5602L106.833 30.5602L106.833 23.4466C106.833 22.6857 106.667 22.1489 106.334 21.8364C106.008 21.5171 105.525 21.3574 104.887 21.3574C103.895 21.3574 103.154 21.7989 102.665 22.6822L102.665 30.5602L100.189 30.5602L100.189 14.9062L102.665 14.9062L102.665 20.7356ZM114.456 30.5602L111.98 30.5602L111.98 19.5332L114.456 19.5332L114.456 30.5602ZM111.827 16.6694C111.827 16.2889 111.946 15.9729 112.184 15.7215C112.428 15.4701 112.775 15.3444 113.223 15.3444C113.672 15.3444 114.018 15.4701 114.263 15.7215C114.507 15.9729 114.63 16.2889 114.63 16.6694C114.63 17.0431 114.507 17.3556 114.263 17.607C114.018 17.8516 113.672 17.9739 113.223 17.9739C112.775 17.9739 112.428 17.8516 112.184 17.607C111.946 17.3556 111.827 17.0431 111.827 16.6694Z" fill="#1A244E"/>
<path d="M124.86 9.06211L120.7 9.06211L120.7 10.2941L122.14 10.2941L122.14 14.6621L123.42 14.6621L123.42 10.2941L124.86 10.2941L124.86 9.06211ZM131.021 9.06211L129.741 9.06211L128.221 11.5501L126.701 9.06211L125.421 9.06211L125.421 14.6621L126.701 14.6621L126.701 11.4061L128.149 13.7821L128.293 13.7821L129.741 11.4061L129.741 14.6621L131.021 14.6621L131.021 9.06211Z" fill="#1A244E"/>
<defs>
<linearGradient id="paint0_linear" x1="5.57071" y1="16.8933" x2="39.0299" y2="17.2509" gradientUnits="userSpaceOnUse">
<stop stop-color="#77C4DD"/>
<stop offset="1" stop-color="#74DAC8"/>
</linearGradient>
<linearGradient id="paint1_linear" x1="5.57071" y1="16.8935" x2="39.0299" y2="17.2511" gradientUnits="userSpaceOnUse">
<stop stop-color="#77C4DD"/>
<stop offset="1" stop-color="#74DAC8"/>
</linearGradient>
<linearGradient id="paint2_linear" x1="5.5707" y1="16.8933" x2="39.0299" y2="17.2509" gradientUnits="userSpaceOnUse">
<stop stop-color="#77C4DD"/>
<stop offset="1" stop-color="#74DAC8"/>
</linearGradient>
<linearGradient id="paint3_linear" x1="5.5707" y1="16.8936" x2="39.0299" y2="17.2512" gradientUnits="userSpaceOnUse">
<stop stop-color="#77C4DD"/>
<stop offset="1" stop-color="#74DAC8"/>
</linearGradient>
</defs>
</svg>
