<svg width="207" height="59" viewBox="0 0 207 59" fill="none" xmlns="http://www.w3.org/2000/svg">
<g clip-path="url(#clip0)">
<path d="M0.574166 14.1407C-0.0555325 14.7704 -0.0555326 15.7913 0.574166 16.421L2.72254 18.5694C3.0783 18.9251 3.0783 19.502 2.72254 19.8577L0.400237 22.18C-0.133412 22.7137 -0.133413 23.5789 0.400237 24.1125L0.759826 24.4721C1.29348 25.0058 2.15869 25.0058 2.69234 24.4721L6.98463 20.1798C7.03005 20.1344 7.07161 20.0866 7.10929 20.0368C7.1473 19.9865 7.18625 19.9368 7.23079 19.8923L7.59638 19.5267C7.77426 19.3488 7.77426 19.0604 7.59637 18.8825L7.1742 18.4604C7.14075 18.4269 7.11043 18.3905 7.08062 18.3538C7.05081 18.317 7.01882 18.2815 6.98463 18.2473L6.62504 17.8877C6.59086 17.8535 6.55531 17.8215 6.51858 17.7917C6.48185 17.7619 6.44546 17.7316 6.412 17.6982L2.85451 14.1407C2.22481 13.511 1.20387 13.511 0.574166 14.1407Z" fill="url(#paint0_linear)"/>
<path d="M32.6153 8.56895C33.245 9.19865 33.245 10.2196 32.6153 10.8493L30.4669 12.9976C30.1112 13.3534 30.1112 13.9302 30.4669 14.286L32.7892 16.6083C33.3229 17.1419 33.3229 18.0071 32.7892 18.5408L32.4296 18.9004C31.896 19.434 31.0308 19.434 30.4971 18.9004L26.2048 14.6081C26.1594 14.5627 26.1179 14.5149 26.0802 14.4651C26.0422 14.4149 26.0033 14.3652 25.9587 14.3206L25.5931 13.955C25.4152 13.7771 25.4152 13.4887 25.5931 13.3108L26.0151 12.8888C26.0486 12.8553 26.0789 12.8189 26.1088 12.7821C26.1386 12.7453 26.1706 12.7098 26.2048 12.6756L26.5644 12.316C26.5986 12.2818 26.6342 12.2497 26.6709 12.2199C26.7077 12.1901 26.7441 12.1597 26.7776 12.1263L30.3349 8.56895C30.9646 7.93925 31.9856 7.93925 32.6153 8.56895Z" fill="url(#paint1_linear)"/>
<path fill-rule="evenodd" clip-rule="evenodd" d="M5.46593 8.02739C4.11626 9.37706 4.11626 11.5653 5.46593 12.915L9.76876 17.2178C10.698 18.1471 10.698 19.6537 9.76876 20.5829L5.47854 24.8732C4.1219 26.2298 4.1219 28.4293 5.47854 29.786C6.83517 31.1426 9.03471 31.1426 10.3913 29.786L18.8205 21.3568C18.9251 21.2523 19.0215 21.1428 19.1099 21.029C19.2025 20.9098 19.2969 20.7917 19.4037 20.685L20.3661 19.7225C20.8307 19.2579 20.8307 18.5046 20.3661 18.04L19.2691 16.9429C19.1888 16.8627 19.1155 16.7759 19.0431 16.6885C18.9735 16.6043 18.8993 16.5227 18.8205 16.444C18.7418 16.3652 18.6602 16.291 18.576 16.2214C18.4886 16.149 18.4018 16.0757 18.3216 15.9954L10.3535 8.02739C9.00385 6.67772 6.8156 6.67772 5.46593 8.02739Z" fill="url(#paint2_linear)"/>
<path d="M28.1403 7.16865C29.568 5.74096 29.568 3.4262 28.1403 1.99851C26.7126 0.57081 24.3978 0.570809 22.9701 1.99851L14.9094 10.0592L19.5836 14.7333C19.5994 14.7491 19.6294 14.7764 19.7139 14.8464C19.8411 14.9516 19.9641 15.0635 20.0825 15.1819C20.2009 15.3003 20.3128 15.4233 20.418 15.5504C20.488 15.635 20.5152 15.665 20.531 15.6808L21.6281 16.7779C22.7897 17.9394 22.7897 19.8227 21.6281 20.9843L20.6656 21.9467C20.6446 21.9678 20.609 22.0083 20.519 22.124C20.4496 22.2133 20.3771 22.3007 20.3014 22.3861L23.3379 25.4226C24.5478 26.6325 26.5095 26.6325 27.7194 25.4226L28.5347 24.6073C29.7446 23.3974 29.7446 21.4357 28.5347 20.2258L23.2694 14.9605C22.4628 14.1539 22.4628 12.8461 23.2694 12.0395L28.1403 7.16865Z" fill="url(#paint3_linear)"/>
<path d="M52.9788 20.4876L51.2972 22.2711V26.898H48.7188V12.0594H51.2972V19.0201L52.724 17.257L57.0655 12.0594H60.184L54.6705 18.6328L60.5 26.898H57.4426L52.9788 20.4876ZM68.2352 26.898C68.1265 26.6874 68.0314 26.3443 67.9498 25.8687C67.1617 26.6908 66.1969 27.1018 65.0555 27.1018C63.948 27.1018 63.0444 26.7859 62.3446 26.154C61.6448 25.5222 61.2949 24.7408 61.2949 23.81C61.2949 22.6346 61.7297 21.7344 62.5994 21.1093C63.4758 20.4774 64.726 20.1615 66.3498 20.1615H67.8683V19.4379C67.8683 18.8672 67.7086 18.412 67.3893 18.0723C67.07 17.7258 66.5842 17.5525 65.932 17.5525C65.368 17.5525 64.906 17.6952 64.5459 17.9806C64.1858 18.2591 64.0058 18.6158 64.0058 19.0507H61.5293C61.5293 18.446 61.7297 17.882 62.1306 17.3589C62.5314 16.8289 63.075 16.4145 63.7612 16.1155C64.4542 15.8166 65.2254 15.6671 66.0746 15.6671C67.3655 15.6671 68.3949 15.9933 69.1626 16.6455C69.9304 17.291 70.3244 18.2014 70.3448 19.3768V24.3502C70.3448 25.3421 70.4841 26.1336 70.7627 26.7247V26.898H68.2352ZM65.5141 25.1145C66.0033 25.1145 66.4619 24.9956 66.8899 24.7578C67.3248 24.52 67.6509 24.2007 67.8683 23.7998V21.7208H66.5332C65.616 21.7208 64.9264 21.8805 64.4644 22.1998C64.0024 22.5191 63.7714 22.9709 63.7714 23.5552C63.7714 24.0308 63.9277 24.4113 64.2402 24.6967C64.5595 24.9752 64.9842 25.1145 65.5141 25.1145ZM72.4748 21.2826C72.4748 20.2023 72.6888 19.2307 73.1169 18.3678C73.5449 17.4982 74.1462 16.8323 74.9207 16.3703C75.6953 15.9015 76.5853 15.6671 77.5909 15.6671C79.0788 15.6671 80.2848 16.1461 81.2088 17.1041C82.1396 18.0621 82.6424 19.3326 82.7171 20.9157L82.7273 21.4966C82.7273 22.5837 82.5167 23.5552 82.0954 24.4113C81.681 25.2674 81.0831 25.9298 80.3018 26.3986C79.5272 26.8674 78.6304 27.1018 77.6112 27.1018C76.0554 27.1018 74.8086 26.5855 73.871 25.5527C72.9402 24.5132 72.4748 23.1306 72.4748 21.4049V21.2826ZM74.9513 21.4966C74.9513 22.6312 75.1857 23.5213 75.6545 24.1667C76.1233 24.8054 76.7755 25.1247 77.6112 25.1247C78.4469 25.1247 79.0958 24.7986 79.5578 24.1463C80.0266 23.4941 80.261 22.5395 80.261 21.2826C80.261 20.1683 80.0198 19.2851 79.5374 18.6328C79.0618 17.9806 78.413 17.6544 77.5909 17.6544C76.7823 17.6544 76.1403 17.9772 75.6647 18.6226C75.1891 19.2613 74.9513 20.2193 74.9513 21.4966ZM91.0027 23.9017C91.0027 23.4601 90.8192 23.1238 90.4523 22.8928C90.0922 22.6618 89.4909 22.458 88.6485 22.2813C87.806 22.1047 87.1028 21.8805 86.5389 21.6087C85.3023 21.0108 84.684 20.1445 84.684 19.0099C84.684 18.0587 85.0849 17.2638 85.8866 16.6251C86.6883 15.9865 87.7075 15.6671 88.944 15.6671C90.2621 15.6671 91.3254 15.9933 92.1339 16.6455C92.9492 17.2977 93.3569 18.1436 93.3569 19.1831H90.8804C90.8804 18.7075 90.7037 18.3135 90.3504 18.0009C89.9971 17.6816 89.5283 17.522 88.944 17.522C88.4005 17.522 87.9555 17.6476 87.6089 17.899C87.2692 18.1504 87.0994 18.4867 87.0994 18.908C87.0994 19.2885 87.259 19.584 87.5784 19.7946C87.8977 20.0052 88.5432 20.2193 89.5147 20.4367C90.4863 20.6473 91.2473 20.9021 91.7976 21.201C92.3547 21.4932 92.7658 21.8465 93.0307 22.2609C93.3025 22.6754 93.4384 23.1782 93.4384 23.7692C93.4384 24.7612 93.0273 25.5663 92.2052 26.1846C91.3831 26.7961 90.3063 27.1018 88.9746 27.1018C88.071 27.1018 87.2658 26.9388 86.5592 26.6126C85.8526 26.2865 85.3023 25.8381 84.9082 25.2674C84.5142 24.6967 84.3171 24.0818 84.3171 23.4227H86.7223C86.7563 24.007 86.9771 24.4589 87.3847 24.7782C87.7924 25.0907 88.3325 25.247 89.0052 25.247C89.6574 25.247 90.1534 25.1247 90.4931 24.8801C90.8328 24.6287 91.0027 24.3026 91.0027 23.9017ZM98.0449 17.0735C98.8534 16.1359 99.8759 15.6671 101.112 15.6671C103.463 15.6671 104.656 17.009 104.69 19.6927V26.898H102.213V19.7844C102.213 19.0235 102.047 18.4867 101.714 18.1742C101.388 17.8549 100.905 17.6952 100.267 17.6952C99.2746 17.6952 98.5341 18.1368 98.0449 19.0201V26.898H95.5684V11.2441H98.0449V17.0735ZM109.836 26.898H107.36V15.871H109.836V26.898ZM107.207 13.0072C107.207 12.6267 107.326 12.3108 107.564 12.0594C107.808 11.808 108.155 11.6823 108.603 11.6823C109.052 11.6823 109.398 11.808 109.643 12.0594C109.887 12.3108 110.01 12.6267 110.01 13.0072C110.01 13.3809 109.887 13.6934 109.643 13.9448C109.398 14.1894 109.052 14.3117 108.603 14.3117C108.155 14.3117 107.808 14.1894 107.564 13.9448C107.326 13.6934 107.207 13.3809 107.207 13.0072Z" fill="#1A244E"/>
<path opacity="0.7" d="M41.8857 50.0073L38.4404 44.0122H40.2725L42.6855 48.2299L45.1055 44.0122H46.9375L43.4785 50.0073V54.5669H41.8857V50.0073ZM46.5957 51.1899C46.5957 50.2283 46.9398 49.4103 47.6279 48.7358C48.3161 48.0613 49.1546 47.7241 50.1436 47.7241C51.137 47.7241 51.9801 48.0636 52.6729 48.7426C53.3564 49.4217 53.6982 50.2557 53.6982 51.2446C53.6982 52.2426 53.3542 53.0789 52.666 53.7534C51.9733 54.4233 51.1234 54.7583 50.1162 54.7583C49.1182 54.7583 48.2819 54.4165 47.6074 53.7329C46.9329 53.0584 46.5957 52.2107 46.5957 51.1899ZM48.168 51.2172C48.168 51.8826 48.3457 52.409 48.7012 52.7963C49.0658 53.1883 49.5465 53.3842 50.1436 53.3842C50.7451 53.3842 51.2259 53.1905 51.5859 52.8032C51.946 52.4158 52.126 51.8986 52.126 51.2514C52.126 50.6043 51.946 50.087 51.5859 49.6997C51.2214 49.3077 50.7406 49.1118 50.1436 49.1118C49.5557 49.1118 49.0794 49.3077 48.7148 49.6997C48.3503 50.0916 48.168 50.5974 48.168 51.2172ZM56.8701 47.9086V51.7299C56.8701 52.8328 57.3053 53.3842 58.1758 53.3842C59.0462 53.3842 59.4814 52.8328 59.4814 51.7299V47.9086H61.0195V51.7641C61.0195 52.2973 60.9535 52.7576 60.8213 53.145C60.6937 53.4913 60.4727 53.8035 60.1582 54.0815C59.6387 54.5327 58.9779 54.7583 58.1758 54.7583C57.3783 54.7583 56.7197 54.5327 56.2002 54.0815C55.8812 53.8035 55.6556 53.4913 55.5234 53.145C55.3958 52.8351 55.332 52.3748 55.332 51.7641V47.9086H56.8701ZM62.9609 47.9086H64.499V48.5034C64.7816 48.2071 65.0322 48.0044 65.251 47.895C65.4743 47.781 65.7386 47.7241 66.0439 47.7241C66.4495 47.7241 66.8734 47.8562 67.3154 48.1206L66.6113 49.5288C66.3197 49.3191 66.0348 49.2143 65.7568 49.2143C64.9183 49.2143 64.499 49.8478 64.499 51.1147V54.5669H62.9609V47.9086ZM72.5176 47.9086H74.0557V48.5239C74.3519 48.214 74.6048 48.0044 74.8145 47.895C75.0378 47.781 75.318 47.7241 75.6553 47.7241C76.4072 47.7241 77.002 48.0522 77.4395 48.7085C77.9225 48.0522 78.5765 47.7241 79.4014 47.7241C80.9007 47.7241 81.6504 48.6333 81.6504 50.4516V54.5669H80.1055V50.8686C80.1055 50.2306 80.028 49.7794 79.873 49.5151C79.7135 49.2462 79.4515 49.1118 79.0869 49.1118C78.6631 49.1118 78.3532 49.2713 78.1572 49.5903C77.9658 49.9093 77.8701 50.422 77.8701 51.1284V54.5669H76.3252V50.8891C76.3252 49.7042 75.9834 49.1118 75.2998 49.1118C74.8669 49.1118 74.5501 49.2736 74.3496 49.5971C74.1536 49.9207 74.0557 50.4311 74.0557 51.1284V54.5669H72.5176V47.9086ZM83.2773 51.1899C83.2773 50.2283 83.6214 49.4103 84.3096 48.7358C84.9977 48.0613 85.8363 47.7241 86.8252 47.7241C87.8187 47.7241 88.6618 48.0636 89.3545 48.7426C90.0381 49.4217 90.3799 50.2557 90.3799 51.2446C90.3799 52.2426 90.0358 53.0789 89.3477 53.7534C88.6549 54.4233 87.805 54.7583 86.7979 54.7583C85.7998 54.7583 84.9635 54.4165 84.2891 53.7329C83.6146 53.0584 83.2773 52.2107 83.2773 51.1899ZM84.8496 51.2172C84.8496 51.8826 85.0273 52.409 85.3828 52.7963C85.7474 53.1883 86.2282 53.3842 86.8252 53.3842C87.4268 53.3842 87.9076 53.1905 88.2676 52.8032C88.6276 52.4158 88.8076 51.8986 88.8076 51.2514C88.8076 50.6043 88.6276 50.087 88.2676 49.6997C87.903 49.3077 87.4222 49.1118 86.8252 49.1118C86.2373 49.1118 85.7611 49.3077 85.3965 49.6997C85.0319 50.0916 84.8496 50.5974 84.8496 51.2172ZM92.0137 47.9086H93.5586V48.5239C94.0964 47.9907 94.7025 47.7241 95.377 47.7241C96.1517 47.7241 96.7555 47.9679 97.1885 48.4555C97.5622 48.8702 97.749 49.547 97.749 50.4858V54.5669H96.2041V50.8481C96.2041 50.1919 96.113 49.7384 95.9307 49.4877C95.7529 49.2325 95.4294 49.1049 94.96 49.1049C94.4495 49.1049 94.0872 49.2736 93.873 49.6108C93.6634 49.9435 93.5586 50.5245 93.5586 51.354V54.5669H92.0137V47.9086ZM105.761 51.6001H100.989C101.03 52.1469 101.208 52.5821 101.522 52.9057C101.837 53.2247 102.24 53.3842 102.732 53.3842C103.115 53.3842 103.432 53.2931 103.683 53.1108C103.929 52.9285 104.209 52.5913 104.523 52.0991L105.822 52.8237C105.622 53.1655 105.41 53.4594 105.187 53.7055C104.963 53.9471 104.724 54.1476 104.469 54.3071C104.214 54.462 103.938 54.576 103.642 54.6489C103.345 54.7218 103.024 54.7583 102.678 54.7583C101.684 54.7583 100.887 54.4392 100.285 53.8012C99.6836 53.1586 99.3828 52.3064 99.3828 51.2446C99.3828 50.1919 99.6745 49.3396 100.258 48.6879C100.846 48.0454 101.625 47.7241 102.596 47.7241C103.576 47.7241 104.35 48.0363 104.92 48.6606C105.485 49.2804 105.768 50.1394 105.768 51.2377L105.761 51.6001ZM104.182 50.3422C103.967 49.5219 103.45 49.1118 102.63 49.1118C102.443 49.1118 102.268 49.1414 102.104 49.2006C101.939 49.2553 101.789 49.3374 101.652 49.4467C101.52 49.5516 101.406 49.6792 101.311 49.8295C101.215 49.9799 101.142 50.1508 101.092 50.3422H104.182ZM109.302 53.3295L106.308 47.9086H108.092L110.129 51.7368L112.029 47.9086H113.766L108.461 58.1899H106.704L109.302 53.3295ZM115.167 52.5913L116.534 53.1245L114.586 57.0278L113.547 56.5971L115.167 52.5913ZM124.956 53.3295L121.962 47.9086H123.746L125.783 51.7368L127.684 47.9086H129.42L124.115 58.1899H122.358L124.956 53.3295ZM129.885 51.1899C129.885 50.2283 130.229 49.4103 130.917 48.7358C131.605 48.0613 132.444 47.7241 133.433 47.7241C134.426 47.7241 135.269 48.0636 135.962 48.7426C136.646 49.4217 136.987 50.2557 136.987 51.2446C136.987 52.2426 136.643 53.0789 135.955 53.7534C135.262 54.4233 134.412 54.7583 133.405 54.7583C132.407 54.7583 131.571 54.4165 130.896 53.7329C130.222 53.0584 129.885 52.2107 129.885 51.1899ZM131.457 51.2172C131.457 51.8826 131.635 52.409 131.99 52.7963C132.355 53.1883 132.836 53.3842 133.433 53.3842C134.034 53.3842 134.515 53.1905 134.875 52.8032C135.235 52.4158 135.415 51.8986 135.415 51.2514C135.415 50.6043 135.235 50.087 134.875 49.6997C134.51 49.3077 134.03 49.1118 133.433 49.1118C132.845 49.1118 132.368 49.3077 132.004 49.6997C131.639 50.0916 131.457 50.5974 131.457 51.2172ZM140.159 47.9086V51.7299C140.159 52.8328 140.594 53.3842 141.465 53.3842C142.335 53.3842 142.771 52.8328 142.771 51.7299V47.9086H144.309V51.7641C144.309 52.2973 144.243 52.7576 144.11 53.145C143.983 53.4913 143.762 53.8035 143.447 54.0815C142.928 54.5327 142.267 54.7583 141.465 54.7583C140.667 54.7583 140.009 54.5327 139.489 54.0815C139.17 53.8035 138.945 53.4913 138.812 53.145C138.685 52.8351 138.621 52.3748 138.621 51.7641V47.9086H140.159ZM146.25 47.9086H147.788V48.5034C148.071 48.2071 148.321 48.0044 148.54 47.895C148.763 47.781 149.028 47.7241 149.333 47.7241C149.739 47.7241 150.162 47.8562 150.604 48.1206L149.9 49.5288C149.609 49.3191 149.324 49.2143 149.046 49.2143C148.207 49.2143 147.788 49.8478 147.788 51.1147V54.5669H146.25V47.9086ZM160.715 43.021H162.26V54.5669H160.715V53.8696C160.109 54.462 159.423 54.7583 158.657 54.7583C157.746 54.7583 156.989 54.4256 156.388 53.7602C155.791 53.0812 155.492 52.2335 155.492 51.2172C155.492 50.2238 155.791 49.3943 156.388 48.729C156.98 48.059 157.725 47.7241 158.623 47.7241C159.402 47.7241 160.1 48.0431 160.715 48.6811V43.021ZM157.064 51.2172C157.064 51.8553 157.235 52.3748 157.577 52.7758C157.928 53.1814 158.37 53.3842 158.903 53.3842C159.473 53.3842 159.933 53.1883 160.284 52.7963C160.635 52.3907 160.811 51.8758 160.811 51.2514C160.811 50.6271 160.635 50.1121 160.284 49.7065C159.933 49.31 159.478 49.1118 158.917 49.1118C158.388 49.1118 157.946 49.3123 157.591 49.7133C157.24 50.1189 157.064 50.6202 157.064 51.2172ZM170.265 51.6001H165.493C165.534 52.1469 165.712 52.5821 166.026 52.9057C166.341 53.2247 166.744 53.3842 167.236 53.3842C167.619 53.3842 167.936 53.2931 168.187 53.1108C168.433 52.9285 168.713 52.5913 169.027 52.0991L170.326 52.8237C170.126 53.1655 169.914 53.4594 169.69 53.7055C169.467 53.9471 169.228 54.1476 168.973 54.3071C168.717 54.462 168.442 54.576 168.146 54.6489C167.849 54.7218 167.528 54.7583 167.182 54.7583C166.188 54.7583 165.391 54.4392 164.789 53.8012C164.188 53.1586 163.887 52.3064 163.887 51.2446C163.887 50.1919 164.178 49.3396 164.762 48.6879C165.35 48.0454 166.129 47.7241 167.1 47.7241C168.079 47.7241 168.854 48.0363 169.424 48.6606C169.989 49.2804 170.271 50.1394 170.271 51.2377L170.265 51.6001ZM168.686 50.3422C168.471 49.5219 167.954 49.1118 167.134 49.1118C166.947 49.1118 166.771 49.1414 166.607 49.2006C166.443 49.2553 166.293 49.3374 166.156 49.4467C166.024 49.5516 165.91 49.6792 165.814 49.8295C165.719 49.9799 165.646 50.1508 165.596 50.3422H168.686ZM177.135 48.1958V50.2397C176.784 49.8113 176.469 49.5174 176.191 49.3579C175.918 49.1938 175.597 49.1118 175.228 49.1118C174.649 49.1118 174.168 49.3146 173.785 49.7202C173.402 50.1258 173.211 50.6339 173.211 51.2446C173.211 51.8689 173.396 52.3816 173.765 52.7827C174.138 53.1837 174.615 53.3842 175.193 53.3842C175.562 53.3842 175.888 53.3045 176.171 53.145C176.444 52.99 176.766 52.6892 177.135 52.2426V54.2729C176.51 54.5965 175.886 54.7583 175.262 54.7583C174.232 54.7583 173.37 54.4256 172.678 53.7602C171.985 53.0903 171.639 52.2586 171.639 51.2651C171.639 50.2716 171.99 49.4331 172.691 48.7495C173.393 48.0659 174.255 47.7241 175.275 47.7241C175.932 47.7241 176.551 47.8813 177.135 48.1958ZM180.163 47.9086V54.5669H178.625V47.9086H180.163ZM178.393 45.1401C178.393 44.8712 178.491 44.6388 178.687 44.4428C178.882 44.2469 179.117 44.1489 179.391 44.1489C179.669 44.1489 179.906 44.2469 180.102 44.4428C180.298 44.6342 180.396 44.8689 180.396 45.1469C180.396 45.4249 180.298 45.6619 180.102 45.8579C179.91 46.0538 179.675 46.1518 179.397 46.1518C179.119 46.1518 178.882 46.0538 178.687 45.8579C178.491 45.6619 178.393 45.4226 178.393 45.1401ZM185.98 49.0434L184.709 49.7202C184.508 49.31 184.26 49.1049 183.964 49.1049C183.823 49.1049 183.702 49.1528 183.602 49.2485C183.501 49.3396 183.451 49.4581 183.451 49.604C183.451 49.8592 183.747 50.1121 184.34 50.3627C185.156 50.7137 185.705 51.0372 185.987 51.3335C186.27 51.6297 186.411 52.0284 186.411 52.5297C186.411 53.1723 186.174 53.7101 185.7 54.143C185.24 54.5532 184.684 54.7583 184.032 54.7583C182.916 54.7583 182.125 54.2137 181.66 53.1245L182.973 52.5161C183.155 52.8351 183.294 53.0379 183.39 53.1245C183.576 53.2976 183.8 53.3842 184.06 53.3842C184.579 53.3842 184.839 53.1473 184.839 52.6733C184.839 52.3999 184.638 52.1446 184.237 51.9077C184.082 51.8302 183.927 51.755 183.772 51.6821C183.618 51.6092 183.46 51.534 183.301 51.4565C182.854 51.2377 182.54 51.019 182.357 50.8002C182.125 50.5223 182.009 50.1645 182.009 49.727C182.009 49.1482 182.207 48.6697 182.604 48.2915C183.009 47.9132 183.501 47.7241 184.08 47.7241C184.932 47.7241 185.566 48.1639 185.98 49.0434ZM189.337 47.9086V54.5669H187.799V47.9086H189.337ZM187.566 45.1401C187.566 44.8712 187.664 44.6388 187.86 44.4428C188.056 44.2469 188.291 44.1489 188.564 44.1489C188.842 44.1489 189.079 44.2469 189.275 44.4428C189.471 44.6342 189.569 44.8689 189.569 45.1469C189.569 45.4249 189.471 45.6619 189.275 45.8579C189.084 46.0538 188.849 46.1518 188.571 46.1518C188.293 46.1518 188.056 46.0538 187.86 45.8579C187.664 45.6619 187.566 45.4226 187.566 45.1401ZM190.971 51.1899C190.971 50.2283 191.315 49.4103 192.003 48.7358C192.691 48.0613 193.53 47.7241 194.519 47.7241C195.512 47.7241 196.355 48.0636 197.048 48.7426C197.731 49.4217 198.073 50.2557 198.073 51.2446C198.073 52.2426 197.729 53.0789 197.041 53.7534C196.348 54.4233 195.498 54.7583 194.491 54.7583C193.493 54.7583 192.657 54.4165 191.982 53.7329C191.308 53.0584 190.971 52.2107 190.971 51.1899ZM192.543 51.2172C192.543 51.8826 192.721 52.409 193.076 52.7963C193.441 53.1883 193.922 53.3842 194.519 53.3842C195.12 53.3842 195.601 53.1905 195.961 52.8032C196.321 52.4158 196.501 51.8986 196.501 51.2514C196.501 50.6043 196.321 50.087 195.961 49.6997C195.596 49.3077 195.116 49.1118 194.519 49.1118C193.931 49.1118 193.454 49.3077 193.09 49.6997C192.725 50.0916 192.543 50.5974 192.543 51.2172ZM199.707 47.9086H201.252V48.5239C201.79 47.9907 202.396 47.7241 203.07 47.7241C203.845 47.7241 204.449 47.9679 204.882 48.4555C205.256 48.8702 205.442 49.547 205.442 50.4858V54.5669H203.897V50.8481C203.897 50.1919 203.806 49.7384 203.624 49.4877C203.446 49.2325 203.123 49.1049 202.653 49.1049C202.143 49.1049 201.781 49.2736 201.566 49.6108C201.357 49.9435 201.252 50.5245 201.252 51.354V54.5669H199.707V47.9086Z" fill="#1A244E"/>
<path opacity="0.7" d="M0 51.1416H24.1289" stroke="#1A244E"/>
</g>
<defs>
<linearGradient id="paint0_linear" x1="0.95038" y1="13.2316" x2="34.4096" y2="13.5892" gradientUnits="userSpaceOnUse">
<stop stop-color="#77C4DD"/>
<stop offset="1" stop-color="#74DAC8"/>
</linearGradient>
<linearGradient id="paint1_linear" x1="0.950378" y1="13.2314" x2="34.4096" y2="13.589" gradientUnits="userSpaceOnUse">
<stop stop-color="#77C4DD"/>
<stop offset="1" stop-color="#74DAC8"/>
</linearGradient>
<linearGradient id="paint2_linear" x1="0.95038" y1="13.2317" x2="34.4096" y2="13.5893" gradientUnits="userSpaceOnUse">
<stop stop-color="#77C4DD"/>
<stop offset="1" stop-color="#74DAC8"/>
</linearGradient>
<linearGradient id="paint3_linear" x1="0.95038" y1="13.2315" x2="34.4096" y2="13.5891" gradientUnits="userSpaceOnUse">
<stop stop-color="#77C4DD"/>
<stop offset="1" stop-color="#74DAC8"/>
</linearGradient>
<clipPath id="clip0">
<rect width="207" height="59" fill="white"/>
</clipPath>
</defs>
</svg>
