<svg width="112" height="36" viewBox="0 0 112 36" fill="none" xmlns="http://www.w3.org/2000/svg">
<g clip-path="url(#clip0)">
<path d="M0.574166 14.1402C-0.0555325 14.7699 -0.0555326 15.7908 0.574166 16.4205L2.72254 18.5689C3.0783 18.9246 3.0783 19.5015 2.72254 19.8572L0.400237 22.1795C-0.133412 22.7132 -0.133413 23.5784 0.400237 24.112L0.759826 24.4716C1.29348 25.0053 2.15869 25.0053 2.69234 24.4716L6.98463 20.1793C7.03005 20.1339 7.07161 20.0861 7.10929 20.0363C7.1473 19.986 7.18625 19.9363 7.23079 19.8918L7.59638 19.5262C7.77426 19.3483 7.77426 19.0599 7.59637 18.882L7.1742 18.4599C7.14075 18.4264 7.11043 18.39 7.08062 18.3533C7.05081 18.3165 7.01882 18.281 6.98463 18.2468L6.62504 17.8872C6.59086 17.853 6.55531 17.821 6.51858 17.7912C6.48185 17.7614 6.44546 17.7311 6.412 17.6977L2.85451 14.1402C2.22481 13.5105 1.20387 13.5105 0.574166 14.1402Z" fill="url(#paint0_linear)"/>
<path d="M32.6153 8.56895C33.245 9.19865 33.245 10.2196 32.6153 10.8493L30.4669 12.9976C30.1112 13.3534 30.1112 13.9302 30.4669 14.286L32.7892 16.6083C33.3229 17.1419 33.3229 18.0071 32.7892 18.5408L32.4296 18.9004C31.896 19.434 31.0308 19.434 30.4971 18.9004L26.2048 14.6081C26.1594 14.5627 26.1179 14.5149 26.0802 14.4651C26.0422 14.4149 26.0033 14.3652 25.9587 14.3206L25.5931 13.955C25.4152 13.7771 25.4152 13.4887 25.5931 13.3108L26.0151 12.8888C26.0486 12.8553 26.0789 12.8189 26.1088 12.7821C26.1386 12.7453 26.1706 12.7098 26.2048 12.6756L26.5644 12.316C26.5986 12.2818 26.6342 12.2497 26.6709 12.2199C26.7077 12.1901 26.7441 12.1597 26.7776 12.1263L30.3349 8.56895C30.9646 7.93925 31.9856 7.93925 32.6153 8.56895Z" fill="url(#paint1_linear)"/>
<path fill-rule="evenodd" clip-rule="evenodd" d="M5.46593 8.0269C4.11626 9.37657 4.11626 11.5648 5.46593 12.9145L9.76876 17.2173C10.698 18.1466 10.698 19.6532 9.76876 20.5824L5.47854 24.8727C4.1219 26.2293 4.1219 28.4288 5.47854 29.7855C6.83517 31.1421 9.03471 31.1421 10.3913 29.7855L18.8205 21.3563C18.9251 21.2518 19.0215 21.1423 19.1099 21.0285C19.2025 20.9093 19.2969 20.7912 19.4037 20.6845L20.3661 19.722C20.8307 19.2574 20.8307 18.5041 20.3661 18.0395L19.2691 16.9424C19.1888 16.8622 19.1155 16.7754 19.0431 16.688C18.9735 16.6038 18.8993 16.5222 18.8205 16.4435C18.7418 16.3647 18.6602 16.2905 18.576 16.2209C18.4886 16.1485 18.4018 16.0752 18.3216 15.9949L10.3535 8.0269C9.00385 6.67723 6.8156 6.67723 5.46593 8.0269Z" fill="url(#paint2_linear)"/>
<path d="M28.1403 7.16865C29.568 5.74096 29.568 3.4262 28.1403 1.99851C26.7126 0.57081 24.3978 0.570809 22.9701 1.99851L14.9094 10.0592L19.5836 14.7333C19.5994 14.7491 19.6294 14.7764 19.7139 14.8464C19.8411 14.9516 19.9641 15.0635 20.0825 15.1819C20.2009 15.3003 20.3128 15.4233 20.418 15.5504C20.488 15.635 20.5152 15.665 20.531 15.6808L21.6281 16.7779C22.7897 17.9394 22.7897 19.8227 21.6281 20.9843L20.6656 21.9467C20.6446 21.9678 20.609 22.0083 20.519 22.124C20.4496 22.2133 20.3771 22.3007 20.3014 22.3861L23.3379 25.4226C24.5478 26.6325 26.5095 26.6325 27.7194 25.4226L28.5347 24.6073C29.7446 23.3974 29.7446 21.4357 28.5347 20.2258L23.2694 14.9605C22.4628 14.1539 22.4628 12.8461 23.2694 12.0395L28.1403 7.16865Z" fill="url(#paint3_linear)"/>
<path d="M52.9788 20.4876L51.2972 22.2711V26.898H48.7188V12.0594H51.2972V19.0201L52.724 17.257L57.0655 12.0594H60.184L54.6705 18.6328L60.5 26.898H57.4426L52.9788 20.4876ZM68.2352 26.898C68.1265 26.6874 68.0314 26.3443 67.9498 25.8687C67.1617 26.6908 66.1969 27.1018 65.0555 27.1018C63.948 27.1018 63.0444 26.7859 62.3446 26.154C61.6448 25.5222 61.2949 24.7408 61.2949 23.81C61.2949 22.6346 61.7297 21.7344 62.5994 21.1093C63.4758 20.4774 64.726 20.1615 66.3498 20.1615H67.8683V19.4379C67.8683 18.8672 67.7086 18.412 67.3893 18.0723C67.07 17.7258 66.5842 17.5525 65.932 17.5525C65.368 17.5525 64.906 17.6952 64.5459 17.9806C64.1858 18.2591 64.0058 18.6158 64.0058 19.0507H61.5293C61.5293 18.446 61.7297 17.882 62.1306 17.3589C62.5314 16.8289 63.075 16.4145 63.7612 16.1155C64.4542 15.8166 65.2254 15.6671 66.0746 15.6671C67.3655 15.6671 68.3949 15.9933 69.1626 16.6455C69.9304 17.291 70.3244 18.2014 70.3448 19.3768V24.3502C70.3448 25.3421 70.4841 26.1336 70.7627 26.7247V26.898H68.2352ZM65.5141 25.1145C66.0033 25.1145 66.4619 24.9956 66.8899 24.7578C67.3248 24.52 67.6509 24.2007 67.8683 23.7998V21.7208H66.5332C65.616 21.7208 64.9264 21.8805 64.4644 22.1998C64.0024 22.5191 63.7714 22.9709 63.7714 23.5552C63.7714 24.0308 63.9277 24.4113 64.2402 24.6967C64.5595 24.9752 64.9842 25.1145 65.5141 25.1145ZM72.4748 21.2826C72.4748 20.2023 72.6888 19.2307 73.1169 18.3678C73.5449 17.4982 74.1462 16.8323 74.9207 16.3703C75.6953 15.9015 76.5853 15.6671 77.5909 15.6671C79.0788 15.6671 80.2848 16.1461 81.2088 17.1041C82.1396 18.0621 82.6424 19.3326 82.7171 20.9157L82.7273 21.4966C82.7273 22.5837 82.5167 23.5552 82.0954 24.4113C81.681 25.2674 81.0831 25.9298 80.3018 26.3986C79.5272 26.8674 78.6304 27.1018 77.6112 27.1018C76.0554 27.1018 74.8086 26.5855 73.871 25.5527C72.9402 24.5132 72.4748 23.1306 72.4748 21.4049V21.2826ZM74.9513 21.4966C74.9513 22.6312 75.1857 23.5213 75.6545 24.1667C76.1233 24.8054 76.7755 25.1247 77.6112 25.1247C78.4469 25.1247 79.0958 24.7986 79.5578 24.1463C80.0266 23.4941 80.261 22.5395 80.261 21.2826C80.261 20.1683 80.0198 19.2851 79.5374 18.6328C79.0618 17.9806 78.413 17.6544 77.5909 17.6544C76.7823 17.6544 76.1403 17.9772 75.6647 18.6226C75.1891 19.2613 74.9513 20.2193 74.9513 21.4966ZM91.0027 23.9017C91.0027 23.4601 90.8192 23.1238 90.4523 22.8928C90.0922 22.6618 89.4909 22.458 88.6485 22.2813C87.806 22.1047 87.1028 21.8805 86.5389 21.6087C85.3023 21.0108 84.684 20.1445 84.684 19.0099C84.684 18.0587 85.0849 17.2638 85.8866 16.6251C86.6883 15.9865 87.7075 15.6671 88.944 15.6671C90.2621 15.6671 91.3254 15.9933 92.1339 16.6455C92.9492 17.2977 93.3569 18.1436 93.3569 19.1831H90.8804C90.8804 18.7075 90.7037 18.3135 90.3504 18.0009C89.9971 17.6816 89.5283 17.522 88.944 17.522C88.4005 17.522 87.9555 17.6476 87.6089 17.899C87.2692 18.1504 87.0994 18.4867 87.0994 18.908C87.0994 19.2885 87.259 19.584 87.5784 19.7946C87.8977 20.0052 88.5432 20.2193 89.5147 20.4367C90.4863 20.6473 91.2473 20.9021 91.7976 21.201C92.3547 21.4932 92.7658 21.8465 93.0307 22.2609C93.3025 22.6754 93.4384 23.1782 93.4384 23.7692C93.4384 24.7612 93.0273 25.5663 92.2052 26.1846C91.3831 26.7961 90.3063 27.1018 88.9746 27.1018C88.071 27.1018 87.2658 26.9388 86.5592 26.6126C85.8526 26.2865 85.3023 25.8381 84.9082 25.2674C84.5142 24.6967 84.3171 24.0818 84.3171 23.4227H86.7223C86.7563 24.007 86.9771 24.4589 87.3847 24.7782C87.7924 25.0907 88.3325 25.247 89.0052 25.247C89.6574 25.247 90.1534 25.1247 90.4931 24.8801C90.8328 24.6287 91.0027 24.3026 91.0027 23.9017ZM98.0449 17.0735C98.8534 16.1359 99.8759 15.6671 101.112 15.6671C103.463 15.6671 104.656 17.009 104.69 19.6927V26.898H102.213V19.7844C102.213 19.0235 102.047 18.4867 101.714 18.1742C101.388 17.8549 100.905 17.6952 100.267 17.6952C99.2746 17.6952 98.5341 18.1368 98.0449 19.0201V26.898H95.5684V11.2441H98.0449V17.0735ZM109.836 26.898H107.36V15.871H109.836V26.898ZM107.207 13.0072C107.207 12.6267 107.326 12.3108 107.564 12.0594C107.808 11.808 108.155 11.6823 108.603 11.6823C109.052 11.6823 109.398 11.808 109.643 12.0594C109.887 12.3108 110.01 12.6267 110.01 13.0072C110.01 13.3809 109.887 13.6934 109.643 13.9448C109.398 14.1894 109.052 14.3117 108.603 14.3117C108.155 14.3117 107.808 14.1894 107.564 13.9448C107.326 13.6934 107.207 13.3809 107.207 13.0072Z" fill="#1A244E"/>
</g>
<defs>
<linearGradient id="paint0_linear" x1="0.95038" y1="13.2311" x2="34.4096" y2="13.5887" gradientUnits="userSpaceOnUse">
<stop stop-color="#77C4DD"/>
<stop offset="1" stop-color="#74DAC8"/>
</linearGradient>
<linearGradient id="paint1_linear" x1="0.950374" y1="13.2314" x2="34.4096" y2="13.589" gradientUnits="userSpaceOnUse">
<stop stop-color="#77C4DD"/>
<stop offset="1" stop-color="#74DAC8"/>
</linearGradient>
<linearGradient id="paint2_linear" x1="0.950376" y1="13.2312" x2="34.4096" y2="13.5888" gradientUnits="userSpaceOnUse">
<stop stop-color="#77C4DD"/>
<stop offset="1" stop-color="#74DAC8"/>
</linearGradient>
<linearGradient id="paint3_linear" x1="0.950373" y1="13.2315" x2="34.4096" y2="13.5891" gradientUnits="userSpaceOnUse">
<stop stop-color="#77C4DD"/>
<stop offset="1" stop-color="#74DAC8"/>
</linearGradient>
<clipPath id="clip0">
<rect width="112" height="36" fill="white"/>
</clipPath>
</defs>
</svg>
