<svg width="56" height="55" viewBox="0 0 56 55" fill="none" xmlns="http://www.w3.org/2000/svg">
<path opacity="0.99" d="M32.2971 2.77783L11.7967 18.03H15.3441L16.5275 17.1659V34.5666C17.2177 34.5451 18.0671 34.6146 19.0695 34.7169V15.3097L32.2971 5.6508L45.5247 15.3097V35.5683C46.5049 35.2018 47.3782 34.8815 48.0667 34.639V17.1659L49.2502 18.03H52.7976L32.2971 2.77783ZM41.1081 5.76433V8.02961L45.9141 11.6052V5.76433H41.1081ZM31.7819 12.891V15.7214C30.6589 15.9704 29.701 16.5208 28.9083 17.3725C28.1288 18.2111 27.7391 19.2136 27.7391 20.3798C27.7391 21.1923 28.0033 21.9522 28.5318 22.6598C29.0603 23.3543 29.8001 23.9374 30.7513 24.4091C30.9891 24.5271 31.3392 24.6975 31.8016 24.9203C32.2772 25.1299 32.6208 25.2936 32.8322 25.4115C33.0435 25.5164 33.2813 25.6606 33.5456 25.844C33.823 26.0144 34.0146 26.1978 34.1203 26.3943C34.2392 26.5778 34.2986 26.7809 34.2986 27.0037C34.2986 28.0258 33.5456 28.5368 32.0395 28.5368C31.511 28.5368 30.9032 28.373 30.2162 28.0454C29.5292 27.7178 29.0536 27.4557 28.7894 27.2592C28.5252 27.0626 28.3138 26.8988 28.1553 26.7678L26.3519 29.7555L26.5699 29.952C26.7284 30.083 26.9662 30.2468 27.2833 30.4434C27.6136 30.6268 27.9836 30.8169 28.3931 31.0134C28.8027 31.21 29.3113 31.3869 29.919 31.5441C30.5267 31.6883 31.1477 31.7799 31.7819 31.8192V34.5317H33.9221V31.6817C35.2301 31.4589 36.2739 30.9479 37.0534 30.1486C37.8461 29.3492 38.2423 28.2289 38.2423 26.7875C38.2423 25.844 37.879 25.0054 37.1524 24.2716C36.4258 23.5247 35.5538 22.935 34.5365 22.5026C34.51 22.4895 34.4836 22.483 34.4572 22.483C34.444 22.4699 34.4242 22.4567 34.3978 22.4436C33.8033 22.1947 33.3804 22.0177 33.1294 21.9129C32.8784 21.795 32.568 21.6377 32.198 21.4411C31.8413 21.2315 31.5903 21.0349 31.445 20.8515C31.3129 20.6549 31.2468 20.4518 31.2468 20.2421C31.2468 19.7966 31.4054 19.456 31.7225 19.2201C32.0395 18.9712 32.5085 18.8467 33.1294 18.8467C33.605 18.8467 34.1269 18.9449 34.695 19.1415C35.2631 19.3381 35.6463 19.4953 35.8445 19.6132C36.0559 19.7311 36.2209 19.8294 36.3398 19.908L37.7865 17.0777L37.3307 16.8025C37.0269 16.6059 36.5513 16.3897 35.9039 16.1538C35.2697 15.9179 34.6091 15.7542 33.9221 15.6625V12.891H31.7819ZM49.8557 35.6218C49.8219 35.6222 49.7894 35.6241 49.7585 35.6275C48.7682 35.7364 34.3214 41.4269 34.3214 41.4269C34.3214 41.4269 33.365 44.2764 33.3839 44.4858C33.4028 44.6951 31.616 46.1197 31.3019 45.7043C30.9879 45.2889 23.1944 44.7552 22.8151 44.3244C22.4359 43.8937 31.1082 44.4974 31.5579 44.0566C32.0076 43.6157 33.0824 41.1358 32.7529 40.785C32.4234 40.4343 26.0547 36.8195 22.2789 36.4786C18.5031 36.1377 16.0746 35.6354 15.0447 36.4864C14.0149 37.3374 2.79999 42.7627 2.79999 42.7627L7.60127 49.7665C7.60127 49.7665 11.3773 47.5115 13.3184 48.036C15.2595 48.5605 29.7357 53.1243 30.7878 52.7568C31.8399 52.3892 53.1084 38.3278 53.1977 37.6657C53.2843 37.0241 50.9049 35.6107 49.8557 35.6218Z" fill="#76CBD7"/>
<path d="M32 36C38.6274 36 44 30.6274 44 24C44 17.3726 38.6274 12 32 12C25.3726 12 20 17.3726 20 24C20 30.6274 25.3726 36 32 36Z" fill="#F3F7FC"/>
</svg>
