<svg width="66" height="66" viewBox="0 0 66 66" fill="none" xmlns="http://www.w3.org/2000/svg">
<path d="M10.2893 5.68457H55.7673C58.2688 5.68457 60.3151 7.73086 60.3151 10.2324V55.7104C60.3151 58.2119 58.2688 60.2582 55.7673 60.2582H10.2893C7.78829 60.2582 5.74145 58.2119 5.74145 55.7104V10.2324C5.74145 7.73086 7.78829 5.68457 10.2893 5.68457Z" fill="#E9E9E9"/>
<path d="M45.5347 22.739C45.5347 35.2977 35.3544 45.478 22.7957 45.478C10.2376 45.478 0.0567017 35.2977 0.0567017 22.739C0.0567017 10.1804 10.2376 0 22.7957 0C35.3544 0 45.5347 10.1804 45.5347 22.739Z" fill="#239172"/>
<path d="M40.987 22.7391C40.987 32.7856 32.8424 40.9303 22.7958 40.9303C12.7492 40.9303 4.60455 32.7856 4.60455 22.7391C4.60455 12.6925 12.7492 4.54785 22.7958 4.54785C32.8424 4.54785 40.987 12.6925 40.987 22.7391Z" fill="#2AB793"/>
<path d="M10.2892 22.739C16.6563 29.6746 27.3435 30.1292 34.279 23.7622C34.6199 23.4213 34.9613 23.0799 35.3022 22.739C28.9351 15.8035 18.2479 15.3489 11.3124 21.7159C10.9715 22.0568 10.6307 22.3982 10.2892 22.739Z" fill="#E9E9E9"/>
<path d="M46.6718 10.2324H56.9043V12.5063H46.6718V10.2324Z" fill="#C4C4C4"/>
<path d="M48.9456 15.917H56.9043V18.1909H48.9456V15.917Z" fill="#C4C4C4"/>
<path d="M48.9456 21.6021H56.9043V23.876H48.9456V21.6021Z" fill="#C4C4C4"/>
<path d="M48.9456 27.2866H56.9043V29.5605H48.9456V27.2866Z" fill="#C4C4C4"/>
<path d="M48.9456 32.9712H56.9043V35.2451H48.9456V32.9712Z" fill="#C4C4C4"/>
<path d="M50.0826 38.6562H56.9043V40.9301H50.0826V38.6562Z" fill="#C4C4C4"/>
<path d="M9.15234 48.8887H39.85V51.1626H9.15234V48.8887Z" fill="#C4C4C4"/>
<path d="M9.15234 53.4365H44.3978V55.7104H9.15234V53.4365Z" fill="#C4C4C4"/>
<path d="M14.8371 31.8345H30.7544V34.1084H14.8371V31.8345Z" fill="#239172"/>
<path d="M14.8371 11.3696H30.7544V13.6435H14.8371V11.3696Z" fill="#239172"/>
<path d="M40.9869 36.3823L50.0825 46.6149H51.4471C52.0156 46.6149 52.584 46.8425 53.0387 47.2972L64.8629 59.1213C65.659 59.9174 65.9998 60.9406 65.9998 61.9637C65.9998 64.2376 64.1806 65.943 62.0205 65.943C60.9974 65.943 59.9742 65.4884 59.1781 64.8061L47.3539 52.9819C46.8993 52.5272 46.6717 51.9588 46.6717 51.3903V50.0257L37.576 39.7932" fill="#3F3F3F"/>
<path d="M26.2066 22.739C26.2066 24.6226 24.6794 26.1498 22.7958 26.1498C20.9121 26.1498 19.3849 24.6226 19.3849 22.739C19.3849 20.8553 20.9121 19.3281 22.7958 19.3281C24.6794 19.3281 26.2066 20.8553 26.2066 22.739Z" fill="#4A4A56"/>
<path d="M65.9999 61.9636C65.9999 60.9404 65.5452 59.9173 64.863 59.1212L53.0388 47.297C52.5841 46.8424 52.0156 46.6147 51.4472 46.6147H50.0826L46.6718 50.0256V51.3902C46.6718 51.9586 46.8994 52.5271 47.354 52.9818L59.1782 64.806C60.7698 66.3976 63.2713 66.3976 64.863 64.806C65.5452 64.0099 65.9999 62.9867 65.9999 61.9636Z" fill="#2B2B2B"/>
</svg>
