<svg width="56" height="24" viewBox="0 0 56 24" fill="none" xmlns="http://www.w3.org/2000/svg">
<path d="M38 12C38 12.3956 37.8827 12.7822 37.6629 13.1111C37.4432 13.44 37.1308 13.6964 36.7654 13.8478C36.3999 13.9991 35.9978 14.0387 35.6098 13.9616C35.2219 13.8844 34.8655 13.6939 34.5858 13.4142C34.3061 13.1345 34.1156 12.7781 34.0384 12.3902C33.9613 12.0022 34.0009 11.6001 34.1522 11.2346C34.3036 10.8692 34.56 10.5568 34.8889 10.3371C35.2178 10.1173 35.6044 10 36 10C36.5302 10.0007 37.0385 10.2117 37.4134 10.5866C37.7883 10.9615 37.9993 11.4698 38 12ZM50 7.8291V16.1709C49.5785 16.3209 49.1956 16.5629 48.8793 16.8793C48.5629 17.1956 48.3209 17.5785 48.1709 18H23.8291C23.6791 17.5785 23.4371 17.1956 23.1207 16.8793C22.8044 16.5629 22.4215 16.3209 22 16.1709V7.8291C22.4215 7.67908 22.8044 7.4371 23.1207 7.12073C23.4371 6.80436 23.6791 6.42152 23.8291 6H48.1709C48.3209 6.42152 48.5629 6.80436 48.8793 7.12073C49.1956 7.4371 49.5785 7.67908 50 7.8291ZM28 12C28 11.7348 27.8946 11.4804 27.7071 11.2929C27.5196 11.1054 27.2652 11 27 11H25C24.7348 11 24.4804 11.1054 24.2929 11.2929C24.1054 11.4804 24 11.7348 24 12C24 12.2652 24.1054 12.5196 24.2929 12.7071C24.4804 12.8946 24.7348 13 25 13H27C27.2652 13 27.5196 12.8946 27.7071 12.7071C27.8946 12.5196 28 12.2652 28 12ZM40 12C40 11.2089 39.7654 10.4355 39.3259 9.77772C38.8864 9.11992 38.2616 8.60723 37.5307 8.30448C36.7998 8.00173 35.9956 7.92252 35.2196 8.07686C34.4437 8.2312 33.731 8.61216 33.1716 9.17157C32.6122 9.73098 32.2312 10.4437 32.0769 11.2196C31.9225 11.9956 32.0017 12.7998 32.3045 13.5307C32.6072 14.2616 33.1199 14.8864 33.7777 15.3259C34.4355 15.7654 35.2089 16 36 16C37.0605 15.999 38.0774 15.5772 38.8273 14.8273C39.5772 14.0774 39.999 13.0605 40 12ZM48 12C48 11.7348 47.8946 11.4804 47.7071 11.2929C47.5196 11.1054 47.2652 11 47 11H45C44.7348 11 44.4804 11.1054 44.2929 11.2929C44.1054 11.4804 44 11.7348 44 12C44 12.2652 44.1054 12.5196 44.2929 12.7071C44.4804 12.8946 44.7348 13 45 13H47C47.2652 13 47.5196 12.8946 47.7071 12.7071C47.8946 12.5196 48 12.2652 48 12ZM56 1V23C56 23.2652 55.8946 23.5196 55.7071 23.7071C55.5196 23.8946 55.2652 24 55 24H17C16.7348 24 16.4804 23.8946 16.2929 23.7071C16.1054 23.5196 16 23.2652 16 23V1C16 0.734784 16.1054 0.480429 16.2929 0.292892C16.4804 0.105356 16.7348 0 17 0H55C55.2652 0 55.5196 0.105356 55.7071 0.292892C55.8946 0.480429 56 0.734784 56 1ZM52 7C52 6.73478 51.8946 6.48043 51.7071 6.29289C51.5196 6.10536 51.2652 6 51 6C50.7348 5.99984 50.4806 5.89443 50.2931 5.70693C50.1056 5.51943 50.0002 5.26517 50 5C50 4.73478 49.8946 4.48043 49.7071 4.29289C49.5196 4.10536 49.2652 4 49 4H23C22.7348 4 22.4804 4.10536 22.2929 4.29289C22.1054 4.48043 22 4.73478 22 5C21.9998 5.26517 21.8944 5.51943 21.7069 5.70693C21.5194 5.89443 21.2652 5.99984 21 6C20.7348 6 20.4804 6.10536 20.2929 6.29289C20.1054 6.48043 20 6.73478 20 7V17C20 17.2652 20.1054 17.5196 20.2929 17.7071C20.4804 17.8946 20.7348 18 21 18C21.2652 18.0002 21.5194 18.1056 21.7069 18.2931C21.8944 18.4806 21.9998 18.7348 22 19C22 19.2652 22.1054 19.5196 22.2929 19.7071C22.4804 19.8946 22.7348 20 23 20H49C49.2652 20 49.5196 19.8946 49.7071 19.7071C49.8946 19.5196 50 19.2652 50 19C50.0002 18.7348 50.1056 18.4806 50.2931 18.2931C50.4806 18.1056 50.7348 18.0002 51 18C51.2652 18 51.5196 17.8946 51.7071 17.7071C51.8946 17.5196 52 17.2652 52 17V7ZM13 20H9C8.73478 20 8.48043 20.1054 8.29289 20.2929C8.10536 20.4804 8 20.7348 8 21C8 21.2652 8.10536 21.5196 8.29289 21.7071C8.48043 21.8946 8.73478 22 9 22H13C13.2652 22 13.5196 21.8946 13.7071 21.7071C13.8946 21.5196 14 21.2652 14 21C14 20.7348 13.8946 20.4804 13.7071 20.2929C13.5196 20.1054 13.2652 20 13 20ZM13 14H5C4.73478 14 4.48043 14.1054 4.29289 14.2929C4.10536 14.4804 4 14.7348 4 15C4 15.2652 4.10536 15.5196 4.29289 15.7071C4.48043 15.8946 4.73478 16 5 16H13C13.2652 16 13.5196 15.8946 13.7071 15.7071C13.8946 15.5196 14 15.2652 14 15C14 14.7348 13.8946 14.4804 13.7071 14.2929C13.5196 14.1054 13.2652 14 13 14ZM13 2H7C6.73478 2 6.48043 2.10536 6.29289 2.29289C6.10536 2.48043 6 2.73478 6 3C6 3.26522 6.10536 3.51957 6.29289 3.70711C6.48043 3.89464 6.73478 4 7 4H13C13.2652 4 13.5196 3.89464 13.7071 3.70711C13.8946 3.51957 14 3.26522 14 3C14 2.73478 13.8946 2.48043 13.7071 2.29289C13.5196 2.10536 13.2652 2 13 2ZM13 8H1C0.734784 8 0.48043 8.10536 0.292893 8.29289C0.105357 8.48043 0 8.73478 0 9C0 9.26522 0.105357 9.51957 0.292893 9.70711C0.48043 9.89464 0.734784 10 1 10H13C13.2652 10 13.5196 9.89464 13.7071 9.70711C13.8946 9.51957 14 9.26522 14 9C14 8.73478 13.8946 8.48043 13.7071 8.29289C13.5196 8.10536 13.2652 8 13 8Z" fill="#76CBD7"/>
</svg>
