<svg width="52" height="40" viewBox="0 0 52 40" fill="none" xmlns="http://www.w3.org/2000/svg">
<path d="M34 34.3518C34.5192 34.3518 35.0267 34.5027 35.4584 34.7855C35.8901 35.0683 36.2265 35.4703 36.4252 35.9405C36.6239 36.4108 36.6759 36.9282 36.5746 37.4275C36.4733 37.9267 36.2233 38.3852 35.8562 38.7452C35.489 39.1051 35.0213 39.3502 34.5121 39.4495C34.0029 39.5488 33.4751 39.4978 32.9955 39.303C32.5158 39.1083 32.1058 38.7784 31.8174 38.3552C31.529 37.932 31.375 37.4344 31.375 36.9254C31.3758 36.2431 31.6526 35.5889 32.1447 35.1065C32.6369 34.624 33.3041 34.3526 34 34.3518V34.3518ZM6.87501 36.9254C6.87501 37.4344 7.02896 37.932 7.3174 38.3552C7.60584 38.7784 8.01581 39.1083 8.49546 39.303C8.97512 39.4978 9.50292 39.5488 10.0121 39.4495C10.5213 39.3502 10.989 39.1051 11.3562 38.7452C11.7233 38.3852 11.9733 37.9267 12.0746 37.4275C12.1759 36.9282 12.1239 36.4108 11.9252 35.9405C11.7265 35.4703 11.3901 35.0683 10.9584 34.7855C10.5267 34.5027 10.0192 34.3518 9.50001 34.3518C8.80406 34.3526 8.13685 34.624 7.64475 35.1065C7.15264 35.5889 6.87582 36.2431 6.87501 36.9254ZM51.5 0.895453C51.4997 1.12289 51.4075 1.34094 51.2434 1.50177C51.0794 1.66259 50.857 1.75305 50.625 1.75331H44.3593L42.75 9.64225L39.427 25.9319C40.2244 26.1782 40.9055 26.6962 41.3472 27.3922C41.7888 28.0882 41.9616 28.9163 41.8345 29.7264C41.7074 30.5366 41.2887 31.2754 40.6541 31.8091C40.0195 32.3428 39.2111 32.6361 38.375 32.6361H37.5V34.3518H6.00001V30.9204H38.375C38.8391 30.9204 39.2843 30.7396 39.6124 30.4179C39.9406 30.0961 40.125 29.6597 40.125 29.2047C40.125 28.7496 39.9406 28.3132 39.6124 27.9915C39.2843 27.6697 38.8391 27.489 38.375 27.489H5.14196C4.93969 27.489 4.74368 27.4202 4.58726 27.2945C4.43085 27.1688 4.32369 26.9938 4.28402 26.7994L0.784022 9.64225C0.758633 9.5178 0.761727 9.38938 0.793079 9.26624C0.824432 9.1431 0.883263 9.02832 0.96533 8.93016C1.0474 8.83201 1.15066 8.75293 1.26766 8.69863C1.38467 8.64433 1.51251 8.61616 1.64196 8.61615H41.175L42.75 0.893201C42.7509 0.666152 42.8434 0.44868 43.0074 0.288342C43.1714 0.128005 43.3934 0.0378512 43.625 0.0375977H50.625C50.857 0.0378531 51.0794 0.128316 51.2434 0.28914C51.4075 0.449964 51.4997 0.668014 51.5 0.895453V0.895453ZM39.4077 17.1947H34.5786L35.6286 10.3319H33.8589L32.8089 17.1947H26.6073L26.9573 10.3319H25.2052L24.8552 17.1947H18.6448L18.2949 10.3319H16.5427L16.8927 17.1947H10.6911L9.6411 10.3319H7.87141L8.92141 17.1947H4.10891L4.45891 18.9104H9.18391L10.2339 25.7733H12.0036L10.9536 18.9104H16.9802L17.3302 25.7733H19.0823L18.7324 18.9104H24.7677L24.4177 25.7733H26.1698L26.5198 18.9104H32.5464L31.4964 25.7733H33.2661L34.3161 18.9104H39.0576" fill="#1565D8"/>
</svg>
