<svg width="31" height="31" viewBox="0 0 31 31" fill="none" xmlns="http://www.w3.org/2000/svg">
<path d="M18.247 0.217104C19.1579 -0.24563 20.2712 0.05267 20.8287 0.90889L22.6034 3.63421C22.8853 4.06715 23.3238 4.3742 23.827 4.49104L26.995 5.22655C27.9903 5.45762 28.6513 6.40173 28.5281 7.41601L28.1357 10.6445C28.0734 11.1573 28.2119 11.6744 28.5223 12.0874L30.4763 14.6871C31.0902 15.5039 30.9898 16.6521 30.2434 17.3498L27.8676 19.5708C27.4902 19.9236 27.264 20.4087 27.2363 20.9246L27.0621 24.1721C27.0074 25.1924 26.1924 26.0074 25.1721 26.0621L21.9246 26.2364C21.4087 26.264 20.9235 26.4903 20.5707 26.8677L18.3498 29.2434C17.652 29.9898 16.5039 30.0903 15.6871 29.4764L13.0874 27.5224C12.6744 27.212 12.1573 27.0734 11.6444 27.1358L8.416 27.5281C7.40172 27.6514 6.45762 26.9903 6.22654 25.995L5.49104 22.8271C5.37419 22.3238 5.06715 21.8853 4.63421 21.6034L1.90888 19.8288C1.05267 19.2712 0.754371 18.158 1.2171 17.247L2.68998 14.3474C2.92396 13.8868 2.97061 13.3535 2.82018 12.8593L1.87318 9.74797C1.57566 8.77054 2.06274 7.72598 3.00277 7.32559L5.99485 6.05115C6.47017 5.8487 6.8487 5.47017 7.05115 4.99485L8.32559 2.00277C8.72598 1.06274 9.77054 0.57566 10.748 0.87318L13.8593 1.82018C14.3535 1.97061 14.8868 1.92396 15.3474 1.68998L18.247 0.217104Z" fill="url(#paint0_linear)"/>
<path d="M10.2764 14.914L14.2102 18.8476L21.2033 11.8545" stroke="white" stroke-width="3" stroke-linecap="round" stroke-linejoin="round"/>
<defs>
<linearGradient id="paint0_linear" x1="2.00643" y1="8.16126" x2="32.8482" y2="16.7441" gradientUnits="userSpaceOnUse">
<stop stop-color="#77C4DD"/>
<stop offset="1" stop-color="#74DAC8"/>
</linearGradient>
</defs>
</svg>
