<svg width="32" height="32" viewBox="0 0 32 32" fill="none" xmlns="http://www.w3.org/2000/svg">
<path d="M31.55 12.7991C31.55 5.92534 25.9778 0.353027 19.104 0.353027L13.155 0.353027C6.2812 0.353027 0.708895 5.92533 0.708895 12.7991V29.1942C0.708895 30.2987 1.60432 31.1942 2.70889 31.1942H19.104C25.9777 31.1942 31.55 25.6219 31.55 18.7481V12.7991Z" fill="#F2F2FF"/>
<path d="M10.8459 15.9596C10.8459 16.3596 10.8819 16.7236 10.9539 17.0516C11.0259 17.3796 11.1259 17.6636 11.2539 17.9036C11.3899 18.1436 11.5499 18.3316 11.7339 18.4676C11.9179 18.5956 12.1259 18.6596 12.3579 18.6596C12.5819 18.6596 12.7859 18.5956 12.9699 18.4676C13.1619 18.3316 13.3219 18.1436 13.4499 17.9036C13.5779 17.6636 13.6779 17.3796 13.7499 17.0516C13.8219 16.7236 13.8579 16.3596 13.8579 15.9596C13.8579 15.5676 13.8219 15.2076 13.7499 14.8796C13.6779 14.5436 13.5779 14.2596 13.4499 14.0276C13.3219 13.7876 13.1619 13.6036 12.9699 13.4756C12.7859 13.3396 12.5819 13.2716 12.3579 13.2716C12.1259 13.2716 11.9179 13.3396 11.7339 13.4756C11.5499 13.6036 11.3899 13.7876 11.2539 14.0276C11.1259 14.2596 11.0259 14.5436 10.9539 14.8796C10.8819 15.2076 10.8459 15.5676 10.8459 15.9596ZM8.51794 15.9596C8.51794 15.2396 8.60994 14.5876 8.79394 14.0036C8.98594 13.4116 9.24994 12.9076 9.58594 12.4916C9.92994 12.0756 10.3339 11.7556 10.7979 11.5316C11.2699 11.2996 11.7899 11.1836 12.3579 11.1836C12.9179 11.1836 13.4339 11.2996 13.9059 11.5316C14.3779 11.7556 14.7819 12.0756 15.1179 12.4916C15.4539 12.9076 15.7139 13.4116 15.8979 14.0036C16.0899 14.5876 16.1859 15.2396 16.1859 15.9596C16.1859 16.6796 16.0899 17.3356 15.8979 17.9276C15.7139 18.5116 15.4539 19.0156 15.1179 19.4396C14.7819 19.8556 14.3779 20.1796 13.9059 20.4116C13.4339 20.6356 12.9179 20.7476 12.3579 20.7476C11.7899 20.7476 11.2699 20.6356 10.7979 20.4116C10.3339 20.1796 9.92994 19.8556 9.58594 19.4396C9.24994 19.0156 8.98594 18.5116 8.79394 17.9276C8.60994 17.3356 8.51794 16.6796 8.51794 15.9596ZM19.0048 13.4396H17.6848V11.4476H21.3568V20.4956H19.0048V13.4396Z" fill="#4147D6"/>
</svg>
