<svg width="32" height="32" viewBox="0 0 32 32" fill="none" xmlns="http://www.w3.org/2000/svg">
<path d="M31.55 12.7991C31.55 5.92534 25.9778 0.353027 19.104 0.353027L13.155 0.353027C6.2812 0.353027 0.708895 5.92533 0.708895 12.7991V29.1942C0.708895 30.2987 1.60432 31.1942 2.70889 31.1942H19.104C25.9777 31.1942 31.55 25.6219 31.55 18.7481V12.7991Z" fill="#F2F2FF"/>
<path d="M10.5412 15.9596C10.5412 16.3596 10.5772 16.7236 10.6492 17.0516C10.7212 17.3796 10.8212 17.6636 10.9492 17.9036C11.0852 18.1436 11.2452 18.3316 11.4292 18.4676C11.6132 18.5956 11.8212 18.6596 12.0532 18.6596C12.2772 18.6596 12.4812 18.5956 12.6652 18.4676C12.8572 18.3316 13.0172 18.1436 13.1452 17.9036C13.2732 17.6636 13.3732 17.3796 13.4452 17.0516C13.5172 16.7236 13.5532 16.3596 13.5532 15.9596C13.5532 15.5676 13.5172 15.2076 13.4452 14.8796C13.3732 14.5436 13.2732 14.2596 13.1452 14.0276C13.0172 13.7876 12.8572 13.6036 12.6652 13.4756C12.4812 13.3396 12.2772 13.2716 12.0532 13.2716C11.8212 13.2716 11.6132 13.3396 11.4292 13.4756C11.2452 13.6036 11.0852 13.7876 10.9492 14.0276C10.8212 14.2596 10.7212 14.5436 10.6492 14.8796C10.5772 15.2076 10.5412 15.5676 10.5412 15.9596ZM8.21325 15.9596C8.21325 15.2396 8.30525 14.5876 8.48925 14.0036C8.68125 13.4116 8.94525 12.9076 9.28125 12.4916C9.62525 12.0756 10.0292 11.7556 10.4932 11.5316C10.9652 11.2996 11.4852 11.1836 12.0532 11.1836C12.6132 11.1836 13.1292 11.2996 13.6012 11.5316C14.0732 11.7556 14.4772 12.0756 14.8132 12.4916C15.1492 12.9076 15.4092 13.4116 15.5932 14.0036C15.7852 14.5876 15.8812 15.2396 15.8812 15.9596C15.8812 16.6796 15.7852 17.3356 15.5932 17.9276C15.4092 18.5116 15.1492 19.0156 14.8132 19.4396C14.4772 19.8556 14.0732 20.1796 13.6012 20.4116C13.1292 20.6356 12.6132 20.7476 12.0532 20.7476C11.4852 20.7476 10.9652 20.6356 10.4932 20.4116C10.0292 20.1796 9.62525 19.8556 9.28125 19.4396C8.94525 19.0156 8.68125 18.5116 8.48925 17.9276C8.30525 17.3356 8.21325 16.6796 8.21325 15.9596ZM23.7495 20.4956H16.4655L18.7095 18.1676C19.3015 17.5516 19.7655 17.0316 20.1015 16.6076C20.4375 16.1756 20.6855 15.8116 20.8455 15.5156C21.0135 15.2196 21.1175 14.9796 21.1575 14.7956C21.1975 14.6116 21.2175 14.4556 21.2175 14.3276C21.2175 14.1916 21.1935 14.0596 21.1455 13.9316C21.1055 13.8036 21.0415 13.6916 20.9535 13.5956C20.8655 13.4916 20.7575 13.4116 20.6295 13.3556C20.5095 13.2916 20.3655 13.2596 20.1975 13.2596C19.8775 13.2596 19.6255 13.3636 19.4415 13.5716C19.2655 13.7796 19.1775 14.0396 19.1775 14.3516C19.1775 14.4396 19.1895 14.5676 19.2135 14.7356H16.6455C16.6455 14.2076 16.7295 13.7276 16.8975 13.2956C17.0735 12.8636 17.3175 12.4916 17.6295 12.1796C17.9415 11.8676 18.3095 11.6276 18.7335 11.4596C19.1655 11.2916 19.6375 11.2076 20.1495 11.2076C20.6535 11.2076 21.1175 11.2876 21.5415 11.4476C21.9735 11.6076 22.3455 11.8316 22.6575 12.1196C22.9695 12.4076 23.2135 12.7516 23.3895 13.1516C23.5655 13.5436 23.6535 13.9716 23.6535 14.4356C23.6535 14.9316 23.5455 15.3916 23.3295 15.8156C23.1215 16.2316 22.7855 16.6596 22.3215 17.0996L20.8215 18.5036H23.7495V20.4956Z" fill="#4147D6"/>
</svg>
