<svg width="32" height="32" viewBox="0 0 32 32" fill="none" xmlns="http://www.w3.org/2000/svg">
<path d="M31.55 12.7991C31.55 5.92534 25.9778 0.353027 19.104 0.353027L13.155 0.353027C6.2812 0.353027 0.708894 5.92533 0.708894 12.7991V29.1942C0.708894 30.2987 1.60433 31.1942 2.70889 31.1942H19.104C25.9777 31.1942 31.55 25.6219 31.55 18.7481V12.7991Z" fill="#F2F2FF"/>
<path d="M10.5412 15.9596C10.5412 16.3596 10.5772 16.7236 10.6492 17.0516C10.7212 17.3796 10.8212 17.6636 10.9492 17.9036C11.0852 18.1436 11.2452 18.3316 11.4292 18.4676C11.6132 18.5956 11.8212 18.6596 12.0532 18.6596C12.2772 18.6596 12.4812 18.5956 12.6652 18.4676C12.8572 18.3316 13.0172 18.1436 13.1452 17.9036C13.2732 17.6636 13.3732 17.3796 13.4452 17.0516C13.5172 16.7236 13.5532 16.3596 13.5532 15.9596C13.5532 15.5676 13.5172 15.2076 13.4452 14.8796C13.3732 14.5436 13.2732 14.2596 13.1452 14.0276C13.0172 13.7876 12.8572 13.6036 12.6652 13.4756C12.4812 13.3396 12.2772 13.2716 12.0532 13.2716C11.8212 13.2716 11.6132 13.3396 11.4292 13.4756C11.2452 13.6036 11.0852 13.7876 10.9492 14.0276C10.8212 14.2596 10.7212 14.5436 10.6492 14.8796C10.5772 15.2076 10.5412 15.5676 10.5412 15.9596ZM8.21325 15.9596C8.21325 15.2396 8.30525 14.5876 8.48925 14.0036C8.68125 13.4116 8.94525 12.9076 9.28125 12.4916C9.62525 12.0756 10.0292 11.7556 10.4932 11.5316C10.9652 11.2996 11.4852 11.1836 12.0532 11.1836C12.6132 11.1836 13.1292 11.2996 13.6012 11.5316C14.0732 11.7556 14.4772 12.0756 14.8132 12.4916C15.1492 12.9076 15.4092 13.4116 15.5932 14.0036C15.7852 14.5876 15.8812 15.2396 15.8812 15.9596C15.8812 16.6796 15.7852 17.3356 15.5932 17.9276C15.4092 18.5116 15.1492 19.0156 14.8132 19.4396C14.4772 19.8556 14.0732 20.1796 13.6012 20.4116C13.1292 20.6356 12.6132 20.7476 12.0532 20.7476C11.4852 20.7476 10.9652 20.6356 10.4932 20.4116C10.0292 20.1796 9.62525 19.8556 9.28125 19.4396C8.94525 19.0156 8.68125 18.5116 8.48925 17.9276C8.30525 17.3356 8.21325 16.6796 8.21325 15.9596ZM19.7175 14.9756C19.7815 14.9836 19.8335 14.9876 19.8735 14.9876C19.9215 14.9876 19.9615 14.9876 19.9935 14.9876C20.2895 14.9876 20.5295 14.8996 20.7135 14.7236C20.8975 14.5476 20.9895 14.3196 20.9895 14.0396C20.9895 13.7676 20.9015 13.5476 20.7255 13.3796C20.5575 13.2116 20.3375 13.1276 20.0655 13.1276C19.7775 13.1276 19.5455 13.2236 19.3695 13.4156C19.1935 13.6076 19.1055 13.8556 19.1055 14.1596H16.9335C16.9895 13.6876 17.1055 13.2676 17.2815 12.8996C17.4655 12.5316 17.6975 12.2236 17.9775 11.9756C18.2575 11.7196 18.5855 11.5276 18.9615 11.3996C19.3375 11.2636 19.7535 11.1956 20.2095 11.1956C20.6575 11.1956 21.0615 11.2596 21.4215 11.3876C21.7895 11.5076 22.1015 11.6836 22.3575 11.9156C22.6215 12.1396 22.8215 12.4156 22.9575 12.7436C23.1015 13.0636 23.1735 13.4236 23.1735 13.8236C23.1735 14.2556 23.0895 14.6116 22.9215 14.8916C22.7615 15.1636 22.5295 15.3996 22.2255 15.5996C22.6895 15.7436 23.0495 16.0036 23.3055 16.3796C23.5695 16.7476 23.7015 17.2036 23.7015 17.7476C23.7015 18.1956 23.6135 18.6036 23.4375 18.9716C23.2615 19.3396 23.0135 19.6556 22.6935 19.9196C22.3815 20.1836 22.0055 20.3876 21.5655 20.5316C21.1335 20.6756 20.6575 20.7476 20.1375 20.7476C19.4415 20.7476 18.8135 20.6116 18.2535 20.3396C17.6935 20.0676 17.2455 19.6356 16.9095 19.0436C16.7575 18.7796 16.6535 18.5156 16.5975 18.2516C16.5495 17.9876 16.5255 17.7196 16.5255 17.4476H18.8535C18.8695 17.8716 18.9935 18.1956 19.2255 18.4196C19.4575 18.6356 19.7695 18.7436 20.1615 18.7436C20.5775 18.7436 20.8815 18.6316 21.0735 18.4076C21.2655 18.1836 21.3615 17.9076 21.3615 17.5796C21.3615 17.1876 21.2455 16.8916 21.0135 16.6916C20.7815 16.4916 20.5055 16.3916 20.1855 16.3916C20.1055 16.3916 20.0295 16.3996 19.9575 16.4156C19.8855 16.4236 19.8055 16.4356 19.7175 16.4516V14.9756Z" fill="#4147D6"/>
</svg>
