<svg width="32" height="32" viewBox="0 0 32 32" fill="none" xmlns="http://www.w3.org/2000/svg">
<path d="M31.55 12.7991C31.55 5.92534 25.9778 0.353027 19.104 0.353027L13.155 0.353027C6.2812 0.353027 0.708895 5.92533 0.708895 12.7991V29.1942C0.708895 30.2987 1.60432 31.1942 2.70889 31.1942H19.104C25.9777 31.1942 31.55 25.6219 31.55 18.7481V12.7991Z" fill="#F2F2FF"/>
<path d="M10.383 15.9596C10.383 16.3596 10.419 16.7236 10.491 17.0516C10.563 17.3796 10.663 17.6636 10.791 17.9036C10.927 18.1436 11.087 18.3316 11.271 18.4676C11.455 18.5956 11.663 18.6596 11.895 18.6596C12.119 18.6596 12.323 18.5956 12.507 18.4676C12.699 18.3316 12.859 18.1436 12.987 17.9036C13.115 17.6636 13.215 17.3796 13.287 17.0516C13.359 16.7236 13.395 16.3596 13.395 15.9596C13.395 15.5676 13.359 15.2076 13.287 14.8796C13.215 14.5436 13.115 14.2596 12.987 14.0276C12.859 13.7876 12.699 13.6036 12.507 13.4756C12.323 13.3396 12.119 13.2716 11.895 13.2716C11.663 13.2716 11.455 13.3396 11.271 13.4756C11.087 13.6036 10.927 13.7876 10.791 14.0276C10.663 14.2596 10.563 14.5436 10.491 14.8796C10.419 15.2076 10.383 15.5676 10.383 15.9596ZM8.05505 15.9596C8.05505 15.2396 8.14705 14.5876 8.33105 14.0036C8.52305 13.4116 8.78705 12.9076 9.12305 12.4916C9.46705 12.0756 9.87105 11.7556 10.335 11.5316C10.807 11.2996 11.327 11.1836 11.895 11.1836C12.455 11.1836 12.971 11.2996 13.443 11.5316C13.915 11.7556 14.319 12.0756 14.655 12.4916C14.991 12.9076 15.251 13.4116 15.435 14.0036C15.627 14.5876 15.723 15.2396 15.723 15.9596C15.723 16.6796 15.627 17.3356 15.435 17.9276C15.251 18.5116 14.991 19.0156 14.655 19.4396C14.319 19.8556 13.915 20.1796 13.443 20.4116C12.971 20.6356 12.455 20.7476 11.895 20.7476C11.327 20.7476 10.807 20.6356 10.335 20.4116C9.87105 20.1796 9.46705 19.8556 9.12305 19.4396C8.78705 19.0156 8.52305 18.5116 8.33105 17.9276C8.14705 17.3356 8.05505 16.6796 8.05505 15.9596ZM20.8237 16.8356V13.2716L18.7477 16.8356H20.8237ZM23.0077 16.8356H24.0997V18.6356H23.0077V20.4956H20.8237V18.6356H16.4557V17.1236L19.9117 11.4476H23.0077V16.8356Z" fill="#4147D6"/>
</svg>
