<svg width="149" height="150" viewBox="0 0 149 150" fill="none" xmlns="http://www.w3.org/2000/svg">
<g opacity="0.2" filter="url(#filter0_d)">
<circle cx="74.2868" cy="53.5903" r="34.287" fill="#F78282"/>
</g>
<path d="M75.887 39.443V42.2686C77.021 42.4512 77.9484 42.826 78.6693 43.393C79.3901 43.9601 80.0772 44.8298 80.7308 46.0024L77.9196 47.5737C77.0739 46.036 75.9686 45.2671 74.6039 45.2671C73.7582 45.2671 73.0566 45.517 72.4992 46.0168C71.9418 46.5165 71.663 47.1412 71.663 47.8909C71.663 48.5732 71.8889 49.1403 72.3406 49.592C72.7827 50.0341 73.6765 50.5578 75.022 51.1633C76.1849 51.6919 77.146 52.1917 77.9052 52.6626C78.6644 53.1239 79.2363 53.5708 79.6207 54.0033C80.7067 55.1758 81.2497 56.5934 81.2497 58.256C81.2497 59.8898 80.7596 61.3314 79.7793 62.5808C78.8086 63.8206 77.5112 64.6568 75.887 65.0892V68.0734H73.3641V65.1757C71.4804 64.8682 70.0436 64.2195 69.0537 63.2296C68.0638 62.2397 67.3334 60.7116 66.8625 58.6453L70.034 57.9821C70.4665 59.4429 70.9951 60.4857 71.6198 61.1104C72.2733 61.7063 73.1431 62.0042 74.2291 62.0042C75.2863 62.0042 76.1705 61.663 76.8817 60.9807C77.5832 60.3079 77.934 59.4381 77.934 58.3713C77.934 57.4199 77.6409 56.6558 77.0547 56.0792C76.7567 55.8005 76.3146 55.4881 75.7284 55.1421C75.1517 54.7866 74.4117 54.4021 73.5083 53.9889C71.6438 53.1527 70.4185 52.3839 69.8322 51.6823C68.9 50.6347 68.4338 49.3805 68.4338 47.9197C68.4338 47.2277 68.5444 46.5838 68.7654 45.9879C68.9865 45.3921 69.3036 44.8539 69.7169 44.3733C70.1397 43.8832 70.6587 43.4603 71.2738 43.1047C71.8889 42.7491 72.5857 42.4704 73.3641 42.2686V39.443H75.887Z" fill="#F09A9A"/>
<defs>
<filter id="filter0_d" x="0.102295" y="0.95039" width="148.369" height="148.369" filterUnits="userSpaceOnUse" color-interpolation-filters="sRGB">
<feFlood flood-opacity="0" result="BackgroundImageFix"/>
<feColorMatrix in="SourceAlpha" type="matrix" values="0 0 0 0 0 0 0 0 0 0 0 0 0 0 0 0 0 0 127 0"/>
<feOffset dy="21.5446"/>
<feGaussianBlur stdDeviation="19.9487"/>
<feColorMatrix type="matrix" values="0 0 0 0 0.65 0 0 0 0 0.01625 0 0 0 0 0.01625 0 0 0 0.47 0"/>
<feBlend mode="normal" in2="BackgroundImageFix" result="effect1_dropShadow"/>
<feBlend mode="normal" in="SourceGraphic" in2="effect1_dropShadow" result="shape"/>
</filter>
</defs>
</svg>
