<svg width="207" height="59" viewBox="0 0 207 59" fill="none" xmlns="http://www.w3.org/2000/svg">
<path d="M0.574166 14.1406C-0.0555326 14.7703 -0.0555327 15.7912 0.574166 16.4209L2.72254 18.5693C3.0783 18.925 3.0783 19.5019 2.72254 19.8576L0.400237 22.1799C-0.133412 22.7136 -0.133413 23.5788 0.400237 24.1124L0.759826 24.472C1.29348 25.0057 2.15869 25.0057 2.69234 24.472L6.98463 20.1797C7.03005 20.1343 7.07161 20.0865 7.10929 20.0367C7.1473 19.9864 7.18625 19.9367 7.23079 19.8922L7.59638 19.5266C7.77426 19.3487 7.77426 19.0603 7.59637 18.8824L7.1742 18.4603C7.14075 18.4268 7.11043 18.3904 7.08062 18.3537C7.05081 18.3169 7.01882 18.2814 6.98463 18.2472L6.62504 17.8876C6.59086 17.8534 6.55531 17.8214 6.51858 17.7916C6.48185 17.7618 6.44546 17.7315 6.412 17.6981L2.85451 14.1406C2.22481 13.5109 1.20387 13.5109 0.574166 14.1406Z" fill="url(#paint0_linear)"/>
<path d="M32.6153 8.56904C33.245 9.19874 33.245 10.2197 32.6153 10.8494L30.4669 12.9977C30.1112 13.3535 30.1112 13.9303 30.4669 14.2861L32.7892 16.6084C33.3229 17.142 33.3229 18.0072 32.7892 18.5409L32.4296 18.9005C31.896 19.4341 31.0308 19.4341 30.4971 18.9005L26.2048 14.6082C26.1594 14.5628 26.1179 14.515 26.0802 14.4652C26.0422 14.415 26.0033 14.3653 25.9587 14.3207L25.5931 13.9551C25.4152 13.7772 25.4152 13.4888 25.5931 13.3109L26.0151 12.8889C26.0486 12.8554 26.0789 12.819 26.1088 12.7822C26.1386 12.7454 26.1706 12.7099 26.2048 12.6757L26.5644 12.3161C26.5986 12.2819 26.6342 12.2498 26.6709 12.22C26.7077 12.1902 26.7441 12.1598 26.7776 12.1264L30.3349 8.56904C30.9646 7.93934 31.9856 7.93934 32.6153 8.56904Z" fill="url(#paint1_linear)"/>
<path fill-rule="evenodd" clip-rule="evenodd" d="M5.46593 8.02716C4.11626 9.37683 4.11626 11.5651 5.46593 12.9148L9.76876 17.2176C10.698 18.1469 10.698 19.6535 9.76876 20.5827L5.47854 24.873C4.1219 26.2296 4.1219 28.4291 5.47854 29.7858C6.83517 31.1424 9.03471 31.1424 10.3913 29.7858L18.8205 21.3566C18.9251 21.2521 19.0215 21.1426 19.1099 21.0288C19.2025 20.9096 19.2969 20.7915 19.4037 20.6848L20.3661 19.7223C20.8307 19.2577 20.8307 18.5044 20.3661 18.0398L19.2691 16.9427C19.1888 16.8625 19.1155 16.7757 19.0431 16.6883C18.9735 16.6041 18.8993 16.5225 18.8205 16.4438C18.7418 16.365 18.6602 16.2908 18.576 16.2212C18.4886 16.1488 18.4018 16.0755 18.3216 15.9952L10.3535 8.02716C9.00385 6.67749 6.8156 6.67749 5.46593 8.02716Z" fill="url(#paint2_linear)"/>
<path d="M28.1403 7.16865C29.568 5.74096 29.568 3.4262 28.1403 1.99851C26.7126 0.570811 24.3978 0.57081 22.9701 1.99851L14.9094 10.0592L19.5836 14.7333C19.5994 14.7491 19.6294 14.7764 19.7139 14.8464C19.8411 14.9516 19.9641 15.0635 20.0825 15.1819C20.2009 15.3003 20.3128 15.4233 20.418 15.5504C20.488 15.635 20.5152 15.665 20.531 15.6808L21.6281 16.7779C22.7897 17.9394 22.7897 19.8227 21.6281 20.9843L20.6656 21.9467C20.6446 21.9678 20.609 22.0083 20.519 22.124C20.4496 22.2133 20.3771 22.3007 20.3014 22.3861L23.3379 25.4226C24.5478 26.6325 26.5095 26.6325 27.7194 25.4226L28.5347 24.6073C29.7446 23.3974 29.7446 21.4357 28.5347 20.2258L23.2694 14.9605C22.4628 14.1539 22.4628 12.8461 23.2694 12.0395L28.1403 7.16865Z" fill="url(#paint3_linear)"/>
<path d="M52.9788 20.4878L51.2972 22.2713V26.8982H48.7188V12.0596H51.2972V19.0203L52.724 17.2572L57.0655 12.0596H60.184L54.6705 18.633L60.5 26.8982H57.4426L52.9788 20.4878ZM68.2352 26.8982C68.1265 26.6876 68.0314 26.3445 67.9498 25.8689C67.1617 26.691 66.1969 27.102 65.0555 27.102C63.948 27.102 63.0444 26.7861 62.3446 26.1542C61.6448 25.5224 61.2949 24.741 61.2949 23.8102C61.2949 22.6348 61.7297 21.7346 62.5994 21.1095C63.4758 20.4776 64.726 20.1617 66.3498 20.1617H67.8683V19.4381C67.8683 18.8674 67.7086 18.4122 67.3893 18.0725C67.07 17.726 66.5842 17.5527 65.932 17.5527C65.368 17.5527 64.906 17.6954 64.5459 17.9808C64.1858 18.2593 64.0058 18.616 64.0058 19.0509H61.5293C61.5293 18.4462 61.7297 17.8822 62.1306 17.3591C62.5314 16.8291 63.075 16.4147 63.7612 16.1157C64.4542 15.8168 65.2254 15.6673 66.0746 15.6673C67.3655 15.6673 68.3949 15.9935 69.1626 16.6457C69.9304 17.2912 70.3244 18.2016 70.3448 19.377V24.3504C70.3448 25.3423 70.4841 26.1338 70.7627 26.7249V26.8982H68.2352ZM65.5141 25.1147C66.0033 25.1147 66.4619 24.9958 66.8899 24.758C67.3248 24.5202 67.6509 24.2009 67.8683 23.8V21.721H66.5332C65.616 21.721 64.9264 21.8807 64.4644 22.2C64.0024 22.5193 63.7714 22.9711 63.7714 23.5554C63.7714 24.031 63.9277 24.4115 64.2402 24.6969C64.5595 24.9754 64.9842 25.1147 65.5141 25.1147ZM72.4748 21.2828C72.4748 20.2025 72.6888 19.2309 73.1169 18.368C73.5449 17.4984 74.1462 16.8325 74.9207 16.3705C75.6953 15.9017 76.5853 15.6673 77.5909 15.6673C79.0788 15.6673 80.2848 16.1463 81.2088 17.1043C82.1396 18.0623 82.6424 19.3328 82.7171 20.9159L82.7273 21.4968C82.7273 22.5839 82.5167 23.5554 82.0954 24.4115C81.681 25.2676 81.0831 25.93 80.3018 26.3988C79.5272 26.8676 78.6304 27.102 77.6112 27.102C76.0554 27.102 74.8086 26.5857 73.871 25.5529C72.9402 24.5134 72.4748 23.1308 72.4748 21.4051V21.2828ZM74.9513 21.4968C74.9513 22.6314 75.1857 23.5215 75.6545 24.1669C76.1233 24.8056 76.7755 25.1249 77.6112 25.1249C78.4469 25.1249 79.0958 24.7988 79.5578 24.1465C80.0266 23.4943 80.261 22.5397 80.261 21.2828C80.261 20.1685 80.0198 19.2853 79.5374 18.633C79.0618 17.9808 78.413 17.6546 77.5909 17.6546C76.7823 17.6546 76.1403 17.9774 75.6647 18.6228C75.1891 19.2615 74.9513 20.2195 74.9513 21.4968ZM91.0027 23.9019C91.0027 23.4603 90.8192 23.124 90.4523 22.893C90.0922 22.662 89.4909 22.4582 88.6485 22.2815C87.806 22.1049 87.1028 21.8807 86.5389 21.6089C85.3023 21.011 84.684 20.1447 84.684 19.0101C84.684 18.0589 85.0849 17.264 85.8866 16.6253C86.6883 15.9867 87.7075 15.6673 88.944 15.6673C90.2621 15.6673 91.3254 15.9935 92.1339 16.6457C92.9492 17.2979 93.3569 18.1438 93.3569 19.1833H90.8804C90.8804 18.7077 90.7037 18.3137 90.3504 18.0011C89.9971 17.6818 89.5283 17.5222 88.944 17.5222C88.4005 17.5222 87.9555 17.6478 87.6089 17.8992C87.2692 18.1506 87.0994 18.4869 87.0994 18.9082C87.0994 19.2887 87.259 19.5842 87.5784 19.7948C87.8977 20.0054 88.5432 20.2195 89.5147 20.4369C90.4863 20.6475 91.2473 20.9023 91.7976 21.2012C92.3547 21.4934 92.7658 21.8467 93.0307 22.2611C93.3025 22.6756 93.4384 23.1784 93.4384 23.7694C93.4384 24.7614 93.0273 25.5665 92.2052 26.1848C91.3831 26.7963 90.3063 27.102 88.9746 27.102C88.071 27.102 87.2658 26.939 86.5592 26.6128C85.8526 26.2867 85.3023 25.8383 84.9082 25.2676C84.5142 24.6969 84.3171 24.082 84.3171 23.4229H86.7223C86.7563 24.0072 86.9771 24.4591 87.3847 24.7784C87.7924 25.0909 88.3325 25.2472 89.0052 25.2472C89.6574 25.2472 90.1534 25.1249 90.4931 24.8803C90.8328 24.6289 91.0027 24.3028 91.0027 23.9019ZM98.0449 17.0737C98.8534 16.1361 99.8759 15.6673 101.112 15.6673C103.463 15.6673 104.656 17.0092 104.69 19.6929V26.8982H102.213V19.7846C102.213 19.0237 102.047 18.4869 101.714 18.1744C101.388 17.8551 100.905 17.6954 100.267 17.6954C99.2746 17.6954 98.5341 18.137 98.0449 19.0203V26.8982H95.5684V11.2443H98.0449V17.0737ZM109.836 26.8982H107.36V15.8712H109.836V26.8982ZM107.207 13.0074C107.207 12.6269 107.326 12.311 107.564 12.0596C107.808 11.8082 108.155 11.6825 108.603 11.6825C109.052 11.6825 109.398 11.8082 109.643 12.0596C109.887 12.311 110.01 12.6269 110.01 13.0074C110.01 13.3811 109.887 13.6936 109.643 13.945C109.398 14.1896 109.052 14.3119 108.603 14.3119C108.155 14.3119 107.808 14.1896 107.564 13.945C107.326 13.6936 107.207 13.3811 107.207 13.0074Z" fill="#1A244E"/>
<path opacity="0.7" d="M41.8857 50.0071L38.4404 44.012H40.2725L42.6855 48.2297L45.1055 44.012H46.9375L43.4785 50.0071V54.5667H41.8857V50.0071ZM46.5957 51.1897C46.5957 50.2281 46.9398 49.4101 47.6279 48.7356C48.3161 48.0611 49.1546 47.7239 50.1436 47.7239C51.137 47.7239 51.9801 48.0634 52.6729 48.7424C53.3564 49.4215 53.6982 50.2555 53.6982 51.2444C53.6982 52.2424 53.3542 53.0787 52.666 53.7532C51.9733 54.4231 51.1234 54.7581 50.1162 54.7581C49.1182 54.7581 48.2819 54.4163 47.6074 53.7327C46.9329 53.0582 46.5957 52.2105 46.5957 51.1897ZM48.168 51.217C48.168 51.8824 48.3457 52.4088 48.7012 52.7961C49.0658 53.1881 49.5465 53.384 50.1436 53.384C50.7451 53.384 51.2259 53.1903 51.5859 52.803C51.946 52.4156 52.126 51.8984 52.126 51.2512C52.126 50.6041 51.946 50.0868 51.5859 49.6995C51.2214 49.3075 50.7406 49.1116 50.1436 49.1116C49.5557 49.1116 49.0794 49.3075 48.7148 49.6995C48.3503 50.0914 48.168 50.5972 48.168 51.217ZM56.8701 47.9084V51.7297C56.8701 52.8326 57.3053 53.384 58.1758 53.384C59.0462 53.384 59.4814 52.8326 59.4814 51.7297V47.9084H61.0195V51.7639C61.0195 52.2971 60.9535 52.7574 60.8213 53.1448C60.6937 53.4911 60.4727 53.8033 60.1582 54.0813C59.6387 54.5325 58.9779 54.7581 58.1758 54.7581C57.3783 54.7581 56.7197 54.5325 56.2002 54.0813C55.8812 53.8033 55.6556 53.4911 55.5234 53.1448C55.3958 52.8349 55.332 52.3746 55.332 51.7639V47.9084H56.8701ZM62.9609 47.9084H64.499V48.5032C64.7816 48.2069 65.0322 48.0042 65.251 47.8948C65.4743 47.7808 65.7386 47.7239 66.0439 47.7239C66.4495 47.7239 66.8734 47.856 67.3154 48.1204L66.6113 49.5286C66.3197 49.3189 66.0348 49.2141 65.7568 49.2141C64.9183 49.2141 64.499 49.8476 64.499 51.1145V54.5667H62.9609V47.9084ZM72.5176 47.9084H74.0557V48.5237C74.3519 48.2138 74.6048 48.0042 74.8145 47.8948C75.0378 47.7808 75.318 47.7239 75.6553 47.7239C76.4072 47.7239 77.002 48.052 77.4395 48.7083C77.9225 48.052 78.5765 47.7239 79.4014 47.7239C80.9007 47.7239 81.6504 48.6331 81.6504 50.4514V54.5667H80.1055V50.8684C80.1055 50.2304 80.028 49.7792 79.873 49.5149C79.7135 49.246 79.4515 49.1116 79.0869 49.1116C78.6631 49.1116 78.3532 49.2711 78.1572 49.5901C77.9658 49.9091 77.8701 50.4218 77.8701 51.1282V54.5667H76.3252V50.8889C76.3252 49.704 75.9834 49.1116 75.2998 49.1116C74.8669 49.1116 74.5501 49.2734 74.3496 49.5969C74.1536 49.9205 74.0557 50.4309 74.0557 51.1282V54.5667H72.5176V47.9084ZM83.2773 51.1897C83.2773 50.2281 83.6214 49.4101 84.3096 48.7356C84.9977 48.0611 85.8363 47.7239 86.8252 47.7239C87.8187 47.7239 88.6618 48.0634 89.3545 48.7424C90.0381 49.4215 90.3799 50.2555 90.3799 51.2444C90.3799 52.2424 90.0358 53.0787 89.3477 53.7532C88.6549 54.4231 87.805 54.7581 86.7979 54.7581C85.7998 54.7581 84.9635 54.4163 84.2891 53.7327C83.6146 53.0582 83.2773 52.2105 83.2773 51.1897ZM84.8496 51.217C84.8496 51.8824 85.0273 52.4088 85.3828 52.7961C85.7474 53.1881 86.2282 53.384 86.8252 53.384C87.4268 53.384 87.9076 53.1903 88.2676 52.803C88.6276 52.4156 88.8076 51.8984 88.8076 51.2512C88.8076 50.6041 88.6276 50.0868 88.2676 49.6995C87.903 49.3075 87.4222 49.1116 86.8252 49.1116C86.2373 49.1116 85.7611 49.3075 85.3965 49.6995C85.0319 50.0914 84.8496 50.5972 84.8496 51.217ZM92.0137 47.9084H93.5586V48.5237C94.0964 47.9905 94.7025 47.7239 95.377 47.7239C96.1517 47.7239 96.7555 47.9677 97.1885 48.4553C97.5622 48.87 97.749 49.5468 97.749 50.4856V54.5667H96.2041V50.8479C96.2041 50.1917 96.113 49.7382 95.9307 49.4875C95.7529 49.2323 95.4294 49.1047 94.96 49.1047C94.4495 49.1047 94.0872 49.2734 93.873 49.6106C93.6634 49.9433 93.5586 50.5243 93.5586 51.3538V54.5667H92.0137V47.9084ZM105.761 51.5999H100.989C101.03 52.1467 101.208 52.5819 101.522 52.9055C101.837 53.2245 102.24 53.384 102.732 53.384C103.115 53.384 103.432 53.2929 103.683 53.1106C103.929 52.9283 104.209 52.5911 104.523 52.0989L105.822 52.8235C105.622 53.1653 105.41 53.4592 105.187 53.7053C104.963 53.9469 104.724 54.1474 104.469 54.3069C104.214 54.4618 103.938 54.5758 103.642 54.6487C103.345 54.7216 103.024 54.7581 102.678 54.7581C101.684 54.7581 100.887 54.439 100.285 53.801C99.6836 53.1584 99.3828 52.3062 99.3828 51.2444C99.3828 50.1917 99.6745 49.3394 100.258 48.6877C100.846 48.0452 101.625 47.7239 102.596 47.7239C103.576 47.7239 104.35 48.0361 104.92 48.6604C105.485 49.2802 105.768 50.1392 105.768 51.2375L105.761 51.5999ZM104.182 50.342C103.967 49.5217 103.45 49.1116 102.63 49.1116C102.443 49.1116 102.268 49.1412 102.104 49.2004C101.939 49.2551 101.789 49.3372 101.652 49.4465C101.52 49.5514 101.406 49.679 101.311 49.8293C101.215 49.9797 101.142 50.1506 101.092 50.342H104.182ZM109.302 53.3293L106.308 47.9084H108.092L110.129 51.7366L112.029 47.9084H113.766L108.461 58.1897H106.704L109.302 53.3293ZM115.167 52.5911L116.534 53.1243L114.586 57.0276L113.547 56.5969L115.167 52.5911ZM124.956 53.3293L121.962 47.9084H123.746L125.783 51.7366L127.684 47.9084H129.42L124.115 58.1897H122.358L124.956 53.3293ZM129.885 51.1897C129.885 50.2281 130.229 49.4101 130.917 48.7356C131.605 48.0611 132.444 47.7239 133.433 47.7239C134.426 47.7239 135.269 48.0634 135.962 48.7424C136.646 49.4215 136.987 50.2555 136.987 51.2444C136.987 52.2424 136.643 53.0787 135.955 53.7532C135.262 54.4231 134.412 54.7581 133.405 54.7581C132.407 54.7581 131.571 54.4163 130.896 53.7327C130.222 53.0582 129.885 52.2105 129.885 51.1897ZM131.457 51.217C131.457 51.8824 131.635 52.4088 131.99 52.7961C132.355 53.1881 132.836 53.384 133.433 53.384C134.034 53.384 134.515 53.1903 134.875 52.803C135.235 52.4156 135.415 51.8984 135.415 51.2512C135.415 50.6041 135.235 50.0868 134.875 49.6995C134.51 49.3075 134.03 49.1116 133.433 49.1116C132.845 49.1116 132.368 49.3075 132.004 49.6995C131.639 50.0914 131.457 50.5972 131.457 51.217ZM140.159 47.9084V51.7297C140.159 52.8326 140.594 53.384 141.465 53.384C142.335 53.384 142.771 52.8326 142.771 51.7297V47.9084H144.309V51.7639C144.309 52.2971 144.243 52.7574 144.11 53.1448C143.983 53.4911 143.762 53.8033 143.447 54.0813C142.928 54.5325 142.267 54.7581 141.465 54.7581C140.667 54.7581 140.009 54.5325 139.489 54.0813C139.17 53.8033 138.945 53.4911 138.812 53.1448C138.685 52.8349 138.621 52.3746 138.621 51.7639V47.9084H140.159ZM146.25 47.9084H147.788V48.5032C148.071 48.2069 148.321 48.0042 148.54 47.8948C148.763 47.7808 149.028 47.7239 149.333 47.7239C149.739 47.7239 150.162 47.856 150.604 48.1204L149.9 49.5286C149.609 49.3189 149.324 49.2141 149.046 49.2141C148.207 49.2141 147.788 49.8476 147.788 51.1145V54.5667H146.25V47.9084ZM160.715 43.0208H162.26V54.5667H160.715V53.8694C160.109 54.4618 159.423 54.7581 158.657 54.7581C157.746 54.7581 156.989 54.4254 156.388 53.76C155.791 53.081 155.492 52.2333 155.492 51.217C155.492 50.2236 155.791 49.3941 156.388 48.7288C156.98 48.0588 157.725 47.7239 158.623 47.7239C159.402 47.7239 160.1 48.0429 160.715 48.6809V43.0208ZM157.064 51.217C157.064 51.8551 157.235 52.3746 157.577 52.7756C157.928 53.1812 158.37 53.384 158.903 53.384C159.473 53.384 159.933 53.1881 160.284 52.7961C160.635 52.3905 160.811 51.8756 160.811 51.2512C160.811 50.6269 160.635 50.1119 160.284 49.7063C159.933 49.3098 159.478 49.1116 158.917 49.1116C158.388 49.1116 157.946 49.3121 157.591 49.7131C157.24 50.1187 157.064 50.62 157.064 51.217ZM170.265 51.5999H165.493C165.534 52.1467 165.712 52.5819 166.026 52.9055C166.341 53.2245 166.744 53.384 167.236 53.384C167.619 53.384 167.936 53.2929 168.187 53.1106C168.433 52.9283 168.713 52.5911 169.027 52.0989L170.326 52.8235C170.126 53.1653 169.914 53.4592 169.69 53.7053C169.467 53.9469 169.228 54.1474 168.973 54.3069C168.717 54.4618 168.442 54.5758 168.146 54.6487C167.849 54.7216 167.528 54.7581 167.182 54.7581C166.188 54.7581 165.391 54.439 164.789 53.801C164.188 53.1584 163.887 52.3062 163.887 51.2444C163.887 50.1917 164.178 49.3394 164.762 48.6877C165.35 48.0452 166.129 47.7239 167.1 47.7239C168.079 47.7239 168.854 48.0361 169.424 48.6604C169.989 49.2802 170.271 50.1392 170.271 51.2375L170.265 51.5999ZM168.686 50.342C168.471 49.5217 167.954 49.1116 167.134 49.1116C166.947 49.1116 166.771 49.1412 166.607 49.2004C166.443 49.2551 166.293 49.3372 166.156 49.4465C166.024 49.5514 165.91 49.679 165.814 49.8293C165.719 49.9797 165.646 50.1506 165.596 50.342H168.686ZM177.135 48.1956V50.2395C176.784 49.8111 176.469 49.5172 176.191 49.3577C175.918 49.1936 175.597 49.1116 175.228 49.1116C174.649 49.1116 174.168 49.3144 173.785 49.72C173.402 50.1256 173.211 50.6337 173.211 51.2444C173.211 51.8687 173.396 52.3814 173.765 52.7825C174.138 53.1835 174.615 53.384 175.193 53.384C175.562 53.384 175.888 53.3043 176.171 53.1448C176.444 52.9898 176.766 52.689 177.135 52.2424V54.2727C176.51 54.5963 175.886 54.7581 175.262 54.7581C174.232 54.7581 173.37 54.4254 172.678 53.76C171.985 53.0901 171.639 52.2584 171.639 51.2649C171.639 50.2714 171.99 49.4329 172.691 48.7493C173.393 48.0657 174.255 47.7239 175.275 47.7239C175.932 47.7239 176.551 47.8811 177.135 48.1956ZM180.163 47.9084V54.5667H178.625V47.9084H180.163ZM178.393 45.1399C178.393 44.871 178.491 44.6386 178.687 44.4426C178.882 44.2467 179.117 44.1487 179.391 44.1487C179.669 44.1487 179.906 44.2467 180.102 44.4426C180.298 44.634 180.396 44.8687 180.396 45.1467C180.396 45.4247 180.298 45.6617 180.102 45.8577C179.91 46.0536 179.675 46.1516 179.397 46.1516C179.119 46.1516 178.882 46.0536 178.687 45.8577C178.491 45.6617 178.393 45.4224 178.393 45.1399ZM185.98 49.0432L184.709 49.72C184.508 49.3098 184.26 49.1047 183.964 49.1047C183.823 49.1047 183.702 49.1526 183.602 49.2483C183.501 49.3394 183.451 49.4579 183.451 49.6038C183.451 49.859 183.747 50.1119 184.34 50.3625C185.156 50.7135 185.705 51.037 185.987 51.3333C186.27 51.6295 186.411 52.0282 186.411 52.5295C186.411 53.1721 186.174 53.7099 185.7 54.1428C185.24 54.553 184.684 54.7581 184.032 54.7581C182.916 54.7581 182.125 54.2135 181.66 53.1243L182.973 52.5159C183.155 52.8349 183.294 53.0377 183.39 53.1243C183.576 53.2974 183.8 53.384 184.06 53.384C184.579 53.384 184.839 53.1471 184.839 52.6731C184.839 52.3997 184.638 52.1444 184.237 51.9075C184.082 51.83 183.927 51.7548 183.772 51.6819C183.618 51.609 183.46 51.5338 183.301 51.4563C182.854 51.2375 182.54 51.0188 182.357 50.8C182.125 50.5221 182.009 50.1643 182.009 49.7268C182.009 49.148 182.207 48.6695 182.604 48.2913C183.009 47.913 183.501 47.7239 184.08 47.7239C184.932 47.7239 185.566 48.1637 185.98 49.0432ZM189.337 47.9084V54.5667H187.799V47.9084H189.337ZM187.566 45.1399C187.566 44.871 187.664 44.6386 187.86 44.4426C188.056 44.2467 188.291 44.1487 188.564 44.1487C188.842 44.1487 189.079 44.2467 189.275 44.4426C189.471 44.634 189.569 44.8687 189.569 45.1467C189.569 45.4247 189.471 45.6617 189.275 45.8577C189.084 46.0536 188.849 46.1516 188.571 46.1516C188.293 46.1516 188.056 46.0536 187.86 45.8577C187.664 45.6617 187.566 45.4224 187.566 45.1399ZM190.971 51.1897C190.971 50.2281 191.315 49.4101 192.003 48.7356C192.691 48.0611 193.53 47.7239 194.519 47.7239C195.512 47.7239 196.355 48.0634 197.048 48.7424C197.731 49.4215 198.073 50.2555 198.073 51.2444C198.073 52.2424 197.729 53.0787 197.041 53.7532C196.348 54.4231 195.498 54.7581 194.491 54.7581C193.493 54.7581 192.657 54.4163 191.982 53.7327C191.308 53.0582 190.971 52.2105 190.971 51.1897ZM192.543 51.217C192.543 51.8824 192.721 52.4088 193.076 52.7961C193.441 53.1881 193.922 53.384 194.519 53.384C195.12 53.384 195.601 53.1903 195.961 52.803C196.321 52.4156 196.501 51.8984 196.501 51.2512C196.501 50.6041 196.321 50.0868 195.961 49.6995C195.596 49.3075 195.116 49.1116 194.519 49.1116C193.931 49.1116 193.454 49.3075 193.09 49.6995C192.725 50.0914 192.543 50.5972 192.543 51.217ZM199.707 47.9084H201.252V48.5237C201.79 47.9905 202.396 47.7239 203.07 47.7239C203.845 47.7239 204.449 47.9677 204.882 48.4553C205.256 48.87 205.442 49.5468 205.442 50.4856V54.5667H203.897V50.8479C203.897 50.1917 203.806 49.7382 203.624 49.4875C203.446 49.2323 203.123 49.1047 202.653 49.1047C202.143 49.1047 201.781 49.2734 201.566 49.6106C201.357 49.9433 201.252 50.5243 201.252 51.3538V54.5667H199.707V47.9084Z" fill="#1A244E"/>
<line opacity="0.7" y1="-0.5" x2="24.1289" y2="-0.5" transform="matrix(1 0 0 -1 0 50.6416)" stroke="#1A244E"/>
<defs>
<linearGradient id="paint0_linear" x1="0.95038" y1="13.2315" x2="34.4096" y2="13.5891" gradientUnits="userSpaceOnUse">
<stop stop-color="#77C4DD"/>
<stop offset="1" stop-color="#74DAC8"/>
</linearGradient>
<linearGradient id="paint1_linear" x1="0.95038" y1="13.2315" x2="34.4096" y2="13.5891" gradientUnits="userSpaceOnUse">
<stop stop-color="#77C4DD"/>
<stop offset="1" stop-color="#74DAC8"/>
</linearGradient>
<linearGradient id="paint2_linear" x1="0.95038" y1="13.2315" x2="34.4096" y2="13.5891" gradientUnits="userSpaceOnUse">
<stop stop-color="#77C4DD"/>
<stop offset="1" stop-color="#74DAC8"/>
</linearGradient>
<linearGradient id="paint3_linear" x1="0.95038" y1="13.2315" x2="34.4096" y2="13.5891" gradientUnits="userSpaceOnUse">
<stop stop-color="#77C4DD"/>
<stop offset="1" stop-color="#74DAC8"/>
</linearGradient>
</defs>
</svg>
