<svg width="125" height="88" viewBox="0 0 125 88" fill="none" xmlns="http://www.w3.org/2000/svg">
<circle cx="61.3501" cy="6.80982" r="5.81739" fill="white"/>
<path d="M65.9555 8.64371C64.7648 11.6278 62.165 12.243 59.495 10.5544C59.495 10.5544 61.8746 10.3681 63.0287 7.47582C64.1828 4.58351 62.5811 2.82041 62.5811 2.82041C65.4237 3.29572 67.1462 5.65965 65.9555 8.64371Z" fill="url(#paint0_linear)"/>
<circle cx="61.3501" cy="6.80982" r="4.96567" stroke="#4147D6" stroke-width="1.70345"/>
<circle cx="5.88795" cy="28.1121" r="5.81739" fill="white"/>
<path d="M10.4933 29.946C9.3026 32.93 6.70289 33.5453 4.03279 31.8567C4.03279 31.8567 6.41243 31.6704 7.56656 28.7781C8.72069 25.8858 7.11893 24.1227 7.11893 24.1227C9.96159 24.598 11.6841 26.9619 10.4933 29.946Z" fill="url(#paint1_linear)"/>
<path d="M33.1816 41.8422C32.2758 42.748 32.2758 44.2165 33.1816 45.1223L36.2718 48.2125C36.7836 48.7242 36.7836 49.5539 36.2718 50.0657L32.9314 53.4061C32.1638 54.1737 32.1638 55.4183 32.9314 56.1859L33.4487 56.7031C34.2163 57.4707 35.4608 57.4707 36.2284 56.7031L42.4025 50.529C42.4678 50.4637 42.5276 50.3949 42.5818 50.3232C42.6365 50.251 42.6925 50.1795 42.7566 50.1154L43.2824 49.5895C43.5383 49.3337 43.5383 48.9188 43.2824 48.663L42.6752 48.0557C42.6271 48.0076 42.5835 47.9552 42.5406 47.9024C42.4977 47.8496 42.4517 47.7984 42.4025 47.7493L41.8853 47.232C41.8361 47.1828 41.785 47.1368 41.7321 47.094C41.6793 47.0511 41.6269 47.0075 41.5788 46.9593L36.4617 41.8422C35.5559 40.9364 34.0874 40.9364 33.1816 41.8422Z" fill="url(#paint2_linear)"/>
<path d="M79.27 33.828C80.1758 34.7338 80.1758 36.2023 79.27 37.1081L76.1798 40.1983C75.668 40.7101 75.668 41.5398 76.1798 42.0515L79.5202 45.3919C80.2878 46.1595 80.2878 47.404 79.5202 48.1717L79.0029 48.6889C78.2353 49.4565 76.9908 49.4565 76.2232 48.6889L70.0491 42.5148C69.9838 42.4495 69.924 42.3807 69.8699 42.3091C69.8152 42.2369 69.7592 42.1654 69.6951 42.1014L69.1692 41.5754C68.9133 41.3195 68.9133 40.9047 69.1692 40.6488L69.7762 40.0417C69.8244 39.9936 69.868 39.9412 69.9109 39.8883C69.9538 39.8354 69.9999 39.7842 70.0491 39.735L70.5663 39.2178C70.6155 39.1686 70.6667 39.1225 70.7196 39.0796C70.7725 39.0367 70.8249 38.9931 70.873 38.9449L75.9899 33.828C76.8957 32.9223 78.3642 32.9223 79.27 33.828Z" fill="url(#paint3_linear)"/>
<path fill-rule="evenodd" clip-rule="evenodd" d="M40.218 33.0486C38.2766 34.99 38.2766 38.1376 40.218 40.079L46.4072 46.2682C47.7439 47.6049 47.7439 49.772 46.4072 51.1087L40.2361 57.2798C38.2847 59.2312 38.2847 62.3951 40.2361 64.3465C42.1875 66.2979 45.3514 66.2979 47.3028 64.3465L59.4274 52.2218C59.5778 52.0715 59.7165 51.9139 59.8437 51.7503C59.9769 51.5789 60.1127 51.409 60.2662 51.2555L61.6506 49.8711C62.3189 49.2027 62.319 48.1192 61.6506 47.4508L60.0726 45.8729C59.9572 45.7574 59.8517 45.6326 59.7476 45.5068C59.6475 45.3858 59.5408 45.2685 59.4275 45.1552C59.3141 45.0419 59.1968 44.9351 59.0758 44.835C58.95 44.7309 58.8252 44.6254 58.7097 44.51L47.2484 33.0486C45.307 31.1072 42.1594 31.1072 40.218 33.0486Z" fill="url(#paint4_linear)"/>
<path d="M72.8331 31.8137C74.8867 29.7601 74.8867 26.4305 72.8331 24.3769C70.7795 22.3233 67.4499 22.3233 65.3963 24.3769L53.8017 35.9715L60.525 42.6948C60.5477 42.7176 60.5909 42.7568 60.7125 42.8574C60.8954 43.0088 61.0724 43.1697 61.2427 43.34C61.413 43.5103 61.5739 43.6873 61.7253 43.8702C61.8259 43.9918 61.8651 44.035 61.8879 44.0577L63.4658 45.6357C65.1367 47.3065 65.1367 50.0155 63.4658 51.6863L62.0815 53.0707C62.0512 53.101 62 53.1592 61.8706 53.3257C61.7707 53.4542 61.6664 53.5799 61.5575 53.7027L65.9253 58.0704C67.6657 59.8108 70.4874 59.8108 72.2277 58.0704L73.4005 56.8977C75.1408 55.1574 75.1408 52.3356 73.4005 50.5953L65.8268 43.0216C64.6666 41.8614 64.6666 39.9802 65.8268 38.82L72.8331 31.8137Z" fill="url(#paint5_linear)"/>
<path d="M59.8437 51.7503C59.7165 51.9139 59.5778 52.0715 59.4274 52.2218L47.3028 64.3465C45.3514 66.2979 42.1875 66.2979 40.2361 64.3465C38.2847 62.3951 38.2847 59.2312 40.2361 57.2798L46.4072 51.1087C47.7439 49.772 47.7439 47.6049 46.4072 46.2682L40.218 40.079C38.2766 38.1376 38.2766 34.99 40.218 33.0486C42.1594 31.1072 45.307 31.1072 47.2484 33.0486L58.7097 44.51M59.8437 51.7503C59.9769 51.5789 60.1127 51.409 60.2662 51.2555L61.6506 49.8711C62.3189 49.2027 62.3189 48.1192 61.6506 47.4508L60.0726 45.8729C59.9572 45.7574 59.8517 45.6326 59.7476 45.5068C59.6475 45.3858 59.5408 45.2685 59.4275 45.1552C59.3141 45.0419 59.1968 44.9351 59.0758 44.835C58.95 44.7309 58.8252 44.6254 58.7097 44.51M59.8437 51.7503C59.8091 51.7949 59.7737 51.839 59.7374 51.8826M58.7097 44.51L51.9482 37.7484M33.1816 45.1223C32.2758 44.2165 32.2758 42.748 33.1816 41.8422C34.0874 40.9364 35.5559 40.9364 36.4617 41.8422L41.5788 46.9593C41.6269 47.0075 41.6793 47.0511 41.7321 47.094C41.785 47.1368 41.8361 47.1828 41.8853 47.232L42.4025 47.7493C42.4517 47.7984 42.4977 47.8496 42.5406 47.9024C42.5834 47.9552 42.6271 48.0076 42.6752 48.0557L43.2824 48.663C43.5383 48.9188 43.5383 49.3337 43.2824 49.5895L42.7566 50.1154C42.6925 50.1795 42.6365 50.251 42.5818 50.3232C42.5276 50.3949 42.4678 50.4637 42.4025 50.529L36.2284 56.7031C35.4608 57.4707 34.2163 57.4707 33.4487 56.7031L32.9314 56.1859C32.1638 55.4183 32.1638 54.1737 32.9314 53.4061L36.2718 50.0657C36.7836 49.5539 36.7836 48.7242 36.2718 48.2125L33.1816 45.1223ZM79.27 37.1081C80.1758 36.2023 80.1758 34.7338 79.27 33.828C78.3642 32.9223 76.8957 32.9223 75.9899 33.828L70.873 38.9449C70.8249 38.9931 70.7725 39.0367 70.7196 39.0796C70.6667 39.1225 70.6155 39.1686 70.5663 39.2178L70.0491 39.735C69.9999 39.7842 69.9538 39.8354 69.9109 39.8883C69.868 39.9412 69.8244 39.9936 69.7762 40.0417L69.1692 40.6488C68.9133 40.9047 68.9133 41.3195 69.1692 41.5754L69.6951 42.1014C69.7592 42.1654 69.8152 42.2369 69.8698 42.3091C69.924 42.3807 69.9838 42.4495 70.0491 42.5148L76.2232 48.6889C76.9908 49.4565 78.2353 49.4565 79.0029 48.6889L79.5202 48.1717C80.2878 47.404 80.2878 46.1595 79.5202 45.3919L76.1798 42.0515C75.668 41.5398 75.668 40.7101 76.1798 40.1983L79.27 37.1081ZM72.8331 24.3769C74.8867 26.4305 74.8867 29.7601 72.8331 31.8137L65.8268 38.82C64.6666 39.9802 64.6666 41.8614 65.8268 43.0216L73.4005 50.5953C75.1408 52.3356 75.1408 55.1574 73.4005 56.8977L72.2277 58.0705C70.4874 59.8108 67.6657 59.8108 65.9253 58.0705L61.5575 53.7027C61.6664 53.5799 61.7707 53.4542 61.8706 53.3257C62 53.1592 62.0512 53.101 62.0815 53.0707L63.4658 51.6863C65.1367 50.0155 65.1367 47.3065 63.4658 45.6357L61.8879 44.0577C61.8651 44.035 61.8259 43.9918 61.7253 43.8702C61.5739 43.6873 61.413 43.5103 61.2427 43.34C61.0724 43.1697 60.8954 43.0088 60.7125 42.8574C60.5909 42.7568 60.5477 42.7176 60.525 42.6948L53.8017 35.9715L65.3963 24.3769C67.4499 22.3233 70.7795 22.3233 72.8331 24.3769Z" stroke="#4147D6" stroke-width="1.70345"/>
<circle cx="5.88795" cy="28.1121" r="4.96567" stroke="#4147D6" stroke-width="1.70345"/>
<circle cx="96.8494" cy="81.8525" r="5.81739" fill="white"/>
<path d="M101.455 83.6864C100.264 86.6705 97.6643 87.2858 94.9942 85.5971C94.9942 85.5971 97.3739 85.4109 98.528 82.5185C99.6821 79.6262 98.0804 77.8631 98.0804 77.8631C100.923 78.3384 102.646 80.7024 101.455 83.6864Z" fill="url(#paint6_linear)"/>
<circle cx="96.8494" cy="81.8525" r="4.96567" stroke="#4147D6" stroke-width="1.70345"/>
<circle cx="112.836" cy="35.8098" r="9.79126" fill="white"/>
<path d="M121.342 39.1973C118.88 44.084 114.436 45.8855 110.793 44.084C110.793 44.084 115.977 42.9982 118.087 37.7093C120.197 32.4204 117.519 28.9516 117.519 28.9516C123.176 29.8974 122.123 36.4778 121.342 39.1973Z" fill="url(#paint7_linear)"/>
<circle cx="112.836" cy="35.8098" r="8.93954" stroke="#4147D6" stroke-width="1.70345"/>
<circle cx="113.138" cy="33.4926" r="2.55883" fill="white" stroke="#4147D6" stroke-width="1.70345"/>
<path d="M117.996 43.4135C117.996 40.73 115.821 38.5547 113.138 38.5547C110.454 38.5547 108.279 40.73 108.279 43.4135" stroke="#4147D6" stroke-width="1.70345"/>
<circle cx="16.3013" cy="76.092" r="9.79126" fill="white"/>
<path d="M24.8069 79.4795C22.345 84.3662 17.9014 86.1677 14.2583 84.3662C14.2583 84.3662 19.4416 83.2804 21.552 77.9915C23.6625 72.7027 20.9839 69.2338 20.9839 69.2338C26.6406 70.1796 25.5877 76.76 24.8069 79.4795Z" fill="url(#paint8_linear)"/>
<circle cx="16.3013" cy="76.092" r="8.93954" stroke="#4147D6" stroke-width="1.70345"/>
<circle cx="16.6029" cy="73.7748" r="2.55883" fill="white" stroke="#4147D6" stroke-width="1.70345"/>
<path d="M21.4617 83.6957C21.4617 81.0123 19.2864 78.8369 16.6029 78.8369C13.9195 78.8369 11.7441 81.0123 11.7441 83.6957" stroke="#4147D6" stroke-width="1.70345"/>
<path d="M13.9702 25.8404L53.2763 10.9282" stroke="#4147D6" stroke-width="1.70345" stroke-linecap="round" stroke-dasharray="3.41 5.11"/>
<path d="M69.8086 9.51416L101.406 27.4919" stroke="#4147D6" stroke-width="1.70345" stroke-linecap="round" stroke-dasharray="3.41 5.11"/>
<path d="M110.667 45.0608L100.861 73.9342" stroke="#4147D6" stroke-width="1.70345" stroke-linecap="round" stroke-dasharray="3.41 5.11"/>
<path d="M13.7926 62.8886L7.968 36.1179" stroke="#4147D6" stroke-width="1.70345" stroke-linecap="round" stroke-dasharray="3.41 5.11"/>
<path d="M29.5864 78.0098L87.1602 80.9221" stroke="#4147D6" stroke-width="1.70345" stroke-linecap="round" stroke-dasharray="3.41 5.11"/>
<path d="M84.9544 53.1052L95.225 73.1936" stroke="#4147D6" stroke-width="1.70345" stroke-linecap="round" stroke-dasharray="3.41 5.11"/>
<path d="M65.0191 13.3579L68.486 20.0443" stroke="#4147D6" stroke-width="1.70345" stroke-linecap="round" stroke-dasharray="3.41 5.11"/>
<path d="M101.406 40.093L84.012 47.1369M27.4983 70.0229L35.2025 66.903" stroke="#4147D6" stroke-width="1.70345" stroke-linecap="round" stroke-dasharray="3.41 5.11"/>
<path d="M90.4044 75.3979L59.6264 58.361M13.7219 32.9509L29.5996 41.7399" stroke="#4147D6" stroke-width="1.70345" stroke-linecap="round" stroke-dasharray="3.41 5.11"/>
<defs>
<linearGradient id="paint0_linear" x1="65.0874" y1="3.67944" x2="64.5668" y2="12.639" gradientUnits="userSpaceOnUse">
<stop stop-color="#E0E1FF"/>
<stop offset="1" stop-color="#C2CCFF"/>
</linearGradient>
<linearGradient id="paint1_linear" x1="9.6252" y1="24.9817" x2="9.10466" y2="33.9412" gradientUnits="userSpaceOnUse">
<stop stop-color="#E0E1FF"/>
<stop offset="1" stop-color="#C2CCFF"/>
</linearGradient>
<linearGradient id="paint2_linear" x1="33.7228" y1="40.5346" x2="81.851" y2="41.0489" gradientUnits="userSpaceOnUse">
<stop stop-color="#77C4DD"/>
<stop offset="1" stop-color="#74DAC8"/>
</linearGradient>
<linearGradient id="paint3_linear" x1="33.7228" y1="40.5346" x2="81.851" y2="41.0489" gradientUnits="userSpaceOnUse">
<stop stop-color="#77C4DD"/>
<stop offset="1" stop-color="#74DAC8"/>
</linearGradient>
<linearGradient id="paint4_linear" x1="33.7228" y1="40.5346" x2="81.851" y2="41.0489" gradientUnits="userSpaceOnUse">
<stop stop-color="#77C4DD"/>
<stop offset="1" stop-color="#74DAC8"/>
</linearGradient>
<linearGradient id="paint5_linear" x1="33.7228" y1="40.5346" x2="81.851" y2="41.0489" gradientUnits="userSpaceOnUse">
<stop stop-color="#77C4DD"/>
<stop offset="1" stop-color="#74DAC8"/>
</linearGradient>
<linearGradient id="paint6_linear" x1="100.587" y1="78.7222" x2="100.066" y2="87.6817" gradientUnits="userSpaceOnUse">
<stop stop-color="#E0E1FF"/>
<stop offset="1" stop-color="#C2CCFF"/>
</linearGradient>
<linearGradient id="paint7_linear" x1="120.69" y1="30.0554" x2="121.143" y2="46.9853" gradientUnits="userSpaceOnUse">
<stop stop-color="#E0E1FF"/>
<stop offset="1" stop-color="#C2CCFF"/>
</linearGradient>
<linearGradient id="paint8_linear" x1="24.1556" y1="70.3376" x2="24.6084" y2="87.2675" gradientUnits="userSpaceOnUse">
<stop stop-color="#E0E1FF"/>
<stop offset="1" stop-color="#C2CCFF"/>
</linearGradient>
</defs>
</svg>
