<svg width="218" height="259" viewBox="0 0 218 259" fill="none" xmlns="http://www.w3.org/2000/svg">
<path d="M24.8035 52.7444C24.8035 51.4439 26.0433 50.534 27.3096 50.8309C73.8273 61.7383 93.274 54.8806 121.322 31.8862V258.746C121.322 258.746 24.8035 226.575 24.8035 147.901C24.8043 124.456 24.8036 65.6132 24.8035 52.7444Z" fill="url(#paint0_linear)"/>
<path d="M217.715 52.7445C217.715 51.4439 216.475 50.534 215.209 50.8309C168.691 61.7383 149.245 54.8807 121.197 31.8863V258.746C121.197 258.746 217.715 226.575 217.715 147.901C217.714 124.456 217.715 65.6133 217.715 52.7445Z" fill="url(#paint1_linear)"/>
<path d="M217.84 56.797C217.84 55.4965 216.612 54.5677 215.411 55.0668C205.683 59.1096 203.778 71.7058 203.778 87.1947C203.778 105.968 203.778 127.241 203.778 147.901C203.778 195.207 160.617 224.434 138.861 235.214C127.28 239.724 119.902 248.589 121.073 258.199C121.073 258.199 217.84 226.575 217.84 147.901C217.84 124.55 217.84 69.2485 217.84 56.797Z" fill="url(#paint2_linear)"/>
<path d="M24.8035 56.797C24.8035 55.4965 26.032 54.5677 27.233 55.0668C36.961 59.1096 38.8659 71.7058 38.8659 87.1947C38.8659 105.968 38.8659 127.241 38.8659 147.901C38.8659 195.207 82.0266 224.434 103.783 235.214C115.364 239.724 122.339 249.318 121.322 258.746C121.322 258.746 24.8035 226.575 24.8035 147.901C24.8043 124.55 24.8036 69.2485 24.8035 56.797Z" fill="url(#paint3_linear)"/>
<path d="M121.322 31.8862C93.2365 54.9113 73.7754 61.7566 27.1232 50.7871C25.9522 50.5118 24.8035 51.3493 24.8035 52.5522C24.8036 65.0155 24.8043 124.337 24.8035 147.901C24.8035 226.575 121.322 258.746 121.322 258.746C121.322 258.746 217.84 226.575 217.84 147.901C217.84 124.337 217.84 65.0154 217.84 52.5521C217.84 51.3492 216.692 50.5117 215.521 50.787C168.869 61.7565 149.407 54.9113 121.322 31.8862Z" fill="url(#paint4_linear)"/>
<path d="M174.606 137.633C174.606 167.007 150.794 190.82 121.42 190.82C92.0457 190.82 68.2334 167.007 68.2334 137.633C68.2334 108.259 92.0457 84.4467 121.42 84.4467C150.794 84.4467 174.606 108.259 174.606 137.633Z" fill="url(#paint5_linear)"/>
<path d="M91.5706 134.43C90.4012 135.599 90.4012 137.495 91.5706 138.665L95.5603 142.654C96.221 143.315 96.221 144.386 95.5603 145.047L91.2476 149.359C90.2566 150.35 90.2566 151.957 91.2476 152.948L91.9154 153.616C92.9064 154.607 94.5132 154.607 95.5042 153.616L103.475 145.645C103.56 145.561 103.637 145.472 103.707 145.379C103.777 145.286 103.85 145.194 103.932 145.111L104.611 144.432C104.942 144.102 104.942 143.566 104.611 143.236L103.827 142.452C103.765 142.39 103.709 142.322 103.654 142.254C103.598 142.186 103.539 142.12 103.475 142.056L102.808 141.388C102.744 141.325 102.678 141.265 102.61 141.21C102.542 141.155 102.474 141.098 102.412 141.036L95.8054 134.43C94.636 133.26 92.74 133.26 91.5706 134.43Z" fill="url(#paint6_linear)"/>
<path d="M151.073 124.083C152.243 125.252 152.243 127.148 151.073 128.318L147.084 132.307C146.423 132.968 146.423 134.039 147.084 134.7L151.396 139.013C152.387 140.004 152.387 141.61 151.396 142.601L150.729 143.269C149.738 144.26 148.131 144.26 147.14 143.269L139.169 135.298C139.084 135.214 139.007 135.125 138.937 135.033C138.867 134.939 138.794 134.847 138.712 134.764L138.033 134.085C137.702 133.755 137.702 133.219 138.033 132.889L138.816 132.105C138.879 132.043 138.935 131.975 138.99 131.907C139.046 131.839 139.105 131.773 139.169 131.709L139.836 131.042C139.9 130.978 139.966 130.919 140.034 130.863C140.103 130.808 140.17 130.751 140.232 130.689L146.839 124.083C148.008 122.914 149.904 122.914 151.073 124.083Z" fill="url(#paint7_linear)"/>
<path fill-rule="evenodd" clip-rule="evenodd" d="M100.655 123.077C98.1485 125.583 98.1486 129.647 100.655 132.153L108.646 140.144C110.371 141.87 110.371 144.668 108.646 146.393L100.678 154.361C98.159 156.88 98.159 160.965 100.678 163.484C103.198 166.003 107.282 166.003 109.802 163.484L125.456 147.83C125.65 147.636 125.829 147.433 125.993 147.222C126.165 147 126.34 146.781 126.538 146.583L128.326 144.796C129.189 143.933 129.189 142.534 128.326 141.671L126.288 139.634C126.139 139.485 126.003 139.323 125.869 139.161C125.74 139.005 125.602 138.853 125.456 138.707C125.309 138.561 125.158 138.423 125.001 138.294C124.839 138.159 124.678 138.023 124.529 137.874L109.732 123.077C107.225 120.57 103.161 120.57 100.655 123.077Z" fill="url(#paint8_linear)"/>
<path d="M142.763 121.482C145.414 118.831 145.414 114.532 142.763 111.881C140.112 109.23 135.813 109.23 133.162 111.881L118.192 126.85L126.872 135.531C126.902 135.56 126.958 135.611 127.115 135.74C127.351 135.936 127.579 136.144 127.799 136.364C128.019 136.583 128.227 136.812 128.422 137.048C128.552 137.205 128.603 137.261 128.632 137.29L130.669 139.327C132.826 141.485 132.826 144.982 130.669 147.139L128.882 148.926C128.843 148.966 128.777 149.041 128.61 149.256C128.481 149.421 128.346 149.584 128.206 149.742L133.845 155.381C136.092 157.628 139.734 157.628 141.981 155.381L143.495 153.867C145.742 151.62 145.742 147.977 143.495 145.73L133.717 135.952C132.22 134.455 132.22 132.026 133.717 130.528L142.763 121.482Z" fill="url(#paint9_linear)"/>
<path d="M0.0671674 21.9051C0.0671529 20.6849 1.2327 19.8353 2.42051 20.1147C50.2952 31.3759 70.2604 24.3558 99.0756 0.732422V233.445C99.0756 233.445 0.0671387 200.443 0.0671387 119.74C0.0679784 95.5518 0.0673179 34.6323 0.0671674 21.9051Z" fill="url(#paint10_linear)"/>
<path d="M197.956 21.9046C197.956 20.6844 196.79 19.8348 195.602 20.1142C147.728 31.3754 127.762 24.3553 98.9472 0.731934V233.444C98.9472 233.444 197.956 200.443 197.956 119.739C197.955 95.5514 197.955 34.6318 197.956 21.9046Z" fill="#F8F8FD"/>
<path d="M198.084 26.0556C198.084 24.8354 196.934 23.9735 195.8 24.4257C185.64 28.4788 183.659 41.4688 183.659 57.4673C183.659 76.7245 183.659 98.5463 183.659 119.739C183.659 168.266 139.385 198.247 117.067 209.305C105.188 213.931 97.6191 223.025 98.8204 232.883C98.8204 232.883 198.084 200.443 198.084 119.739C198.083 95.6394 198.084 38.3617 198.084 26.0556Z" fill="url(#paint11_linear)"/>
<path d="M0.067169 26.0556C0.0671538 24.8354 1.21745 23.9735 2.35082 24.4257C12.5111 28.4788 14.4924 41.4688 14.4924 57.4673C14.4924 76.7245 14.4924 98.5463 14.4924 119.739C14.4924 168.266 58.7665 198.247 81.0841 209.305C92.9635 213.931 100.118 223.773 99.0755 233.444C99.0755 233.444 0.0671387 200.443 0.0671387 119.739C0.0679754 95.6394 0.0673227 38.3617 0.067169 26.0556Z" fill="#F8F8FD"/>
<path d="M99.3498 230.731C99.2518 230.766 99.1604 230.799 99.0755 230.829C98.9907 230.799 98.8993 230.766 98.8013 230.731C98.0959 230.476 97.0534 230.09 95.7218 229.569C93.0583 228.526 89.2409 226.943 84.6546 224.791C75.4755 220.484 63.251 213.917 51.0417 204.871C26.5768 186.746 2.53714 158.964 2.53714 119.74C2.53796 96.0096 2.53734 36.9247 2.53718 22.6788C26.2794 28.2082 43.4816 29.3028 58.449 25.9124C73.0318 22.6092 85.2178 15.1092 99.0755 3.91699C112.933 15.1092 125.119 22.6091 139.702 25.9124C154.67 29.3028 171.872 28.2082 195.614 22.6787C195.614 36.9246 195.613 96.0095 195.614 119.74C195.614 158.964 171.574 186.746 147.109 204.871C134.9 213.917 122.676 220.484 113.496 224.791C108.91 226.943 105.093 228.526 102.429 229.569C101.098 230.09 100.055 230.476 99.3498 230.731Z" stroke="#4147D6" stroke-width="4.94"/>
<circle cx="99.1759" cy="109.206" r="54.5585" fill="url(#paint12_linear)"/>
<path d="M68.5564 105.921C67.3569 107.121 67.3569 109.066 68.5564 110.265L72.649 114.358C73.3268 115.036 73.3268 116.134 72.649 116.812L68.2251 121.236C67.2085 122.253 67.2085 123.901 68.2251 124.917L68.9101 125.602C69.9267 126.619 71.5749 126.619 72.5915 125.602L80.7683 117.426C80.8548 117.339 80.9339 117.248 81.0057 117.153C81.0781 117.057 81.1523 116.963 81.2372 116.878L81.9336 116.182C82.2725 115.843 82.2725 115.293 81.9336 114.954L81.1294 114.15C81.0657 114.086 81.0079 114.017 80.9511 113.947C80.8943 113.877 80.8334 113.809 80.7683 113.744L80.0832 113.059C80.0181 112.994 79.9504 112.933 79.8804 112.876C79.8105 112.82 79.7411 112.762 79.6774 112.698L72.9004 105.921C71.7009 104.722 69.756 104.722 68.5564 105.921Z" fill="#F8F8FD"/>
<path d="M129.594 95.3075C130.794 96.5071 130.794 98.452 129.594 99.6515L125.502 103.744C124.824 104.422 124.824 105.521 125.502 106.198L129.926 110.622C130.942 111.639 130.942 113.287 129.926 114.304L129.241 114.989C128.224 116.005 126.576 116.005 125.559 114.989L117.382 106.812C117.296 106.725 117.217 106.634 117.145 106.54C117.073 106.444 116.998 106.349 116.914 106.264L116.217 105.568C115.878 105.229 115.878 104.68 116.217 104.341L117.021 103.537C117.085 103.473 117.143 103.404 117.199 103.334C117.256 103.263 117.317 103.196 117.382 103.131L118.067 102.446C118.133 102.38 118.2 102.319 118.27 102.263C118.34 102.206 118.41 102.148 118.474 102.084L125.25 95.3075C126.45 94.108 128.395 94.108 129.594 95.3075Z" fill="#F8F8FD"/>
<path fill-rule="evenodd" clip-rule="evenodd" d="M77.8752 94.2753C75.304 96.8464 75.3041 101.015 77.8752 103.586L86.072 111.783C87.8422 113.553 87.8422 116.423 86.072 118.193L77.8992 126.366C75.3148 128.951 75.3148 133.141 77.8992 135.725C80.4835 138.309 84.6736 138.309 87.258 135.725L103.315 119.668C103.515 119.468 103.698 119.26 103.867 119.043C104.043 118.816 104.223 118.591 104.426 118.388L106.26 116.554C107.145 115.669 107.145 114.234 106.26 113.349L104.17 111.259C104.017 111.106 103.877 110.941 103.739 110.775C103.607 110.614 103.466 110.459 103.315 110.309C103.165 110.159 103.01 110.017 102.85 109.885C102.683 109.747 102.518 109.607 102.365 109.454L87.1859 94.2753C84.6148 91.7042 80.4463 91.7042 77.8752 94.2753Z" fill="#F8F8FD"/>
<path d="M121.069 92.6398C123.789 89.9201 123.789 85.5105 121.069 82.7908C118.35 80.071 113.94 80.071 111.22 82.7908L95.8649 98.1463L104.769 107.05C104.799 107.081 104.856 107.132 105.017 107.266C105.26 107.466 105.494 107.679 105.719 107.905C105.945 108.13 106.158 108.365 106.359 108.607C106.492 108.768 106.544 108.825 106.574 108.855L108.664 110.945C110.877 113.158 110.877 116.746 108.664 118.958L106.83 120.792C106.79 120.832 106.722 120.909 106.551 121.13C106.419 121.3 106.281 121.466 106.136 121.629L111.921 127.413C114.226 129.718 117.963 129.718 120.268 127.413L121.821 125.86C124.126 123.555 124.126 119.818 121.821 117.513L111.791 107.483C110.254 105.947 110.254 103.455 111.791 101.919L121.069 92.6398Z" fill="#F8F8FD"/>
<defs>
<linearGradient id="paint0_linear" x1="121.322" y1="31.8862" x2="178.431" y2="268.267" gradientUnits="userSpaceOnUse">
<stop stop-color="#E0E1FF"/>
<stop offset="1" stop-color="#C2CCFF"/>
</linearGradient>
<linearGradient id="paint1_linear" x1="121.322" y1="31.8862" x2="178.431" y2="268.267" gradientUnits="userSpaceOnUse">
<stop stop-color="#E0E1FF"/>
<stop offset="1" stop-color="#C2CCFF"/>
</linearGradient>
<linearGradient id="paint2_linear" x1="121.322" y1="31.8862" x2="178.431" y2="268.267" gradientUnits="userSpaceOnUse">
<stop stop-color="#E0E1FF"/>
<stop offset="1" stop-color="#C2CCFF"/>
</linearGradient>
<linearGradient id="paint3_linear" x1="121.322" y1="31.8862" x2="178.431" y2="268.267" gradientUnits="userSpaceOnUse">
<stop stop-color="#E0E1FF"/>
<stop offset="1" stop-color="#C2CCFF"/>
</linearGradient>
<linearGradient id="paint4_linear" x1="121.322" y1="31.8862" x2="178.431" y2="268.267" gradientUnits="userSpaceOnUse">
<stop stop-color="#E0E1FF"/>
<stop offset="1" stop-color="#C2CCFF"/>
</linearGradient>
<linearGradient id="paint5_linear" x1="121.322" y1="31.8862" x2="178.431" y2="268.267" gradientUnits="userSpaceOnUse">
<stop stop-color="#E0E1FF"/>
<stop offset="1" stop-color="#C2CCFF"/>
</linearGradient>
<linearGradient id="paint6_linear" x1="121.322" y1="31.8862" x2="178.431" y2="268.267" gradientUnits="userSpaceOnUse">
<stop stop-color="#E0E1FF"/>
<stop offset="1" stop-color="#C2CCFF"/>
</linearGradient>
<linearGradient id="paint7_linear" x1="121.322" y1="31.8862" x2="178.431" y2="268.267" gradientUnits="userSpaceOnUse">
<stop stop-color="#E0E1FF"/>
<stop offset="1" stop-color="#C2CCFF"/>
</linearGradient>
<linearGradient id="paint8_linear" x1="121.322" y1="31.8862" x2="178.431" y2="268.267" gradientUnits="userSpaceOnUse">
<stop stop-color="#E0E1FF"/>
<stop offset="1" stop-color="#C2CCFF"/>
</linearGradient>
<linearGradient id="paint9_linear" x1="121.322" y1="31.8862" x2="178.431" y2="268.267" gradientUnits="userSpaceOnUse">
<stop stop-color="#E0E1FF"/>
<stop offset="1" stop-color="#C2CCFF"/>
</linearGradient>
<linearGradient id="paint10_linear" x1="49.5713" y1="0.73242" x2="150.103" y2="208.788" gradientUnits="userSpaceOnUse">
<stop stop-color="#E0E1FF"/>
<stop offset="1" stop-color="#C2CCFF"/>
</linearGradient>
<linearGradient id="paint11_linear" x1="181.264" y1="46.077" x2="99.9951" y2="50.9169" gradientUnits="userSpaceOnUse">
<stop stop-color="#4147D6"/>
<stop offset="1" stop-color="#6663F5"/>
</linearGradient>
<linearGradient id="paint12_linear" x1="63.0837" y1="66.32" x2="151.239" y2="77.3695" gradientUnits="userSpaceOnUse">
<stop stop-color="#4147D6"/>
<stop offset="1" stop-color="#6663F5"/>
</linearGradient>
</defs>
</svg>
