<svg width="222" height="172" viewBox="0 0 222 172" fill="none" xmlns="http://www.w3.org/2000/svg">
<path d="M23.6997 104.968C23.6997 50.9317 63.9623 18.5098 88.5435 18.5098C114.185 18.5098 129.866 60.6795 146.395 60.6795C162.924 60.6795 157.336 58.6636 167.346 58.6636C173.491 58.6636 207.849 61.9324 207.849 107.705C207.849 153.477 172.036 161.76 158.05 161.76C144.064 161.76 131.288 151.272 120.056 151.272C99.5976 151.272 90.999 164.846 61.3822 164.846C54.6012 164.846 23.6997 154.767 23.6997 104.968Z" fill="url(#paint0_linear)"/>
<mask id="mask0" mask-type="alpha" maskUnits="userSpaceOnUse" x="23" y="18" width="185" height="147">
<path d="M23.6997 104.968C23.6997 50.9317 63.9623 18.5098 88.5435 18.5098C114.185 18.5098 129.866 60.6795 146.395 60.6795C162.924 60.6795 157.336 58.6636 167.346 58.6636C173.491 58.6636 207.849 61.9324 207.849 107.705C207.849 153.477 172.036 161.76 158.05 161.76C144.064 161.76 131.288 151.272 120.056 151.272C99.5976 151.272 90.999 164.846 61.3822 164.846C54.6012 164.846 23.6997 154.767 23.6997 104.968Z" fill="url(#paint1_linear)"/>
</mask>
<g mask="url(#mask0)">
<path opacity="0.5" d="M95.0914 170.133L57.9702 11.7948L174.497 -0.658691L140.502 173.691L95.0914 170.133Z" fill="url(#paint2_linear)"/>
</g>
<path d="M121.328 6.36694C121.588 5.66425 122.582 5.66425 122.842 6.36694V6.36694C123.578 8.35527 125.145 9.92294 127.134 10.6587V10.6587C127.836 10.9187 127.836 11.9126 127.134 12.1726V12.1726C125.145 12.9083 123.578 14.476 122.842 16.4643V16.4643C122.582 17.167 121.588 17.167 121.328 16.4643V16.4643C120.592 14.476 119.025 12.9083 117.036 12.1726V12.1726C116.334 11.9126 116.334 10.9187 117.036 10.6587V10.6587C119.025 9.92294 120.592 8.35527 121.328 6.36694V6.36694Z" fill="url(#paint3_linear)"/>
<path d="M137.658 123.299C137.918 122.596 138.912 122.596 139.172 123.299V123.299C139.907 125.287 141.475 126.855 143.463 127.59V127.59C144.166 127.85 144.166 128.844 143.463 129.104V129.104C141.475 129.84 139.907 131.408 139.172 133.396V133.396C138.912 134.099 137.918 134.099 137.658 133.396V133.396C136.922 131.408 135.354 129.84 133.366 129.104V129.104C132.663 128.844 132.663 127.85 133.366 127.59V127.59C135.354 126.855 136.922 125.287 137.658 123.299V123.299Z" fill="url(#paint4_linear)"/>
<g opacity="0.8">
<path fill-rule="evenodd" clip-rule="evenodd" d="M51.6006 77.5666L67.3434 124.803C69.3358 123.722 73.6963 122.754 75.1989 127.536C75.2331 127.297 79.6769 123.551 88.4889 120.614C92.0905 119.414 100.17 118.355 109.725 117.102C122.91 115.373 138.903 113.277 149.816 109.933L151.795 115.871C153.759 115.564 158.028 115.967 159.383 120.034C165.324 118.115 176.529 112.245 173.818 104.111C173.489 103.123 173.158 102.23 172.829 101.423L153.383 43.0763C152.675 40.9505 149.729 39.4792 146.508 40.5527C145.179 40.9958 143.448 42.1263 141.415 43.454C138.523 45.343 135.02 47.6313 131.191 48.9075C121.069 52.281 108.507 53.787 96.607 55.2136C85.8976 56.4975 75.7241 57.7171 68.3463 60.176C60.9282 62.6482 55.4667 66.9749 55.1958 67.5166C55.7939 69.5562 55.9121 74.4216 51.6006 77.5666Z" fill="#DCDCDC"/>
<path fill-rule="evenodd" clip-rule="evenodd" d="M51.6006 77.5666L67.3434 124.803C69.3358 123.722 73.6963 122.754 75.1989 127.536C75.2331 127.297 79.6769 123.551 88.4889 120.614C92.0905 119.414 100.17 118.355 109.725 117.102C122.91 115.373 138.903 113.277 149.816 109.933L151.795 115.871C153.759 115.564 158.028 115.967 159.383 120.034C165.324 118.115 176.529 112.245 173.818 104.111C173.489 103.123 173.158 102.23 172.829 101.423L153.383 43.0763C152.675 40.9505 149.729 39.4792 146.508 40.5527C145.179 40.9958 143.448 42.1263 141.415 43.454C138.523 45.343 135.02 47.6313 131.191 48.9075C121.069 52.281 108.507 53.787 96.607 55.2136C85.8976 56.4975 75.7241 57.7171 68.3463 60.176C60.9282 62.6482 55.4667 66.9749 55.1958 67.5166C55.7939 69.5562 55.9121 74.4216 51.6006 77.5666Z" fill="#292D8D"/>
</g>
<path d="M154.964 110.589L152.901 104.4L151.115 99.0408L170.376 89.1222C171.45 88.9688 174.276 90.6954 176.987 98.829C179.698 106.963 168.493 112.833 162.552 114.752C161.197 110.685 156.929 110.282 154.964 110.589Z" fill="#DCDCDC"/>
<path d="M154.964 110.589L152.901 104.4L151.115 99.0408L170.376 89.1222C171.45 88.9688 174.276 90.6954 176.987 98.829C179.698 106.963 168.493 112.833 162.552 114.752C161.197 110.685 156.929 110.282 154.964 110.589Z" fill="url(#paint5_linear)"/>
<path d="M70.5128 119.521L54.77 72.2843C59.0815 69.1393 58.9632 64.274 58.3652 62.2344C58.6361 61.6927 64.0976 57.366 71.5157 54.8937C87.0916 49.7026 115.128 50.0348 134.36 43.6252C140.881 41.4521 146.456 36.344 149.678 35.2705C152.899 34.197 155.844 35.6683 156.552 37.794L176.992 99.1232C176.377 97.2789 173.456 95.3449 170.075 96.4719C166.693 97.5988 164.678 100.775 154.534 104.156C136.09 110.303 100.47 112.395 91.6583 115.332C82.8463 118.269 78.4024 122.015 78.3683 122.254C76.8657 117.472 72.5052 118.439 70.5128 119.521Z" fill="#DCDCDC"/>
<path d="M70.5128 119.521L54.77 72.2843C59.0815 69.1393 58.9632 64.274 58.3652 62.2344C58.6361 61.6927 64.0976 57.366 71.5157 54.8937C87.0916 49.7026 115.128 50.0348 134.36 43.6252C140.881 41.4521 146.456 36.344 149.678 35.2705C152.899 34.197 155.844 35.6683 156.552 37.794L176.992 99.1232C176.377 97.2789 173.456 95.3449 170.075 96.4719C166.693 97.5988 164.678 100.775 154.534 104.156C136.09 110.303 100.47 112.395 91.6583 115.332C82.8463 118.269 78.4024 122.015 78.3683 122.254C76.8657 117.472 72.5052 118.439 70.5128 119.521Z" fill="url(#paint6_linear)"/>
<path d="M134.314 90.8018C134.575 91.8671 134.571 92.8848 134.302 93.8549C134.028 94.8117 133.53 95.6262 132.805 96.2985C132.094 96.9676 131.239 97.4248 130.241 97.6704C129.228 97.9191 128.252 97.912 127.312 97.6488C126.372 97.3857 125.559 96.8936 124.873 96.1725C124.185 95.4381 123.709 94.5382 123.447 93.4729C123.185 92.4076 123.191 91.3966 123.464 90.4398C123.734 89.4697 124.225 88.6501 124.936 87.9811C125.643 87.2987 126.503 86.8332 127.515 86.5844C128.514 86.3389 129.485 86.3543 130.429 86.6308C131.382 86.8906 132.203 87.3877 132.892 88.1222C133.578 88.8433 134.052 89.7365 134.314 90.8018ZM131.917 91.391C131.756 90.7385 131.474 90.1936 131.07 89.7563C130.676 89.3024 130.212 88.993 129.677 88.8279C129.155 88.6595 128.615 88.6441 128.056 88.7816C127.496 88.9191 127.018 89.1849 126.621 89.5791C126.237 89.9701 125.969 90.4596 125.817 91.0477C125.675 91.6192 125.684 92.2312 125.844 92.8837C126.005 93.5362 126.28 94.0827 126.671 94.5233C127.075 94.9606 127.538 95.2634 128.059 95.4317C128.594 95.5968 129.141 95.6106 129.7 95.4731C130.26 95.3356 130.731 95.0714 131.115 94.6805C131.513 94.2863 131.782 93.8034 131.924 93.2319C132.08 92.6571 132.077 92.0435 131.917 91.391ZM139.648 81.7168C139.195 81.8281 138.908 82.0399 138.787 82.352C138.663 82.6509 138.638 82.9534 138.714 83.2597L138.944 84.1985L140.762 83.7517C141.082 83.6731 141.374 83.7142 141.64 83.8749C141.902 84.0223 142.072 84.2557 142.151 84.5753C142.229 84.8949 142.188 85.1874 142.028 85.4529C141.864 85.705 141.622 85.8704 141.302 85.9489L139.485 86.3957L141.223 93.4668C141.308 93.813 141.267 94.1338 141.099 94.4292C140.929 94.7112 140.67 94.8948 140.324 94.9799C139.978 95.065 139.663 95.0222 139.381 94.8514C139.096 94.6674 138.911 94.4023 138.826 94.056L137.088 86.985L136.009 87.2501C135.689 87.3287 135.398 87.2943 135.136 87.1469C134.871 86.9862 134.699 86.7461 134.62 86.4265C134.542 86.1069 134.584 85.821 134.748 85.5689C134.909 85.3035 135.149 85.1315 135.469 85.0529L136.547 84.7877L136.322 83.8689C136.076 82.8702 136.216 81.9744 136.741 81.1816C137.28 80.3855 138.195 79.8287 139.487 79.5111C139.979 79.39 140.43 79.3851 140.839 79.4965C141.261 79.6046 141.522 79.865 141.624 80.2779C141.702 80.5975 141.673 80.88 141.536 81.1256C141.398 81.3712 141.197 81.5267 140.93 81.5922C140.864 81.6085 140.789 81.6199 140.706 81.6262C140.636 81.6293 140.559 81.634 140.476 81.6403C140.137 81.6389 139.861 81.6645 139.648 81.7168ZM147.977 79.6693C147.524 79.7806 147.238 79.9923 147.117 80.3045C146.992 80.6033 146.968 80.9059 147.043 81.2122L147.274 82.151L149.092 81.7041C149.411 81.6256 149.704 81.6666 149.969 81.8273C150.231 81.9747 150.402 82.2082 150.48 82.5278C150.559 82.8474 150.518 83.1399 150.357 83.4053C150.193 83.6575 149.951 83.8228 149.632 83.9014L147.814 84.3482L149.552 91.4193C149.637 91.7655 149.596 92.0863 149.429 92.3816C149.258 92.6636 148.999 92.8472 148.653 92.9323C148.307 93.0174 147.993 92.9746 147.711 92.8039C147.426 92.6198 147.24 92.3547 147.155 92.0085L145.417 84.9374L144.338 85.2026C144.019 85.2811 143.728 85.2467 143.466 85.0994C143.2 84.9387 143.028 84.6985 142.95 84.3789C142.871 84.0593 142.914 83.7735 143.078 83.5213C143.239 83.2559 143.479 83.0839 143.798 83.0053L144.877 82.7402L144.651 81.8214C144.406 80.8226 144.545 79.9268 145.071 79.134C145.609 78.3379 146.524 77.7811 147.816 77.4636C148.309 77.3425 148.76 77.3376 149.168 77.449C149.59 77.557 149.852 77.8175 149.953 78.2303C150.032 78.5499 150.003 78.8325 149.865 79.0781C149.728 79.3236 149.526 79.4792 149.26 79.5446C149.193 79.561 149.118 79.5723 149.035 79.5787C148.965 79.5817 148.889 79.5864 148.806 79.5927C148.466 79.5914 148.19 79.6169 147.977 79.6693Z" fill="#F8F8FD"/>
<path d="M134.302 93.8549L134.517 93.9163L134.517 93.9148L134.302 93.8549ZM132.805 96.2985L132.653 96.1347L132.652 96.1357L132.805 96.2985ZM127.312 97.6488L127.372 97.4335L127.372 97.4335L127.312 97.6488ZM124.873 96.1725L124.71 96.3255L124.711 96.3266L124.873 96.1725ZM123.464 90.4398L123.679 90.5011L123.68 90.4997L123.464 90.4398ZM124.936 87.9811L125.089 88.1439L125.091 88.142L124.936 87.9811ZM130.429 86.6308L130.366 86.8454L130.37 86.8465L130.429 86.6308ZM132.892 88.1222L132.729 88.2751L132.73 88.2762L132.892 88.1222ZM131.07 89.7563L130.901 89.9029L130.906 89.908L131.07 89.7563ZM129.677 88.8279L129.608 89.0407L129.611 89.0415L129.677 88.8279ZM126.621 89.5791L126.463 89.4204L126.461 89.4225L126.621 89.5791ZM125.817 91.0477L125.6 90.9917L125.6 90.9938L125.817 91.0477ZM126.671 94.5233L126.504 94.6717L126.507 94.675L126.671 94.5233ZM128.059 95.4317L127.991 95.6445L127.993 95.6454L128.059 95.4317ZM131.115 94.6805L130.958 94.5218L130.956 94.5238L131.115 94.6805ZM131.924 93.2319L131.708 93.1736L131.707 93.178L131.924 93.2319ZM134.096 90.8552C134.35 91.8866 134.345 92.8651 134.086 93.795L134.517 93.9148C134.798 92.9045 134.801 91.8476 134.531 90.7484L134.096 90.8552ZM134.087 93.7935C133.825 94.7113 133.347 95.4903 132.653 96.1347L132.957 96.4624C133.712 95.7621 134.232 94.9121 134.517 93.9163L134.087 93.7935ZM132.652 96.1357C131.971 96.7769 131.151 97.2164 130.187 97.4532L130.294 97.8875C131.328 97.6333 132.218 97.1582 132.958 96.4614L132.652 96.1357ZM130.187 97.4532C129.21 97.6935 128.273 97.6856 127.372 97.4335L127.252 97.8642C128.232 98.1384 129.247 98.1448 130.294 97.8875L130.187 97.4532ZM127.372 97.4335C126.472 97.1815 125.694 96.7109 125.035 96.0185L124.711 96.3266C125.424 97.0763 126.272 97.5899 127.252 97.8642L127.372 97.4335ZM125.037 96.0196C124.376 95.3156 123.918 94.451 123.664 93.4196L123.23 93.5263C123.5 94.6255 123.993 95.5606 124.71 96.3255L125.037 96.0196ZM123.664 93.4196C123.411 92.388 123.418 91.4168 123.679 90.5011L123.249 90.3784C122.964 91.3763 122.96 92.4272 123.23 93.5263L123.664 93.4196ZM123.68 90.4997C123.939 89.5676 124.409 88.784 125.089 88.1439L124.782 87.8182C124.041 88.5162 123.529 89.3717 123.249 90.3798L123.68 90.4997ZM125.091 88.142C125.768 87.4887 126.593 87.0414 127.569 86.8015L127.462 86.3673C126.414 86.6249 125.518 87.1087 124.78 87.8201L125.091 88.142ZM127.569 86.8015C128.531 86.5649 129.462 86.5805 130.366 86.8453L130.492 86.4162C129.508 86.1282 128.497 86.1128 127.462 86.3673L127.569 86.8015ZM130.37 86.8465C131.283 87.0952 132.068 87.5703 132.729 88.2751L133.055 87.9692C132.339 87.2052 131.482 86.686 130.487 86.4151L130.37 86.8465ZM132.73 88.2762C133.386 88.9663 133.843 89.8236 134.096 90.8552L134.531 90.7484C134.26 89.6493 133.769 88.7202 133.054 87.9681L132.73 88.2762ZM132.134 91.3376C131.965 90.6532 131.667 90.0731 131.234 89.6046L130.906 89.908C131.281 90.3141 131.547 90.8238 131.699 91.4444L132.134 91.3376ZM131.239 89.6097C130.82 89.1268 130.32 88.7926 129.743 88.6143L129.611 89.0415C130.103 89.1934 130.532 89.4781 130.901 89.9029L131.239 89.6097ZM129.745 88.6151C129.182 88.4334 128.6 88.4176 128.002 88.5645L128.109 88.9987C128.63 88.8706 129.128 88.8857 129.608 89.0407L129.745 88.6151ZM128.002 88.5645C127.405 88.7113 126.89 88.9968 126.463 89.4204L126.778 89.7379C127.146 89.373 127.588 89.1268 128.109 88.9987L128.002 88.5645ZM126.461 89.4225C126.047 89.8444 125.761 90.3699 125.6 90.9917L126.033 91.1036C126.176 90.5493 126.426 90.0958 126.78 89.7358L126.461 89.4225ZM125.6 90.9938C125.448 91.6052 125.459 92.2543 125.627 92.9371L126.061 92.8303C125.908 92.208 125.902 91.6332 126.034 91.1016L125.6 90.9938ZM125.627 92.9371C125.795 93.6198 126.086 94.2003 126.504 94.6717L126.838 94.3749C126.475 93.9652 126.214 93.4526 126.061 92.8303L125.627 92.9371ZM126.507 94.675C126.935 95.138 127.429 95.4634 127.991 95.6445L128.128 95.219C127.646 95.0634 127.215 94.7831 126.835 94.3716L126.507 94.675ZM127.993 95.6454C128.568 95.8228 129.156 95.8371 129.754 95.6903L129.647 95.256C129.126 95.3841 128.62 95.3709 128.125 95.2181L127.993 95.6454ZM129.754 95.6903C130.351 95.5434 130.86 95.2593 131.275 94.8372L130.956 94.5238C130.602 94.8836 130.168 95.1279 129.647 95.256L129.754 95.6903ZM131.273 94.8392C131.701 94.4146 131.99 93.8949 132.141 93.2858L131.707 93.178C131.575 93.712 131.325 94.1579 130.958 94.5218L131.273 94.8392ZM132.14 93.2902C132.306 92.6744 132.302 92.0221 132.134 91.3376L131.699 91.4444C131.852 92.0649 131.853 92.6399 131.708 93.1736L132.14 93.2902ZM138.787 82.352L138.994 82.4379L138.996 82.4328L138.787 82.352ZM138.944 84.1985L138.727 84.2519L138.781 84.469L138.998 84.4156L138.944 84.1985ZM141.64 83.8749L141.524 84.0662L141.53 84.0698L141.64 83.8749ZM142.028 85.4529L142.215 85.5748L142.219 85.5687L142.028 85.4529ZM139.485 86.3957L139.431 86.1786L139.214 86.232L139.267 86.4491L139.485 86.3957ZM141.099 94.4292L141.291 94.545L141.294 94.5394L141.099 94.4292ZM139.381 94.8514L139.26 95.0394L139.266 95.0427L139.381 94.8514ZM137.088 86.985L137.305 86.9316L137.251 86.7145L137.034 86.7678L137.088 86.985ZM135.136 87.1469L135.02 87.3383L135.027 87.3418L135.136 87.1469ZM134.748 85.5689L134.936 85.6909L134.94 85.6847L134.748 85.5689ZM136.547 84.7877L136.601 85.0049L136.818 84.9515L136.765 84.7344L136.547 84.7877ZM136.741 81.1816L136.556 81.0563L136.555 81.0581L136.741 81.1816ZM140.839 79.4965L140.78 79.7122L140.783 79.7131L140.839 79.4965ZM141.536 81.1256L141.341 81.0165L141.341 81.0165L141.536 81.1256ZM140.706 81.6262L140.715 81.8497L140.723 81.8492L140.706 81.6262ZM140.476 81.6403L140.475 81.8639L140.484 81.8639L140.493 81.8632L140.476 81.6403ZM147.117 80.3045L147.323 80.3903L147.325 80.3853L147.117 80.3045ZM147.274 82.151L147.057 82.2043L147.11 82.4215L147.327 82.3681L147.274 82.151ZM149.969 81.8273L149.853 82.0187L149.86 82.0222L149.969 81.8273ZM150.357 83.4053L150.545 83.5273L150.548 83.5211L150.357 83.4053ZM147.814 84.3482L147.761 84.1311L147.544 84.1844L147.597 84.4016L147.814 84.3482ZM149.429 92.3816L149.62 92.4975L149.623 92.4919L149.429 92.3816ZM147.711 92.8039L147.59 92.9919L147.595 92.9952L147.711 92.8039ZM145.417 84.9374L145.634 84.884L145.581 84.6669L145.364 84.7203L145.417 84.9374ZM143.466 85.0994L143.35 85.2907L143.356 85.2943L143.466 85.0994ZM143.078 83.5213L143.265 83.6433L143.269 83.6371L143.078 83.5213ZM144.877 82.7402L144.93 82.9573L145.147 82.9039L145.094 82.6868L144.877 82.7402ZM145.071 79.134L144.886 79.0087L144.884 79.0105L145.071 79.134ZM149.168 77.449L149.109 77.6647L149.113 77.6655L149.168 77.449ZM149.865 79.0781L149.67 78.9689L149.67 78.9689L149.865 79.0781ZM149.035 79.5787L149.045 79.8022L149.052 79.8016L149.035 79.5787ZM148.806 79.5927L148.805 79.8163L148.814 79.8163L148.823 79.8157L148.806 79.5927ZM139.594 81.4997C139.101 81.621 138.735 81.8666 138.579 82.2712L138.996 82.4328C139.081 82.2132 139.289 82.0352 139.701 81.934L139.594 81.4997ZM138.581 82.2662C138.439 82.6079 138.41 82.9592 138.497 83.3131L138.931 83.2063C138.867 82.9477 138.887 82.6939 138.994 82.4379L138.581 82.2662ZM138.497 83.3131L138.727 84.2519L139.162 84.1451L138.931 83.2063L138.497 83.3131ZM138.998 84.4156L140.816 83.9688L140.709 83.5346L138.891 83.9814L138.998 84.4156ZM140.816 83.9688C141.081 83.9034 141.313 83.9382 141.524 84.0661L141.755 83.6836C141.436 83.4902 141.082 83.4428 140.709 83.5346L140.816 83.9688ZM141.53 84.0698C141.733 84.1838 141.868 84.3628 141.934 84.6287L142.368 84.522C142.276 84.1486 142.071 83.8607 141.749 83.68L141.53 84.0698ZM141.934 84.6287C141.999 84.8946 141.964 85.1257 141.836 85.3371L142.219 85.5687C142.412 85.2492 142.46 84.8953 142.368 84.522L141.934 84.6287ZM141.84 85.331C141.71 85.5308 141.519 85.6654 141.249 85.7318L141.356 86.166C141.725 86.0753 142.017 85.8792 142.215 85.5748L141.84 85.331ZM141.249 85.7318L139.431 86.1786L139.538 86.6129L141.356 86.166L141.249 85.7318ZM139.267 86.4491L141.006 93.5202L141.44 93.4134L139.702 86.3424L139.267 86.4491ZM141.006 93.5202C141.078 93.814 141.043 94.0759 140.905 94.3189L141.294 94.5394C141.491 94.1918 141.538 93.812 141.44 93.4134L141.006 93.5202ZM140.908 94.3134C140.771 94.5403 140.564 94.6905 140.27 94.7628L140.377 95.197C140.776 95.099 141.086 94.8821 141.29 94.545L140.908 94.3134ZM140.27 94.7628C139.977 94.835 139.724 94.7975 139.497 94.6602L139.266 95.0427C139.603 95.2468 139.979 95.295 140.377 95.197L140.27 94.7628ZM139.503 94.6636C139.268 94.5121 139.115 94.2965 139.043 94.0027L138.609 94.1094C138.707 94.508 138.924 94.8227 139.26 95.0393L139.503 94.6636ZM139.043 94.0027L137.305 86.9316L136.87 87.0383L138.609 94.1094L139.043 94.0027ZM137.034 86.7678L135.956 87.033L136.062 87.4672L137.141 87.2021L137.034 86.7678ZM135.956 87.033C135.685 87.0994 135.454 87.0688 135.246 86.952L135.027 87.3418C135.343 87.5197 135.693 87.558 136.062 87.4672L135.956 87.033ZM135.252 86.9556C135.041 86.8277 134.903 86.639 134.837 86.3731L134.403 86.4798C134.495 86.8531 134.701 87.1448 135.021 87.3382L135.252 86.9556ZM134.837 86.3731C134.772 86.1072 134.809 85.8859 134.936 85.6908L134.561 85.447C134.36 85.7561 134.311 86.1065 134.403 86.4798L134.837 86.3731ZM134.94 85.6847C135.068 85.4733 135.256 85.3354 135.522 85.27L135.415 84.8358C135.042 84.9275 134.751 85.1336 134.557 85.4531L134.94 85.6847ZM135.522 85.27L136.601 85.0049L136.494 84.5706L135.415 84.8358L135.522 85.27ZM136.765 84.7344L136.539 83.8155L136.104 83.9223L136.33 84.8411L136.765 84.7344ZM136.539 83.8155C136.307 82.8719 136.44 82.0412 136.928 81.3051L136.555 81.0581C135.992 81.9075 135.845 82.8684 136.104 83.9223L136.539 83.8155ZM136.926 81.3069C137.424 80.5717 138.281 80.0376 139.54 79.7283L139.433 79.294C138.109 79.6197 137.136 80.1992 136.556 81.0563L136.926 81.3069ZM139.54 79.7283C140.003 79.6144 140.415 79.6126 140.78 79.7122L140.898 79.2808C140.446 79.1576 139.956 79.1656 139.433 79.294L139.54 79.7283ZM140.783 79.7131C140.963 79.759 141.096 79.834 141.194 79.9314C141.291 80.0285 141.364 80.1585 141.407 80.3312L141.841 80.2245C141.782 79.9844 141.673 79.7777 141.509 79.6144C141.345 79.4514 141.137 79.3421 140.894 79.2799L140.783 79.7131ZM141.407 80.3312C141.474 80.6058 141.446 80.8286 141.341 81.0165L141.731 81.2347C141.901 80.9315 141.931 80.5891 141.841 80.2245L141.407 80.3312ZM141.341 81.0165C141.233 81.2096 141.081 81.3248 140.877 81.3751L140.984 81.8093C141.312 81.7286 141.564 81.5328 141.731 81.2347L141.341 81.0165ZM140.877 81.3751C140.825 81.3879 140.762 81.3977 140.689 81.4033L140.723 81.8492C140.816 81.8421 140.903 81.8292 140.984 81.8093L140.877 81.3751ZM140.696 81.4029C140.623 81.406 140.544 81.4109 140.459 81.4173L140.493 81.8632C140.574 81.857 140.648 81.8525 140.715 81.8496L140.696 81.4029ZM140.477 81.4167C140.128 81.4153 139.832 81.4413 139.594 81.4997L139.701 81.934C139.889 81.8876 140.145 81.8626 140.475 81.8639L140.477 81.4167ZM147.924 79.4522C147.43 79.5735 147.065 79.819 146.908 80.2237L147.325 80.3853C147.41 80.1656 147.619 79.9877 148.03 79.8864L147.924 79.4522ZM146.91 80.2186C146.768 80.5603 146.739 80.9116 146.826 81.2655L147.26 81.1588C147.197 80.9001 147.217 80.6463 147.323 80.3903L146.91 80.2186ZM146.826 81.2655L147.057 82.2043L147.491 82.0976L147.26 81.1588L146.826 81.2655ZM147.327 82.3681L149.145 81.9213L149.038 81.487L147.221 81.9339L147.327 82.3681ZM149.145 81.9213C149.411 81.8559 149.642 81.8906 149.853 82.0186L150.085 81.6361C149.765 81.4427 149.412 81.3953 149.038 81.487L149.145 81.9213ZM149.86 82.0222C150.062 82.1363 150.198 82.3153 150.263 82.5812L150.697 82.4744C150.606 82.1011 150.4 81.8131 150.079 81.6324L149.86 82.0222ZM150.263 82.5812C150.328 82.847 150.294 83.0782 150.166 83.2896L150.548 83.5211C150.742 83.2016 150.789 82.8477 150.697 82.4744L150.263 82.5812ZM150.17 83.2834C150.04 83.4833 149.848 83.6179 149.578 83.6842L149.685 84.1185C150.054 84.0278 150.347 83.8316 150.544 83.5272L150.17 83.2834ZM149.578 83.6842L147.761 84.1311L147.867 84.5653L149.685 84.1185L149.578 83.6842ZM147.597 84.4016L149.335 91.4726L149.769 91.3659L148.031 84.2948L147.597 84.4016ZM149.335 91.4726C149.407 91.7665 149.372 92.0283 149.234 92.2713L149.623 92.4919C149.82 92.1442 149.867 91.7645 149.769 91.3659L149.335 91.4726ZM149.237 92.2658C149.1 92.4927 148.894 92.643 148.6 92.7152L148.707 93.1494C149.105 93.0515 149.416 92.8345 149.62 92.4974L149.237 92.2658ZM148.6 92.7152C148.306 92.7874 148.054 92.75 147.827 92.6126L147.595 92.9952C147.932 93.1993 148.308 93.2474 148.707 93.1494L148.6 92.7152ZM147.832 92.616C147.597 92.4646 147.445 92.249 147.372 91.9551L146.938 92.0619C147.036 92.4605 147.254 92.7751 147.59 92.9918L147.832 92.616ZM147.372 91.9551L145.634 84.884L145.2 84.9908L146.938 92.0619L147.372 91.9551ZM145.364 84.7203L144.285 84.9855L144.392 85.4197L145.47 85.1545L145.364 84.7203ZM144.285 84.9855C144.015 85.0518 143.783 85.0213 143.575 84.9045L143.356 85.2943C143.673 85.4722 144.023 85.5104 144.392 85.4197L144.285 84.9855ZM143.582 84.9081C143.37 84.7801 143.232 84.5914 143.167 84.3256L142.733 84.4323C142.824 84.8056 143.031 85.0972 143.35 85.2906L143.582 84.9081ZM143.167 84.3256C143.102 84.0597 143.138 83.8384 143.265 83.6432L142.89 83.3995C142.689 83.7086 142.641 84.059 142.733 84.4323L143.167 84.3256ZM143.269 83.6371C143.397 83.4257 143.586 83.2878 143.852 83.2225L143.745 82.7882C143.372 82.88 143.08 83.0861 142.887 83.4056L143.269 83.6371ZM143.852 83.2225L144.93 82.9573L144.824 82.5231L143.745 82.7882L143.852 83.2225ZM145.094 82.6868L144.868 81.768L144.434 81.8747L144.66 82.7936L145.094 82.6868ZM144.868 81.768C144.636 80.8244 144.769 79.9937 145.257 79.2575L144.884 79.0105C144.322 79.86 144.175 80.8209 144.434 81.8747L144.868 81.768ZM145.256 79.2593C145.753 78.5241 146.611 77.9901 147.87 77.6807L147.763 77.2465C146.438 77.5721 145.465 78.1517 144.886 79.0087L145.256 79.2593ZM147.87 77.6807C148.333 77.5669 148.744 77.5651 149.109 77.6647L149.227 77.2332C148.775 77.1101 148.285 77.1181 147.763 77.2465L147.87 77.6807ZM149.113 77.6655C149.292 77.7115 149.425 77.7865 149.523 77.8838C149.621 77.981 149.694 78.111 149.736 78.2837L150.171 78.1769C150.111 77.9368 150.003 77.7302 149.839 77.5669C149.675 77.4038 149.466 77.2945 149.224 77.2324L149.113 77.6655ZM149.736 78.2837C149.804 78.5582 149.775 78.7811 149.67 78.9689L150.06 79.1872C150.23 78.8839 150.26 78.5416 150.171 78.1769L149.736 78.2837ZM149.67 78.9689C149.562 79.162 149.411 79.2773 149.206 79.3275L149.313 79.7617C149.641 79.6811 149.894 79.4853 150.06 79.1872L149.67 78.9689ZM149.206 79.3275C149.154 79.3404 149.092 79.3501 149.018 79.3557L149.052 79.8016C149.145 79.7945 149.232 79.7816 149.313 79.7617L149.206 79.3275ZM149.025 79.3553C148.953 79.3585 148.874 79.3633 148.789 79.3698L148.823 79.8157C148.904 79.8095 148.978 79.805 149.045 79.802L149.025 79.3553ZM148.806 79.3692C148.458 79.3678 148.161 79.3937 147.924 79.4522L148.03 79.8864C148.219 79.8401 148.475 79.815 148.805 79.8163L148.806 79.3692Z" fill="#F8F8FD"/>
<path d="M99.8807 61.16C102.834 59.9224 106.228 61.3417 107.422 64.313L108.363 66.6572C108.941 68.0967 110.078 69.2408 111.514 69.8284L113.851 70.7854C116.815 71.9984 118.212 75.4024 116.954 78.3472L115.962 80.6705C115.353 82.0972 115.348 83.7098 115.948 85.1405L116.924 87.4704C118.162 90.4235 116.742 93.8181 113.771 95.0114L111.427 95.9529C109.987 96.531 108.843 97.6675 108.256 99.1032L107.299 101.441C106.086 104.404 102.682 105.801 99.7369 104.544L97.4135 103.552C95.9868 102.943 94.3743 102.938 92.9435 103.537L90.6137 104.514C87.6606 105.751 84.266 104.332 83.0726 101.361L82.1312 99.0166C81.553 97.577 80.4166 96.433 78.9809 95.8453L76.643 94.8883C73.6797 93.6753 72.2829 90.2713 73.5401 87.3265L74.532 85.0032C75.1411 83.5765 75.1464 81.9639 74.5468 80.5332L73.5704 78.2034C72.3327 75.2503 73.752 71.8556 76.7233 70.6623L79.0675 69.7208C80.507 69.1427 81.6511 68.0062 82.2388 66.5705L83.1958 64.2326C84.4088 61.2693 87.8127 59.8725 90.7576 61.1298L93.0809 62.1217C94.5076 62.7308 96.1202 62.7361 97.5509 62.1365L99.8807 61.16Z" fill="#E9EBFD"/>
<path d="M98.0165 60.2279C100.97 58.9902 104.364 60.4095 105.558 63.3808L106.499 65.725C107.077 67.1646 108.214 68.3086 109.649 68.8963L111.987 69.8533C114.951 71.0663 116.347 74.4703 115.09 77.4151L114.098 79.7384C113.489 81.1651 113.484 82.7777 114.083 84.2084L115.06 86.5382C116.297 89.4914 114.878 92.886 111.907 94.0793L109.563 95.0208C108.123 95.5989 106.979 96.7354 106.391 98.1711L105.434 100.509C104.221 103.472 100.817 104.869 97.8726 103.612L95.5493 102.62C94.1226 102.011 92.51 102.006 91.0793 102.605L88.7494 103.582C85.7963 104.819 82.4017 103.4 81.2084 100.429L80.2669 98.0844C79.6888 96.6449 78.5523 95.5009 77.1166 94.9132L74.7787 93.9562C71.8154 92.7432 70.4186 89.3392 71.6759 86.3944L72.6677 84.0711C73.2768 82.6444 73.2822 81.0318 72.6826 79.6011L71.7061 77.2712C70.4684 74.3181 71.8878 70.9235 74.8591 69.7302L77.2032 68.7887C78.6428 68.2106 79.7868 67.0741 80.3745 65.6384L81.3315 63.3005C82.5445 60.3372 85.9485 58.9404 88.8933 60.1976L91.2166 61.1895C92.6433 61.7986 94.2559 61.804 95.6866 61.2043L98.0165 60.2279Z" fill="#F8F8FD"/>
<path d="M90.5189 84.0059C90.9074 83.9104 91.2629 83.9603 91.5855 84.1556C91.9081 84.3509 92.1172 84.6427 92.2126 85.0312C92.3042 85.4034 92.2523 85.7509 92.057 86.0735C91.8577 86.3799 91.5638 86.5809 91.1754 86.6764L90.1557 86.927L90.9256 90.0588C91.029 90.4796 90.9709 90.8714 90.7512 91.2344C90.5437 91.5772 90.2295 91.8003 89.8087 91.9037C89.4041 92.0032 89.0304 91.9492 88.6876 91.7417C88.3409 91.518 88.1158 91.1957 88.0123 90.7749L87.2425 87.6431L80.9304 89.1948C80.5743 89.2823 80.2087 89.2263 79.8336 89.0267C79.4544 88.811 79.2171 88.5089 79.1216 88.1205C79.0341 87.7644 79.0759 87.4109 79.2471 87.0599L84.6092 75.7787C84.8212 75.3147 85.1781 75.021 85.6798 74.8977C86.0844 74.7982 86.4601 74.8604 86.8069 75.084C87.1496 75.2916 87.3727 75.6057 87.4762 76.0265L89.4993 84.2565L90.5189 84.0059ZM86.586 84.9726L85.3924 80.1172L82.6531 85.9394L86.586 84.9726ZM103.124 88.888C101.764 89.2222 100.502 89.1465 99.3352 88.6609C98.1851 88.1713 97.198 87.3326 96.374 86.145C95.5461 84.9412 94.9192 83.4734 94.4935 81.7416C94.0678 80.0098 93.9447 78.4268 94.1242 76.9925C94.2996 75.542 94.7834 74.3332 95.5755 73.3662C96.3837 72.3952 97.4676 71.7426 98.8271 71.4084C100.187 71.0742 101.441 71.1519 102.592 71.6415C103.758 72.1271 104.755 72.9718 105.583 74.1757C106.407 75.3633 107.032 76.823 107.458 78.5548C107.883 80.2866 108.008 81.8777 107.833 83.3282C107.653 84.7625 107.16 85.9652 106.351 86.9362C105.559 87.9032 104.483 88.5538 103.124 88.888ZM102.408 85.9747C103.444 85.7201 104.132 85.0275 104.472 83.897C104.828 82.7626 104.771 81.2404 104.302 79.3306C103.832 77.4208 103.177 76.0459 102.335 75.2058C101.51 74.3617 100.579 74.067 99.5433 74.3217C98.5074 74.5763 97.8114 75.2708 97.4553 76.4053C97.1153 77.5358 97.1801 79.056 97.6496 80.9658C98.119 82.8756 98.7664 84.2525 99.5918 85.0966C100.433 85.9366 101.372 86.2294 102.408 85.9747Z" fill="url(#paint7_linear)"/>
<path d="M91.5855 84.1556L91.8444 83.7278L91.8444 83.7278L91.5855 84.1556ZM92.057 86.0735L92.4761 86.3461L92.4805 86.3393L92.4847 86.3324L92.057 86.0735ZM90.1557 86.927L90.0364 86.4415L89.5508 86.5608L89.6702 87.0464L90.1557 86.927ZM90.7512 91.2344L90.3235 90.9755L90.3235 90.9755L90.7512 91.2344ZM88.6876 91.7417L88.4166 92.1618L88.4226 92.1657L88.4287 92.1694L88.6876 91.7417ZM87.2425 87.6431L87.728 87.5238L87.6087 87.0382L87.1231 87.1576L87.2425 87.6431ZM79.8336 89.0267L79.5863 89.4613L79.5925 89.4648L79.5988 89.4682L79.8336 89.0267ZM79.2471 87.0599L79.6965 87.279L79.6987 87.2745L79.2471 87.0599ZM84.6092 75.7787L85.0608 75.9934L85.0639 75.9865L84.6092 75.7787ZM86.8069 75.084L86.5358 75.5042L86.5418 75.5081L86.5479 75.5118L86.8069 75.084ZM89.4993 84.2565L89.0137 84.3759L89.1331 84.8614L89.6186 84.742L89.4993 84.2565ZM86.586 84.9726L86.7054 85.4582L87.1909 85.3388L87.0716 84.8533L86.586 84.9726ZM85.3924 80.1172L85.878 79.9978L85.541 78.627L84.94 79.9043L85.3924 80.1172ZM82.6531 85.9394L82.2007 85.7266L81.7543 86.6753L82.7725 86.425L82.6531 85.9394ZM90.6383 84.4914C90.9066 84.4254 91.1248 84.4612 91.3266 84.5833L91.8444 83.7278C91.401 83.4594 90.9081 83.3953 90.3996 83.5203L90.6383 84.4914ZM91.3266 84.5833C91.5283 84.7054 91.6611 84.8822 91.7271 85.1505L92.6982 84.9118C92.5732 84.4033 92.2879 83.9963 91.8444 83.7278L91.3266 84.5833ZM91.7271 85.1505C91.7875 85.3964 91.7546 85.6075 91.6292 85.8145L92.4847 86.3324C92.7499 85.8943 92.8208 85.4105 92.6982 84.9118L91.7271 85.1505ZM91.6378 85.8009C91.5146 85.9904 91.3338 86.1225 91.056 86.1908L91.2947 87.1619C91.7939 87.0392 92.2008 86.7694 92.4761 86.3461L91.6378 85.8009ZM91.056 86.1908L90.0364 86.4415L90.2751 87.4125L91.2947 87.1619L91.056 86.1908ZM89.6702 87.0464L90.44 90.1781L91.4111 89.9394L90.6413 86.8076L89.6702 87.0464ZM90.44 90.1781C90.5126 90.4732 90.4729 90.7286 90.3235 90.9755L91.1789 91.4933C91.4689 91.0142 91.5455 90.4859 91.4111 89.9394L90.44 90.1781ZM90.3235 90.9755C90.1906 91.195 89.993 91.3435 89.6894 91.4182L89.9281 92.3893C90.4661 92.257 90.8968 91.9593 91.1789 91.4933L90.3235 90.9755ZM89.6894 91.4182C89.4078 91.4874 89.1709 91.4498 88.9466 91.3139L88.4287 92.1694C88.8899 92.4486 89.4004 92.519 89.9281 92.3893L89.6894 91.4182ZM88.9587 91.3215C88.725 91.1707 88.5725 90.9592 88.4979 90.6555L87.5268 90.8943C87.659 91.4322 87.9567 91.8652 88.4166 92.1618L88.9587 91.3215ZM88.4979 90.6555L87.728 87.5238L86.7569 87.7625L87.5268 90.8943L88.4979 90.6555ZM87.1231 87.1576L80.811 88.7092L81.0497 89.6803L87.3618 88.1287L87.1231 87.1576ZM80.811 88.7092C80.5932 88.7628 80.3533 88.7369 80.0684 88.5853L79.5988 89.4682C80.0642 89.7157 80.5555 89.8018 81.0497 89.6803L80.811 88.7092ZM80.0808 88.5922C79.8091 88.4375 79.6667 88.2434 79.6072 88.0011L78.6361 88.2398C78.7675 88.7744 79.0998 89.1845 79.5863 89.4613L80.0808 88.5922ZM79.6072 88.0011C79.5495 87.7664 79.573 87.5323 79.6965 87.279L78.7977 86.8407C78.5789 87.2895 78.5188 87.7625 78.6361 88.2398L79.6072 88.0011ZM79.6987 87.2745L85.0607 75.9934L84.1576 75.5641L78.7955 86.8452L79.6987 87.2745ZM85.0639 75.9865C85.2115 75.6635 85.4436 75.4707 85.7991 75.3832L85.5604 74.4122C84.9125 74.5714 84.4308 74.9659 84.1544 75.5709L85.0639 75.9865ZM85.7991 75.3832C86.0717 75.3163 86.3059 75.3559 86.5358 75.5042L87.0779 74.6639C86.6143 74.3648 86.0972 74.2802 85.5604 74.4122L85.7991 75.3832ZM86.5479 75.5118C86.7674 75.6447 86.916 75.8423 86.9906 76.1459L87.9617 75.9072C87.8295 75.3692 87.5318 74.9384 87.0658 74.6563L86.5479 75.5118ZM86.9906 76.1459L89.0137 84.3759L89.9848 84.1371L87.9617 75.9072L86.9906 76.1459ZM89.6186 84.742L90.6383 84.4914L90.3996 83.5203L89.3799 83.771L89.6186 84.742ZM87.0716 84.8533L85.878 79.9978L84.9069 80.2365L86.1005 85.092L87.0716 84.8533ZM84.94 79.9043L82.2007 85.7266L83.1055 86.1523L85.8449 80.3301L84.94 79.9043ZM82.7725 86.425L86.7054 85.4582L86.4667 84.4871L82.5337 85.4539L82.7725 86.425ZM99.3352 88.6609L99.1394 89.1209L99.143 89.1225L99.3352 88.6609ZM96.374 86.145L95.9621 86.4284L95.9632 86.43L96.374 86.145ZM94.1242 76.9925L94.6203 77.0546L94.6205 77.0525L94.1242 76.9925ZM95.5755 73.3662L95.1912 73.0463L95.1887 73.0494L95.5755 73.3662ZM102.592 71.6415L102.396 72.1016L102.399 72.1031L102.592 71.6415ZM105.583 74.1757L105.171 74.459L105.172 74.4607L105.583 74.1757ZM107.833 83.3282L108.329 83.3903L108.329 83.3882L107.833 83.3282ZM106.351 86.9362L105.967 86.6163L105.965 86.6193L106.351 86.9362ZM104.472 83.897L103.994 83.7473L103.993 83.7531L104.472 83.897ZM102.335 75.2058L101.978 75.5554L101.982 75.5596L102.335 75.2058ZM97.4553 76.4053L96.9782 76.2555L96.9765 76.2613L97.4553 76.4053ZM99.5918 85.0966L99.2343 85.4462L99.2385 85.4504L99.5918 85.0966ZM103.005 88.4025C101.737 88.7141 100.584 88.6394 99.5274 88.1993L99.143 89.1225C100.419 89.6536 101.792 89.7304 103.243 89.3736L103.005 88.4025ZM99.5311 88.2008C98.4805 87.7536 97.5637 86.9825 96.7848 85.86L95.9632 86.43C96.8324 87.6827 97.8897 88.5889 99.1394 89.1209L99.5311 88.2008ZM96.786 85.8617C95.9989 84.7172 95.3934 83.3079 94.9791 81.6222L94.008 81.861C94.445 83.6389 95.0932 85.1651 95.9621 86.4283L96.786 85.8617ZM94.9791 81.6222C94.5646 79.9364 94.45 78.4159 94.6203 77.0546L93.628 76.9304C93.4394 78.4377 93.571 80.0833 94.008 81.861L94.9791 81.6222ZM94.6205 77.0525C94.7866 75.6801 95.24 74.5649 95.9623 73.683L95.1887 73.0494C94.3269 74.1015 93.8127 75.4039 93.6278 76.9324L94.6205 77.0525ZM95.9598 73.6861C96.6923 72.806 97.6789 72.2055 98.9465 71.8939L98.7078 70.9228C97.2563 71.2796 96.0752 71.9843 95.1912 73.0463L95.9598 73.6861ZM98.9465 71.8939C100.214 71.5823 101.357 71.6594 102.396 72.1015L102.787 71.1814C101.526 70.6444 100.159 70.5661 98.7078 70.9228L98.9465 71.8939ZM102.399 72.1031C103.464 72.5462 104.389 73.3218 105.171 74.459L105.995 73.8923C105.121 72.6219 104.052 71.7081 102.784 71.1799L102.399 72.1031ZM105.172 74.4607C105.954 75.5879 106.558 76.9883 106.972 78.6741L107.943 78.4354C107.506 76.6577 106.86 75.1387 105.994 73.8906L105.172 74.4607ZM106.972 78.6741C107.386 80.3598 107.503 81.8892 107.337 83.2681L108.329 83.3882C108.513 81.8662 108.38 80.2133 107.943 78.4354L106.972 78.6741ZM107.337 83.2661C107.167 84.6196 106.706 85.7289 105.967 86.6163L106.736 87.256C107.613 86.2014 108.139 84.9054 108.329 83.3903L107.337 83.2661ZM105.965 86.6193C105.249 87.4927 104.272 88.0908 103.005 88.4025L103.243 89.3736C104.695 89.0168 105.869 88.3137 106.738 87.253L105.965 86.6193ZM102.527 86.4603C103.756 86.1583 104.566 85.3192 104.95 84.041L103.993 83.7531C103.697 84.7359 103.131 85.282 102.288 85.4892L102.527 86.4603ZM104.949 84.0468C105.345 82.7853 105.266 81.158 104.787 79.2112L103.816 79.45C104.276 81.3229 104.311 82.7398 103.994 83.7473L104.949 84.0468ZM104.787 79.2112C104.309 77.2645 103.624 75.7861 102.688 74.8519L101.982 75.5596C102.729 76.3056 103.356 77.5771 103.816 79.45L104.787 79.2112ZM102.693 74.8562C101.759 73.9019 100.653 73.5341 99.4239 73.8361L99.6626 74.8072C100.506 74.6 101.26 74.8215 101.978 75.5554L102.693 74.8562ZM99.4239 73.8361C98.1963 74.1379 97.3796 74.9772 96.9783 76.2556L97.9323 76.5551C98.2433 75.5645 98.8186 75.0147 99.6626 74.8072L99.4239 73.8361ZM96.9765 76.2613C96.5989 77.5169 96.6858 79.1399 97.164 81.0851L98.1351 80.8464C97.6743 78.9721 97.6318 77.5548 97.9341 76.5493L96.9765 76.2613ZM97.164 81.0851C97.6422 83.0304 98.3177 84.5088 99.2343 85.4461L99.9493 84.747C99.2152 83.9963 98.5959 82.7208 98.1351 80.8464L97.164 81.0851ZM99.2385 85.4504C100.187 86.397 101.3 86.7621 102.527 86.4603L102.288 85.4892C101.444 85.6967 100.68 85.4763 99.945 84.7427L99.2385 85.4504Z" fill="url(#paint8_linear)"/>
<path fill-rule="evenodd" clip-rule="evenodd" d="M121.893 67.6765C124.425 67.2868 126.138 64.759 125.718 62.0306C125.299 59.3021 123.005 57.3909 120.372 57.796C117.74 58.201 116.127 60.7135 116.546 63.4419C116.966 66.1703 119.36 68.0662 121.893 67.6765ZM121.42 64.6024C122.233 64.4772 122.765 63.5401 122.606 62.5095C122.447 61.4788 121.691 60.7398 120.845 60.87C119.999 61.0001 119.5 61.9323 119.659 62.9629C119.817 63.9936 120.606 64.7276 121.42 64.6024Z" fill="#F8F8FD"/>
<path fill-rule="evenodd" clip-rule="evenodd" d="M135.522 74.2155C138.055 73.8258 139.768 71.298 139.348 68.5696C138.928 65.8412 136.635 63.9299 134.002 64.335C131.37 64.74 129.756 67.2525 130.176 69.9809C130.596 72.7093 132.99 74.6052 135.522 74.2155ZM135.052 71.1564C135.872 71.0302 136.408 70.0856 136.248 69.0466C136.088 68.0077 135.325 67.2628 134.473 67.394C133.62 67.5252 133.117 68.4648 133.277 69.5038C133.437 70.5427 134.231 71.2826 135.052 71.1564Z" fill="#F8F8FD"/>
<path d="M128.541 57.4031C128.779 56.5579 129.657 56.0655 130.503 56.3034C131.348 56.5413 131.84 57.4193 131.602 58.2645L127.118 74.1951C126.881 75.0403 126.003 75.5326 125.157 75.2947C124.312 75.0568 123.82 74.1788 124.058 73.3336L128.541 57.4031Z" fill="#F8F8FD"/>
<path d="M35.0044 26.7844C35.2644 26.0817 36.2583 26.0817 36.5183 26.7844V26.7844C37.2541 28.7727 38.8217 30.3404 40.81 31.0762V31.0762C41.5127 31.3362 41.5127 32.3301 40.81 32.5901V32.5901C38.8217 33.3258 37.2541 34.8935 36.5183 36.8818V36.8818C36.2583 37.5845 35.2644 37.5845 35.0044 36.8818V36.8818C34.2686 34.8935 32.701 33.3258 30.7126 32.5901V32.5901C30.01 32.3301 30.01 31.3362 30.7126 31.0762V31.0762C32.701 30.3404 34.2686 28.7727 35.0044 26.7844V26.7844Z" fill="url(#paint9_linear)"/>
<circle cx="23.6996" cy="116.996" r="20.6678" fill="url(#paint10_linear)"/>
<circle cx="23.6997" cy="116.997" r="16.1055" fill="#F8F8FD"/>
<path d="M16.9616 124.795V108.455L28.1191 120.128V109.496H30.4279V125.726L19.2704 114.083V124.795H16.9616Z" fill="#4147D6"/>
<path fill-rule="evenodd" clip-rule="evenodd" d="M33.7999 116.238H13.5996V115.141H33.7999V116.238Z" fill="#4147D6"/>
<path fill-rule="evenodd" clip-rule="evenodd" d="M33.7999 119.476H13.5996V118.379H33.7999V119.476Z" fill="#4147D6"/>
<circle cx="195.037" cy="24.7388" r="23.9307" fill="url(#paint11_linear)"/>
<circle cx="195.037" cy="24.7389" r="18.6481" fill="#F8F8FD"/>
<path d="M191.165 23.8002L198.633 16.1455H202.498L192.899 25.7569L200.68 35.3319H198.949L191.961 26.5951L191.165 27.3914V35.3319H188.27V16.1455H191.165V23.8002Z" fill="url(#paint12_linear)"/>
<path d="M192.967 23.7151L193.888 22.8177L204.609 35.3324L202.633 35.3323L192.967 23.7151Z" fill="url(#paint13_linear)"/>
<defs>
<linearGradient id="paint0_linear" x1="54.8639" y1="34.1632" x2="202.307" y2="57.4192" gradientUnits="userSpaceOnUse">
<stop stop-color="#4147D6"/>
<stop offset="1" stop-color="#6663F5"/>
</linearGradient>
<linearGradient id="paint1_linear" x1="159.971" y1="70.9494" x2="162.349" y2="169.004" gradientUnits="userSpaceOnUse">
<stop stop-color="#4147D6" stop-opacity="0.23"/>
<stop offset="1" stop-color="#6663F5"/>
</linearGradient>
<linearGradient id="paint2_linear" x1="116.233" y1="-0.658693" x2="170.262" y2="174.993" gradientUnits="userSpaceOnUse">
<stop stop-color="#E0E1FF"/>
<stop offset="1" stop-color="#C2CCFF"/>
</linearGradient>
<linearGradient id="paint3_linear" x1="117.392" y1="5.83903" x2="128.855" y2="7.27583" gradientUnits="userSpaceOnUse">
<stop stop-color="#4147D6"/>
<stop offset="1" stop-color="#6663F5"/>
</linearGradient>
<linearGradient id="paint4_linear" x1="138.415" y1="121.253" x2="141.501" y2="136.266" gradientUnits="userSpaceOnUse">
<stop stop-color="#E0E1FF"/>
<stop offset="1" stop-color="#C2CCFF"/>
</linearGradient>
<linearGradient id="paint5_linear" x1="161.74" y1="92.0002" x2="168.646" y2="112.722" gradientUnits="userSpaceOnUse">
<stop stop-color="#C71E07"/>
<stop offset="1" stop-color="#F05D3D"/>
</linearGradient>
<linearGradient id="paint6_linear" x1="102.204" y1="44.666" x2="126.016" y2="116.113" gradientUnits="userSpaceOnUse">
<stop stop-color="#FC8970"/>
<stop offset="1" stop-color="#EE5B47"/>
</linearGradient>
<linearGradient id="paint7_linear" x1="76.3779" y1="82.3057" x2="109.732" y2="74.3953" gradientUnits="userSpaceOnUse">
<stop stop-color="#77C4DD"/>
<stop offset="1" stop-color="#74DAC8"/>
</linearGradient>
<linearGradient id="paint8_linear" x1="76.3779" y1="82.3057" x2="109.732" y2="74.3953" gradientUnits="userSpaceOnUse">
<stop stop-color="#77C4DD"/>
<stop offset="1" stop-color="#74DAC8"/>
</linearGradient>
<linearGradient id="paint9_linear" x1="29.0733" y1="30.5822" x2="43.3776" y2="30.7198" gradientUnits="userSpaceOnUse">
<stop stop-color="#77C4DD"/>
<stop offset="1" stop-color="#74DAC8"/>
</linearGradient>
<linearGradient id="paint10_linear" x1="23.6996" y1="96.3286" x2="32.6908" y2="140.065" gradientUnits="userSpaceOnUse">
<stop stop-color="#E0E1FF"/>
<stop offset="1" stop-color="#C2CCFF"/>
</linearGradient>
<linearGradient id="paint11_linear" x1="195.037" y1="0.808105" x2="205.448" y2="51.4489" gradientUnits="userSpaceOnUse">
<stop stop-color="#E0E1FF"/>
<stop offset="1" stop-color="#C2CCFF"/>
</linearGradient>
<linearGradient id="paint12_linear" x1="191.035" y1="18.1979" x2="204.292" y2="19.613" gradientUnits="userSpaceOnUse">
<stop stop-color="#4147D6"/>
<stop offset="1" stop-color="#6663F5"/>
</linearGradient>
<linearGradient id="paint13_linear" x1="191.035" y1="18.1979" x2="204.292" y2="19.613" gradientUnits="userSpaceOnUse">
<stop stop-color="#4147D6"/>
<stop offset="1" stop-color="#6663F5"/>
</linearGradient>
</defs>
</svg>
