<svg width="31" height="31" viewBox="0 0 31 31" fill="none" xmlns="http://www.w3.org/2000/svg">
<g clip-path="url(#clip0)">
<path d="M17.9525 0.922734C18.8634 0.46 19.9767 0.7583 20.5342 1.61452L22.3089 4.33984C22.5908 4.77278 23.0293 5.07983 23.5325 5.19667L26.7005 5.93218C27.6958 6.16325 28.3568 7.10736 28.2336 8.12164L27.8412 11.3501C27.7789 11.8629 27.9174 12.38 28.2278 12.793L30.1818 15.3927C30.7957 16.2095 30.6953 17.3577 29.9489 18.0554L27.5731 20.2764C27.1957 20.6292 26.9695 21.1143 26.9418 21.6302L26.7676 24.8777C26.7129 25.898 25.8979 26.713 24.8776 26.7677L21.6301 26.942C21.1142 26.9696 20.629 27.1959 20.2762 27.5733L18.0553 29.949C17.3575 30.6954 16.2094 30.7959 15.3926 30.182L12.7929 28.228C12.3799 27.9176 11.8628 27.779 11.3499 27.8414L8.12149 28.2337C7.10721 28.357 6.16311 27.6959 5.93203 26.7006L5.19653 23.5327C5.07968 23.0294 4.77264 22.5909 4.3397 22.309L1.61437 20.5344C0.758158 19.9768 0.45986 18.8636 0.922594 17.9526L2.39547 15.053C2.62945 14.5924 2.6761 14.0591 2.52567 13.5649L1.57867 10.4536C1.28115 9.47617 1.76823 8.43161 2.70826 8.03122L5.70034 6.75678C6.17566 6.55433 6.55419 6.1758 6.75664 5.70048L8.03108 2.7084C8.43147 1.76837 9.47603 1.28129 10.4535 1.57881L13.5648 2.52581C14.059 2.67624 14.5923 2.62959 15.0529 2.39561L17.9525 0.922734Z" fill="url(#paint0_linear)"/>
<path d="M9.98193 15.6196L13.9157 19.5532L20.9088 12.5601" stroke="white" stroke-width="3" stroke-linecap="round" stroke-linejoin="round"/>
</g>
<defs>
<linearGradient id="paint0_linear" x1="1.71192" y1="8.86689" x2="32.5537" y2="17.4497" gradientUnits="userSpaceOnUse">
<stop stop-color="#77C4DD"/>
<stop offset="1" stop-color="#74DAC8"/>
</linearGradient>
<clipPath id="clip0">
<rect width="31" height="31" fill="white"/>
</clipPath>
</defs>
</svg>
