<svg width="86" height="86" viewBox="0 0 86 86" fill="none" xmlns="http://www.w3.org/2000/svg">
<path d="M59.3009 43L83.7498 18.5511C86.7501 15.5509 86.7501 10.6865 83.7498 7.68381L78.3162 2.25017C75.316 -0.750057 70.4516 -0.750057 67.4489 2.25017L43 26.6991L18.5511 2.25017C15.5509 -0.750057 10.6865 -0.750057 7.68381 2.25017L2.25017 7.68381C-0.750057 10.684 -0.750057 15.5484 2.25017 18.5511L26.6991 43L2.25017 67.4489C-0.750057 70.4492 -0.750057 75.3135 2.25017 78.3162L7.68381 83.7498C10.684 86.7501 15.5509 86.7501 18.5511 83.7498L43 59.3009L67.4489 83.7498C70.4492 86.7501 75.316 86.7501 78.3162 83.7498L83.7498 78.3162C86.7501 75.316 86.7501 70.4516 83.7498 67.4489L59.3009 43Z" fill="#4147D6"/>
</svg>
