<svg width="102" height="97" viewBox="0 0 102 97" fill="none" xmlns="http://www.w3.org/2000/svg">
<mask id="mask0" mask-type="alpha" maskUnits="userSpaceOnUse" x="7" y="3" width="92" height="92">
<path d="M62.3532 17.6143C65.1484 16.4428 68.3614 17.7862 69.4909 20.5986L72.2173 27.3871C72.7645 28.7497 73.8402 29.8325 75.1991 30.3887L81.9694 33.1601C84.7742 34.3082 86.0963 37.5301 84.9063 40.3174L82.0339 47.0455C81.4574 48.3959 81.4523 49.9222 82.0199 51.2764L84.8476 58.0234C86.019 60.8185 84.6757 64.0316 81.8633 65.1611L75.0747 67.8874C73.7122 68.4346 72.6293 69.5103 72.0731 70.8692L69.3018 77.6395C68.1537 80.4443 64.9318 81.7664 62.1444 80.5764L55.4164 77.704C54.066 77.1275 52.5397 77.1224 51.1855 77.69L44.4385 80.5177C41.6434 81.6892 38.4303 80.3458 37.3008 77.5334L34.5744 70.7449C34.0272 69.3823 32.9515 68.2995 31.5926 67.7432L24.8223 64.9719C22.0175 63.8238 20.6955 60.6019 21.8854 57.8146L24.7578 51.0865C25.3343 49.7361 25.3394 48.2098 24.7719 46.8556L21.9442 40.1086C20.7727 37.3135 22.1161 34.1004 24.9285 32.9709L31.717 30.2446C33.0795 29.6973 34.1624 28.6217 34.7186 27.2628L37.49 20.4925C38.6381 17.6876 41.86 16.3656 44.6473 17.5556L51.3754 20.428C52.7258 21.0045 54.2521 21.0095 55.6063 20.442L62.3532 17.6143Z" fill="#F8F8FD" stroke="#4147D6" stroke-width="1.4282"/>
</mask>
<g mask="url(#mask0)">
<path d="M68.511 13.6758C66.8533 15.2045 66.3129 17.5987 67.1533 19.6913L70.2094 27.3009C70.7566 28.6634 71.8323 29.7463 73.1912 30.3025L79.146 32.74C81.9508 33.8881 83.2728 37.11 82.0828 39.8973L79.5565 45.8149C78.9799 47.1653 78.9749 48.6916 79.5424 50.0458L82.0295 55.98C83.201 58.7752 81.8576 61.9882 79.0452 63.1177L73.0744 65.5157C71.7119 66.0629 70.629 67.1386 70.0728 68.4975L67.6353 74.4522C66.4872 77.2571 63.2653 78.5791 60.478 77.3891L54.5604 74.8628C53.21 74.2862 51.6837 74.2812 50.3295 74.8487L40.6537 78.9039C39.7746 79.2724 39.0079 79.8658 38.4308 80.6244L37.5124 81.8318C34.8981 85.2686 37.1471 90.2342 41.4547 90.536L52.7959 91.3306C53.0767 91.3503 53.3586 91.3481 53.6391 91.324L80.9261 88.9851C81.8696 88.9043 82.7756 88.578 83.5541 88.0388L102.262 75.0813C103.308 74.3573 104.066 73.2894 104.405 72.0637L111.168 47.5899C111.483 46.45 111.417 45.2384 110.98 44.1392L104.458 27.7176C104.081 26.7668 103.442 25.942 102.616 25.3382L80.1402 8.90926C78.0461 7.37852 75.1617 7.54272 73.2548 9.30123L68.511 13.6758Z" fill="url(#paint0_linear)"/>
</g>
<path d="M62.3532 17.6143C65.1484 16.4428 68.3614 17.7862 69.4909 20.5986L72.2173 27.3871C72.7645 28.7497 73.8402 29.8325 75.1991 30.3887L81.9694 33.1601C84.7742 34.3082 86.0963 37.5301 84.9063 40.3174L82.0339 47.0455C81.4574 48.3959 81.4523 49.9222 82.0199 51.2764L84.8476 58.0234C86.019 60.8185 84.6757 64.0316 81.8633 65.161L75.0747 67.8874C73.7122 68.4346 72.6293 69.5103 72.0731 70.8692L69.3018 77.6395C68.1537 80.4443 64.9318 81.7664 62.1444 80.5764L55.4164 77.704C54.066 77.1275 52.5397 77.1224 51.1855 77.69L44.4385 80.5177C41.6434 81.6892 38.4303 80.3458 37.3008 77.5334L34.5744 70.7449C34.0272 69.3823 32.9515 68.2995 31.5926 67.7432L24.8223 64.9719C22.0175 63.8238 20.6955 60.6019 21.8854 57.8146L24.7578 51.0865C25.3343 49.7361 25.3394 48.2098 24.7719 46.8556L21.9442 40.1086C20.7727 37.3135 22.1161 34.1004 24.9285 32.9709L31.717 30.2446C33.0795 29.6973 34.1624 28.6217 34.7186 27.2628L37.49 20.4925C38.6381 17.6876 41.86 16.3656 44.6473 17.5556L51.3754 20.428C52.7258 21.0045 54.2521 21.0095 55.6063 20.442L62.3532 17.6143Z" stroke="#4147D6" stroke-width="1.4282"/>
<path d="M15.5923 14.4729L15.5923 18.6701M15.5923 22.8672L15.5923 18.6701M15.5923 18.6701L11.3951 18.6701M15.5923 18.6701L19.7894 18.6701" stroke="#4147D6" stroke-width="1.22618"/>
<path d="M93.3267 19.7327L93.3267 22.8672M93.3267 26.0017L93.3267 22.8672M93.3267 22.8672L90.1921 22.8672M93.3267 22.8672L96.4612 22.8672" stroke="#4147D6" stroke-width="1.22618"/>
<circle cx="84.3045" cy="5.45051" r="4.00764" stroke="#4147D6" stroke-width="1.22618"/>
<circle cx="94.753" cy="81.8785" r="1.70806" stroke="#4147D6" stroke-width="1.22618"/>
<circle cx="2.46685" cy="55.0923" r="1.70806" stroke="#4147D6" stroke-width="1.22618"/>
<path d="M61.3306 23.7538C63.0962 23.0138 65.1258 23.8624 65.8393 25.6389L68.4753 32.2026C68.821 33.0633 69.5005 33.7473 70.3589 34.0986L76.9049 36.7782C78.6766 37.5034 79.5117 39.5386 78.7601 41.2993L75.9828 47.8045C75.6186 48.6575 75.6154 49.6216 75.974 50.477L78.708 57.0005C79.448 58.7661 78.5994 60.7958 76.8229 61.5092L70.2592 64.1453C69.3985 64.491 68.7145 65.1704 68.3632 66.0288L65.6836 72.5749C64.9584 74.3466 62.9232 75.1817 61.1625 74.43L54.6573 71.6528C53.8043 71.2886 52.8402 71.2854 51.9847 71.6439L45.4613 74.378C43.6956 75.1179 41.666 74.2694 40.9526 72.4929L38.3165 65.9292C37.9708 65.0685 37.2913 64.3845 36.433 64.0331L29.8869 61.3536C28.1152 60.6283 27.2801 58.5931 28.0318 56.8325L30.809 50.3273C31.1732 49.4743 31.1764 48.5101 30.8179 47.6547L28.0838 41.1312C27.3438 39.3656 28.1924 37.336 29.9689 36.6225L36.5326 33.9865C37.3933 33.6408 38.0773 32.9613 38.4287 32.1029L41.1082 25.5569C41.8334 23.7851 43.8686 22.95 45.6293 23.7017L52.1345 26.479C52.9875 26.8431 53.9517 26.8463 54.8071 26.4878L61.3306 23.7538Z" fill="url(#paint1_linear)" stroke="#4147D6" stroke-width="1.4282"/>
<mask id="path-10-inside-1" fill="white">
<path fill-rule="evenodd" clip-rule="evenodd" d="M45.8005 50.3447C49.2398 50.3447 52.0279 47.3412 52.0279 43.6362C52.0279 39.9312 49.3751 36.9277 45.8005 36.9277C42.2258 36.9277 39.573 39.9312 39.573 43.6362C39.573 47.3412 42.3611 50.3447 45.8005 50.3447ZM45.8004 46.1703C46.9055 46.1703 47.8014 45.0357 47.8014 43.6361C47.8014 42.2366 46.949 41.102 45.8004 41.102C44.6518 41.102 43.7994 42.2366 43.7994 43.6361C43.7994 45.0357 44.6953 46.1703 45.8004 46.1703Z"/>
</mask>
<path fill-rule="evenodd" clip-rule="evenodd" d="M45.8005 50.3447C49.2398 50.3447 52.0279 47.3412 52.0279 43.6362C52.0279 39.9312 49.3751 36.9277 45.8005 36.9277C42.2258 36.9277 39.573 39.9312 39.573 43.6362C39.573 47.3412 42.3611 50.3447 45.8005 50.3447ZM45.8004 46.1703C46.9055 46.1703 47.8014 45.0357 47.8014 43.6361C47.8014 42.2366 46.949 41.102 45.8004 41.102C44.6518 41.102 43.7994 42.2366 43.7994 43.6361C43.7994 45.0357 44.6953 46.1703 45.8004 46.1703Z" fill="#F8F8FD"/>
<path d="M51.0279 43.6362C51.0279 46.8603 48.6188 49.3447 45.8005 49.3447V51.3447C49.8609 51.3447 53.0279 47.8221 53.0279 43.6362H51.0279ZM45.8005 37.9277C48.7404 37.9277 51.0279 40.3974 51.0279 43.6362H53.0279C53.0279 39.4651 50.0098 35.9277 45.8005 35.9277V37.9277ZM40.573 43.6362C40.573 40.3974 42.8605 37.9277 45.8005 37.9277V35.9277C41.5912 35.9277 38.573 39.4651 38.573 43.6362H40.573ZM45.8005 49.3447C42.9822 49.3447 40.573 46.8603 40.573 43.6362H38.573C38.573 47.8221 41.7401 51.3447 45.8005 51.3447V49.3447ZM46.8014 43.6361C46.8014 44.7165 46.146 45.1703 45.8004 45.1703V47.1703C47.6651 47.1703 48.8014 45.355 48.8014 43.6361H46.8014ZM45.8004 42.102C46.1774 42.102 46.8014 42.5404 46.8014 43.6361H48.8014C48.8014 41.9327 47.7206 40.102 45.8004 40.102V42.102ZM44.7994 43.6361C44.7994 42.5404 45.4234 42.102 45.8004 42.102V40.102C43.8802 40.102 42.7994 41.9327 42.7994 43.6361H44.7994ZM45.8004 45.1703C45.4548 45.1703 44.7994 44.7165 44.7994 43.6361H42.7994C42.7994 45.355 43.9357 47.1703 45.8004 47.1703V45.1703Z" fill="#4147D6" mask="url(#path-10-inside-1)"/>
<mask id="path-12-inside-2" fill="white">
<path fill-rule="evenodd" clip-rule="evenodd" d="M62.5458 61.8007C65.9852 61.8007 68.7733 58.7972 68.7733 55.0923C68.7733 51.3873 66.1205 48.3838 62.5458 48.3838C58.9712 48.3838 56.3184 51.3873 56.3184 55.0923C56.3184 58.7972 59.1065 61.8007 62.5458 61.8007ZM62.5459 57.6467C63.6599 57.6467 64.563 56.503 64.563 55.0922C64.563 53.6814 63.7037 52.5377 62.5459 52.5377C61.3881 52.5377 60.5288 53.6814 60.5288 55.0922C60.5288 56.503 61.4319 57.6467 62.5459 57.6467Z"/>
</mask>
<path fill-rule="evenodd" clip-rule="evenodd" d="M62.5458 61.8007C65.9852 61.8007 68.7733 58.7972 68.7733 55.0923C68.7733 51.3873 66.1205 48.3838 62.5458 48.3838C58.9712 48.3838 56.3184 51.3873 56.3184 55.0923C56.3184 58.7972 59.1065 61.8007 62.5458 61.8007ZM62.5459 57.6467C63.6599 57.6467 64.563 56.503 64.563 55.0922C64.563 53.6814 63.7037 52.5377 62.5459 52.5377C61.3881 52.5377 60.5288 53.6814 60.5288 55.0922C60.5288 56.503 61.4319 57.6467 62.5459 57.6467Z" fill="#F8F8FD"/>
<path d="M67.7733 55.0923C67.7733 58.3163 65.3641 60.8007 62.5458 60.8007V62.8007C66.6062 62.8007 69.7733 59.2782 69.7733 55.0923H67.7733ZM62.5458 49.3838C65.4858 49.3838 67.7733 51.8534 67.7733 55.0923H69.7733C69.7733 50.9211 66.7551 47.3838 62.5458 47.3838V49.3838ZM57.3184 55.0923C57.3184 51.8534 59.6059 49.3838 62.5458 49.3838V47.3838C58.3365 47.3838 55.3184 50.9211 55.3184 55.0923H57.3184ZM62.5458 60.8007C59.7275 60.8007 57.3184 58.3163 57.3184 55.0923H55.3184C55.3184 59.2782 58.4854 62.8007 62.5458 62.8007V60.8007ZM63.563 55.0922C63.563 56.1838 62.9004 56.6467 62.5459 56.6467V58.6467C64.4194 58.6467 65.563 56.8223 65.563 55.0922H63.563ZM62.5459 53.5377C62.9321 53.5377 63.563 53.9852 63.563 55.0922H65.563C65.563 53.3775 64.4753 51.5377 62.5459 51.5377V53.5377ZM61.5288 55.0922C61.5288 53.9852 62.1597 53.5377 62.5459 53.5377V51.5377C60.6164 51.5377 59.5288 53.3775 59.5288 55.0922H61.5288ZM62.5459 56.6467C62.1914 56.6467 61.5288 56.1838 61.5288 55.0922H59.5288C59.5288 56.8223 60.6723 58.6467 62.5459 58.6467V56.6467Z" fill="#4147D6" mask="url(#path-12-inside-2)"/>
<rect x="57.8488" y="36.794" width="3.26745" height="25.4789" rx="1.63372" transform="rotate(24.4669 57.8488 36.794)" fill="#F8F8FD" stroke="#4147D6"/>
<defs>
<linearGradient id="paint0_linear" x1="95.8881" y1="14.366" x2="87.3232" y2="113.246" gradientUnits="userSpaceOnUse">
<stop stop-color="#E0E1FF"/>
<stop offset="1" stop-color="#C2CCFF"/>
</linearGradient>
<linearGradient id="paint1_linear" x1="30.2301" y1="33.8578" x2="83.7642" y2="56.8481" gradientUnits="userSpaceOnUse">
<stop stop-color="#77C4DD"/>
<stop offset="1" stop-color="#74DAC8"/>
</linearGradient>
</defs>
</svg>
