<svg width="207" height="59" viewBox="0 0 207 59" fill="none" xmlns="http://www.w3.org/2000/svg">
<g clip-path="url(#clip0)">
<path d="M0.574166 14.1402C-0.0555325 14.7699 -0.0555326 15.7908 0.574166 16.4205L2.72254 18.5689C3.0783 18.9246 3.0783 19.5015 2.72254 19.8572L0.400237 22.1795C-0.133412 22.7132 -0.133413 23.5784 0.400237 24.112L0.759826 24.4716C1.29348 25.0053 2.15869 25.0053 2.69234 24.4716L6.98463 20.1793C7.03005 20.1339 7.07161 20.0861 7.10929 20.0363C7.1473 19.986 7.18625 19.9363 7.23079 19.8918L7.59638 19.5262C7.77426 19.3483 7.77426 19.0599 7.59637 18.882L7.1742 18.4599C7.14075 18.4264 7.11043 18.39 7.08062 18.3533C7.05081 18.3165 7.01882 18.281 6.98463 18.2468L6.62504 17.8872C6.59086 17.853 6.55531 17.821 6.51858 17.7912C6.48185 17.7614 6.44546 17.7311 6.412 17.6977L2.85451 14.1402C2.22481 13.5105 1.20387 13.5105 0.574166 14.1402Z" fill="url(#paint0_linear)"/>
<path d="M32.6153 8.56895C33.245 9.19865 33.245 10.2196 32.6153 10.8493L30.4669 12.9976C30.1112 13.3534 30.1112 13.9302 30.4669 14.286L32.7892 16.6083C33.3229 17.1419 33.3229 18.0071 32.7892 18.5408L32.4296 18.9004C31.896 19.434 31.0308 19.434 30.4971 18.9004L26.2048 14.6081C26.1594 14.5627 26.1179 14.5149 26.0802 14.4651C26.0422 14.4149 26.0033 14.3652 25.9587 14.3206L25.5931 13.955C25.4152 13.7771 25.4152 13.4887 25.5931 13.3108L26.0151 12.8888C26.0486 12.8553 26.0789 12.8189 26.1088 12.7821C26.1386 12.7453 26.1706 12.7098 26.2048 12.6756L26.5644 12.316C26.5986 12.2818 26.6342 12.2497 26.6709 12.2199C26.7077 12.1901 26.7441 12.1597 26.7776 12.1263L30.3349 8.56895C30.9646 7.93925 31.9856 7.93925 32.6153 8.56895Z" fill="url(#paint1_linear)"/>
<path fill-rule="evenodd" clip-rule="evenodd" d="M5.46593 8.0269C4.11626 9.37657 4.11626 11.5648 5.46593 12.9145L9.76876 17.2173C10.698 18.1466 10.698 19.6532 9.76876 20.5824L5.47854 24.8727C4.1219 26.2293 4.1219 28.4288 5.47854 29.7855C6.83517 31.1421 9.03471 31.1421 10.3913 29.7855L18.8205 21.3563C18.9251 21.2518 19.0215 21.1423 19.1099 21.0285C19.2025 20.9093 19.2969 20.7912 19.4037 20.6845L20.3661 19.722C20.8307 19.2574 20.8307 18.5041 20.3661 18.0395L19.2691 16.9424C19.1888 16.8622 19.1155 16.7754 19.0431 16.688C18.9735 16.6038 18.8993 16.5222 18.8205 16.4435C18.7418 16.3647 18.6602 16.2905 18.576 16.2209C18.4886 16.1485 18.4018 16.0752 18.3216 15.9949L10.3535 8.0269C9.00385 6.67723 6.8156 6.67723 5.46593 8.0269Z" fill="url(#paint2_linear)"/>
<path d="M28.1403 7.16865C29.568 5.74096 29.568 3.4262 28.1403 1.99851C26.7126 0.57081 24.3978 0.570809 22.9701 1.99851L14.9094 10.0592L19.5836 14.7333C19.5994 14.7491 19.6294 14.7764 19.7139 14.8464C19.8411 14.9516 19.9641 15.0635 20.0825 15.1819C20.2009 15.3003 20.3128 15.4233 20.418 15.5504C20.488 15.635 20.5152 15.665 20.531 15.6808L21.6281 16.7779C22.7897 17.9394 22.7897 19.8227 21.6281 20.9843L20.6656 21.9467C20.6446 21.9678 20.609 22.0083 20.519 22.124C20.4496 22.2133 20.3771 22.3007 20.3014 22.3861L23.3379 25.4226C24.5478 26.6325 26.5095 26.6325 27.7194 25.4226L28.5347 24.6073C29.7446 23.3974 29.7446 21.4357 28.5347 20.2258L23.2694 14.9605C22.4628 14.1539 22.4628 12.8461 23.2694 12.0395L28.1403 7.16865Z" fill="url(#paint3_linear)"/>
<path d="M52.9788 20.4876L51.2972 22.2711V26.898H48.7188V12.0594H51.2972V19.0201L52.724 17.257L57.0655 12.0594H60.184L54.6705 18.6328L60.5 26.898H57.4426L52.9788 20.4876ZM68.2352 26.898C68.1265 26.6874 68.0314 26.3443 67.9498 25.8687C67.1617 26.6908 66.1969 27.1018 65.0555 27.1018C63.948 27.1018 63.0444 26.7859 62.3446 26.154C61.6448 25.5222 61.2949 24.7408 61.2949 23.81C61.2949 22.6346 61.7297 21.7344 62.5994 21.1093C63.4758 20.4774 64.726 20.1615 66.3498 20.1615H67.8683V19.4379C67.8683 18.8672 67.7086 18.412 67.3893 18.0723C67.07 17.7258 66.5842 17.5525 65.932 17.5525C65.368 17.5525 64.906 17.6952 64.5459 17.9806C64.1858 18.2591 64.0058 18.6158 64.0058 19.0507H61.5293C61.5293 18.446 61.7297 17.882 62.1306 17.3589C62.5314 16.8289 63.075 16.4145 63.7612 16.1155C64.4542 15.8166 65.2254 15.6671 66.0746 15.6671C67.3655 15.6671 68.3949 15.9933 69.1626 16.6455C69.9304 17.291 70.3244 18.2014 70.3448 19.3768V24.3502C70.3448 25.3421 70.4841 26.1336 70.7627 26.7247V26.898H68.2352ZM65.5141 25.1145C66.0033 25.1145 66.4619 24.9956 66.8899 24.7578C67.3248 24.52 67.6509 24.2007 67.8683 23.7998V21.7208H66.5332C65.616 21.7208 64.9264 21.8805 64.4644 22.1998C64.0024 22.5191 63.7714 22.9709 63.7714 23.5552C63.7714 24.0308 63.9277 24.4113 64.2402 24.6967C64.5595 24.9752 64.9842 25.1145 65.5141 25.1145ZM72.4748 21.2826C72.4748 20.2023 72.6888 19.2307 73.1169 18.3678C73.5449 17.4982 74.1462 16.8323 74.9207 16.3703C75.6953 15.9015 76.5853 15.6671 77.5909 15.6671C79.0788 15.6671 80.2848 16.1461 81.2088 17.1041C82.1396 18.0621 82.6424 19.3326 82.7171 20.9157L82.7273 21.4966C82.7273 22.5837 82.5167 23.5552 82.0954 24.4113C81.681 25.2674 81.0831 25.9298 80.3018 26.3986C79.5272 26.8674 78.6304 27.1018 77.6112 27.1018C76.0554 27.1018 74.8086 26.5855 73.871 25.5527C72.9402 24.5132 72.4748 23.1306 72.4748 21.4049V21.2826ZM74.9513 21.4966C74.9513 22.6312 75.1857 23.5213 75.6545 24.1667C76.1233 24.8054 76.7755 25.1247 77.6112 25.1247C78.4469 25.1247 79.0958 24.7986 79.5578 24.1463C80.0266 23.4941 80.261 22.5395 80.261 21.2826C80.261 20.1683 80.0198 19.2851 79.5374 18.6328C79.0618 17.9806 78.413 17.6544 77.5909 17.6544C76.7823 17.6544 76.1403 17.9772 75.6647 18.6226C75.1891 19.2613 74.9513 20.2193 74.9513 21.4966ZM91.0027 23.9017C91.0027 23.4601 90.8192 23.1238 90.4523 22.8928C90.0922 22.6618 89.4909 22.458 88.6485 22.2813C87.806 22.1047 87.1028 21.8805 86.5389 21.6087C85.3023 21.0108 84.684 20.1445 84.684 19.0099C84.684 18.0587 85.0849 17.2638 85.8866 16.6251C86.6883 15.9865 87.7075 15.6671 88.944 15.6671C90.2621 15.6671 91.3254 15.9933 92.1339 16.6455C92.9492 17.2977 93.3569 18.1436 93.3569 19.1831H90.8804C90.8804 18.7075 90.7037 18.3135 90.3504 18.0009C89.9971 17.6816 89.5283 17.522 88.944 17.522C88.4005 17.522 87.9555 17.6476 87.6089 17.899C87.2692 18.1504 87.0994 18.4867 87.0994 18.908C87.0994 19.2885 87.259 19.584 87.5784 19.7946C87.8977 20.0052 88.5432 20.2193 89.5147 20.4367C90.4863 20.6473 91.2473 20.9021 91.7976 21.201C92.3547 21.4932 92.7658 21.8465 93.0307 22.2609C93.3025 22.6754 93.4384 23.1782 93.4384 23.7692C93.4384 24.7612 93.0273 25.5663 92.2052 26.1846C91.3831 26.7961 90.3063 27.1018 88.9746 27.1018C88.071 27.1018 87.2658 26.9388 86.5592 26.6126C85.8526 26.2865 85.3023 25.8381 84.9082 25.2674C84.5142 24.6967 84.3171 24.0818 84.3171 23.4227H86.7223C86.7563 24.007 86.9771 24.4589 87.3847 24.7782C87.7924 25.0907 88.3325 25.247 89.0052 25.247C89.6574 25.247 90.1534 25.1247 90.4931 24.8801C90.8328 24.6287 91.0027 24.3026 91.0027 23.9017ZM98.0449 17.0735C98.8534 16.1359 99.8759 15.6671 101.112 15.6671C103.463 15.6671 104.656 17.009 104.69 19.6927V26.898H102.213V19.7844C102.213 19.0235 102.047 18.4867 101.714 18.1742C101.388 17.8549 100.905 17.6952 100.267 17.6952C99.2746 17.6952 98.5341 18.1368 98.0449 19.0201V26.898H95.5684V11.2441H98.0449V17.0735ZM109.836 26.898H107.36V15.871H109.836V26.898ZM107.207 13.0072C107.207 12.6267 107.326 12.3108 107.564 12.0594C107.808 11.808 108.155 11.6823 108.603 11.6823C109.052 11.6823 109.398 11.808 109.643 12.0594C109.887 12.3108 110.01 12.6267 110.01 13.0072C110.01 13.3809 109.887 13.6934 109.643 13.9448C109.398 14.1894 109.052 14.3117 108.603 14.3117C108.155 14.3117 107.808 14.1894 107.564 13.9448C107.326 13.6934 107.207 13.3809 107.207 13.0072Z" fill="#1A244E"/>
<path opacity="0.7" d="M41.8857 50.0068L38.4404 44.0117H40.2725L42.6855 48.2294L45.1055 44.0117H46.9375L43.4785 50.0068V54.5664H41.8857V50.0068ZM46.5957 51.1894C46.5957 50.2278 46.9398 49.4098 47.6279 48.7353C48.3161 48.0608 49.1546 47.7236 50.1436 47.7236C51.137 47.7236 51.9801 48.0631 52.6729 48.7421C53.3564 49.4212 53.6982 50.2552 53.6982 51.2441C53.6982 52.2421 53.3542 53.0784 52.666 53.7529C51.9733 54.4228 51.1234 54.7578 50.1162 54.7578C49.1182 54.7578 48.2819 54.416 47.6074 53.7324C46.9329 53.0579 46.5957 52.2102 46.5957 51.1894ZM48.168 51.2167C48.168 51.8821 48.3457 52.4085 48.7012 52.7958C49.0658 53.1878 49.5465 53.3837 50.1436 53.3837C50.7451 53.3837 51.2259 53.19 51.5859 52.8027C51.946 52.4153 52.126 51.8981 52.126 51.2509C52.126 50.6038 51.946 50.0865 51.5859 49.6992C51.2214 49.3072 50.7406 49.1113 50.1436 49.1113C49.5557 49.1113 49.0794 49.3072 48.7148 49.6992C48.3503 50.0911 48.168 50.5969 48.168 51.2167ZM56.8701 47.9081V51.7294C56.8701 52.8323 57.3053 53.3837 58.1758 53.3837C59.0462 53.3837 59.4814 52.8323 59.4814 51.7294V47.9081H61.0195V51.7636C61.0195 52.2968 60.9535 52.7571 60.8213 53.1445C60.6937 53.4908 60.4727 53.803 60.1582 54.081C59.6387 54.5322 58.9779 54.7578 58.1758 54.7578C57.3783 54.7578 56.7197 54.5322 56.2002 54.081C55.8812 53.803 55.6556 53.4908 55.5234 53.1445C55.3958 52.8346 55.332 52.3743 55.332 51.7636V47.9081H56.8701ZM62.9609 47.9081H64.499V48.5029C64.7816 48.2066 65.0322 48.0039 65.251 47.8945C65.4743 47.7805 65.7386 47.7236 66.0439 47.7236C66.4495 47.7236 66.8734 47.8557 67.3154 48.1201L66.6113 49.5283C66.3197 49.3186 66.0348 49.2138 65.7568 49.2138C64.9183 49.2138 64.499 49.8473 64.499 51.1142V54.5664H62.9609V47.9081ZM72.5176 47.9081H74.0557V48.5234C74.3519 48.2135 74.6048 48.0039 74.8145 47.8945C75.0378 47.7805 75.318 47.7236 75.6553 47.7236C76.4072 47.7236 77.002 48.0517 77.4395 48.708C77.9225 48.0517 78.5765 47.7236 79.4014 47.7236C80.9007 47.7236 81.6504 48.6328 81.6504 50.4511V54.5664H80.1055V50.8681C80.1055 50.2301 80.028 49.7789 79.873 49.5146C79.7135 49.2457 79.4515 49.1113 79.0869 49.1113C78.6631 49.1113 78.3532 49.2708 78.1572 49.5898C77.9658 49.9088 77.8701 50.4215 77.8701 51.1279V54.5664H76.3252V50.8886C76.3252 49.7037 75.9834 49.1113 75.2998 49.1113C74.8669 49.1113 74.5501 49.2731 74.3496 49.5966C74.1536 49.9202 74.0557 50.4306 74.0557 51.1279V54.5664H72.5176V47.9081ZM83.2773 51.1894C83.2773 50.2278 83.6214 49.4098 84.3096 48.7353C84.9977 48.0608 85.8363 47.7236 86.8252 47.7236C87.8187 47.7236 88.6618 48.0631 89.3545 48.7421C90.0381 49.4212 90.3799 50.2552 90.3799 51.2441C90.3799 52.2421 90.0358 53.0784 89.3477 53.7529C88.6549 54.4228 87.805 54.7578 86.7979 54.7578C85.7998 54.7578 84.9635 54.416 84.2891 53.7324C83.6146 53.0579 83.2773 52.2102 83.2773 51.1894ZM84.8496 51.2167C84.8496 51.8821 85.0273 52.4085 85.3828 52.7958C85.7474 53.1878 86.2282 53.3837 86.8252 53.3837C87.4268 53.3837 87.9076 53.19 88.2676 52.8027C88.6276 52.4153 88.8076 51.8981 88.8076 51.2509C88.8076 50.6038 88.6276 50.0865 88.2676 49.6992C87.903 49.3072 87.4222 49.1113 86.8252 49.1113C86.2373 49.1113 85.7611 49.3072 85.3965 49.6992C85.0319 50.0911 84.8496 50.5969 84.8496 51.2167ZM92.0137 47.9081H93.5586V48.5234C94.0964 47.9902 94.7025 47.7236 95.377 47.7236C96.1517 47.7236 96.7555 47.9674 97.1885 48.455C97.5622 48.8697 97.749 49.5465 97.749 50.4853V54.5664H96.2041V50.8476C96.2041 50.1914 96.113 49.7379 95.9307 49.4872C95.7529 49.232 95.4294 49.1044 94.96 49.1044C94.4495 49.1044 94.0872 49.2731 93.873 49.6103C93.6634 49.943 93.5586 50.524 93.5586 51.3535V54.5664H92.0137V47.9081ZM105.761 51.5996H100.989C101.03 52.1464 101.208 52.5816 101.522 52.9052C101.837 53.2242 102.24 53.3837 102.732 53.3837C103.115 53.3837 103.432 53.2926 103.683 53.1103C103.929 52.928 104.209 52.5908 104.523 52.0986L105.822 52.8232C105.622 53.165 105.41 53.4589 105.187 53.705C104.963 53.9466 104.724 54.1471 104.469 54.3066C104.214 54.4615 103.938 54.5755 103.642 54.6484C103.345 54.7213 103.024 54.7578 102.678 54.7578C101.684 54.7578 100.887 54.4387 100.285 53.8007C99.6836 53.1581 99.3828 52.3059 99.3828 51.2441C99.3828 50.1914 99.6745 49.3391 100.258 48.6874C100.846 48.0449 101.625 47.7236 102.596 47.7236C103.576 47.7236 104.35 48.0358 104.92 48.6601C105.485 49.2799 105.768 50.1389 105.768 51.2372L105.761 51.5996ZM104.182 50.3417C103.967 49.5214 103.45 49.1113 102.63 49.1113C102.443 49.1113 102.268 49.1409 102.104 49.2001C101.939 49.2548 101.789 49.3369 101.652 49.4462C101.52 49.5511 101.406 49.6787 101.311 49.829C101.215 49.9794 101.142 50.1503 101.092 50.3417H104.182ZM109.302 53.329L106.308 47.9081H108.092L110.129 51.7363L112.029 47.9081H113.766L108.461 58.1894H106.704L109.302 53.329ZM115.167 52.5908L116.534 53.124L114.586 57.0273L113.547 56.5966L115.167 52.5908ZM124.956 53.329L121.962 47.9081H123.746L125.783 51.7363L127.684 47.9081H129.42L124.115 58.1894H122.358L124.956 53.329ZM129.885 51.1894C129.885 50.2278 130.229 49.4098 130.917 48.7353C131.605 48.0608 132.444 47.7236 133.433 47.7236C134.426 47.7236 135.269 48.0631 135.962 48.7421C136.646 49.4212 136.987 50.2552 136.987 51.2441C136.987 52.2421 136.643 53.0784 135.955 53.7529C135.262 54.4228 134.412 54.7578 133.405 54.7578C132.407 54.7578 131.571 54.416 130.896 53.7324C130.222 53.0579 129.885 52.2102 129.885 51.1894ZM131.457 51.2167C131.457 51.8821 131.635 52.4085 131.99 52.7958C132.355 53.1878 132.836 53.3837 133.433 53.3837C134.034 53.3837 134.515 53.19 134.875 52.8027C135.235 52.4153 135.415 51.8981 135.415 51.2509C135.415 50.6038 135.235 50.0865 134.875 49.6992C134.51 49.3072 134.03 49.1113 133.433 49.1113C132.845 49.1113 132.368 49.3072 132.004 49.6992C131.639 50.0911 131.457 50.5969 131.457 51.2167ZM140.159 47.9081V51.7294C140.159 52.8323 140.594 53.3837 141.465 53.3837C142.335 53.3837 142.771 52.8323 142.771 51.7294V47.9081H144.309V51.7636C144.309 52.2968 144.243 52.7571 144.11 53.1445C143.983 53.4908 143.762 53.803 143.447 54.081C142.928 54.5322 142.267 54.7578 141.465 54.7578C140.667 54.7578 140.009 54.5322 139.489 54.081C139.17 53.803 138.945 53.4908 138.812 53.1445C138.685 52.8346 138.621 52.3743 138.621 51.7636V47.9081H140.159ZM146.25 47.9081H147.788V48.5029C148.071 48.2066 148.321 48.0039 148.54 47.8945C148.763 47.7805 149.028 47.7236 149.333 47.7236C149.739 47.7236 150.162 47.8557 150.604 48.1201L149.9 49.5283C149.609 49.3186 149.324 49.2138 149.046 49.2138C148.207 49.2138 147.788 49.8473 147.788 51.1142V54.5664H146.25V47.9081ZM160.715 43.0205H162.26V54.5664H160.715V53.8691C160.109 54.4615 159.423 54.7578 158.657 54.7578C157.746 54.7578 156.989 54.4251 156.388 53.7597C155.791 53.0807 155.492 52.233 155.492 51.2167C155.492 50.2233 155.791 49.3938 156.388 48.7285C156.98 48.0585 157.725 47.7236 158.623 47.7236C159.402 47.7236 160.1 48.0426 160.715 48.6806V43.0205ZM157.064 51.2167C157.064 51.8548 157.235 52.3743 157.577 52.7753C157.928 53.1809 158.37 53.3837 158.903 53.3837C159.473 53.3837 159.933 53.1878 160.284 52.7958C160.635 52.3902 160.811 51.8753 160.811 51.2509C160.811 50.6266 160.635 50.1116 160.284 49.706C159.933 49.3095 159.478 49.1113 158.917 49.1113C158.388 49.1113 157.946 49.3118 157.591 49.7128C157.24 50.1184 157.064 50.6197 157.064 51.2167ZM170.265 51.5996H165.493C165.534 52.1464 165.712 52.5816 166.026 52.9052C166.341 53.2242 166.744 53.3837 167.236 53.3837C167.619 53.3837 167.936 53.2926 168.187 53.1103C168.433 52.928 168.713 52.5908 169.027 52.0986L170.326 52.8232C170.126 53.165 169.914 53.4589 169.69 53.705C169.467 53.9466 169.228 54.1471 168.973 54.3066C168.717 54.4615 168.442 54.5755 168.146 54.6484C167.849 54.7213 167.528 54.7578 167.182 54.7578C166.188 54.7578 165.391 54.4387 164.789 53.8007C164.188 53.1581 163.887 52.3059 163.887 51.2441C163.887 50.1914 164.178 49.3391 164.762 48.6874C165.35 48.0449 166.129 47.7236 167.1 47.7236C168.079 47.7236 168.854 48.0358 169.424 48.6601C169.989 49.2799 170.271 50.1389 170.271 51.2372L170.265 51.5996ZM168.686 50.3417C168.471 49.5214 167.954 49.1113 167.134 49.1113C166.947 49.1113 166.771 49.1409 166.607 49.2001C166.443 49.2548 166.293 49.3369 166.156 49.4462C166.024 49.5511 165.91 49.6787 165.814 49.829C165.719 49.9794 165.646 50.1503 165.596 50.3417H168.686ZM177.135 48.1953V50.2392C176.784 49.8108 176.469 49.5169 176.191 49.3574C175.918 49.1933 175.597 49.1113 175.228 49.1113C174.649 49.1113 174.168 49.3141 173.785 49.7197C173.402 50.1253 173.211 50.6334 173.211 51.2441C173.211 51.8684 173.396 52.3811 173.765 52.7822C174.138 53.1832 174.615 53.3837 175.193 53.3837C175.562 53.3837 175.888 53.304 176.171 53.1445C176.444 52.9895 176.766 52.6887 177.135 52.2421V54.2724C176.51 54.596 175.886 54.7578 175.262 54.7578C174.232 54.7578 173.37 54.4251 172.678 53.7597C171.985 53.0898 171.639 52.2581 171.639 51.2646C171.639 50.2711 171.99 49.4326 172.691 48.749C173.393 48.0654 174.255 47.7236 175.275 47.7236C175.932 47.7236 176.551 47.8808 177.135 48.1953ZM180.163 47.9081V54.5664H178.625V47.9081H180.163ZM178.393 45.1396C178.393 44.8707 178.491 44.6383 178.687 44.4423C178.882 44.2464 179.117 44.1484 179.391 44.1484C179.669 44.1484 179.906 44.2464 180.102 44.4423C180.298 44.6337 180.396 44.8684 180.396 45.1464C180.396 45.4244 180.298 45.6614 180.102 45.8574C179.91 46.0533 179.675 46.1513 179.397 46.1513C179.119 46.1513 178.882 46.0533 178.687 45.8574C178.491 45.6614 178.393 45.4221 178.393 45.1396ZM185.98 49.0429L184.709 49.7197C184.508 49.3095 184.26 49.1044 183.964 49.1044C183.823 49.1044 183.702 49.1523 183.602 49.248C183.501 49.3391 183.451 49.4576 183.451 49.6035C183.451 49.8587 183.747 50.1116 184.34 50.3622C185.156 50.7132 185.705 51.0367 185.987 51.333C186.27 51.6292 186.411 52.0279 186.411 52.5292C186.411 53.1718 186.174 53.7096 185.7 54.1425C185.24 54.5527 184.684 54.7578 184.032 54.7578C182.916 54.7578 182.125 54.2132 181.66 53.124L182.973 52.5156C183.155 52.8346 183.294 53.0374 183.39 53.124C183.576 53.2971 183.8 53.3837 184.06 53.3837C184.579 53.3837 184.839 53.1468 184.839 52.6728C184.839 52.3994 184.638 52.1441 184.237 51.9072C184.082 51.8297 183.927 51.7545 183.772 51.6816C183.618 51.6087 183.46 51.5335 183.301 51.456C182.854 51.2372 182.54 51.0185 182.357 50.7997C182.125 50.5218 182.009 50.164 182.009 49.7265C182.009 49.1477 182.207 48.6692 182.604 48.291C183.009 47.9127 183.501 47.7236 184.08 47.7236C184.932 47.7236 185.566 48.1634 185.98 49.0429ZM189.337 47.9081V54.5664H187.799V47.9081H189.337ZM187.566 45.1396C187.566 44.8707 187.664 44.6383 187.86 44.4423C188.056 44.2464 188.291 44.1484 188.564 44.1484C188.842 44.1484 189.079 44.2464 189.275 44.4423C189.471 44.6337 189.569 44.8684 189.569 45.1464C189.569 45.4244 189.471 45.6614 189.275 45.8574C189.084 46.0533 188.849 46.1513 188.571 46.1513C188.293 46.1513 188.056 46.0533 187.86 45.8574C187.664 45.6614 187.566 45.4221 187.566 45.1396ZM190.971 51.1894C190.971 50.2278 191.315 49.4098 192.003 48.7353C192.691 48.0608 193.53 47.7236 194.519 47.7236C195.512 47.7236 196.355 48.0631 197.048 48.7421C197.731 49.4212 198.073 50.2552 198.073 51.2441C198.073 52.2421 197.729 53.0784 197.041 53.7529C196.348 54.4228 195.498 54.7578 194.491 54.7578C193.493 54.7578 192.657 54.416 191.982 53.7324C191.308 53.0579 190.971 52.2102 190.971 51.1894ZM192.543 51.2167C192.543 51.8821 192.721 52.4085 193.076 52.7958C193.441 53.1878 193.922 53.3837 194.519 53.3837C195.12 53.3837 195.601 53.19 195.961 52.8027C196.321 52.4153 196.501 51.8981 196.501 51.2509C196.501 50.6038 196.321 50.0865 195.961 49.6992C195.596 49.3072 195.116 49.1113 194.519 49.1113C193.931 49.1113 193.454 49.3072 193.09 49.6992C192.725 50.0911 192.543 50.5969 192.543 51.2167ZM199.707 47.9081H201.252V48.5234C201.79 47.9902 202.396 47.7236 203.07 47.7236C203.845 47.7236 204.449 47.9674 204.882 48.455C205.256 48.8697 205.442 49.5465 205.442 50.4853V54.5664H203.897V50.8476C203.897 50.1914 203.806 49.7379 203.624 49.4872C203.446 49.232 203.123 49.1044 202.653 49.1044C202.143 49.1044 201.781 49.2731 201.566 49.6103C201.357 49.943 201.252 50.524 201.252 51.3535V54.5664H199.707V47.9081Z" fill="#1A244E"/>
<path opacity="0.7" d="M0 51.1416H24.1289" stroke="#1A244E"/>
<path d="M119.24 10.4L115.08 10.4L115.08 11.632L116.52 11.632L116.52 16L117.8 16L117.8 11.632L119.24 11.632L119.24 10.4ZM125.4 10.4L124.12 10.4L122.6 12.888L121.08 10.4L119.8 10.4L119.8 16L121.08 16L121.08 12.744L122.528 15.12L122.672 15.12L124.12 12.744L124.12 16L125.4 16L125.4 10.4Z" fill="#1A244E"/>
</g>
<defs>
<linearGradient id="paint0_linear" x1="0.95038" y1="13.2311" x2="34.4096" y2="13.5887" gradientUnits="userSpaceOnUse">
<stop stop-color="#77C4DD"/>
<stop offset="1" stop-color="#74DAC8"/>
</linearGradient>
<linearGradient id="paint1_linear" x1="0.950374" y1="13.2314" x2="34.4096" y2="13.589" gradientUnits="userSpaceOnUse">
<stop stop-color="#77C4DD"/>
<stop offset="1" stop-color="#74DAC8"/>
</linearGradient>
<linearGradient id="paint2_linear" x1="0.950376" y1="13.2312" x2="34.4096" y2="13.5888" gradientUnits="userSpaceOnUse">
<stop stop-color="#77C4DD"/>
<stop offset="1" stop-color="#74DAC8"/>
</linearGradient>
<linearGradient id="paint3_linear" x1="0.950373" y1="13.2315" x2="34.4096" y2="13.5891" gradientUnits="userSpaceOnUse">
<stop stop-color="#77C4DD"/>
<stop offset="1" stop-color="#74DAC8"/>
</linearGradient>
<clipPath id="clip0">
<rect width="207" height="59" fill="white"/>
</clipPath>
</defs>
</svg>
