<svg width="124" height="34" viewBox="0 0 124 34" fill="none" xmlns="http://www.w3.org/2000/svg">
<path d="M1.32978 14.0524C0.700084 14.6821 0.700084 15.703 1.32978 16.3327L3.47815 18.4811C3.83392 18.8369 3.83392 19.4137 3.47815 19.7694L1.15585 22.0917C0.622204 22.6254 0.622203 23.4906 1.15585 24.0242L1.51544 24.3838C2.04909 24.9175 2.91431 24.9175 3.44796 24.3838L7.74025 20.0915C7.78567 20.0461 7.82722 19.9983 7.86491 19.9485C7.90292 19.8982 7.94186 19.8485 7.98641 19.804L8.35199 19.4384C8.52987 19.2605 8.52987 18.9721 8.35199 18.7942L7.92982 18.3721C7.89636 18.3386 7.86604 18.3022 7.83623 18.2655C7.80643 18.2288 7.77443 18.1932 7.74025 18.159L7.38066 17.7994C7.34647 17.7653 7.31093 17.7333 7.2742 17.7035C7.23746 17.6736 7.20107 17.6433 7.16762 17.6099L3.61012 14.0524C2.98042 13.4227 1.95948 13.4227 1.32978 14.0524Z" fill="url(#paint0_linear)"/>
<path d="M33.3709 8.48106C34.0006 9.11075 34.0006 10.1317 33.3709 10.7614L31.2225 12.9097C30.8668 13.2655 30.8668 13.8423 31.2225 14.1981L33.5448 16.5204C34.0785 17.054 34.0785 17.9192 33.5448 18.4529L33.1852 18.8125C32.6516 19.3461 31.7864 19.3461 31.2527 18.8125L26.9604 14.5202C26.915 14.4748 26.8735 14.427 26.8358 14.3772C26.7978 14.327 26.7589 14.2773 26.7144 14.2328L26.3487 13.8671C26.1708 13.6892 26.1708 13.4008 26.3487 13.2229L26.7707 12.8009C26.8042 12.7674 26.8346 12.731 26.8644 12.6942C26.8942 12.6574 26.9262 12.6219 26.9604 12.5877L27.32 12.2281C27.3542 12.1939 27.3898 12.1619 27.4266 12.132C27.4633 12.1022 27.4997 12.0719 27.5332 12.0384L31.0906 8.48106C31.7203 7.85136 32.7412 7.85136 33.3709 8.48106Z" fill="url(#paint1_linear)"/>
<path fill-rule="evenodd" clip-rule="evenodd" d="M6.22155 7.93901C4.87187 9.28868 4.87188 11.4769 6.22155 12.8266L10.5244 17.1294C11.4536 18.0587 11.4536 19.5653 10.5244 20.4946L6.23415 24.7848C4.87752 26.1414 4.87752 28.341 6.23415 29.6976C7.59079 31.0542 9.79033 31.0542 11.147 29.6976L19.5762 21.2684C19.6807 21.1639 19.7771 21.0544 19.8655 20.9406C19.9582 20.8214 20.0526 20.7033 20.1593 20.5966L21.1217 19.6341C21.5864 19.1695 21.5864 18.4162 21.1217 17.9516L20.0247 16.8545C19.9445 16.7743 19.8711 16.6875 19.7987 16.6001C19.7291 16.516 19.6549 16.4343 19.5762 16.3556C19.4974 16.2768 19.4158 16.2026 19.3317 16.133C19.2442 16.0606 19.1575 15.9873 19.0772 15.907L11.1091 7.93901C9.75947 6.58934 7.57122 6.58934 6.22155 7.93901Z" fill="url(#paint2_linear)"/>
<path d="M28.8959 7.08076C30.3236 5.65306 30.3236 3.33831 28.8959 1.91062C27.4682 0.482919 25.1535 0.482918 23.7258 1.91062L15.665 9.97132L20.3392 14.6454C20.355 14.6613 20.385 14.6885 20.4696 14.7585C20.5967 14.8637 20.7197 14.9756 20.8381 15.094C20.9565 15.2124 21.0684 15.3354 21.1736 15.4626C21.2436 15.5471 21.2709 15.5771 21.2867 15.5929L22.3837 16.69C23.5453 17.8515 23.5453 19.7348 22.3837 20.8964L21.4213 21.8588C21.4002 21.8799 21.3646 21.9204 21.2746 22.0362C21.2052 22.1254 21.1327 22.2128 21.057 22.2982L24.0935 25.3347C25.3034 26.5447 27.2651 26.5447 28.475 25.3347L29.2903 24.5194C30.5003 23.3095 30.5003 21.3478 29.2903 20.1379L24.0251 14.8726C23.2184 14.066 23.2184 12.7582 24.0251 11.9516L28.8959 7.08076Z" fill="url(#paint3_linear)"/>
<path d="M53.7344 20.3997L52.0528 22.1833V26.8102H49.4744V11.9715H52.0528V18.9321L53.4796 17.1691L57.8211 11.9715H60.9396L55.4261 18.545L61.2556 26.8102H58.1982L53.7344 20.3997ZM68.9908 26.8102C68.8821 26.5995 68.787 26.2564 68.7055 25.7808C67.9173 26.6029 66.9525 27.014 65.8111 27.014C64.7037 27.014 63.8 26.698 63.1002 26.0661C62.4004 25.4342 62.0505 24.6529 62.0505 23.7221C62.0505 22.5467 62.4853 21.6465 63.355 21.0215C64.2315 20.3896 65.4816 20.0737 67.1054 20.0737H68.6239V19.35C68.6239 18.7793 68.4643 18.3241 68.1449 17.9844C67.8256 17.6378 67.3398 17.4646 66.6876 17.4646C66.1236 17.4646 65.6616 17.6073 65.3015 17.8926C64.9415 18.1712 64.7614 18.5279 64.7614 18.9627H62.2849C62.2849 18.358 62.4853 17.7941 62.8862 17.271C63.2871 16.741 63.8306 16.3266 64.5168 16.0276C65.2098 15.7287 65.981 15.5792 66.8302 15.5792C68.1212 15.5792 69.1505 15.9053 69.9182 16.5576C70.686 17.203 71.08 18.1134 71.1004 19.2888V24.2622C71.1004 25.2542 71.2397 26.0458 71.5183 26.6369V26.8102H68.9908ZM66.2697 25.0266C66.7589 25.0266 67.2175 24.9078 67.6456 24.67C68.0804 24.4322 68.4065 24.1128 68.6239 23.712V21.6329H67.2889C66.3716 21.6329 65.682 21.7925 65.22 22.1118C64.758 22.4312 64.527 22.8831 64.527 23.4674C64.527 23.943 64.6833 24.3234 64.9958 24.6087C65.3151 24.8873 65.7398 25.0266 66.2697 25.0266ZM73.2304 21.1946C73.2304 20.1143 73.4444 19.1428 73.8725 18.2799C74.3005 17.4102 74.9018 16.7444 75.6763 16.2824C76.4509 15.8136 77.3409 15.5792 78.3465 15.5792C79.8344 15.5792 81.0404 16.0582 81.9644 17.0162C82.8952 17.9742 83.398 19.2447 83.4727 20.8277L83.4829 21.4086C83.4829 22.4957 83.2723 23.4674 82.851 24.3235C82.4366 25.1795 81.8387 25.8419 81.0574 26.3107C80.2828 26.7795 79.386 27.014 78.3669 27.014C76.811 27.014 75.5642 26.4975 74.6266 25.4648C73.6958 24.4253 73.2304 23.0427 73.2304 21.3169V21.1946ZM75.7069 21.4086C75.7069 22.5433 75.9413 23.4333 76.4101 24.0788C76.8789 24.7174 77.5312 25.0368 78.3669 25.0368C79.2025 25.0368 79.8514 24.7106 80.3134 24.0584C80.7822 23.4061 81.0166 22.4516 81.0166 21.1946C81.0166 20.0804 80.7754 19.1972 80.293 18.545C79.8174 17.8927 79.1686 17.5665 78.3465 17.5665C77.538 17.5665 76.8959 17.8892 76.4203 18.5347C75.9447 19.1733 75.7069 20.1313 75.7069 21.4086ZM91.7583 23.8139C91.7583 23.3723 91.5748 23.0359 91.2079 22.8049C90.8479 22.5739 90.2466 22.37 89.4041 22.1934C88.5616 22.0167 87.8584 21.7926 87.2945 21.5208C86.0579 20.923 85.4396 20.0567 85.4396 18.9221C85.4396 17.9709 85.8405 17.1759 86.6422 16.5373C87.4439 15.8986 88.4631 15.5792 89.6996 15.5792C91.0177 15.5792 92.081 15.9053 92.8895 16.5576C93.7048 17.2098 94.1125 18.0557 94.1125 19.0952H91.636C91.636 18.6196 91.4593 18.2255 91.106 17.913C90.7527 17.5937 90.2839 17.434 89.6996 17.434C89.1561 17.434 88.7111 17.5597 88.3646 17.8111C88.0249 18.0625 87.855 18.3988 87.855 18.82C87.855 19.2005 88.0147 19.4961 88.334 19.7067C88.6533 19.9173 89.2988 20.1313 90.2703 20.3487C91.2419 20.5594 92.0029 20.8141 92.5532 21.1131C93.1103 21.4052 93.5214 21.7585 93.7864 22.173C94.0581 22.5874 94.194 23.0902 94.194 23.6813C94.194 24.6733 93.783 25.4785 92.9609 26.0968C92.1388 26.7082 91.0619 27.014 89.7302 27.014C88.8266 27.014 88.0215 26.8508 87.3149 26.5247C86.6083 26.1986 86.0579 25.7502 85.6639 25.1794C85.2698 24.6087 85.0728 23.9939 85.0728 23.3349H87.4779C87.5119 23.9192 87.7327 24.3709 88.1404 24.6903C88.548 25.0028 89.0881 25.1591 89.7608 25.1591C90.413 25.1591 90.909 25.0368 91.2487 24.7922C91.5884 24.5408 91.7583 24.2148 91.7583 23.8139ZM98.8005 16.9856C99.609 16.048 100.632 15.5792 101.868 15.5792C104.219 15.5792 105.411 16.9211 105.445 19.6048V26.8102H102.969V19.6966C102.969 18.9356 102.802 18.3988 102.469 18.0863C102.143 17.7669 101.661 17.6073 101.022 17.6073C100.03 17.6073 99.2897 18.0489 98.8005 18.9321V26.8102H96.324V11.1562H98.8005V16.9856ZM110.592 26.8102H108.115V15.783H110.592V26.8102ZM107.963 12.9193C107.963 12.5388 108.081 12.2228 108.319 11.9715C108.564 11.7201 108.91 11.5944 109.359 11.5944C109.807 11.5944 110.154 11.7201 110.398 11.9715C110.643 12.2228 110.765 12.5388 110.765 12.9193C110.765 13.2929 110.643 13.6055 110.398 13.8569C110.154 14.1014 109.807 14.2237 109.359 14.2237C108.91 14.2237 108.564 14.1014 108.319 13.8569C108.081 13.6055 107.963 13.2929 107.963 12.9193Z" fill="#1A244E"/>
<path d="M117.71 5.1L114.07 5.1L114.07 6.178L115.33 6.178L115.33 10L116.45 10L116.45 6.178L117.71 6.178L117.71 5.1ZM123.1 5.1L121.98 5.1L120.65 7.277L119.32 5.1L118.2 5.1L118.2 10L119.32 10L119.32 7.151L120.587 9.23L120.713 9.23L121.98 7.151L121.98 10L123.1 10L123.1 5.1Z" fill="#1A244E"/>
<defs>
<linearGradient id="paint0_linear" x1="1.70599" y1="13.1433" x2="35.1652" y2="13.5009" gradientUnits="userSpaceOnUse">
<stop stop-color="#77C4DD"/>
<stop offset="1" stop-color="#74DAC8"/>
</linearGradient>
<linearGradient id="paint1_linear" x1="1.70599" y1="13.1435" x2="35.1652" y2="13.5011" gradientUnits="userSpaceOnUse">
<stop stop-color="#77C4DD"/>
<stop offset="1" stop-color="#74DAC8"/>
</linearGradient>
<linearGradient id="paint2_linear" x1="1.70599" y1="13.1433" x2="35.1652" y2="13.5009" gradientUnits="userSpaceOnUse">
<stop stop-color="#77C4DD"/>
<stop offset="1" stop-color="#74DAC8"/>
</linearGradient>
<linearGradient id="paint3_linear" x1="1.70599" y1="13.1436" x2="35.1652" y2="13.5012" gradientUnits="userSpaceOnUse">
<stop stop-color="#77C4DD"/>
<stop offset="1" stop-color="#74DAC8"/>
</linearGradient>
</defs>
</svg>
