<svg width="81" height="69" viewBox="0 0 81 69" fill="none" xmlns="http://www.w3.org/2000/svg">
<path d="M11.0224 25.7229C11.0224 24.9341 11.6618 24.2947 12.4506 24.2947H69.2275C70.0163 24.2947 70.6557 24.9341 70.6557 25.7229V58.5758H73.5121C74.3009 58.5758 74.9403 59.2152 74.9403 60.004V65.9683C74.9403 66.7571 74.3009 67.3965 73.5121 67.3965H8.16599C7.37722 67.3965 6.73779 66.7571 6.73779 65.9683V60.004C6.73779 59.2152 7.37722 58.5758 8.16599 58.5758H11.0224V25.7229Z" fill="white"/>
<path d="M11.0224 58.5758V25.7229C11.0224 24.9341 11.6618 24.2947 12.4506 24.2947H69.2275C70.0163 24.2947 70.6557 24.9341 70.6557 25.7229V58.5758M11.0224 58.5758H8.16599C7.37722 58.5758 6.73779 59.2152 6.73779 60.004V65.9683C6.73779 66.7571 7.37722 67.3965 8.16599 67.3965H73.5121C74.3009 67.3965 74.9403 66.7571 74.9403 65.9683V60.004C74.9403 59.2152 74.3009 58.5758 73.5121 58.5758H70.6557M11.0224 58.5758H70.6557" stroke="#4147D6" stroke-width="1.4282"/>
<rect x="65.0989" y="25.0796" width="5.38096" height="33.0694" fill="url(#paint0_linear)"/>
<rect x="69.2781" y="58.5669" width="5.38096" height="8.61083" fill="url(#paint1_linear)"/>
<rect x="6.73779" y="63.5154" width="67.9215" height="3.66236" fill="url(#paint2_linear)"/>
<path d="M11.0224 58.5758V25.7229C11.0224 24.9341 11.6618 24.2947 12.4506 24.2947H69.2275C70.0163 24.2947 70.6557 24.9341 70.6557 25.7229V58.5758M11.0224 58.5758H8.16599C7.37722 58.5758 6.73779 59.2152 6.73779 60.004V65.9683C6.73779 66.7571 7.37722 67.3965 8.16599 67.3965H73.5121C74.3009 67.3965 74.9403 66.7571 74.9403 65.9683V60.004C74.9403 59.2152 74.3009 58.5758 73.5121 58.5758H70.6557M11.0224 58.5758H70.6557" stroke="#4147D6" stroke-width="1.4282"/>
<path d="M17.1565 21.436C17.1565 25.7368 13.67 29.2232 9.36925 29.2232C5.06849 29.2232 1.58203 25.7368 1.58203 21.436L11.6506 0.83374H22.2527H34.4573H46.4154H58.99H69.2222L79.4543 21.436C79.4543 25.7368 75.9679 29.2232 71.6671 29.2232C67.3664 29.2232 63.8799 25.7368 63.8799 21.436C63.8799 25.7368 60.3934 29.2232 56.0927 29.2232C51.7919 29.2232 48.3054 25.7368 48.3054 21.436C48.3054 25.7368 44.819 29.2232 40.5182 29.2232C36.2174 29.2232 32.7309 25.7368 32.7309 21.436C32.7309 25.7368 29.2445 29.2232 24.9437 29.2232C20.643 29.2232 17.1565 25.7368 17.1565 21.436Z" fill="white"/>
<path d="M17.1629 21.2972L22.1731 1.14966H11.5664C8.2262 7.77667 1.5459 21.2652 1.5459 22.2033C1.5459 23.3759 3.3581 26.414 3.94441 27.2135C4.41345 27.8531 6.91145 28.8658 8.10182 29.2922C9.43433 29.2389 12.5258 28.8125 14.2314 27.5333C15.937 26.2541 16.6121 24.1576 16.7365 23.2693L17.1629 21.2972Z" fill="url(#paint3_linear)"/>
<path d="M63.3884 21.2972L58.3782 1.14966H68.9849C72.3251 7.77667 79.0054 21.2652 79.0054 22.2033C79.0054 23.3759 77.1932 26.414 76.6069 27.2135C76.1378 27.8531 73.6398 28.8658 72.4495 29.2922C71.1169 29.2389 68.0255 28.8125 66.3199 27.5333C64.6143 26.2541 63.9392 24.1576 63.8148 23.2693L63.3884 21.2972Z" fill="url(#paint4_linear)"/>
<path d="M32.9634 21.3434L34.3429 0.828857H46.8919L48.4049 23.2569L46.8919 26.2829C46.0909 26.9356 44.4177 28.2676 44.1329 28.3744C43.8481 28.4812 42.2342 28.8639 41.4629 29.0419H38.5704L34.3429 26.5054L33.4973 24.9924L32.9634 21.3434Z" fill="url(#paint5_linear)"/>
<path d="M17.1565 21.436C17.1565 25.7368 13.67 29.2232 9.36925 29.2232C5.06849 29.2232 1.58203 25.7368 1.58203 21.436M17.1565 21.436C17.1565 25.7368 20.643 29.2232 24.9437 29.2232C29.2445 29.2232 32.7309 25.7368 32.7309 21.436M17.1565 21.436L22.2527 0.83374M1.58203 21.436L10.5541 3.07741C11.2251 1.70443 12.6198 0.83374 14.1479 0.83374H22.2527M1.58203 21.436H79.4543M32.7309 21.436C32.7309 25.7368 36.2174 29.2232 40.5182 29.2232C44.819 29.2232 48.3054 25.7368 48.3054 21.436M32.7309 21.436L34.4573 0.83374M48.3054 21.436C48.3054 25.7368 51.7919 29.2232 56.0927 29.2232C60.3934 29.2232 63.8799 25.7368 63.8799 21.436M48.3054 21.436L46.4154 0.83374M63.8799 21.436C63.8799 25.7368 67.3664 29.2232 71.6671 29.2232C75.9679 29.2232 79.4543 25.7368 79.4543 21.436M63.8799 21.436L58.99 0.83374M79.4543 21.436L70.3251 3.05448C69.6494 1.69407 68.2616 0.83374 66.7426 0.83374H58.99M22.2527 0.83374H34.4573M34.4573 0.83374H46.4154M46.4154 0.83374H58.99" stroke="#4147D6" stroke-width="1.4282"/>
<path d="M38.6194 43.5352C38.6194 38.3288 42.84 34.1082 48.0465 34.1082C53.2529 34.1082 57.4735 38.3288 57.4735 43.5352V67.3963H38.6194V43.5352Z" fill="url(#paint6_linear)" stroke="#4147D6" stroke-width="1.4282"/>
<path d="M19.6196 40.5204C19.6196 37.7679 21.851 35.5366 24.6034 35.5366C27.3559 35.5366 29.5872 37.7679 29.5872 40.5204V48.1922C29.5872 48.981 28.9478 49.6204 28.159 49.6204H21.0478C20.2591 49.6204 19.6196 48.981 19.6196 48.1922V40.5204Z" fill="url(#paint7_linear)" stroke="#4147D6" stroke-width="1.4282"/>
<defs>
<linearGradient id="paint0_linear" x1="67.7894" y1="25.0796" x2="85.5363" y2="39.1265" gradientUnits="userSpaceOnUse">
<stop stop-color="#E0E1FF"/>
<stop offset="1" stop-color="#C2CCFF"/>
</linearGradient>
<linearGradient id="paint1_linear" x1="71.9686" y1="58.5669" x2="74.7874" y2="67.1355" gradientUnits="userSpaceOnUse">
<stop stop-color="#E0E1FF"/>
<stop offset="1" stop-color="#C2CCFF"/>
</linearGradient>
<linearGradient id="paint2_linear" x1="40.6985" y1="63.5154" x2="40.7433" y2="67.5537" gradientUnits="userSpaceOnUse">
<stop stop-color="#E0E1FF"/>
<stop offset="1" stop-color="#C2CCFF"/>
</linearGradient>
<linearGradient id="paint3_linear" x1="2.13656" y1="12.7397" x2="22.9328" y2="12.8864" gradientUnits="userSpaceOnUse">
<stop stop-color="#77C4DD"/>
<stop offset="1" stop-color="#74DAC8"/>
</linearGradient>
<linearGradient id="paint4_linear" x1="78.4147" y1="12.7397" x2="57.6185" y2="12.8864" gradientUnits="userSpaceOnUse">
<stop stop-color="#77C4DD"/>
<stop offset="1" stop-color="#74DAC8"/>
</linearGradient>
<linearGradient id="paint5_linear" x1="33.4055" y1="12.4479" x2="48.9739" y2="12.5299" gradientUnits="userSpaceOnUse">
<stop stop-color="#77C4DD"/>
<stop offset="1" stop-color="#74DAC8"/>
</linearGradient>
<linearGradient id="paint6_linear" x1="39.1593" y1="47.8174" x2="58.1683" y2="47.9209" gradientUnits="userSpaceOnUse">
<stop stop-color="#77C4DD"/>
<stop offset="1" stop-color="#74DAC8"/>
</linearGradient>
<linearGradient id="paint7_linear" x1="19.9051" y1="41.3368" x2="29.9544" y2="41.4052" gradientUnits="userSpaceOnUse">
<stop stop-color="#77C4DD"/>
<stop offset="1" stop-color="#74DAC8"/>
</linearGradient>
</defs>
</svg>
