<svg width="98" height="94" viewBox="0 0 98 94" fill="none" xmlns="http://www.w3.org/2000/svg">
<path d="M68.3445 35.2969H29.8773C29.2001 35.2969 28.6511 35.8459 28.6511 36.5231V75.0535C28.6511 79.8331 37.8113 83.7076 49.1109 83.7076C60.4105 83.7076 69.5707 79.8331 69.5707 75.0535V36.5231C69.5707 35.8459 69.0217 35.2969 68.3445 35.2969Z" fill="white"/>
<path d="M69.5707 75.6933V36.5231C69.5707 35.8459 69.0217 35.2969 68.3445 35.2969H29.8773C29.2001 35.2969 28.6511 35.8459 28.6511 36.5231V75.6933M69.5707 75.0535C69.5707 79.8331 60.4105 83.7076 49.1109 83.7076C37.8113 83.7076 28.6511 79.8331 28.6511 75.0535" stroke="#4147D6" stroke-width="1.22618"/>
<path d="M62.8804 42.8284L69.2937 39.7156V60.6541L62.8804 65.4466V42.8284Z" fill="url(#paint0_linear)"/>
<ellipse cx="49.1109" cy="36.6361" rx="20.4598" ry="8.65412" fill="url(#paint1_linear)" stroke="#4147D6" stroke-width="1.22618"/>
<path d="M69.5707 42.7009C69.5707 47.4805 60.4105 51.355 49.1109 51.355C37.8113 51.355 28.6511 47.4805 28.6511 42.7009" stroke="#4147D6" stroke-width="1.22618"/>
<path d="M69.5707 48.2544C69.5707 53.0339 60.4105 56.9085 49.1109 56.9085C37.8113 56.9085 28.6511 53.0339 28.6511 48.2544" stroke="#4147D6" stroke-width="1.22618"/>
<path d="M69.5707 53.1943C69.5707 57.9739 60.4105 61.8485 49.1109 61.8485C37.8113 61.8485 28.6511 57.9739 28.6511 53.1943" stroke="#4147D6" stroke-width="1.22618"/>
<path d="M69.5707 58.7476C69.5707 63.5271 60.4105 67.4017 49.1109 67.4017C37.8113 67.4017 28.6511 63.5271 28.6511 58.7476" stroke="#4147D6" stroke-width="1.22618"/>
<path d="M69.5707 63.6875C69.5707 68.467 60.4105 72.3416 49.1109 72.3416C37.8113 72.3416 28.6511 68.467 28.6511 63.6875" stroke="#4147D6" stroke-width="1.22618"/>
<path d="M69.5707 69.241C69.5707 74.0205 60.4105 77.8951 49.1109 77.8951C37.8113 77.8951 28.6511 74.0205 28.6511 69.241" stroke="#4147D6" stroke-width="1.22618"/>
<path d="M69.5707 36.5229V75.6932M28.6511 75.6932V36.523M69.5707 75.0534C69.5707 79.833 60.4105 83.7075 49.1109 83.7075C37.8113 83.7075 28.6511 79.833 28.6511 75.0534" stroke="#4147D6" stroke-width="1.22618"/>
<path d="M90.7056 60.5093H52.2384C51.5612 60.5093 51.0122 61.0583 51.0122 61.7355V84.3256C51.0122 89.1051 60.1724 92.9797 71.472 92.9797C82.7716 92.9797 91.9318 89.1051 91.9318 84.3256V61.7355C91.9318 61.0583 91.3828 60.5093 90.7056 60.5093Z" fill="white"/>
<path d="M91.9318 84.9653V61.7355C91.9318 61.0583 91.3828 60.5093 90.7056 60.5093H52.2384C51.5612 60.5093 51.0122 61.0583 51.0122 61.7355V84.9653M91.9318 84.3256C91.9318 89.1051 82.7716 92.9797 71.472 92.9797C60.1724 92.9797 51.0122 89.1051 51.0122 84.3256" stroke="#4147D6" stroke-width="1.22618"/>
<path d="M85.5186 68.0293L91.9319 64.9165V85.8551L85.5186 90.6475V68.0293Z" fill="url(#paint2_linear)"/>
<ellipse cx="71.472" cy="61.8485" rx="20.4598" ry="8.65412" fill="url(#paint3_linear)" stroke="#4147D6" stroke-width="1.22618"/>
<path d="M91.9318 67.9133C91.9318 72.6929 82.7716 76.5674 71.472 76.5674C60.1724 76.5674 51.0122 72.6929 51.0122 67.9133" stroke="#4147D6" stroke-width="1.22618"/>
<path d="M91.9318 73.4668C91.9318 78.2463 82.7716 82.1209 71.472 82.1209C60.1724 82.1209 51.0122 78.2463 51.0122 73.4668" stroke="#4147D6" stroke-width="1.22618"/>
<path d="M91.9318 78.4067C91.9318 83.1863 82.7716 87.0609 71.472 87.0609C60.1724 87.0609 51.0122 83.1863 51.0122 78.4067" stroke="#4147D6" stroke-width="1.22618"/>
<path d="M91.9318 61.7354V84.9652M51.0122 84.9652V61.7354M91.9318 84.3255C91.9318 89.105 82.7716 92.9796 71.472 92.9796C60.1724 92.9796 51.0122 89.105 51.0122 84.3255" stroke="#4147D6" stroke-width="1.22618"/>
<path d="M70.7751 2.03711L70.7752 6.23427M70.7752 10.4314L70.7752 6.23427M70.7752 6.23427L66.578 6.23427M70.7752 6.23427L74.9723 6.23427" stroke="#4147D6" stroke-width="1.22618"/>
<path d="M86.8782 37.5967L86.8782 40.7312M86.8782 43.8658L86.8782 40.7312M86.8782 40.7312L83.7436 40.7312M86.8782 40.7312L90.0127 40.7312" stroke="#4147D6" stroke-width="1.22618"/>
<path d="M20.9507 0.80957L20.9507 5.00673M20.9507 9.2039L20.9507 5.00673M20.9507 5.00673L16.7535 5.00673M20.9507 5.00673L25.1478 5.00673" stroke="#4147D6" stroke-width="1.22618"/>
<circle cx="5.01227" cy="31.5565" r="4.00764" stroke="#4147D6" stroke-width="1.22618"/>
<circle cx="92.7327" cy="21.9522" r="4.00764" stroke="#4147D6" stroke-width="1.22618"/>
<circle cx="37.5755" cy="15.7425" r="1.70806" stroke="#4147D6" stroke-width="1.22618"/>
<defs>
<linearGradient id="paint0_linear" x1="66.087" y1="39.7156" x2="80.0158" y2="56.6029" gradientUnits="userSpaceOnUse">
<stop stop-color="#E0E1FF"/>
<stop offset="1" stop-color="#C2CCFF"/>
</linearGradient>
<linearGradient id="paint1_linear" x1="29.8229" y1="35.1101" x2="71.0584" y2="36.0479" gradientUnits="userSpaceOnUse">
<stop stop-color="#77C4DD"/>
<stop offset="1" stop-color="#74DAC8"/>
</linearGradient>
<linearGradient id="paint2_linear" x1="88.7252" y1="64.9165" x2="102.654" y2="81.8039" gradientUnits="userSpaceOnUse">
<stop stop-color="#E0E1FF"/>
<stop offset="1" stop-color="#C2CCFF"/>
</linearGradient>
<linearGradient id="paint3_linear" x1="52.1839" y1="60.3225" x2="93.4195" y2="61.2603" gradientUnits="userSpaceOnUse">
<stop stop-color="#77C4DD"/>
<stop offset="1" stop-color="#74DAC8"/>
</linearGradient>
</defs>
</svg>
