<svg width="202" height="172" viewBox="0 0 202 172" fill="none" xmlns="http://www.w3.org/2000/svg">
<g clip-path="url(#clip0)">
<path d="M80.5393 12.8819C111.707 35.3 135.774 15.2937 163.332 39.9458C187.122 61.2268 186.485 88.8137 169.811 110.618C153.136 132.423 130.305 146.789 98.7527 146.789C67.2 146.789 36.6285 128.335 23.4832 84.1791C10.3379 40.023 44.713 -12.8871 80.5393 12.8819Z" fill="url(#paint0_linear)"/>
<mask id="mask0" mask-type="alpha" maskUnits="userSpaceOnUse" x="93" y="-24" width="101" height="101">
<circle cx="143.878" cy="26.4976" r="50" fill="#C4C4C4"/>
</mask>
<g mask="url(#mask0)">
<path d="M127.414 58.0488L132.115 51.7525L161.161 50.8291V60.5673L156.292 67.7869L141.433 71.3128L129.177 67.1153L127.414 58.0488Z" fill="#F8F8FD"/>
<path d="M128.455 58.0122L107.674 61.2307L98.7192 78.9714H180.542V72.5311V65.7061L159.38 58.432C157.351 61.8371 151.096 68.6473 142.308 68.6473C133.52 68.6473 129.411 61.5572 128.455 58.0122Z" fill="url(#paint1_linear)"/>
<path d="M142.67 61.4841C137.172 61.4841 133.366 56.9958 132.15 54.7517L127.943 43.9986L124.67 34.5545L130.982 11.9263L137.994 13.5626L153.002 18.7054L161.418 22.2119V27.3079L155.012 36.7052V54.7517C153.189 56.9958 148.168 61.4841 142.67 61.4841Z" fill="#DCDCDC"/>
<path d="M142.67 61.4841C137.172 61.4841 133.366 56.9958 132.15 54.7517L127.943 43.9986L124.67 34.5545L130.982 11.9263L137.994 13.5626L153.002 18.7054L161.418 22.2119V27.3079L155.012 36.7052V54.7517C153.189 56.9958 148.168 61.4841 142.67 61.4841Z" fill="url(#paint2_linear)"/>
<path d="M148.381 50.1282C143.891 50.1823 140.132 46.0711 138.813 44.0087C142.563 45.0072 146.754 44.0793 148.381 43.4906C148.611 42.6317 148.769 39.7974 147.566 35.3313C146.063 29.7486 148.339 29.405 148.683 26.9572C148.958 24.999 147.28 22.5627 146.407 21.5893L159.505 19.7427L161.781 26.5278L154.771 48.9787C154.512 49.3393 152.871 50.0741 148.381 50.1282Z" fill="#DCDCDC"/>
<path d="M148.381 50.1282C143.891 50.1823 140.132 46.0711 138.813 44.0087C142.563 45.0072 146.754 44.0793 148.381 43.4906C148.611 42.6317 148.769 39.7974 147.566 35.3313C146.063 29.7486 148.339 29.405 148.683 26.9572C148.958 24.999 147.28 22.5627 146.407 21.5893L159.505 19.7427L161.781 26.5278L154.771 48.9787C154.512 49.3393 152.871 50.0741 148.381 50.1282Z" fill="url(#paint3_linear)"/>
<path d="M147.647 22.3654C141.158 20.289 138.707 19.6713 132.218 13.4422C130.181 19.0763 129.331 22.9216 129.331 31.8779C129.331 39.0429 135.041 42.5473 137.896 43.4039C136.645 51.3998 131.369 57.6863 128.377 59.0527C125.385 60.419 118.749 61.0588 112.276 63.8328C107.098 66.0521 102.815 71.4209 100.441 75.5608C103.291 70.4346 99.3323 64.7494 98.6812 59.0527C98.3844 56.456 97.0861 51.04 104.728 48.2208C112.369 45.4015 110.218 39.6146 109.884 38.2792C109.55 36.9437 106.879 30.7488 114.558 30.7488C120.701 30.7488 122.844 27.2263 123.148 25.4651C126.64 12.0908 132.139 1.92969 142.486 1.92969C156.988 1.92969 161.191 16.4633 162.866 24.3972C164.905 32.1924 173.861 31.5119 173.861 36.935C173.861 39.0246 172.916 41.1143 172.916 44.0497C172.916 46.9852 182.882 52.0102 182.882 55.1945C182.882 57.7418 180.134 60.7533 178.76 61.9406C178.76 63.8391 182.928 66.2006 182.882 68.4696C182.844 70.2847 181.323 72.1893 180.474 72.9148C180.474 65.5061 173.713 64.0706 166.907 61.9406C160.1 59.8106 153.525 57.3102 152.321 50.735C151.117 44.1598 154.272 34.0495 154.971 33.4161C158.385 30.3244 160.837 26.9428 160.837 25.4587C160.837 22.989 159.193 22.3654 157.786 22.3654H153.791C154.472 22.7651 155.834 24.2909 155.834 27.1965C155.834 30.8284 148.663 34.1617 148.663 37.8235C148.663 39.5487 149.155 40.5776 149.155 42.5448C149.155 45.3613 146.901 46.9313 145.442 47.2174C146.177 46.7634 147.647 45.3651 147.647 43.4039C147.647 40.7989 145.836 39.8385 145.836 37.3809C145.902 34.8779 148.931 32.7419 150.437 29.8923C151.873 27.1759 151.48 23.5921 147.647 22.3654Z" fill="#3F333F"/>
<path d="M156.208 30.375C154.455 30.375 153.034 33.9716 153.034 38.4082C153.034 42.8448 154.455 46.4413 156.208 46.4413C157.961 46.4413 159.382 42.8448 159.382 38.4082C159.382 35.7011 158.853 33.3067 158.043 31.8513" stroke="white" stroke-width="1.02316" stroke-linecap="round"/>
<path d="M129.564 46.9525C129.314 46.9525 129.023 46.8264 128.703 46.4836C128.382 46.1399 128.069 45.6148 127.796 44.9233C127.25 43.5431 126.902 41.6015 126.902 39.4309H125.879C125.879 41.697 126.241 43.772 126.844 45.2992C127.145 46.0614 127.516 46.7127 127.955 47.1821C128.394 47.6522 128.938 47.9757 129.564 47.9757V46.9525ZM126.902 39.4309C126.902 37.251 127.196 35.301 127.689 33.9149C127.935 33.2201 128.222 32.6961 128.522 32.355C128.819 32.0172 129.093 31.8954 129.338 31.8954V30.8722C128.706 30.8722 128.173 31.2017 127.753 31.6795C127.336 32.154 126.995 32.81 126.724 33.5724C126.181 35.1007 125.879 37.1743 125.879 39.4309H126.902ZM132.161 40.5836C132.07 42.5353 131.708 44.1809 131.192 45.32C130.656 46.5045 130.051 46.9525 129.564 46.9525V47.9757C130.703 47.9757 131.559 46.9891 132.124 45.7421C132.709 44.4498 133.088 42.6671 133.183 40.6313L132.161 40.5836Z" fill="white"/>
<path d="M132.202 39.626L132.16 40.5993L132.852 40.9468L133.184 40.6355L132.202 39.626Z" fill="white"/>
</g>
<mask id="mask1" mask-type="alpha" maskUnits="userSpaceOnUse" x="33" y="47" width="103" height="104">
<circle r="51.2767" transform="matrix(-1 0 0 1 84.505 98.9383)" fill="#C4C4C4"/>
</mask>
<g mask="url(#mask1)">
<circle r="19.5588" transform="matrix(-1 0 0 1 80.7195 90.8484)" fill="#3F333F"/>
<path d="M92.6451 125.476C94.4365 129.267 96.1821 129.359 98.9131 130.292L98.5564 138.713L94.094 143.175L81.8426 142.201L72.7555 139.321L67.8413 131.168C71.9927 129.798 73.7596 129.577 74.6483 126.076L92.6451 125.476Z" fill="#D9755F"/>
<path d="M98.7886 130.269C98.7886 130.269 110.497 131.106 116.64 135.944C122.075 140.225 124.504 150.215 124.504 150.215H47.6916C47.6916 146.326 48.4758 142.142 50.8158 139.069C56.2374 131.948 69.3584 130.669 69.3584 130.669C71.2894 133.909 77.242 140.39 85.6049 140.39C93.9679 140.39 97.8786 133.643 98.7886 130.269Z" fill="url(#paint4_linear)"/>
<path fill-rule="evenodd" clip-rule="evenodd" d="M78.3465 96.2199C76.9512 97.5208 75.9205 98.4817 74.6524 98.4817C74.1685 98.4817 73.963 98.4027 73.7277 98.3123C73.4121 98.1911 73.0428 98.0491 71.8762 98.0491C70.5369 98.0491 68.9241 98.8168 68.9241 101.167C68.9241 102.579 69.2558 105.645 72.4846 109.477C72.8849 109.952 74.4354 111.992 75.5056 116.268C75.679 117.828 75.2298 122.883 74.6753 126.341C76.917 128.56 80.9338 131.481 85.2611 131.481C88.5303 131.481 91.1707 129.814 92.9739 128.042C92.6319 126.188 92.4416 122.991 92.1684 118.401C92.1513 118.112 92.1338 117.819 92.1159 117.519C92.209 117.496 92.3007 117.474 92.3911 117.451C96.829 116.359 97.9546 116.082 97.9546 106.877C97.9546 98.3536 97.1461 94.6942 95.2073 89.3325C85.1953 89.8348 81.0742 93.6769 78.3465 96.2199Z" fill="#DCDCDC"/>
<path fill-rule="evenodd" clip-rule="evenodd" d="M78.3465 96.2199C76.9512 97.5208 75.9205 98.4817 74.6524 98.4817C74.1685 98.4817 73.963 98.4027 73.7277 98.3123C73.4121 98.1911 73.0428 98.0491 71.8762 98.0491C70.5369 98.0491 68.9241 98.8168 68.9241 101.167C68.9241 102.579 69.2558 105.645 72.4846 109.477C72.8849 109.952 74.4354 111.992 75.5056 116.268C75.679 117.828 75.2298 122.883 74.6753 126.341C76.917 128.56 80.9338 131.481 85.2611 131.481C88.5303 131.481 91.1707 129.814 92.9739 128.042C92.6319 126.188 92.4416 122.991 92.1684 118.401C92.1513 118.112 92.1338 117.819 92.1159 117.519C92.209 117.496 92.3007 117.474 92.3911 117.451C96.829 116.359 97.9546 116.082 97.9546 106.877C97.9546 98.3536 97.1461 94.6942 95.2073 89.3325C85.1953 89.8348 81.0742 93.6769 78.3465 96.2199Z" fill="url(#paint5_linear)"/>
<path d="M81.3648 123.056C85.6376 123.107 89.2154 119.195 90.4702 117.232C86.9012 118.182 82.9128 117.299 81.3648 116.739C81.3648 116.739 77.696 113.318 77.696 106.936C77.696 102.574 77.8234 100.34 79.3658 95.2871L73.9838 98.3757C73.9838 98.3757 70.9349 96.9872 69.6543 98.8698C66.1429 104.032 75.0471 111.253 75.5272 116.817L75.2838 121.962C75.5305 122.305 77.092 123.004 81.3648 123.056Z" fill="#DCDCDC"/>
<path d="M81.3648 123.056C85.6376 123.107 89.2154 119.195 90.4702 117.232C86.9012 118.182 82.9128 117.299 81.3648 116.739C81.3648 116.739 77.696 113.318 77.696 106.936C77.696 102.574 77.8234 100.34 79.3658 95.2871L73.9838 98.3757C73.9838 98.3757 70.9349 96.9872 69.6543 98.8698C66.1429 104.032 75.0471 111.253 75.5272 116.817L75.2838 121.962C75.5305 122.305 77.092 123.004 81.3648 123.056Z" fill="url(#paint6_linear)"/>
</g>
<circle cx="166.513" cy="116.852" r="21.3251" fill="#DCDCDC"/>
<circle cx="166.513" cy="116.852" r="21.3251" fill="#292D8D"/>
<circle cx="165.204" cy="114.513" r="21.3251" fill="url(#paint7_linear)"/>
<path d="M156.057 121.391C155.822 121.391 155.616 121.233 155.554 121.006L152.003 107.947C151.913 107.615 152.163 107.289 152.506 107.289H154.393C154.629 107.289 154.835 107.447 154.896 107.675L156.697 114.39C156.832 114.895 157.543 114.909 157.698 114.409L159.792 107.656C159.86 107.437 160.062 107.289 160.29 107.289H162.305C162.534 107.289 162.735 107.437 162.803 107.655L164.93 114.493C165.086 114.993 165.8 114.977 165.933 114.469L167.701 107.679C167.76 107.449 167.968 107.289 168.205 107.289H170.047C170.391 107.289 170.64 107.616 170.55 107.948L166.979 121.007C166.917 121.233 166.711 121.391 166.476 121.391H164.578C164.35 121.391 164.148 121.242 164.08 121.024L161.787 113.673C161.634 113.184 160.942 113.185 160.791 113.674L158.515 121.023C158.447 121.242 158.245 121.391 158.016 121.391H156.057Z" fill="url(#paint8_linear)"/>
<path d="M170.727 113.896C170.727 113.85 170.733 113.804 170.745 113.76L172.389 107.68C172.451 107.453 172.657 107.295 172.892 107.295H173.188C173.475 107.295 173.709 107.528 173.709 107.816V116.03C173.709 116.03 173.709 116.03 173.709 116.031C173.708 116.053 173.562 118.77 176.601 118.77C179.538 118.77 179.526 116.233 179.521 116.042C179.521 116.034 179.521 116.027 179.521 116.018V107.816C179.521 107.528 179.754 107.295 180.042 107.295H181.989C182.277 107.295 182.51 107.528 182.51 107.816V116.031C182.51 117.957 181.246 121.736 176.675 121.736C172.104 121.736 170.748 117.957 170.727 116.031V113.896Z" fill="url(#paint9_linear)"/>
<path d="M149.295 107.886C149.214 107.585 149.44 107.289 149.752 107.289V107.289C149.966 107.289 150.154 107.432 150.209 107.638L153.758 120.757C153.84 121.058 153.613 121.354 153.301 121.354V121.354C153.087 121.354 152.9 121.211 152.844 121.004L149.295 107.886Z" fill="url(#paint10_linear)"/>
<path d="M146.578 107.886C146.496 107.585 146.723 107.289 147.035 107.289V107.289C147.249 107.289 147.436 107.432 147.492 107.638L151.041 120.757C151.122 121.058 150.895 121.354 150.584 121.354V121.354C150.37 121.354 150.182 121.211 150.127 121.004L146.578 107.886Z" fill="url(#paint11_linear)"/>
<circle cx="44.8338" cy="47.8729" r="31.2621" fill="#292D8D"/>
<circle cx="42.2039" cy="44.909" r="31.2621" fill="url(#paint12_linear)"/>
<path d="M55.7899 32.2412L43.0002 62.7743C42.8378 63.162 42.4586 63.4143 42.0383 63.4143H40.0995C39.3531 63.4143 38.8484 62.6531 39.1388 61.9656L50.2509 35.66C50.5413 34.9724 50.0365 34.2113 49.2901 34.2113H38.5908C37.784 34.2113 37.2827 35.0881 37.6921 35.7833L39.3977 38.6803C39.6343 39.082 39.5755 39.5918 39.2538 39.9292L36.5231 42.7924C35.8901 43.4561 36.3606 44.555 37.2778 44.555H41.6495C42.406 44.555 42.9108 45.3352 42.6008 46.0253L42.0465 47.2591C41.8782 47.6337 41.5058 47.8746 41.0952 47.8746H29.3254C28.3963 47.8746 27.931 46.7513 28.588 46.0943L34.7567 39.9255C35.0908 39.5915 35.1586 39.0746 34.922 38.6658L31.2735 32.3606C30.8712 31.6654 31.3729 30.7954 32.1762 30.7954H54.828C55.573 30.7954 56.0777 31.5541 55.7899 32.2412Z" fill="#F8F8FD"/>
<path d="M137.677 84.4374L119.706 104.234" stroke="url(#paint13_linear)" stroke-width="2" stroke-linecap="round" stroke-dasharray="2 3"/>
<path d="M116.556 108.573L122.433 106.867C122.856 106.744 122.925 106.173 122.543 105.953L119.811 104.384C119.655 104.294 119.526 104.163 119.438 104.006L117.973 101.401C117.757 101.016 117.185 101.079 117.058 101.502L115.319 107.326C115.093 108.085 115.796 108.794 116.556 108.573Z" fill="url(#paint14_linear)"/>
<path d="M105.591 104.183L123.562 84.3869" stroke="url(#paint15_linear)" stroke-width="2" stroke-linecap="round" stroke-dasharray="2 3"/>
<path d="M123.994 82.583L118.214 84.5889C117.797 84.7335 117.758 85.3073 118.151 85.5071L120.96 86.9341C121.12 87.0158 121.256 87.1393 121.352 87.2916L122.948 89.8186C123.184 90.1918 123.753 90.0987 123.857 89.6698L125.294 83.7641C125.481 82.9948 124.742 82.3234 123.994 82.583Z" fill="url(#paint16_linear)"/>
</g>
<defs>
<linearGradient id="paint0_linear" x1="173.252" y1="103.541" x2="127.087" y2="-9.53008" gradientUnits="userSpaceOnUse">
<stop stop-color="#4147D6"/>
<stop offset="1" stop-color="#6663F5"/>
</linearGradient>
<linearGradient id="paint1_linear" x1="101.062" y1="66.6439" x2="183.444" y2="69.7378" gradientUnits="userSpaceOnUse">
<stop stop-color="#77C4DD"/>
<stop offset="1" stop-color="#74DAC8"/>
</linearGradient>
<linearGradient id="paint2_linear" x1="143.044" y1="11.9263" x2="143.044" y2="61.4841" gradientUnits="userSpaceOnUse">
<stop stop-color="#FC8970"/>
<stop offset="1" stop-color="#EE5B47"/>
</linearGradient>
<linearGradient id="paint3_linear" x1="150.297" y1="19.7427" x2="150.297" y2="50.1287" gradientUnits="userSpaceOnUse">
<stop stop-color="#C71E07"/>
<stop offset="1" stop-color="#F05D3D"/>
</linearGradient>
<linearGradient id="paint4_linear" x1="86.098" y1="130.269" x2="84.9272" y2="152.202" gradientUnits="userSpaceOnUse">
<stop stop-color="#E0E1FF"/>
<stop offset="1" stop-color="#C2CCFF"/>
</linearGradient>
<linearGradient id="paint5_linear" x1="83.4394" y1="89.3325" x2="83.4394" y2="131.481" gradientUnits="userSpaceOnUse">
<stop stop-color="#FC8970"/>
<stop offset="1" stop-color="#EE5B47"/>
</linearGradient>
<linearGradient id="paint6_linear" x1="79.5416" y1="94.1392" x2="79.5416" y2="123.056" gradientUnits="userSpaceOnUse">
<stop stop-color="#C71E07"/>
<stop offset="1" stop-color="#F05D3D"/>
</linearGradient>
<linearGradient id="paint7_linear" x1="165.204" y1="93.1875" x2="174.481" y2="138.315" gradientUnits="userSpaceOnUse">
<stop stop-color="#E0E1FF"/>
<stop offset="1" stop-color="#C2CCFF"/>
</linearGradient>
<linearGradient id="paint8_linear" x1="152.524" y1="108.834" x2="179.498" y2="117.28" gradientUnits="userSpaceOnUse">
<stop stop-color="#4147D6"/>
<stop offset="1" stop-color="#6663F5"/>
</linearGradient>
<linearGradient id="paint9_linear" x1="152.524" y1="108.834" x2="179.498" y2="117.28" gradientUnits="userSpaceOnUse">
<stop stop-color="#4147D6"/>
<stop offset="1" stop-color="#6663F5"/>
</linearGradient>
<linearGradient id="paint10_linear" x1="152.524" y1="108.834" x2="179.498" y2="117.28" gradientUnits="userSpaceOnUse">
<stop stop-color="#4147D6"/>
<stop offset="1" stop-color="#6663F5"/>
</linearGradient>
<linearGradient id="paint11_linear" x1="152.524" y1="108.834" x2="179.498" y2="117.28" gradientUnits="userSpaceOnUse">
<stop stop-color="#4147D6"/>
<stop offset="1" stop-color="#6663F5"/>
</linearGradient>
<linearGradient id="paint12_linear" x1="12.7323" y1="39.3965" x2="75.766" y2="40.0029" gradientUnits="userSpaceOnUse">
<stop stop-color="#77C4DD"/>
<stop offset="1" stop-color="#74DAC8"/>
</linearGradient>
<linearGradient id="paint13_linear" x1="128.077" y1="104.729" x2="123.857" y2="82.8828" gradientUnits="userSpaceOnUse">
<stop stop-color="#E0E1FF"/>
<stop offset="1" stop-color="#C2CCFF"/>
</linearGradient>
<linearGradient id="paint14_linear" x1="114.823" y1="109.112" x2="119.71" y2="101.953" gradientUnits="userSpaceOnUse">
<stop stop-color="#E0E1FF"/>
<stop offset="1" stop-color="#C2CCFF"/>
</linearGradient>
<linearGradient id="paint15_linear" x1="115.191" y1="83.8917" x2="119.412" y2="105.738" gradientUnits="userSpaceOnUse">
<stop stop-color="#E0E1FF"/>
<stop offset="1" stop-color="#C2CCFF"/>
</linearGradient>
<linearGradient id="paint16_linear" x1="125.698" y1="81.9552" x2="121.185" y2="89.3565" gradientUnits="userSpaceOnUse">
<stop stop-color="#E0E1FF"/>
<stop offset="1" stop-color="#C2CCFF"/>
</linearGradient>
<clipPath id="clip0">
<rect width="202" height="172" fill="white"/>
</clipPath>
</defs>
</svg>
