<svg width="184" height="160" viewBox="0 0 184 160" fill="none" xmlns="http://www.w3.org/2000/svg">
<path d="M183.077 82.2151C183.414 43.8799 147.214 17.9145 113.591 17.9145C71.2483 17.9145 64.599 0.00244141 38.8045 0.00244141C-18.1307 0.00244141 -5.3003 102.957 40.6756 102.957C88.3216 102.957 87.9877 159.652 121.128 159.652C154.269 159.652 182.657 130.134 183.077 82.2151Z" fill="url(#paint0_linear)"/>
<path d="M101.81 36.367L100.874 34.8383L99.0808 26.1485L116.411 62.0756L106.424 57.2283L105.184 55.6998L102.253 46.8998L100.271 44.3958L101.81 36.367Z" fill="#292D8D"/>
<path d="M91.271 30.4383C91.271 28.0082 93.241 26.0383 95.671 26.0383H99.1536L101.81 34.8383H95.671C93.241 34.8383 91.271 32.8683 91.271 30.4383Z" fill="#292D8D"/>
<path d="M83.8643 40.767C83.8643 38.337 85.8342 36.367 88.2642 36.367H101.81L102.305 45.167H88.2642C85.8342 45.167 83.8643 43.197 83.8643 40.767Z" fill="#292D8D"/>
<path d="M83.8643 51.2998C83.8643 48.8697 85.8342 46.8998 88.2642 46.8998H107.036V55.6998H88.2642C85.8342 55.6998 83.8643 53.7298 83.8643 51.2998Z" fill="#292D8D"/>
<path d="M96.3336 61.6283C96.3336 59.1982 98.3035 57.2283 100.734 57.2283H118.486V66.0282H100.734C98.3035 66.0282 96.3336 64.0583 96.3336 61.6283Z" fill="#292D8D"/>
<path d="M94.6615 18.4735L124.889 3.9751L155.089 66.9396L124.862 81.438L94.6615 18.4735Z" fill="#292D8D"/>
<path d="M94.6615 18.4735L124.889 3.9751L131.767 18.314L101.539 32.8124L94.6615 18.4735Z" fill="#292D8D"/>
<path d="M117.984 67.0997L148.212 52.6013L155.089 66.9396L124.862 81.438L117.984 67.0997Z" fill="#292D8D"/>
<path d="M114.884 23.3533H142.682C154.827 23.3533 164.672 33.1985 164.672 45.3431V55.4184C164.672 61.1254 160.045 65.7518 154.338 65.7518L144.882 45.8989C138.518 45.8989 133.358 40.7397 133.358 34.3755V33.5614H124.663C119.092 33.5614 114.645 28.9188 114.884 23.3533Z" fill="#292D8D"/>
<path d="M96.6105 33.8248L95.6746 32.2961L93.8815 23.6062L111.212 59.5334L101.225 54.6861L99.9846 53.1576L97.0541 44.3576L95.0721 41.8536L96.6105 33.8248Z" fill="#DCDCDC"/>
<path d="M96.6105 33.8248L95.6746 32.2961L93.8815 23.6062L111.212 59.5334L101.225 54.6861L99.9846 53.1576L97.0541 44.3576L95.0721 41.8536L96.6105 33.8248Z" fill="url(#paint1_linear)"/>
<path d="M86.0718 27.8961C86.0718 25.466 88.0418 23.4961 90.4718 23.4961H93.9544L96.6105 32.2961H90.4718C88.0418 32.2961 86.0718 30.3261 86.0718 27.8961Z" fill="#DCDCDC"/>
<path d="M86.0718 27.8961C86.0718 25.466 88.0418 23.4961 90.4718 23.4961H93.9544L96.6105 32.2961H90.4718C88.0418 32.2961 86.0718 30.3261 86.0718 27.8961Z" fill="url(#paint2_linear)"/>
<path d="M78.665 38.2248C78.665 35.7948 80.635 33.8248 83.065 33.8248H96.6105L97.106 42.6248H83.065C80.635 42.6248 78.665 40.6548 78.665 38.2248Z" fill="#DCDCDC"/>
<path d="M78.665 38.2248C78.665 35.7948 80.635 33.8248 83.065 33.8248H96.6105L97.106 42.6248H83.065C80.635 42.6248 78.665 40.6548 78.665 38.2248Z" fill="url(#paint3_linear)"/>
<path d="M78.665 48.7576C78.665 46.3275 80.635 44.3576 83.065 44.3576H101.837V53.1576H83.065C80.635 53.1576 78.665 51.1876 78.665 48.7576Z" fill="#DCDCDC"/>
<path d="M78.665 48.7576C78.665 46.3275 80.635 44.3576 83.065 44.3576H101.837V53.1576H83.065C80.635 53.1576 78.665 51.1876 78.665 48.7576Z" fill="url(#paint4_linear)"/>
<path d="M91.1344 59.0861C91.1344 56.656 93.1043 54.6861 95.5344 54.6861H113.287V63.486H95.5344C93.1043 63.486 91.1344 61.5161 91.1344 59.0861Z" fill="#DCDCDC"/>
<path d="M91.1344 59.0861C91.1344 56.656 93.1043 54.6861 95.5344 54.6861H113.287V63.486H95.5344C93.1043 63.486 91.1344 61.5161 91.1344 59.0861Z" fill="url(#paint5_linear)"/>
<rect x="89.4619" y="15.9326" width="33.5251" height="69.8324" transform="rotate(-25.624 89.4619 15.9326)" fill="white"/>
<rect x="89.4619" y="15.9326" width="33.5251" height="15.903" transform="rotate(-25.624 89.4619 15.9326)" fill="#CFD1FF"/>
<rect x="112.785" y="64.5586" width="33.5251" height="15.903" transform="rotate(-25.624 112.785 64.5586)" fill="#CFD1FF"/>
<path d="M109.685 20.8115H133.859C148.005 20.8115 159.473 32.2794 159.473 46.4258V52.8766C159.473 58.5836 154.846 63.2101 149.139 63.2101L139.683 43.3571C133.319 43.3571 128.159 38.1979 128.159 31.8337V31.0196H119.464C113.893 31.0196 109.445 26.377 109.685 20.8115Z" fill="#DCDCDC"/>
<path d="M109.685 20.8115H133.859C148.005 20.8115 159.473 32.2794 159.473 46.4258V52.8766C159.473 58.5836 154.846 63.2101 149.139 63.2101L139.683 43.3571C133.319 43.3571 128.159 38.1979 128.159 31.8337V31.0196H119.464C113.893 31.0196 109.445 26.377 109.685 20.8115Z" fill="url(#paint6_linear)"/>
<path d="M117.208 51.8315L124.268 66.5264" stroke="#4147D6" stroke-width="4" stroke-linecap="round"/>
<path d="M79.1136 96.3885L80.0495 94.8598L81.8426 86.1699L64.512 122.097L74.4991 117.25L75.7395 115.721L78.67 106.921L80.652 104.417L79.1136 96.3885Z" fill="#292D8D"/>
<path d="M89.6523 90.4598C89.6523 88.0297 87.6824 86.0598 85.2523 86.0598H81.7698L79.1136 94.8598H85.2523C87.6824 94.8598 89.6523 92.8898 89.6523 90.4598Z" fill="#292D8D"/>
<path d="M97.0591 100.788C97.0591 98.3584 95.0891 96.3885 92.6591 96.3885H79.1136L78.6181 105.188H92.6591C95.0891 105.188 97.0591 103.219 97.0591 100.788Z" fill="#292D8D"/>
<path d="M97.0591 111.321C97.0591 108.891 95.0891 106.921 92.6591 106.921H73.8872V115.721H92.6591C95.0891 115.721 97.0591 113.751 97.0591 111.321Z" fill="#292D8D"/>
<path d="M84.5897 121.65C84.5897 119.22 82.6198 117.25 80.1898 117.25H62.4372V126.05H80.1898C82.6198 126.05 84.5897 124.08 84.5897 121.65Z" fill="#292D8D"/>
<path d="M86.2619 78.495L56.0339 63.9966L25.8339 126.961L56.0618 141.459L86.2619 78.495Z" fill="#292D8D"/>
<path d="M86.2619 78.495L56.0339 63.9966L49.1565 78.3355L79.3844 92.8339L86.2619 78.495Z" fill="#292D8D"/>
<path d="M62.9393 127.121L32.7114 112.623L25.8339 126.961L56.0618 141.459L62.9393 127.121Z" fill="#292D8D"/>
<path d="M66.0398 83.3748H38.2413C26.0966 83.3748 16.2514 93.22 16.2514 105.365V115.44C16.2514 121.147 20.8779 125.773 26.5849 125.773L36.0416 105.92C42.4057 105.92 47.5649 100.761 47.5649 94.397V93.5828H56.2607C61.8314 93.5828 66.2788 88.9402 66.0398 83.3748Z" fill="#292D8D"/>
<path d="M78.0301 92.92L78.966 91.3913L80.7591 82.7015L63.4285 118.629L73.4156 113.781L74.656 112.253L77.5865 103.453L79.5685 100.949L78.0301 92.92Z" fill="#DCDCDC"/>
<path d="M78.0301 92.92L78.966 91.3913L80.7591 82.7015L63.4285 118.629L73.4156 113.781L74.656 112.253L77.5865 103.453L79.5685 100.949L78.0301 92.92Z" fill="url(#paint7_linear)"/>
<path d="M88.5688 86.9913C88.5688 84.5612 86.5989 82.5913 84.1688 82.5913H80.6863L78.0301 91.3913H84.1688C86.5989 91.3913 88.5688 89.4213 88.5688 86.9913Z" fill="#DCDCDC"/>
<path d="M88.5688 86.9913C88.5688 84.5612 86.5989 82.5913 84.1688 82.5913H80.6863L78.0301 91.3913H84.1688C86.5989 91.3913 88.5688 89.4213 88.5688 86.9913Z" fill="url(#paint8_linear)"/>
<path d="M95.9756 97.32C95.9756 94.89 94.0056 92.92 91.5756 92.92H78.0301L77.5346 101.72H91.5756C94.0057 101.72 95.9756 99.7501 95.9756 97.32Z" fill="#DCDCDC"/>
<path d="M95.9756 97.32C95.9756 94.89 94.0056 92.92 91.5756 92.92H78.0301L77.5346 101.72H91.5756C94.0057 101.72 95.9756 99.7501 95.9756 97.32Z" fill="url(#paint9_linear)"/>
<path d="M95.9756 107.853C95.9756 105.423 94.0056 103.453 91.5756 103.453H72.8037V112.253H91.5756C94.0056 112.253 95.9756 110.283 95.9756 107.853Z" fill="#DCDCDC"/>
<path d="M95.9756 107.853C95.9756 105.423 94.0056 103.453 91.5756 103.453H72.8037V112.253H91.5756C94.0056 112.253 95.9756 110.283 95.9756 107.853Z" fill="url(#paint10_linear)"/>
<path d="M83.5062 118.181C83.5062 115.751 81.5363 113.781 79.1063 113.781H61.3537V122.581H79.1063C81.5363 122.581 83.5062 120.611 83.5062 118.181Z" fill="#DCDCDC"/>
<path d="M83.5062 118.181C83.5062 115.751 81.5363 113.781 79.1063 113.781H61.3537V122.581H79.1063C81.5363 122.581 83.5062 120.611 83.5062 118.181Z" fill="url(#paint11_linear)"/>
<rect width="33.5251" height="69.8324" transform="matrix(-0.901651 -0.432464 -0.432464 0.901651 85.1787 75.0278)" fill="white"/>
<rect width="33.5251" height="15.903" transform="matrix(-0.901651 -0.432464 -0.432464 0.901651 85.1787 75.0278)" fill="#CFD1FF"/>
<rect width="33.5251" height="15.903" transform="matrix(-0.901651 -0.432464 -0.432464 0.901651 61.856 123.653)" fill="#CFD1FF"/>
<path d="M64.9566 79.9067H40.7825C26.6361 79.9067 15.1682 91.3747 15.1682 105.521V111.972C15.1682 117.679 19.7947 122.305 25.5017 122.305L34.9583 102.452C41.3225 102.452 46.4817 97.2931 46.4817 90.929V90.1148H55.1775C60.7481 90.1148 65.1956 85.4722 64.9566 79.9067Z" fill="#DCDCDC"/>
<path d="M64.9566 79.9067H40.7825C26.6361 79.9067 15.1682 91.3747 15.1682 105.521V111.972C15.1682 117.679 19.7947 122.305 25.5017 122.305L34.9583 102.452C41.3225 102.452 46.4817 97.2931 46.4817 90.929V90.1148H55.1775C60.7481 90.1148 65.1956 85.4722 64.9566 79.9067Z" fill="url(#paint12_linear)"/>
<path d="M57.4326 110.927L50.3725 125.622" stroke="#4147D6" stroke-width="4" stroke-linecap="round"/>
<path d="M108.563 106.093C108.563 103.064 111.019 100.609 114.047 100.609H133.033V111.577H114.047C111.019 111.577 108.563 109.122 108.563 106.093V106.093Z" fill="#292D8D"/>
<path d="M141.667 104.955C142.306 105.579 142.306 106.607 141.667 107.231L130.838 117.817C129.83 118.802 128.134 118.088 128.134 116.679L128.134 95.5072C128.134 94.0981 129.83 93.3842 130.838 94.3692L141.667 104.955Z" fill="#292D8D"/>
<path d="M106.101 103.638C106.101 100.61 108.556 98.1543 111.585 98.1543H130.57V109.122H111.585C108.556 109.122 106.101 106.667 106.101 103.638V103.638Z" fill="url(#paint13_linear)"/>
<path d="M139.204 102.5C139.843 103.125 139.843 104.152 139.204 104.776L128.375 115.362C127.367 116.347 125.671 115.633 125.671 114.224L125.671 93.0527C125.671 91.6435 127.367 90.9296 128.375 91.9146L139.204 102.5Z" fill="url(#paint14_linear)"/>
<path d="M72.3081 46.3082C72.3081 43.2795 69.8528 40.8242 66.8241 40.8242H47.8386V51.7922H66.8241C69.8528 51.7922 72.3081 49.3369 72.3081 46.3082V46.3082Z" fill="#292D8D"/>
<path d="M39.2046 45.1702C38.566 45.7945 38.566 46.822 39.2046 47.4463L50.0338 58.0319C51.0415 59.0169 52.7377 58.303 52.7377 56.8938L52.7377 35.7226C52.7377 34.3134 51.0415 33.5995 50.0338 34.5845L39.2046 45.1702Z" fill="#292D8D"/>
<path d="M69.686 43.4918C69.686 40.4631 67.2308 38.0078 64.202 38.0078H45.2165V48.9758H64.202C67.2308 48.9758 69.686 46.5205 69.686 43.4918V43.4918Z" fill="url(#paint15_linear)"/>
<path d="M36.5826 42.3537C35.9439 42.978 35.9439 44.0056 36.5826 44.6299L47.4117 55.2155C48.4194 56.2005 50.1157 55.4866 50.1157 54.0774L50.1157 32.9062C50.1157 31.497 48.4194 30.7831 47.4117 31.7681L36.5826 42.3537Z" fill="url(#paint16_linear)"/>
<defs>
<linearGradient id="paint0_linear" x1="31.775" y1="17.0799" x2="178.232" y2="38.0215" gradientUnits="userSpaceOnUse">
<stop stop-color="#4147D6"/>
<stop offset="1" stop-color="#6663F5"/>
</linearGradient>
<linearGradient id="paint1_linear" x1="95.976" y1="23.4961" x2="95.976" y2="63.486" gradientUnits="userSpaceOnUse">
<stop stop-color="#FC8970"/>
<stop offset="1" stop-color="#EE5B47"/>
</linearGradient>
<linearGradient id="paint2_linear" x1="95.976" y1="23.4961" x2="95.976" y2="63.486" gradientUnits="userSpaceOnUse">
<stop stop-color="#FC8970"/>
<stop offset="1" stop-color="#EE5B47"/>
</linearGradient>
<linearGradient id="paint3_linear" x1="95.976" y1="23.4961" x2="95.976" y2="63.486" gradientUnits="userSpaceOnUse">
<stop stop-color="#FC8970"/>
<stop offset="1" stop-color="#EE5B47"/>
</linearGradient>
<linearGradient id="paint4_linear" x1="95.976" y1="23.4961" x2="95.976" y2="63.486" gradientUnits="userSpaceOnUse">
<stop stop-color="#FC8970"/>
<stop offset="1" stop-color="#EE5B47"/>
</linearGradient>
<linearGradient id="paint5_linear" x1="95.976" y1="23.4961" x2="95.976" y2="63.486" gradientUnits="userSpaceOnUse">
<stop stop-color="#FC8970"/>
<stop offset="1" stop-color="#EE5B47"/>
</linearGradient>
<linearGradient id="paint6_linear" x1="134.359" y1="20.8115" x2="134.359" y2="63.2101" gradientUnits="userSpaceOnUse">
<stop stop-color="#FC8970"/>
<stop offset="1" stop-color="#EE5B47"/>
</linearGradient>
<linearGradient id="paint7_linear" x1="78.6646" y1="82.5913" x2="78.6646" y2="122.581" gradientUnits="userSpaceOnUse">
<stop stop-color="#FC8970"/>
<stop offset="1" stop-color="#EE5B47"/>
</linearGradient>
<linearGradient id="paint8_linear" x1="78.6646" y1="82.5913" x2="78.6646" y2="122.581" gradientUnits="userSpaceOnUse">
<stop stop-color="#FC8970"/>
<stop offset="1" stop-color="#EE5B47"/>
</linearGradient>
<linearGradient id="paint9_linear" x1="78.6646" y1="82.5913" x2="78.6646" y2="122.581" gradientUnits="userSpaceOnUse">
<stop stop-color="#FC8970"/>
<stop offset="1" stop-color="#EE5B47"/>
</linearGradient>
<linearGradient id="paint10_linear" x1="78.6646" y1="82.5913" x2="78.6646" y2="122.581" gradientUnits="userSpaceOnUse">
<stop stop-color="#FC8970"/>
<stop offset="1" stop-color="#EE5B47"/>
</linearGradient>
<linearGradient id="paint11_linear" x1="78.6646" y1="82.5913" x2="78.6646" y2="122.581" gradientUnits="userSpaceOnUse">
<stop stop-color="#FC8970"/>
<stop offset="1" stop-color="#EE5B47"/>
</linearGradient>
<linearGradient id="paint12_linear" x1="40.2816" y1="79.9067" x2="40.2816" y2="122.305" gradientUnits="userSpaceOnUse">
<stop stop-color="#FC8970"/>
<stop offset="1" stop-color="#EE5B47"/>
</linearGradient>
<linearGradient id="paint13_linear" x1="107.062" y1="101.491" x2="140.916" y2="101.939" gradientUnits="userSpaceOnUse">
<stop stop-color="#77C4DD"/>
<stop offset="1" stop-color="#74DAC8"/>
</linearGradient>
<linearGradient id="paint14_linear" x1="107.062" y1="101.491" x2="140.916" y2="101.939" gradientUnits="userSpaceOnUse">
<stop stop-color="#77C4DD"/>
<stop offset="1" stop-color="#74DAC8"/>
</linearGradient>
<linearGradient id="paint15_linear" x1="68.7244" y1="41.344" x2="34.871" y2="41.793" gradientUnits="userSpaceOnUse">
<stop stop-color="#77C4DD"/>
<stop offset="1" stop-color="#74DAC8"/>
</linearGradient>
<linearGradient id="paint16_linear" x1="68.7244" y1="41.344" x2="34.871" y2="41.793" gradientUnits="userSpaceOnUse">
<stop stop-color="#77C4DD"/>
<stop offset="1" stop-color="#74DAC8"/>
</linearGradient>
</defs>
</svg>
