<svg width="202" height="172" viewBox="0 0 202 172" fill="none" xmlns="http://www.w3.org/2000/svg">
<g clip-path="url(#clip0)">
<path d="M10.8865 60.6155C22.4322 22.1722 50.8684 1.30463 89.5262 1.30475C131.626 1.30486 165.388 22.3262 179.322 46.9143C193.255 71.5025 208.57 144.31 146.514 125.077C98.863 110.31 84.1965 159.964 51.0524 149.692C17.9082 139.42 -3.54569 108.67 10.8865 60.6155Z" fill="url(#paint0_linear)"/>
<rect x="118.979" y="41.4688" width="52.7946" height="68.8122" rx="5" transform="rotate(15 118.979 41.4688)" fill="#292D8D"/>
<rect x="117.672" y="38.9272" width="52.7946" height="68.8122" rx="5" transform="rotate(15 117.672 38.9272)" fill="url(#paint1_linear)"/>
<rect width="52.7946" height="68.8122" rx="5" transform="matrix(-0.965926 0.258819 0.258819 0.965926 77.8843 41.1929)" fill="url(#paint2_linear)"/>
<g opacity="0.2">
<mask id="path-5-inside-1" fill="white">
<path fill-rule="evenodd" clip-rule="evenodd" d="M53.2482 78.109C54.3418 77.816 54.9908 76.6919 54.6977 75.5983C54.4047 74.5048 53.2807 73.8558 52.1871 74.1488C51.0935 74.4418 50.4445 75.5659 50.7375 76.6595C51.0306 77.753 52.1546 78.402 53.2482 78.109ZM54.3166 82.0964C57.6124 81.2133 59.5682 77.8257 58.6852 74.5299C57.8021 71.2341 54.4144 69.2783 51.1187 70.1614C47.8229 71.0445 45.867 74.4321 46.7501 77.7279C47.6332 81.0237 51.0209 82.9795 54.3166 82.0964Z"/>
<path fill-rule="evenodd" clip-rule="evenodd" d="M71.1484 87.7824C72.242 87.4893 72.891 86.3653 72.598 85.2717C72.305 84.1781 71.1809 83.5291 70.0873 83.8222C68.9937 84.1152 68.3448 85.2392 68.6378 86.3328C68.9308 87.4264 70.0549 88.0754 71.1484 87.7824ZM72.2169 91.7698C75.5126 90.8867 77.4685 87.499 76.5854 84.2033C75.7023 80.9075 72.3147 78.9516 69.0189 79.8347C65.7231 80.7178 63.7673 84.1055 64.6504 87.4012C65.5335 90.697 68.9211 92.6529 72.2169 91.7698Z"/>
<path fill-rule="evenodd" clip-rule="evenodd" d="M69.0806 68.5562C70.0678 69.1261 70.4061 70.3885 69.8361 71.3757L57.2318 93.207C56.6618 94.1942 55.3994 94.5325 54.4122 93.9625C53.425 93.3925 53.0868 92.1302 53.6567 91.143L66.2611 69.3117C66.831 68.3244 68.0934 67.9862 69.0806 68.5562Z"/>
</mask>
<path fill-rule="evenodd" clip-rule="evenodd" d="M53.2482 78.109C54.3418 77.816 54.9908 76.6919 54.6977 75.5983C54.4047 74.5048 53.2807 73.8558 52.1871 74.1488C51.0935 74.4418 50.4445 75.5659 50.7375 76.6595C51.0306 77.753 52.1546 78.402 53.2482 78.109ZM54.3166 82.0964C57.6124 81.2133 59.5682 77.8257 58.6852 74.5299C57.8021 71.2341 54.4144 69.2783 51.1187 70.1614C47.8229 71.0445 45.867 74.4321 46.7501 77.7279C47.6332 81.0237 51.0209 82.9795 54.3166 82.0964Z" fill="#4147D6"/>
<path fill-rule="evenodd" clip-rule="evenodd" d="M71.1484 87.7824C72.242 87.4893 72.891 86.3653 72.598 85.2717C72.305 84.1781 71.1809 83.5291 70.0873 83.8222C68.9937 84.1152 68.3448 85.2392 68.6378 86.3328C68.9308 87.4264 70.0549 88.0754 71.1484 87.7824ZM72.2169 91.7698C75.5126 90.8867 77.4685 87.499 76.5854 84.2033C75.7023 80.9075 72.3147 78.9516 69.0189 79.8347C65.7231 80.7178 63.7673 84.1055 64.6504 87.4012C65.5335 90.697 68.9211 92.6529 72.2169 91.7698Z" fill="#4147D6"/>
<path fill-rule="evenodd" clip-rule="evenodd" d="M69.0806 68.5562C70.0678 69.1261 70.4061 70.3885 69.8361 71.3757L57.2318 93.207C56.6618 94.1942 55.3994 94.5325 54.4122 93.9625C53.425 93.3925 53.0868 92.1302 53.6567 91.143L66.2611 69.3117C66.831 68.3244 68.0934 67.9862 69.0806 68.5562Z" fill="#4147D6"/>
<path d="M54.6977 75.5983L49.0879 77.1015L49.0879 77.1015L54.6977 75.5983ZM53.2482 78.109L54.7514 83.7189L53.2482 78.109ZM52.1871 74.1488L53.6902 79.7587L52.1871 74.1488ZM50.7375 76.6595L45.1277 78.1626L45.1277 78.1626L50.7375 76.6595ZM72.598 85.2717L66.9881 86.7748L66.9881 86.7748L72.598 85.2717ZM71.1484 87.7824L72.6516 93.3922L71.1484 87.7824ZM70.0873 83.8222L71.5905 89.432L70.0873 83.8222ZM68.6378 86.3328L63.0279 87.836L63.0279 87.836L68.6378 86.3328ZM69.8361 71.3757L64.8064 68.4718L64.8064 68.4718L69.8361 71.3757ZM69.0806 68.5562L71.9845 63.5265L71.9845 63.5265L69.0806 68.5562ZM57.2318 93.207L52.2021 90.3031L52.2021 90.3031L57.2318 93.207ZM54.4122 93.9625L57.3161 88.9328L57.3161 88.9328L54.4122 93.9625ZM53.6567 91.143L48.6271 88.2391L48.6271 88.2391L53.6567 91.143ZM66.2611 69.3117L61.2314 66.4078L61.2314 66.4078L66.2611 69.3117ZM49.0879 77.1015C48.5507 75.0968 49.7404 73.0363 51.7451 72.4991L54.7514 83.7189C58.9432 82.5957 61.4308 78.287 60.3076 74.0952L49.0879 77.1015ZM53.6902 79.7587C51.6856 80.2958 49.625 79.1061 49.0879 77.1015L60.3076 74.0952C59.1844 69.9034 54.8757 67.4157 50.6839 68.5389L53.6902 79.7587ZM56.3474 75.1563C56.8845 77.161 55.6949 79.2215 53.6902 79.7587L50.6839 68.5389C46.4921 69.6621 44.0045 73.9708 45.1277 78.1626L56.3474 75.1563ZM51.7451 72.4991C53.7497 71.962 55.8102 73.1517 56.3474 75.1563L45.1277 78.1626C46.2509 82.3544 50.5595 84.8421 54.7514 83.7189L51.7451 72.4991ZM53.0753 76.0331C53.1282 76.2306 53.011 76.4336 52.8135 76.4866L55.8198 87.7063C62.2138 85.993 66.0083 79.4208 64.295 73.0268L53.0753 76.0331ZM52.6218 75.7712C52.8193 75.7183 53.0224 75.8355 53.0753 76.0331L64.295 73.0268C62.5817 66.6327 56.0095 62.8383 49.6155 64.5515L52.6218 75.7712ZM52.36 76.2247C52.3071 76.0272 52.4243 75.8242 52.6218 75.7712L49.6155 64.5515C43.2215 66.2648 39.427 72.837 41.1403 79.231L52.36 76.2247ZM52.8135 76.4866C52.6159 76.5395 52.4129 76.4223 52.36 76.2247L41.1403 79.231C42.8535 85.625 49.4258 89.4195 55.8198 87.7063L52.8135 76.4866ZM66.9881 86.7748C66.451 84.7702 67.6406 82.7096 69.6453 82.1725L72.6516 93.3922C76.8434 92.269 79.331 87.9604 78.2078 83.7685L66.9881 86.7748ZM71.5905 89.432C69.5858 89.9692 67.5253 88.7795 66.9881 86.7748L78.2078 83.7685C77.0846 79.5767 72.776 77.0891 68.5842 78.2123L71.5905 89.432ZM74.2476 84.8297C74.7848 86.8343 73.5951 88.8949 71.5905 89.432L68.5842 78.2123C64.3923 79.3355 61.9047 83.6442 63.0279 87.836L74.2476 84.8297ZM69.6453 82.1725C71.6499 81.6354 73.7105 82.825 74.2476 84.8297L63.0279 87.836C64.1511 92.0278 68.4598 94.5154 72.6516 93.3922L69.6453 82.1725ZM70.9755 85.7064C71.0285 85.9039 70.9112 86.107 70.7137 86.1599L73.72 97.3796C80.114 95.6664 83.9085 89.0941 82.1952 82.7001L70.9755 85.7064ZM70.522 85.4446C70.7196 85.3917 70.9226 85.5089 70.9755 85.7064L82.1952 82.7001C80.482 76.3061 73.9097 72.5116 67.5157 74.2249L70.522 85.4446ZM70.2602 85.8981C70.2073 85.7006 70.3245 85.4975 70.522 85.4446L67.5157 74.2249C61.1217 75.9382 57.3272 82.5104 59.0405 88.9044L70.2602 85.8981ZM70.7137 86.1599C70.5162 86.2128 70.3132 86.0956 70.2602 85.8981L59.0405 88.9044C60.7538 95.2984 67.326 99.0929 73.72 97.3796L70.7137 86.1599ZM74.8657 74.2796C77.0395 70.5146 75.7495 65.7002 71.9845 63.5265L66.1767 73.5858C64.3861 72.552 63.7726 70.2624 64.8064 68.4718L74.8657 74.2796ZM62.2614 96.1109L74.8657 74.2796L64.8064 68.4718L52.2021 90.3031L62.2614 96.1109ZM51.5084 98.9922C55.2734 101.166 60.0877 99.8759 62.2614 96.1109L52.2021 90.3031C53.2359 88.5125 55.5255 87.899 57.3161 88.9328L51.5084 98.9922ZM48.6271 88.2391C46.4534 92.0041 47.7433 96.8184 51.5084 98.9922L57.3161 88.9328C59.1067 89.9666 59.7202 92.2563 58.6864 94.0469L48.6271 88.2391ZM61.2314 66.4078L48.6271 88.2391L58.6864 94.0469L71.2907 72.2155L61.2314 66.4078ZM71.9845 63.5265C68.2195 61.3528 63.4052 62.6428 61.2314 66.4078L71.2907 72.2155C70.2569 74.0061 67.9673 74.6196 66.1767 73.5858L71.9845 63.5265Z" fill="#4147D6" mask="url(#path-5-inside-1)"/>
</g>
<circle cx="51.9679" cy="73.62" r="3.27415" transform="rotate(-15 51.9679 73.62)" stroke="#4147D6" stroke-width="5.80775"/>
<circle cx="69.8683" cy="83.2928" r="3.27415" transform="rotate(-15 69.8683 83.2928)" stroke="#4147D6" stroke-width="5.80775"/>
<path d="M67.2989 67.8342L54.6946 89.6656" stroke="#4147D6" stroke-width="5.80775" stroke-linecap="round"/>
<g opacity="0.2">
<path fill-rule="evenodd" clip-rule="evenodd" d="M141.112 77.4229C141.602 78.2728 141.311 79.3596 140.461 79.8503L135.431 82.7543C134.582 83.245 133.495 82.9538 133.004 82.1039C132.513 81.254 132.805 80.1672 133.654 79.6765L138.684 76.7725C139.534 76.2818 140.621 76.573 141.112 77.4229Z" fill="#4147D6"/>
<path fill-rule="evenodd" clip-rule="evenodd" d="M131.887 90.5195C137.087 91.9129 142.432 88.8269 143.825 83.6268C145.219 78.4266 142.133 73.0815 136.932 71.6882C131.732 70.2948 126.387 73.3808 124.994 78.5809C123.6 83.781 126.686 89.1261 131.887 90.5195ZM130.967 93.9523C138.063 95.8537 145.357 91.6426 147.258 84.5466C149.159 77.4506 144.948 70.1567 137.852 68.2553C130.756 66.354 123.462 70.5651 121.561 77.6611C119.66 84.7571 123.871 92.051 130.967 93.9523Z" fill="#4147D6"/>
<path d="M148.178 75.462C147.784 76.9306 146.275 77.8022 144.806 77.4087C143.337 77.0152 142.466 75.5055 142.859 74.0369C143.253 72.5682 144.763 71.6966 146.231 72.0902C147.7 72.4837 148.571 73.9933 148.178 75.462Z" fill="#4147D6"/>
<path d="M130.373 70.6912C129.98 72.1599 128.47 73.0315 127.002 72.6379C125.533 72.2444 124.661 70.7348 125.055 69.2661C125.448 67.7975 126.958 66.9259 128.427 67.3194C129.895 67.7129 130.767 69.2226 130.373 70.6912Z" fill="#4147D6"/>
<path d="M132.927 65.6598C133.323 64.1833 134.84 63.307 136.317 63.7027L141.458 65.0803C142.935 65.4759 143.811 66.9936 143.415 68.4702C143.02 69.9467 141.502 70.823 140.025 70.4273L134.884 69.0497C133.408 68.6541 132.531 67.1364 132.927 65.6598Z" fill="#4147D6"/>
</g>
<path fill-rule="evenodd" clip-rule="evenodd" d="M140.192 75.0855C140.683 75.9354 140.391 77.0222 139.541 77.5129L134.512 80.4169C133.662 80.9076 132.575 80.6164 132.084 79.7665C131.593 78.9166 131.885 77.8298 132.735 77.3391L137.764 74.4351C138.614 73.9444 139.701 74.2356 140.192 75.0855Z" fill="#4147D6"/>
<path fill-rule="evenodd" clip-rule="evenodd" d="M130.967 88.1821C136.167 89.5755 141.512 86.4895 142.905 81.2894C144.299 76.0892 141.213 70.7441 136.012 69.3508C130.812 67.9574 125.467 71.0434 124.074 76.2435C122.681 81.4436 125.767 86.7887 130.967 88.1821ZM130.047 91.6149C137.143 93.5163 144.437 89.3052 146.338 82.2092C148.239 75.1131 144.028 67.8193 136.932 65.9179C129.836 64.0166 122.542 68.2277 120.641 75.3237C118.74 82.4197 122.951 89.7136 130.047 91.6149Z" fill="#4147D6"/>
<path d="M147.258 73.1246C146.865 74.5932 145.355 75.4648 143.886 75.0713C142.418 74.6778 141.546 73.1681 141.94 71.6995C142.333 70.2308 143.843 69.3592 145.311 69.7527C146.78 70.1463 147.652 71.6559 147.258 73.1246Z" fill="#4147D6"/>
<path d="M129.453 68.3538C129.06 69.8225 127.55 70.6941 126.082 70.3005C124.613 69.907 123.741 68.3974 124.135 66.9287C124.528 65.4601 126.038 64.5885 127.507 64.982C128.975 65.3755 129.847 66.8852 129.453 68.3538Z" fill="#4147D6"/>
<path d="M132.007 63.3224C132.403 61.8459 133.92 60.9696 135.397 61.3653L140.538 62.7429C142.015 63.1385 142.891 64.6562 142.495 66.1328C142.1 67.6093 140.582 68.4856 139.106 68.0899L133.964 66.7123C132.488 66.3167 131.611 64.799 132.007 63.3224Z" fill="#4147D6"/>
<path d="M118.507 34.9385C118.507 32.6007 120.402 30.7056 122.74 30.7056V30.7056C125.077 30.7056 126.973 32.6007 126.973 34.9385V105.544C126.973 108.095 124.905 110.162 122.355 110.162V110.162C120.23 110.162 118.507 108.439 118.507 106.314V34.9385Z" fill="#292D8D"/>
<rect x="67.8896" y="27.0698" width="57.2298" height="80.8673" rx="5" fill="white"/>
<g opacity="0.3">
<path d="M81.1171 76.8593L87.873 65.1576C88.0209 64.9014 88.3486 64.8136 88.6048 64.9616L98.2424 70.5259C98.4986 70.6738 98.5864 71.0014 98.4385 71.2576L91.6952 82.9374C91.4079 83.4349 90.6797 83.4038 90.436 82.8835L88.3386 78.4059C88.0508 77.7917 87.4104 77.4241 86.7349 77.4858C85.4971 77.599 83.4596 77.7819 81.7818 77.9162C81.2141 77.9616 80.8323 77.3525 81.1171 76.8593Z" fill="#B7BCF7"/>
<path d="M115.583 76.8593L108.827 65.1576C108.679 64.9014 108.351 64.8136 108.095 64.9616L98.4574 70.5259C98.2012 70.6738 98.1134 71.0014 98.2613 71.2576L105.005 82.9374C105.292 83.4349 106.02 83.4038 106.264 82.8835L108.361 78.4059C108.649 77.7917 109.289 77.4241 109.965 77.4858C111.203 77.599 113.24 77.7819 114.918 77.9162C115.486 77.9616 115.868 77.3525 115.583 76.8593Z" fill="#B7BCF7"/>
<path d="M114.897 62.161C114.897 71.1039 107.647 78.3536 98.7044 78.3536C89.7614 78.3536 82.5117 71.1039 82.5117 62.161C82.5117 53.218 89.7614 45.9683 98.7044 45.9683C107.647 45.9683 114.897 53.218 114.897 62.161Z" fill="#B7BCF7"/>
</g>
<path d="M79.8982 74.0029L86.2731 62.9613C86.4812 62.6008 86.9421 62.4773 87.3026 62.6854L96.5627 68.0317C96.9232 68.2399 97.0467 68.7008 96.8385 69.0613L90.4814 80.0721C90.0773 80.7721 89.0527 80.7283 88.7098 79.9963L87.0427 76.4374C86.638 75.5733 85.7358 75.0562 84.7855 75.1425C83.6894 75.2419 82.1891 75.3754 80.8329 75.487C80.0343 75.5527 79.4975 74.6969 79.8982 74.0029Z" fill="#4147D6"/>
<path d="M113.82 74.0029L107.445 62.9613C107.237 62.6008 106.776 62.4773 106.415 62.6854L97.1551 68.0317C96.7946 68.2399 96.6711 68.7008 96.8792 69.0613L103.236 80.0721C103.64 80.7721 104.665 80.7283 105.008 79.9963L106.675 76.4374C107.08 75.5733 107.982 75.0562 108.932 75.1425C110.028 75.2419 111.529 75.3754 112.885 75.487C113.683 75.5527 114.22 74.6969 113.82 74.0029Z" fill="#4147D6"/>
<circle cx="97.2132" cy="59.7762" r="16.1927" fill="url(#paint3_linear)"/>
<path d="M95.422 52.9565C96.1574 51.4763 98.2688 51.4763 99.0042 52.9565L99.991 54.9424C100.282 55.5285 100.842 55.9351 101.489 56.0309L103.683 56.3557C105.318 56.5977 105.97 58.6058 104.79 59.7625L103.206 61.3147C102.739 61.7727 102.525 62.4306 102.634 63.0759L103.003 65.2626C103.278 66.8923 101.57 68.1333 100.105 67.3681L98.1391 66.3415C97.559 66.0384 96.8673 66.0384 96.2872 66.3415L94.3216 67.3681C92.8567 68.1333 91.1485 66.8923 91.4235 65.2626L91.7926 63.0759C91.9015 62.4306 91.6877 61.7727 91.2203 61.3147L89.6365 59.7625C88.4561 58.6058 89.1085 56.5977 90.7434 56.3557L92.9371 56.0309C93.5845 55.9351 94.1441 55.5285 94.4353 54.9424L95.422 52.9565Z" fill="white"/>
<rect x="99.6758" y="109.914" width="7.24282" height="15.3504" fill="#292D8D"/>
<path d="M89.0988 128.939L73.6743 113.515C79.9395 111.65 85.8289 110.104 85.8289 110.104H101.081C99.9696 113.428 99.5867 118.751 103.483 123.696C100.546 115.171 102.57 110.28 105.91 103.907L102.111 100.108C97.8131 95.8099 97.8774 88.8216 102.254 84.6033C102.936 83.9457 104.019 83.9557 104.689 84.6257L117.119 97.0548C125.923 105.859 125.923 120.135 117.119 128.939C109.381 136.677 96.8362 136.677 89.0988 128.939Z" fill="#DCDCDC"/>
<path d="M89.0988 128.939L73.6743 113.515C79.9395 111.65 85.8289 110.104 85.8289 110.104H101.081C99.9696 113.428 99.5867 118.751 103.483 123.696C100.546 115.171 102.57 110.28 105.91 103.907L102.111 100.108C97.8131 95.8099 97.8774 88.8216 102.254 84.6033C102.936 83.9457 104.019 83.9557 104.689 84.6257L117.119 97.0548C125.923 105.859 125.923 120.135 117.119 128.939C109.381 136.677 96.8362 136.677 89.0988 128.939Z" fill="url(#paint4_linear)"/>
<path d="M93.6237 107.905L47.6788 120.547V120.547C48.0043 122.256 49.734 123.311 51.4029 122.818L94.7779 110.01L103.073 110.183L103.942 107.905L93.6237 107.905Z" fill="#292D8D"/>
<path d="M53.4399 131.263C53.7 130.561 54.6938 130.561 54.9539 131.263V131.263C55.6896 133.252 57.2573 134.819 59.2456 135.555V135.555C59.9483 135.815 59.9483 136.809 59.2456 137.069V137.069C57.2573 137.805 55.6896 139.373 54.9539 141.361V141.361C54.6938 142.064 53.7 142.064 53.4399 141.361V141.361C52.7042 139.373 51.1365 137.805 49.1482 137.069V137.069C48.4455 136.809 48.4455 135.815 49.1482 135.555V135.555C51.1365 134.819 52.7042 133.252 53.4399 131.263V131.263Z" fill="url(#paint5_linear)"/>
<path d="M179.173 84.7307C179.433 84.028 180.427 84.028 180.687 84.7307V84.7307C181.423 86.719 182.991 88.2867 184.979 89.0225V89.0225C185.682 89.2825 185.682 90.2764 184.979 90.5364V90.5364C182.991 91.2721 181.423 92.8398 180.687 94.8281V94.8281C180.427 95.5308 179.433 95.5308 179.173 94.8281V94.8281C178.438 92.8398 176.87 91.2721 174.882 90.5364V90.5364C174.179 90.2764 174.179 89.2825 174.882 89.0225V89.0225C176.87 88.2867 178.438 86.719 179.173 84.7307V84.7307Z" fill="url(#paint6_linear)"/>
<path d="M50.7388 30.8655C50.9988 30.1628 51.9927 30.1628 52.2527 30.8655V30.8655C52.9884 32.8538 54.5561 34.4215 56.5444 35.1572V35.1572C57.2471 35.4172 57.2471 36.4111 56.5444 36.6711V36.6711C54.5561 37.4069 52.9884 38.9746 52.2527 40.9629V40.9629C51.9927 41.6656 50.9988 41.6656 50.7388 40.9629V40.9629C50.003 38.9746 48.4353 37.4069 46.447 36.6711V36.6711C45.7443 36.4111 45.7443 35.4172 46.447 35.1572V35.1572C48.4353 34.4215 50.003 32.8538 50.7388 30.8655V30.8655Z" fill="#DCDCDC"/>
<path d="M50.7388 30.8655C50.9988 30.1628 51.9927 30.1628 52.2527 30.8655V30.8655C52.9884 32.8538 54.5561 34.4215 56.5444 35.1572V35.1572C57.2471 35.4172 57.2471 36.4111 56.5444 36.6711V36.6711C54.5561 37.4069 52.9884 38.9746 52.2527 40.9629V40.9629C51.9927 41.6656 50.9988 41.6656 50.7388 40.9629V40.9629C50.003 38.9746 48.4353 37.4069 46.447 36.6711V36.6711C45.7443 36.4111 45.7443 35.4172 46.447 35.1572V35.1572C48.4353 34.4215 50.003 32.8538 50.7388 30.8655V30.8655Z" fill="url(#paint7_linear)"/>
</g>
<defs>
<linearGradient id="paint0_linear" x1="178.442" y1="40.8791" x2="29.5402" y2="17.63" gradientUnits="userSpaceOnUse">
<stop stop-color="#4147D6"/>
<stop offset="1" stop-color="#6663F5"/>
</linearGradient>
<linearGradient id="paint1_linear" x1="144.07" y1="38.9272" x2="163.041" y2="109.729" gradientUnits="userSpaceOnUse">
<stop stop-color="#E0E1FF"/>
<stop offset="1" stop-color="#C2CCFF"/>
</linearGradient>
<linearGradient id="paint2_linear" x1="26.3973" y1="-4.33783e-07" x2="45.3686" y2="70.802" gradientUnits="userSpaceOnUse">
<stop stop-color="#E0E1FF"/>
<stop offset="1" stop-color="#C2CCFF"/>
</linearGradient>
<linearGradient id="paint3_linear" x1="81.9479" y1="56.9209" x2="114.597" y2="57.235" gradientUnits="userSpaceOnUse">
<stop stop-color="#77C4DD"/>
<stop offset="1" stop-color="#74DAC8"/>
</linearGradient>
<linearGradient id="paint4_linear" x1="103.368" y1="83.4189" x2="103.368" y2="142.949" gradientUnits="userSpaceOnUse">
<stop stop-color="#FC8970"/>
<stop offset="1" stop-color="#EE5B47"/>
</linearGradient>
<linearGradient id="paint5_linear" x1="47.5088" y1="135.061" x2="61.8132" y2="135.199" gradientUnits="userSpaceOnUse">
<stop stop-color="#77C4DD"/>
<stop offset="1" stop-color="#74DAC8"/>
</linearGradient>
<linearGradient id="paint6_linear" x1="179.93" y1="82.6851" x2="183.017" y2="97.6977" gradientUnits="userSpaceOnUse">
<stop stop-color="#E0E1FF"/>
<stop offset="1" stop-color="#C2CCFF"/>
</linearGradient>
<linearGradient id="paint7_linear" x1="51.4957" y1="28.8198" x2="51.4957" y2="43.0085" gradientUnits="userSpaceOnUse">
<stop stop-color="#FC8970"/>
<stop offset="1" stop-color="#EE5B47"/>
</linearGradient>
<clipPath id="clip0">
<rect width="202" height="172" fill="white"/>
</clipPath>
</defs>
</svg>
