<svg width="88" height="84" viewBox="0 0 88 84" fill="none" xmlns="http://www.w3.org/2000/svg">
<path d="M25.0799 17.6128C25.3482 17.3445 25.712 17.1938 26.0913 17.1938H69.6567C70.4466 17.1938 71.087 17.8342 71.087 18.6241V65.8851C71.087 66.675 70.4466 67.3153 69.6567 67.3153H18.7948C18.0049 67.3153 17.3645 66.675 17.3645 65.8851V25.9206C17.3645 25.5413 17.5152 25.1775 17.7834 24.9093L25.0799 17.6128Z" fill="white"/>
<path d="M66.6017 17.1938H71.5455V66.8651H66.6017V17.1938Z" fill="url(#paint0_linear)"/>
<path d="M70.5953 62.6923V66.8651H17.3645L17.3645 62.6923L70.5953 62.6923Z" fill="url(#paint1_linear)"/>
<path d="M25.0799 17.6128C25.3482 17.3445 25.712 17.1938 26.0913 17.1938H69.6567C70.4466 17.1938 71.087 17.8342 71.087 18.6241V65.8851C71.087 66.675 70.4466 67.3153 69.6567 67.3153H18.7948C18.0049 67.3153 17.3645 66.675 17.3645 65.8851V25.9206C17.3645 25.5413 17.5152 25.1775 17.7834 24.9093L25.0799 17.6128Z" stroke="#4147D6" stroke-width="1.43026"/>
<mask id="path-4-inside-1" fill="white">
<path d="M39.1053 26.6816C41.681 26.6816 43.0816 28.3552 43.5105 28.9723C43.9394 28.3552 45.3401 26.6816 47.9157 26.6816C51.0736 26.6816 52.9469 30.5888 52.9469 30.5888C54.7132 30.6602 58.1708 31.9483 57.8711 36.5299C57.8711 36.5299 60.7078 38.0821 60.7078 41.1864C60.7078 44.2908 57.8711 45.2542 57.8711 45.2542C58.442 46.3604 58.9201 48.7974 56.2654 49.6966C56.2654 49.6966 57.4429 58.4744 49.2538 58.4744C47.2034 58.4744 44.6621 56.3144 43.5105 55.0973C42.3589 56.3144 39.8176 58.4744 37.7672 58.4744C29.5782 58.4744 30.7557 49.6966 30.7557 49.6966C28.1009 48.7974 28.5791 46.3604 29.15 45.2542C29.15 45.2542 26.3132 44.2908 26.3132 41.1864C26.3132 38.0821 29.15 36.5299 29.15 36.5299C28.8502 31.9483 32.3079 30.6602 34.0741 30.5888C34.0741 30.5888 35.9475 26.6816 39.1053 26.6816Z"/>
</mask>
<path d="M39.1053 26.6816C41.681 26.6816 43.0816 28.3552 43.5105 28.9723C43.9394 28.3552 45.3401 26.6816 47.9157 26.6816C51.0736 26.6816 52.9469 30.5888 52.9469 30.5888C54.7132 30.6602 58.1708 31.9483 57.8711 36.5299C57.8711 36.5299 60.7078 38.0821 60.7078 41.1864C60.7078 44.2908 57.8711 45.2542 57.8711 45.2542C58.442 46.3604 58.9201 48.7974 56.2654 49.6966C56.2654 49.6966 57.4429 58.4744 49.2538 58.4744C47.2034 58.4744 44.6621 56.3144 43.5105 55.0973C42.3589 56.3144 39.8176 58.4744 37.7672 58.4744C29.5782 58.4744 30.7557 49.6966 30.7557 49.6966C28.1009 48.7974 28.5791 46.3604 29.15 45.2542C29.15 45.2542 26.3132 44.2908 26.3132 41.1864C26.3132 38.0821 29.15 36.5299 29.15 36.5299C28.8502 31.9483 32.3079 30.6602 34.0741 30.5888C34.0741 30.5888 35.9475 26.6816 39.1053 26.6816Z" fill="url(#paint2_linear)"/>
<path d="M43.029 29.5434C43.2202 29.889 43.6553 30.0142 44.0009 29.823C44.3465 29.6318 44.4717 29.1967 44.2805 28.8511L43.029 29.5434ZM43.5105 28.9723L44.0977 28.5641L43.5105 27.7193L42.9233 28.5641L43.5105 28.9723ZM34.7888 30.6139C34.8027 30.2192 34.4939 29.888 34.0992 29.8741C33.7045 29.8603 33.3733 30.169 33.3594 30.5638L34.7888 30.6139ZM29.825 36.2938C29.6946 35.921 29.2867 35.7245 28.9139 35.8549C28.5411 35.9853 28.3445 36.3932 28.4749 36.766L29.825 36.2938ZM30.1236 49.362C29.9388 49.7111 30.072 50.1438 30.421 50.3287C30.7701 50.5135 31.2029 50.3803 31.3877 50.0313L30.1236 49.362ZM43.5105 55.0973L42.9911 55.5889L43.5105 56.1378L44.03 55.5889L43.5105 55.0973ZM44.1839 55.423C44.4496 55.1307 44.4281 54.6784 44.1358 54.4128C43.8436 54.1471 43.3913 54.1686 43.1256 54.4609L44.1839 55.423ZM38.5866 37.4659C38.9668 37.5727 39.3616 37.351 39.4684 36.9707C39.5752 36.5905 39.3535 36.1957 38.9732 36.0889L38.5866 37.4659ZM33.9897 40.246C34.3819 40.2926 34.7377 40.0124 34.7843 39.6202C34.8309 39.228 34.5507 38.8723 34.1585 38.8257L33.9897 40.246ZM38.0234 46.2098C38.4184 46.2098 38.7386 45.8896 38.7386 45.4947C38.7386 45.0997 38.4184 44.7795 38.0234 44.7795V46.2098ZM42.7405 28.8511C42.5493 29.1967 42.6745 29.6318 43.0201 29.823C43.3657 30.0142 43.8009 29.889 43.992 29.5434L42.7405 28.8511ZM53.6616 30.5638C53.6478 30.169 53.3166 29.8603 52.9219 29.8741C52.5271 29.888 52.2184 30.2192 52.2322 30.6139L53.6616 30.5638ZM58.5461 36.766C58.6765 36.3932 58.48 35.9853 58.1072 35.8549C57.7344 35.7245 57.3264 35.921 57.196 36.2938L58.5461 36.766ZM55.6334 50.0313C55.8182 50.3803 56.2509 50.5135 56.6 50.3287C56.9491 50.1438 57.0822 49.7111 56.8974 49.362L55.6334 50.0313ZM43.8954 54.4609C43.6297 54.1686 43.1775 54.1471 42.8852 54.4128C42.593 54.6784 42.5714 55.1307 42.8371 55.423L43.8954 54.4609ZM48.0478 36.0889C47.6676 36.1957 47.4459 36.5905 47.5526 36.9707C47.6594 37.351 48.0542 37.5727 48.4345 37.4659L48.0478 36.0889ZM52.7561 38.8257C52.3639 38.8723 52.0837 39.228 52.1303 39.6202C52.1769 40.0124 52.5326 40.2926 52.9248 40.246L52.7561 38.8257ZM48.9976 44.7795C48.6026 44.7795 48.2825 45.0997 48.2825 45.4947C48.2825 45.8896 48.6026 46.2098 48.9976 46.2098V44.7795ZM43.6548 29.1972C44.2805 28.8511 44.2805 28.851 44.2805 28.8509C44.2805 28.8509 44.2804 28.8509 44.2804 28.8508C44.2804 28.8508 44.2803 28.8507 44.2803 28.8506C44.2802 28.8505 44.2801 28.8503 44.28 28.8501C44.2798 28.8498 44.2796 28.8494 44.2794 28.8491C44.279 28.8483 44.2785 28.8475 44.278 28.8466C44.277 28.8447 44.2758 28.8426 44.2744 28.8401C44.2715 28.8351 44.2679 28.8288 44.2635 28.8213C44.2547 28.8062 44.2428 28.7861 44.2276 28.7616C44.1973 28.7125 44.1542 28.6453 44.0977 28.5641L42.9233 29.3804C42.9638 29.4387 42.9928 29.484 43.0104 29.5125C43.0192 29.5268 43.0251 29.5368 43.0282 29.5421C43.0298 29.5448 43.0306 29.5463 43.0307 29.5465C43.0308 29.5466 43.0307 29.5464 43.0304 29.5459C43.0303 29.5457 43.0301 29.5453 43.0298 29.5449C43.0297 29.5447 43.0296 29.5445 43.0295 29.5442C43.0294 29.5441 43.0293 29.544 43.0292 29.5438C43.0292 29.5438 43.0292 29.5437 43.0291 29.5436C43.0291 29.5436 43.0291 29.5435 43.0291 29.5435C43.029 29.5435 43.029 29.5434 43.6548 29.1972ZM44.03 55.5889C44.0839 55.5318 44.1353 55.4764 44.1839 55.423L43.1256 54.4609C43.0837 54.507 43.0388 54.5554 42.9911 54.6058L44.03 55.5889ZM33.3594 30.5638C33.2964 32.3592 34.2511 36.2485 38.5866 37.4659L38.9732 36.0889C35.5089 35.1161 34.7391 32.0316 34.7888 30.6139L33.3594 30.5638ZM28.4749 36.766C28.7146 37.4512 29.3365 38.2257 30.2397 38.8647C31.1601 39.5159 32.4161 40.059 33.9897 40.246L34.1585 38.8257C32.8216 38.6669 31.7916 38.2106 31.0657 37.6971C30.3225 37.1712 29.9376 36.6157 29.825 36.2938L28.4749 36.766ZM31.3877 50.0313C32.05 48.7803 34.3374 46.2098 38.0234 46.2098V44.7795C33.6406 44.7795 30.9445 47.8116 30.1236 49.362L31.3877 50.0313ZM43.3663 29.1972C43.992 29.5434 43.992 29.5435 43.992 29.5435C43.992 29.5435 43.9919 29.5436 43.9919 29.5436C43.9919 29.5437 43.9918 29.5438 43.9918 29.5438C43.9917 29.544 43.9917 29.5441 43.9916 29.5442C43.9915 29.5445 43.9913 29.5447 43.9912 29.5449C43.991 29.5453 43.9908 29.5456 43.9907 29.5459C43.9904 29.5464 43.9903 29.5466 43.9903 29.5465C43.9905 29.5462 43.9913 29.5448 43.9928 29.5421C43.9959 29.5368 44.0019 29.5268 44.0107 29.5125C44.0283 29.484 44.0572 29.4387 44.0977 29.3804L42.9233 28.5641C42.8669 28.6453 42.8237 28.7125 42.7934 28.7616C42.7783 28.7861 42.7663 28.8062 42.7575 28.8213C42.7531 28.8288 42.7495 28.8351 42.7467 28.8401C42.7453 28.8426 42.744 28.8448 42.743 28.8466C42.7425 28.8475 42.742 28.8483 42.7416 28.8491C42.7414 28.8495 42.7412 28.8498 42.741 28.8501C42.7409 28.8503 42.7408 28.8505 42.7408 28.8506C42.7407 28.8507 42.7407 28.8508 42.7406 28.8508C42.7406 28.8509 42.7406 28.8509 42.7406 28.851C42.7405 28.851 42.7405 28.8511 43.3663 29.1972ZM44.03 54.6058C43.9822 54.5554 43.9373 54.507 43.8954 54.4609L42.8371 55.423C42.8857 55.4764 42.9371 55.5318 42.9911 55.5889L44.03 54.6058ZM52.2322 30.6139C52.282 32.0316 51.5122 35.1161 48.0478 36.0889L48.4345 37.4659C52.7699 36.2485 53.7246 32.3592 53.6616 30.5638L52.2322 30.6139ZM57.196 36.2938C57.088 36.6028 56.6882 37.1582 55.9109 37.691C55.155 38.2089 54.0949 38.6667 52.7561 38.8257L52.9248 40.246C54.4966 40.0593 55.7756 39.5175 56.7194 38.8708C57.6416 38.2387 58.3019 37.4641 58.5461 36.766L57.196 36.2938ZM56.8974 49.362C56.0766 47.8116 53.3804 44.7795 48.9976 44.7795V46.2098C52.6837 46.2098 54.9711 48.7803 55.6334 50.0313L56.8974 49.362ZM42.7954 28.9723V55.0973H44.2257V28.9723H42.7954ZM43.5105 28.9723L42.3361 29.7886L43.5105 31.4782L44.685 29.7886L43.5105 28.9723ZM34.0741 30.5888L34.1319 32.0179L34.9917 31.9832L35.3638 31.2072L34.0741 30.5888ZM29.15 36.5299L29.8365 37.7846L30.6367 37.3468L30.5772 36.4365L29.15 36.5299ZM29.15 45.2542L30.4209 45.9102L31.1828 44.4341L29.6099 43.8999L29.15 45.2542ZM30.7557 49.6966L32.1732 49.8868L32.3298 48.7197L31.2145 48.342L30.7557 49.6966ZM43.5105 55.0973L44.5494 54.1143L43.5105 53.0164L42.4716 54.1143L43.5105 55.0973ZM52.9469 30.5888L51.6572 31.2072L52.0293 31.9832L52.8892 32.0179L52.9469 30.5888ZM57.8711 36.5299L56.4438 36.4365L56.3843 37.3468L57.1845 37.7846L57.8711 36.5299ZM57.8711 45.2542L57.4111 43.8999L55.8382 44.4341L56.6001 45.9102L57.8711 45.2542ZM56.2654 49.6966L55.8065 48.342L54.6913 48.7197L54.8478 49.8868L56.2654 49.6966ZM44.685 28.1559C44.1487 27.3845 42.3731 25.2514 39.1053 25.2514V28.1119C40.9889 28.1119 42.0145 29.3259 42.3361 29.7886L44.685 28.1559ZM39.1053 25.2514C36.9143 25.2514 35.2972 26.5978 34.3337 27.6882C33.8335 28.2543 33.4528 28.814 33.1974 29.2298C33.0688 29.4392 32.9696 29.616 32.9008 29.7441C32.8663 29.8082 32.8393 29.8605 32.8199 29.8988C32.8102 29.918 32.8024 29.9337 32.7965 29.9457C32.7935 29.9517 32.791 29.9568 32.789 29.9609C32.788 29.963 32.7871 29.9648 32.7864 29.9664C32.786 29.9672 32.7856 29.968 32.7853 29.9686C32.7852 29.969 32.7849 29.9694 32.7848 29.9696C32.7846 29.9701 32.7844 29.9705 34.0741 30.5888C35.3638 31.2072 35.3636 31.2076 35.3634 31.208C35.3634 31.2081 35.3632 31.2085 35.3631 31.2087C35.3629 31.2091 35.3627 31.2095 35.3625 31.2098C35.3622 31.2105 35.362 31.2109 35.3619 31.2111C35.3618 31.2114 35.362 31.2109 35.3627 31.2095C35.364 31.2068 35.3671 31.2006 35.3719 31.1911C35.3815 31.1722 35.3978 31.1405 35.4208 31.0978C35.4667 31.0122 35.5386 30.8838 35.6349 30.7269C35.8295 30.41 36.1145 29.9929 36.4773 29.5823C37.24 28.7191 38.1385 28.1119 39.1053 28.1119V25.2514ZM34.0164 29.1597C32.8816 29.2056 31.2445 29.628 29.9032 30.785C28.4952 31.9994 27.5454 33.9124 27.7228 36.6233L30.5772 36.4365C30.4548 34.5659 31.084 33.544 31.7714 32.9511C32.5255 32.3007 33.5003 32.0435 34.1319 32.0179L34.0164 29.1597ZM29.15 36.5299C28.4634 35.2752 28.4629 35.2755 28.4624 35.2758C28.4622 35.2759 28.4616 35.2762 28.4612 35.2764C28.4605 35.2768 28.4596 35.2773 28.4588 35.2778C28.457 35.2787 28.4551 35.2798 28.453 35.2809C28.4489 35.2833 28.444 35.286 28.4384 35.2891C28.4273 35.2954 28.4135 35.3033 28.3972 35.3128C28.3645 35.3319 28.3215 35.3576 28.2698 35.39C28.1664 35.4546 28.0271 35.5463 27.8638 35.6655C27.5391 35.9024 27.1085 36.2557 26.6758 36.7292C25.8123 37.6742 24.883 39.1668 24.883 41.1864H27.7435C27.7435 40.1017 28.2325 39.2661 28.7874 38.6589C29.0639 38.3563 29.3425 38.1276 29.5497 37.9764C29.6523 37.9015 29.7346 37.8478 29.7864 37.8154C29.8122 37.7992 29.8302 37.7885 29.8391 37.7834C29.8435 37.7808 29.8456 37.7796 29.8452 37.7798C29.8451 37.7799 29.8442 37.7804 29.8428 37.7812C29.8421 37.7816 29.8412 37.7821 29.8402 37.7826C29.8396 37.7829 29.8391 37.7832 29.8385 37.7836C29.8382 37.7837 29.8377 37.784 29.8375 37.7841C29.837 37.7844 29.8365 37.7846 29.15 36.5299ZM24.883 41.1864C24.883 43.2367 25.8409 44.6194 26.7826 45.4546C27.244 45.8637 27.7015 46.1438 28.0449 46.3231C28.2179 46.4134 28.366 46.4802 28.4767 46.5265C28.5322 46.5496 28.5787 46.5678 28.6146 46.5813C28.6326 46.5881 28.648 46.5937 28.6606 46.5982C28.6669 46.6005 28.6726 46.6025 28.6775 46.6042C28.6799 46.605 28.6822 46.6058 28.6843 46.6065C28.6853 46.6069 28.6863 46.6072 28.6873 46.6076C28.6878 46.6077 28.6885 46.608 28.6887 46.608C28.6894 46.6083 28.69 46.6085 29.15 45.2542C29.6099 43.8999 29.6106 43.9001 29.6112 43.9003C29.6114 43.9004 29.612 43.9006 29.6124 43.9008C29.6132 43.901 29.6139 43.9013 29.6146 43.9015C29.616 43.902 29.6173 43.9024 29.6184 43.9028C29.6206 43.9036 29.6221 43.9041 29.623 43.9045C29.6249 43.9051 29.6244 43.905 29.6216 43.9039C29.616 43.9018 29.6015 43.8963 29.5794 43.887C29.535 43.8685 29.4615 43.8357 29.3686 43.7873C29.1801 43.6888 28.9284 43.5341 28.6806 43.3143C28.2039 42.8917 27.7435 42.2405 27.7435 41.1864H24.883ZM27.879 44.5982C27.5022 45.3282 27.1261 46.5295 27.3318 47.7844C27.5604 49.1794 28.4817 50.4365 30.2968 51.0513L31.2145 48.342C30.7535 48.1858 30.5165 47.9947 30.3897 47.847C30.2634 47.7 30.1886 47.5288 30.1546 47.3217C30.0784 46.8566 30.2268 46.2864 30.4209 45.9102L27.879 44.5982ZM30.7557 49.6966C29.3381 49.5065 29.338 49.5071 29.3379 49.5078C29.3379 49.5081 29.3378 49.5089 29.3377 49.5094C29.3376 49.5105 29.3374 49.5118 29.3372 49.5132C29.3368 49.516 29.3364 49.5193 29.3359 49.5232C29.3349 49.5309 29.3337 49.5407 29.3323 49.5527C29.3295 49.5765 29.3258 49.6087 29.3217 49.6486C29.3135 49.7284 29.3034 49.8395 29.294 49.9775C29.2755 50.2529 29.2599 50.6386 29.2697 51.0987C29.2891 52.0093 29.4089 53.2596 29.8333 54.5366C30.2593 55.8185 31.012 57.1833 32.33 58.225C33.6623 59.278 35.451 59.9047 37.7672 59.9047V57.0442C35.9889 57.0442 34.8539 56.5737 34.1038 55.9808C33.3394 55.3767 32.8511 54.547 32.5478 53.6345C32.2429 52.7171 32.1453 51.7728 32.1296 51.0377C32.1218 50.6748 32.1343 50.3748 32.1481 50.1701C32.155 50.0681 32.1621 49.9906 32.1672 49.9418C32.1697 49.9175 32.1716 49.9003 32.1728 49.891C32.1733 49.8863 32.1737 49.8836 32.1738 49.8828C32.1738 49.8825 32.1738 49.8826 32.1737 49.8833C32.1737 49.8836 32.1736 49.8841 32.1735 49.8847C32.1735 49.8849 32.1734 49.8855 32.1734 49.8856C32.1733 49.8862 32.1732 49.8868 30.7557 49.6966ZM37.7672 59.9047C39.2303 59.9047 40.6746 59.164 41.7707 58.4314C42.9128 57.668 43.9165 56.7493 44.5494 56.0804L42.4716 54.1143C41.953 54.6625 41.1102 55.4322 40.1812 56.0532C39.206 56.7049 38.3545 57.0442 37.7672 57.0442V59.9047ZM44.685 29.7886C45.0065 29.3259 46.0321 28.1119 47.9157 28.1119V25.2514C44.648 25.2514 42.8723 27.3845 42.3361 28.1559L44.685 29.7886ZM47.9157 28.1119C48.8826 28.1119 49.781 28.7191 50.5437 29.5823C50.9065 29.9929 51.1915 30.41 51.3861 30.7269C51.4825 30.8838 51.5543 31.0122 51.6003 31.0978C51.6232 31.1405 51.6396 31.1722 51.6491 31.1911C51.6539 31.2006 51.657 31.2068 51.6584 31.2095C51.659 31.2109 51.6593 31.2114 51.6591 31.2111C51.659 31.2109 51.6588 31.2105 51.6585 31.2098C51.6583 31.2095 51.6582 31.2091 51.658 31.2087C51.6578 31.2085 51.6577 31.2081 51.6576 31.208C51.6574 31.2076 51.6572 31.2072 52.9469 30.5888C54.2366 29.9705 54.2364 29.9701 54.2362 29.9696C54.2361 29.9694 54.2359 29.969 54.2357 29.9686C54.2354 29.968 54.2351 29.9672 54.2347 29.9664C54.2339 29.9648 54.233 29.963 54.232 29.9609C54.23 29.9568 54.2275 29.9517 54.2246 29.9457C54.2186 29.9337 54.2108 29.918 54.2011 29.8988C54.1817 29.8605 54.1547 29.8082 54.1202 29.7441C54.0514 29.616 53.9522 29.4392 53.8236 29.2298C53.5683 28.814 53.1876 28.2543 52.6873 27.6882C51.7239 26.5978 50.1067 25.2514 47.9157 25.2514V28.1119ZM52.8892 32.0179C53.5207 32.0435 54.4956 32.3007 55.2496 32.9511C55.937 33.544 56.5662 34.5659 56.4438 36.4365L59.2983 36.6233C59.4756 33.9124 58.5259 31.9994 57.1179 30.785C55.7765 29.628 54.1394 29.2056 53.0047 29.1597L52.8892 32.0179ZM57.8711 36.5299C57.1845 37.7846 57.184 37.7844 57.1835 37.7841C57.1834 37.784 57.1829 37.7837 57.1826 37.7836C57.182 37.7832 57.1814 37.7829 57.1809 37.7826C57.1798 37.7821 57.179 37.7816 57.1782 37.7812C57.1768 37.7804 57.176 37.7799 57.1758 37.7798C57.1754 37.7796 57.1775 37.7808 57.182 37.7834C57.1908 37.7885 57.2088 37.7992 57.2346 37.8154C57.2864 37.8478 57.3687 37.9015 57.4713 37.9764C57.6785 38.1276 57.9572 38.3563 58.2336 38.6589C58.7885 39.2661 59.2775 40.1017 59.2775 41.1864H62.1381C62.1381 39.1668 61.2088 37.6742 60.3453 36.7292C59.9125 36.2557 59.482 35.9024 59.1573 35.6655C58.9939 35.5463 58.8546 35.4546 58.7513 35.39C58.6995 35.3576 58.6566 35.3319 58.6239 35.3128C58.6075 35.3033 58.5937 35.2954 58.5826 35.2891C58.577 35.286 58.5722 35.2833 58.568 35.2809C58.5659 35.2798 58.564 35.2787 58.5623 35.2778C58.5614 35.2773 58.5606 35.2768 58.5598 35.2764C58.5594 35.2762 58.5589 35.2759 58.5587 35.2758C58.5581 35.2755 58.5576 35.2752 57.8711 36.5299ZM59.2775 41.1864C59.2775 42.2405 58.8171 42.8917 58.3405 43.3143C58.0927 43.5341 57.841 43.6888 57.6524 43.7873C57.5595 43.8357 57.486 43.8685 57.4416 43.887C57.4195 43.8963 57.405 43.9018 57.3994 43.9039C57.3966 43.905 57.3961 43.9051 57.398 43.9045C57.3989 43.9041 57.4005 43.9036 57.4027 43.9028C57.4038 43.9024 57.405 43.902 57.4064 43.9015C57.4071 43.9013 57.4079 43.901 57.4086 43.9008C57.409 43.9006 57.4097 43.9004 57.4098 43.9003C57.4105 43.9001 57.4111 43.8999 57.8711 45.2542C58.331 46.6085 58.3317 46.6083 58.3323 46.608C58.3326 46.608 58.3333 46.6077 58.3337 46.6076C58.3347 46.6072 58.3357 46.6069 58.3367 46.6065C58.3388 46.6058 58.3411 46.605 58.3436 46.6042C58.3485 46.6025 58.3541 46.6005 58.3604 46.5982C58.373 46.5937 58.3884 46.5881 58.4064 46.5813C58.4424 46.5678 58.4888 46.5496 58.5443 46.5265C58.655 46.4802 58.8031 46.4134 58.9762 46.3231C59.3195 46.1438 59.777 45.8637 60.2384 45.4546C61.1801 44.6194 62.1381 43.2367 62.1381 41.1864H59.2775ZM56.6001 45.9102C56.7943 46.2864 56.9426 46.8566 56.8664 47.3217C56.8325 47.5289 56.7576 47.7 56.6314 47.847C56.5045 47.9947 56.2676 48.1858 55.8065 48.342L56.7242 51.0513C58.5394 50.4365 59.4606 49.1794 59.6893 47.7844C59.8949 46.5295 59.5188 45.3282 59.142 44.5982L56.6001 45.9102ZM56.2654 49.6966C54.8478 49.8868 54.8477 49.8862 54.8477 49.8856C54.8476 49.8855 54.8476 49.8849 54.8475 49.8847C54.8474 49.8841 54.8474 49.8836 54.8473 49.8833C54.8473 49.8826 54.8472 49.8825 54.8473 49.8828C54.8474 49.8836 54.8477 49.8863 54.8483 49.891C54.8494 49.9003 54.8514 49.9175 54.8539 49.9418C54.8589 49.9906 54.8661 50.0681 54.873 50.1701C54.8868 50.3748 54.8992 50.6748 54.8915 51.0377C54.8758 51.7728 54.7781 52.7171 54.4732 53.6345C54.17 54.547 53.6816 55.3767 52.9173 55.9808C52.1672 56.5737 51.0321 57.0442 49.2538 57.0442V59.9047C51.5701 59.9047 53.3587 59.278 54.691 58.225C56.0091 57.1833 56.7618 55.8185 57.1878 54.5366C57.6122 53.2596 57.7319 52.0093 57.7514 51.0987C57.7612 50.6386 57.7456 50.2529 57.727 49.9775C57.7177 49.8395 57.7076 49.7284 57.6993 49.6486C57.6952 49.6087 57.6916 49.5765 57.6887 49.5527C57.6873 49.5407 57.6861 49.5309 57.6851 49.5232C57.6846 49.5193 57.6842 49.516 57.6838 49.5132C57.6837 49.5118 57.6835 49.5105 57.6833 49.5094C57.6833 49.5089 57.6832 49.5081 57.6831 49.5078C57.683 49.5071 57.6829 49.5065 56.2654 49.6966ZM49.2538 57.0442C48.6665 57.0442 47.815 56.7049 46.8399 56.0532C45.9109 55.4322 45.0681 54.6625 44.5494 54.1143L42.4716 56.0804C43.1045 56.7493 44.1082 57.668 45.2504 58.4314C46.3464 59.164 47.7907 59.9047 49.2538 59.9047V57.0442Z" fill="#4147D6" mask="url(#path-4-inside-1)"/>
<path d="M27.5013 8.22471C29.3492 8.22471 30.8473 6.72665 30.8473 4.87871C30.8473 3.03077 29.3492 1.53271 27.5013 1.53271C25.6533 1.53271 24.1553 3.03077 24.1553 4.87871C24.1553 6.72665 25.6533 8.22471 27.5013 8.22471ZM27.5013 8.22471V13.0105M38.2721 8.22471C40.1201 8.22471 41.6181 6.72665 41.6181 4.87871C41.6181 3.03077 40.1201 1.53271 38.2721 1.53271C36.4242 1.53271 34.9261 3.03077 34.9261 4.87871C34.9261 6.72665 36.4242 8.22471 38.2721 8.22471ZM38.2721 8.22471V13.0105M49.043 8.22471C50.8909 8.22471 52.389 6.72665 52.389 4.87871C52.389 3.03077 50.8909 1.53271 49.043 1.53271C47.195 1.53271 45.697 3.03077 45.697 4.87871C45.697 6.72665 47.195 8.22471 49.043 8.22471ZM49.043 8.22471V13.0105M59.8138 8.22471C61.6618 8.22471 63.1598 6.72665 63.1598 4.87871C63.1598 3.03077 61.6618 1.53271 59.8138 1.53271C57.9659 1.53271 56.4678 3.03077 56.4678 4.87871C56.4678 6.72665 57.9659 8.22471 59.8138 8.22471ZM59.8138 8.22471V13.0105" stroke="#4147D6" stroke-width="1.43026" stroke-linecap="round"/>
<path d="M27.5013 76.2846C29.3492 76.2846 30.8473 77.7826 30.8473 79.6306C30.8473 81.4785 29.3492 82.9766 27.5013 82.9766C25.6533 82.9766 24.1553 81.4785 24.1553 79.6306C24.1553 77.7826 25.6533 76.2846 27.5013 76.2846ZM27.5013 76.2846V71.4988M38.2721 76.2846C40.1201 76.2846 41.6181 77.7826 41.6181 79.6306C41.6181 81.4785 40.1201 82.9766 38.2721 82.9766C36.4242 82.9766 34.9261 81.4785 34.9261 79.6306C34.9261 77.7826 36.4242 76.2846 38.2721 76.2846ZM38.2721 76.2846V71.4988M49.043 76.2846C50.8909 76.2846 52.389 77.7826 52.389 79.6306C52.389 81.4785 50.8909 82.9766 49.043 82.9766C47.195 82.9766 45.697 81.4785 45.697 79.6306C45.697 77.7826 47.195 76.2846 49.043 76.2846ZM49.043 76.2846V71.4988M59.8138 76.2846C61.6618 76.2846 63.1598 77.7826 63.1598 79.6306C63.1598 81.4785 61.6618 82.9766 59.8138 82.9766C57.9659 82.9766 56.4678 81.4785 56.4678 79.6306C56.4678 77.7826 57.9659 76.2846 59.8138 76.2846ZM59.8138 76.2846V71.4988" stroke="#4147D6" stroke-width="1.43026" stroke-linecap="round"/>
<path d="M80.4811 25.6033C80.4811 27.4513 81.9792 28.9493 83.8271 28.9493C85.675 28.9493 87.1731 27.4513 87.1731 25.6033C87.1731 23.7554 85.675 22.2573 83.8271 22.2573C81.9792 22.2573 80.4811 23.7554 80.4811 25.6033ZM80.4811 25.6033L75.6953 25.6033M80.4811 36.3742C80.4811 38.2221 81.9792 39.7202 83.8271 39.7202C85.675 39.7202 87.1731 38.2221 87.1731 36.3742C87.1731 34.5262 85.675 33.0282 83.8271 33.0282C81.9792 33.0282 80.4811 34.5262 80.4811 36.3742ZM80.4811 36.3742L75.6953 36.3742M80.4811 47.145C80.4811 48.993 81.9792 50.491 83.8271 50.491C85.675 50.491 87.1731 48.993 87.1731 47.145C87.1731 45.2971 85.675 43.799 83.8271 43.799C81.9792 43.799 80.4811 45.2971 80.4811 47.145ZM80.4811 47.145L75.6953 47.145M80.4811 57.9159C80.4811 59.7638 81.9792 61.2619 83.8271 61.2619C85.675 61.2619 87.1731 59.7638 87.1731 57.9159C87.1731 56.0679 85.675 54.5699 83.8271 54.5699C81.9792 54.5699 80.4811 56.0679 80.4811 57.9159ZM80.4811 57.9159L75.6953 57.9159" stroke="#4147D6" stroke-width="1.43026" stroke-linecap="round"/>
<path d="M7.97031 25.6033C7.97031 27.4513 6.47226 28.9493 4.62432 28.9493C2.77637 28.9493 1.27832 27.4513 1.27832 25.6033C1.27832 23.7554 2.77637 22.2573 4.62432 22.2573C6.47226 22.2573 7.97031 23.7554 7.97031 25.6033ZM7.97031 25.6033L12.7561 25.6033M7.97031 36.3742C7.97031 38.2221 6.47226 39.7202 4.62432 39.7202C2.77637 39.7202 1.27832 38.2221 1.27832 36.3742C1.27832 34.5262 2.77637 33.0282 4.62432 33.0282C6.47226 33.0282 7.97031 34.5262 7.97031 36.3742ZM7.97031 36.3742L12.7561 36.3742M7.97031 47.145C7.97031 48.993 6.47226 50.491 4.62432 50.491C2.77638 50.491 1.27832 48.993 1.27832 47.145C1.27832 45.2971 2.77637 43.799 4.62432 43.799C6.47226 43.799 7.97031 45.2971 7.97031 47.145ZM7.97031 47.145L12.7561 47.145M7.97031 57.9159C7.97031 59.7638 6.47226 61.2619 4.62432 61.2619C2.77638 61.2619 1.27832 59.7638 1.27832 57.9159C1.27832 56.0679 2.77638 54.5699 4.62432 54.5699C6.47226 54.5699 7.97031 56.0679 7.97031 57.9159ZM7.97031 57.9159L12.7561 57.9159" stroke="#4147D6" stroke-width="1.43026" stroke-linecap="round"/>
<defs>
<linearGradient id="paint0_linear" x1="44.455" y1="17.1938" x2="54.4245" y2="70.0918" gradientUnits="userSpaceOnUse">
<stop stop-color="#E0E1FF"/>
<stop offset="1" stop-color="#C2CCFF"/>
</linearGradient>
<linearGradient id="paint1_linear" x1="44.455" y1="17.1938" x2="54.4245" y2="70.0918" gradientUnits="userSpaceOnUse">
<stop stop-color="#E0E1FF"/>
<stop offset="1" stop-color="#C2CCFF"/>
</linearGradient>
<linearGradient id="paint2_linear" x1="27.2981" y1="39.775" x2="61.9725" y2="40.1359" gradientUnits="userSpaceOnUse">
<stop stop-color="#77C4DD"/>
<stop offset="1" stop-color="#74DAC8"/>
</linearGradient>
</defs>
</svg>
