<svg width="66" height="81" viewBox="0 0 66 81" fill="none" xmlns="http://www.w3.org/2000/svg">
<path d="M0.829346 2.86572C0.829346 2.08853 1.45938 1.4585 2.23657 1.4585H55.5686C56.3458 1.4585 56.9758 2.08853 56.9758 2.86573V67.3543C56.9758 68.5734 55.531 69.2158 54.6259 68.3991L53.2396 67.1483C52.7041 66.665 51.8898 66.665 51.3542 67.1483L48.5608 69.6688C48.0252 70.152 47.2109 70.152 46.6754 69.6688L43.8819 67.1483C43.3463 66.665 42.5321 66.665 41.9965 67.1483L39.203 69.6688C38.6674 70.152 37.8532 70.152 37.3176 69.6688L34.5242 67.1483C33.9886 66.665 33.1743 66.665 32.6387 67.1483L29.8453 69.6688C29.3097 70.152 28.4954 70.152 27.9599 69.6688L25.1664 67.1483C24.6308 66.665 23.8166 66.665 23.281 67.1483L20.4875 69.6688C19.952 70.152 19.1377 70.152 18.6021 69.6688L15.8087 67.1483C15.2731 66.665 14.4588 66.665 13.9233 67.1483L11.1298 69.6688C10.5942 70.152 9.77996 70.152 9.24438 69.6688L6.45092 67.1483C5.91535 66.665 5.10109 66.665 4.56551 67.1483L3.17928 68.3991C2.2741 69.2158 0.829346 68.5734 0.829346 67.3543V2.86572Z" fill="white" stroke="#4147D6" stroke-width="1.40723"/>
<mask id="mask0" mask-type="alpha" maskUnits="userSpaceOnUse" x="0" y="0" width="58" height="71">
<path d="M0.829346 2.86572C0.829346 2.08853 1.45938 1.4585 2.23657 1.4585H55.5686C56.3458 1.4585 56.9758 2.08853 56.9758 2.86573V67.3543C56.9758 68.5734 55.531 69.2158 54.6259 68.3991L53.2396 67.1483C52.7041 66.665 51.8898 66.665 51.3542 67.1483L48.5608 69.6688C48.0252 70.152 47.2109 70.152 46.6754 69.6688L43.8819 67.1483C43.3463 66.665 42.5321 66.665 41.9965 67.1483L39.203 69.6688C38.6674 70.152 37.8532 70.152 37.3176 69.6688L34.5242 67.1483C33.9886 66.665 33.1743 66.665 32.6387 67.1483L29.8453 69.6688C29.3097 70.152 28.4954 70.152 27.9599 69.6688L25.1664 67.1483C24.6308 66.665 23.8166 66.665 23.281 67.1483L20.4875 69.6688C19.952 70.152 19.1377 70.152 18.6021 69.6688L15.8087 67.1483C15.2731 66.665 14.4588 66.665 13.9233 67.1483L11.1298 69.6688C10.5942 70.152 9.77996 70.152 9.24438 69.6688L6.45092 67.1483C5.91535 66.665 5.10109 66.665 4.56551 67.1483L3.17928 68.3991C2.2741 69.2158 0.829346 68.5734 0.829346 67.3543V2.86572Z" fill="white" stroke="#4147D6" stroke-width="1.40723"/>
</mask>
<g mask="url(#mask0)">
<rect x="52.7305" y="-6.66064" width="9.1598" height="101.106" fill="url(#paint0_linear)"/>
</g>
<mask id="mask1" mask-type="alpha" maskUnits="userSpaceOnUse" x="0" y="1" width="57" height="70">
<path d="M0.829346 2.86572C0.829346 2.08853 1.45938 1.4585 2.23657 1.4585H55.5686C56.3458 1.4585 56.9758 2.08853 56.9758 2.86573V67.3543C56.9758 68.5734 55.531 69.2158 54.6259 68.3991L53.2396 67.1483C52.7041 66.665 51.8898 66.665 51.3542 67.1483L48.5608 69.6688C48.0252 70.152 47.2109 70.152 46.6754 69.6688L43.8819 67.1483C43.3463 66.665 42.5321 66.665 41.9965 67.1483L39.203 69.6688C38.6674 70.152 37.8532 70.152 37.3176 69.6688L34.5242 67.1483C33.9886 66.665 33.1743 66.665 32.6387 67.1483L29.8453 69.6688C29.3097 70.152 28.4954 70.152 27.9599 69.6688L25.1664 67.1483C24.6308 66.665 23.8166 66.665 23.281 67.1483L20.4875 69.6688C19.952 70.152 19.1377 70.152 18.6021 69.6688L15.8087 67.1483C15.2731 66.665 14.4588 66.665 13.9233 67.1483L11.1298 69.6688C10.5942 70.152 9.77996 70.152 9.24438 69.6688L6.45092 67.1483C5.91535 66.665 5.10109 66.665 4.56551 67.1483L3.17928 68.3991C2.2741 69.2158 0.829346 68.5734 0.829346 67.3543V2.86572Z" fill="#C4C4C4"/>
</mask>
<g mask="url(#mask1)">
<path d="M0.829346 73.5116C0.829346 74.2888 1.45938 74.9188 2.23657 74.9188H55.5686C56.3458 74.9188 56.9758 74.2888 56.9758 73.5116V66.2712C56.9758 65.8729 56.807 65.4932 56.5113 65.2264L53.2396 62.2744C52.7041 61.7912 51.8898 61.7912 51.3542 62.2744L48.5608 64.7949C48.0252 65.2782 47.2109 65.2782 46.6754 64.7949L43.8819 62.2744C43.3463 61.7912 42.5321 61.7912 41.9965 62.2744L39.203 64.7949C38.6674 65.2782 37.8532 65.2782 37.3176 64.7949L34.5241 62.2744C33.9886 61.7912 33.1743 61.7912 32.6387 62.2744L29.8453 64.7949C29.3097 65.2782 28.4954 65.2782 27.9599 64.7949L25.1664 62.2744C24.6308 61.7912 23.8166 61.7912 23.281 62.2744L20.4875 64.7949C19.952 65.2782 19.1377 65.2782 18.6021 64.7949L15.8087 62.2744C15.2731 61.7912 14.4588 61.7912 13.9233 62.2744L11.1298 64.7949C10.5942 65.2782 9.77996 65.2782 9.24438 64.7949L6.45092 62.2744C5.91535 61.7912 5.10109 61.7912 4.56551 62.2744L1.29387 65.2264C0.998144 65.4932 0.829347 65.8729 0.829347 66.2712L0.829346 73.5116Z" fill="url(#paint1_linear)"/>
</g>
<path d="M0.829346 2.86572C0.829346 2.08853 1.45938 1.4585 2.23657 1.4585H55.5686C56.3458 1.4585 56.9758 2.08853 56.9758 2.86573V67.3543C56.9758 68.5734 55.531 69.2158 54.6259 68.3991L53.2396 67.1483C52.7041 66.665 51.8898 66.665 51.3542 67.1483L48.5608 69.6688C48.0252 70.152 47.2109 70.152 46.6753 69.6688L43.8819 67.1483C43.3463 66.665 42.5321 66.665 41.9965 67.1483L39.203 69.6688C38.6674 70.152 37.8532 70.152 37.3176 69.6688L34.5241 67.1483C33.9886 66.665 33.1743 66.665 32.6387 67.1483L29.8453 69.6688C29.3097 70.152 28.4954 70.152 27.9599 69.6688L25.1664 67.1483C24.6308 66.665 23.8166 66.665 23.281 67.1483L20.4875 69.6688C19.952 70.152 19.1377 70.152 18.6021 69.6688L15.8087 67.1483C15.2731 66.665 14.4588 66.665 13.9233 67.1483L11.1298 69.6688C10.5942 70.152 9.77996 70.152 9.24438 69.6688L6.45092 67.1483C5.91535 66.665 5.10109 66.665 4.56551 67.1483L3.17928 68.3991C2.2741 69.2158 0.829346 68.5734 0.829346 67.3543V2.86572Z" stroke="#4147D6" stroke-width="1.40723"/>
<path d="M6.03784 13.3623H48.4336" stroke="#4147D6" stroke-width="1.40723" stroke-linecap="round"/>
<path d="M6.03784 17.9971H48.4336" stroke="#4147D6" stroke-width="1.40723" stroke-linecap="round"/>
<path d="M6.03784 23.0354H48.4336" stroke="#4147D6" stroke-width="1.40723" stroke-linecap="round"/>
<path d="M6.03784 27.9729H48.4336" stroke="#4147D6" stroke-width="1.40723" stroke-linecap="round"/>
<path d="M6.03784 34.8479H17.7248" stroke="#4147D6" stroke-width="1.40723" stroke-linecap="round"/>
<path d="M17.7249 13.3623L17.7249 27.9731" stroke="#4147D6" stroke-width="1.40723" stroke-linecap="round"/>
<path d="M36.4514 13.3623L36.4514 27.9731" stroke="#4147D6" stroke-width="1.40723" stroke-linecap="round"/>
<path d="M27.9153 62.1345V40.2235C27.9153 39.4463 28.5469 38.8188 29.3238 38.7997C36.296 38.6286 39.7969 37.1055 45.3773 33.0535C45.8829 32.6864 46.5741 32.6894 47.0743 33.0638C52.7547 37.3166 55.3132 38.6726 63.3442 38.8052C64.1213 38.8181 64.756 39.4463 64.756 40.2235V62.1345C64.756 69.8803 56.9032 75.6435 46.7555 79.5851C46.4188 79.7159 46.0377 79.707 45.7054 79.5653C32.3717 73.8779 27.9153 68.8616 27.9153 62.1345Z" fill="url(#paint2_linear)" stroke="#4147D6" stroke-width="1.40723"/>
<mask id="path-15-inside-1" fill="white">
<path fill-rule="evenodd" clip-rule="evenodd" d="M39.97 61.4774C39.8482 61.3733 39.7296 61.2637 39.6144 61.1485L39.6277 61.1352L36.4514 57.9589L40.7856 53.6247L43.9619 56.801L52.4416 48.3213L56.7758 52.6554L48.296 61.1352L48.3095 61.1486L44.9704 64.4877C44.4208 65.0373 43.5298 65.0373 42.9803 64.4877L39.97 61.4774Z"/>
</mask>
<path fill-rule="evenodd" clip-rule="evenodd" d="M39.97 61.4774C39.8482 61.3733 39.7296 61.2637 39.6144 61.1485L39.6277 61.1352L36.4514 57.9589L40.7856 53.6247L43.9619 56.801L52.4416 48.3213L56.7758 52.6554L48.296 61.1352L48.3095 61.1486L44.9704 64.4877C44.4208 65.0373 43.5298 65.0373 42.9803 64.4877L39.97 61.4774Z" fill="white"/>
<path d="M39.6144 61.1485L38.6194 60.1534L37.6243 61.1485L38.6194 62.1436L39.6144 61.1485ZM39.97 61.4774L40.965 60.4824L40.9262 60.4435L40.8845 60.4079L39.97 61.4774ZM39.6277 61.1352L40.6228 62.1303L41.6179 61.1352L40.6228 60.1401L39.6277 61.1352ZM36.4514 57.9589L35.4564 56.9638L34.4613 57.9589L35.4564 58.9539L36.4514 57.9589ZM40.7856 53.6247L41.7806 52.6297L40.7856 51.6346L39.7905 52.6297L40.7856 53.6247ZM43.9619 56.801L42.9668 57.7961L43.9619 58.7912L44.9569 57.7961L43.9619 56.801ZM52.4416 48.3213L53.4367 47.3262L52.4416 46.3312L51.4466 47.3262L52.4416 48.3213ZM56.7758 52.6554L57.7708 53.6505L58.7659 52.6554L57.7708 51.6604L56.7758 52.6554ZM48.296 61.1352L47.301 60.1401L46.3059 61.1352L47.3009 62.1302L48.296 61.1352ZM48.3095 61.1486L49.3045 62.1437L50.2996 61.1487L49.3046 60.1536L48.3095 61.1486ZM44.9704 64.4877L43.9753 63.4927L43.9753 63.4927L44.9704 64.4877ZM42.9803 64.4877L41.9852 65.4828L41.9852 65.4828L42.9803 64.4877ZM38.6194 62.1436C38.7604 62.2846 38.9059 62.4191 39.0554 62.5469L40.8845 60.4079C40.7905 60.3275 40.6988 60.2427 40.6095 60.1534L38.6194 62.1436ZM38.6327 60.1401L38.6194 60.1534L40.6095 62.1436L40.6228 62.1303L38.6327 60.1401ZM40.6228 60.1401L37.4465 56.9638L35.4564 58.9539L38.6327 62.1303L40.6228 60.1401ZM37.4465 58.9539L41.7806 54.6198L39.7905 52.6297L35.4564 56.9638L37.4465 58.9539ZM39.7905 54.6198L42.9668 57.7961L44.9569 55.806L41.7806 52.6297L39.7905 54.6198ZM51.4466 47.3262L42.9668 55.806L44.9569 57.7961L53.4367 49.3164L51.4466 47.3262ZM57.7708 51.6604L53.4367 47.3262L51.4466 49.3164L55.7807 53.6505L57.7708 51.6604ZM49.2911 62.1302L57.7708 53.6505L55.7807 51.6604L47.301 60.1401L49.2911 62.1302ZM47.3009 62.1302L47.3144 62.1437L49.3046 60.1536L49.2911 60.1402L47.3009 62.1302ZM47.3144 60.1536L43.9753 63.4927L45.9655 65.4828L49.3045 62.1437L47.3144 60.1536ZM43.9753 63.4927H43.9753L41.9852 65.4828C43.0843 66.5819 44.8663 66.5819 45.9655 65.4828L43.9753 63.4927ZM43.9753 63.4927L40.965 60.4824L38.9749 62.4725L41.9852 65.4828L43.9753 63.4927Z" fill="#4147D6" mask="url(#path-15-inside-1)"/>
<defs>
<linearGradient id="paint0_linear" x1="57.3104" y1="-6.66065" x2="98.4558" y2="11.4718" gradientUnits="userSpaceOnUse">
<stop stop-color="#E0E1FF"/>
<stop offset="1" stop-color="#C2CCFF"/>
</linearGradient>
<linearGradient id="paint1_linear" x1="28.9026" y1="61.4238" x2="29.6361" y2="76.2697" gradientUnits="userSpaceOnUse">
<stop stop-color="#E0E1FF"/>
<stop offset="1" stop-color="#C2CCFF"/>
</linearGradient>
<linearGradient id="paint2_linear" x1="28.9702" y1="51.9319" x2="66.1125" y2="52.2099" gradientUnits="userSpaceOnUse">
<stop stop-color="#77C4DD"/>
<stop offset="1" stop-color="#74DAC8"/>
</linearGradient>
</defs>
</svg>
