<svg width="58" height="58" viewBox="0 0 58 58" fill="none" xmlns="http://www.w3.org/2000/svg">
<path d="M54.7469 10.3841C54.7469 8.56182 56.1929 7.07818 58 7.01587V5.10743C58 2.80396 56.1327 0.936523 53.8291 0.936523H12.3725C12.3725 2.79841 10.8631 4.30766 9.00121 4.30766C7.13944 4.30766 5.63008 2.79841 5.63008 0.936523H4.14734C1.84377 0.936523 0 2.80385 0 5.10743V44.5518C1.86189 44.5518 3.34757 46.0612 3.34757 47.923C3.34757 49.7849 1.86189 51.2941 0 51.2941V52.893C0 55.1965 1.84377 57.0639 4.14734 57.0639H44.7059C44.7059 55.202 46.2152 53.6926 48.0771 53.6926C49.939 53.6926 51.4483 55.202 51.4483 57.0639H53.8291C56.1327 57.0639 58 55.1965 58 52.893V13.7523C56.1929 13.6898 54.7469 12.2063 54.7469 10.3841Z" fill="#5BB599"/>
<path d="M37.6957 39.6999H21.9706C20.775 39.6999 19.8057 38.7306 19.8057 37.535V21.8099C19.8057 20.6143 20.775 19.645 21.9706 19.645H37.6957C38.8913 19.645 39.8606 20.6143 39.8606 21.8099V37.535C39.8606 38.7306 38.8913 39.6999 37.6957 39.6999Z" fill="#4C9385"/>
<path d="M29.0791 19.0503C28.9249 19.2239 28.8398 19.4478 28.8398 19.68V22.1625H30.7362V20.0402L32.7629 17.7583L31.3451 16.499L29.0791 19.0503Z" fill="#FFDC48"/>
<path d="M33.002 19.6801V22.1627H34.8983V20.6283H45.6737V18.7319H33.9501C33.4264 18.7319 33.002 19.1564 33.002 19.6801Z" fill="#FFDC48"/>
<path d="M24.6776 39.1211L17.4938 48.7545C17.3717 48.9182 17.3057 49.1172 17.3057 49.3213V57.0641H19.2021V49.6359L26.3859 40.0024C26.508 39.8387 26.5739 39.6398 26.5739 39.4357V36.9531H24.6776V39.1211Z" fill="#FFDC48"/>
<path d="M28.8398 39.3363L26.7656 49.1249C26.7519 49.1894 26.745 49.2554 26.745 49.3214V57.0642H28.6413V49.4207L30.7155 39.6322C30.7292 39.5677 30.7361 39.5017 30.7361 39.4357V36.9531H28.8398V39.3363Z" fill="#FFDC48"/>
<path d="M34.8983 39.2212V36.9531H33.002V39.4357C33.002 39.5768 33.0334 39.7162 33.0942 39.8436L37.7138 49.5358V57.0642H39.6101V49.3214C39.6101 49.1803 39.5786 49.0409 39.5179 48.9135L34.8983 39.2212Z" fill="#FFDC48"/>
<path d="M58 24.4478H37.1834V26.3441H58V24.4478Z" fill="#FFDC48"/>
<path d="M58 28.6094H37.1834V30.5057H58V28.6094Z" fill="#FFDC48"/>
<path d="M58 32.7715H37.1834V34.6678H58V32.7715Z" fill="#FFDC48"/>
<path d="M22.3926 26.3436V24.4473H19.9101H0V26.3436H19.9101H22.3926Z" fill="#FFDC48"/>
<path d="M22.3926 30.5061V28.6099H19.9101H0V30.5061H19.9101H22.3926Z" fill="#FFDC48"/>
<path d="M22.3923 32.7715H15.6725V34.6678H22.3923V32.7715Z" fill="#FFDC48"/>
<path d="M24.6776 19.6798V22.1624H26.5739V19.6798V0.936523H24.6776V19.6798Z" fill="#FFDC48"/>
<path d="M34.8984 10.658V0.936523H33.002V10.3562L31.9873 11.7893L30.7362 10.3107V0.936523H28.8398V10.658C28.8398 10.8823 28.9194 11.0992 29.0641 11.2705L31.3301 13.9485C31.5107 14.1619 31.7756 14.2841 32.0539 14.2841C32.0676 14.2841 32.0812 14.2838 32.0949 14.2832C32.3877 14.2705 32.6583 14.1231 32.8278 13.8838L34.7241 11.2059C34.8375 11.0456 34.8984 10.8543 34.8984 10.658Z" fill="#FFDC48"/>
<path d="M42.4422 11.6061H45.6738V9.70982H43.3904V0.936523H41.494V10.658C41.494 11.1816 41.9185 11.6061 42.4422 11.6061Z" fill="#FFDC48"/>
<path d="M17.6008 10.658V0.936523H15.7044V9.70982H10.9005V11.6061H16.6526C17.1763 11.6061 17.6008 11.1816 17.6008 10.658Z" fill="#FFDC48"/>
<path d="M17.4877 19.4738L21.9866 11.1069C22.0608 10.9689 22.0996 10.8146 22.0996 10.6579V0.936523H20.2033V10.4192L16.086 18.0767H10.9005V19.973H16.6526C17.0016 19.973 17.3223 19.7812 17.4877 19.4738Z" fill="#FFDC48"/>
<path d="M33.9501 16.1803H38.4244C38.9481 16.1803 39.3726 15.7559 39.3726 15.2322V0.936523H37.4762V14.284H33.95L33.9501 16.1803Z" fill="#FFDC48"/>
<path d="M46.6219 41.5674V45.9166H48.5183V42.5155H58V40.6191H47.5701C47.0464 40.6194 46.6219 41.0437 46.6219 41.5674Z" fill="#FFDC48"/>
<path d="M58 36.9526H43.6042V38.849H58V36.9526Z" fill="#FFDC48"/>
<path d="M11.8798 32.7715H0V34.6678H11.8798V32.7715Z" fill="#FFDC48"/>
<path d="M9.95291 49.7095H8.05658V57.0641H9.95291V49.7095Z" fill="#FFDC48"/>
<path d="M7.10794 9.70947H0V11.6058H7.10794V9.70947Z" fill="#FFDC48"/>
<path d="M7.10794 18.3701H0V20.2664H7.10794V18.3701Z" fill="#FFDC48"/>
<path d="M14.6774 40.9201L9.04403 36.933C8.88374 36.8197 8.69241 36.7588 8.49621 36.7588H0V38.6551H8.19477L11.1488 40.7458H0V42.6422H14.1297C14.5426 42.6422 14.908 42.3749 15.0332 41.9814C15.1584 41.588 15.0144 41.1586 14.6774 40.9201Z" fill="#FFDC48"/>
<path d="M22.393 28.6094H19.8062V30.5057H22.393V28.6094Z" fill="#FFCE00"/>
<path d="M22.393 24.4478H19.8062V26.3441H22.393V24.4478Z" fill="#FFCE00"/>
<path d="M22.393 32.7715H19.8062V34.6678H22.393V32.7715Z" fill="#FFCE00"/>
<path d="M34.8984 20.628H39.5079C39.1214 20.0369 38.4548 19.6455 37.6958 19.6455H33.0039C33.0034 19.6571 33.0022 19.6683 33.0022 19.6798V22.1624H34.8985L34.8984 20.628Z" fill="#FFCE00"/>
<path d="M26.5736 19.6455H24.6772V22.1626H26.5736V19.6455Z" fill="#FFCE00"/>
<path d="M28.8399 22.1624H30.7362V20.0401L31.0867 19.6455H28.8415C28.841 19.6569 28.8399 19.6684 28.8399 19.6798V22.1624Z" fill="#FFCE00"/>
<path d="M26.574 39.4357V36.9531H24.6777V39.1211L24.2457 39.7003H26.534C26.559 39.6148 26.574 39.526 26.574 39.4357Z" fill="#FFCE00"/>
<path d="M39.8608 24.4478H37.1835V26.3441H39.8608V24.4478Z" fill="#FFCE00"/>
<path d="M39.8608 32.7715H37.1835V34.6678H39.8608V32.7715Z" fill="#FFCE00"/>
<path d="M39.8608 28.6094H37.1835V30.5057H39.8608V28.6094Z" fill="#FFCE00"/>
<path d="M30.7156 39.6322C30.7293 39.5677 30.7362 39.5017 30.7362 39.4357V36.9531H28.8398V39.3363L28.7627 39.7004H30.7011L30.7156 39.6322Z" fill="#FFCE00"/>
<path d="M34.8983 39.2212V36.9531H33.002V39.4357C33.002 39.5256 33.0162 39.6144 33.0412 39.7003H35.1267L34.8983 39.2212Z" fill="#FFCE00"/>
<path d="M35.9284 37.4461H23.7381C22.8112 37.4461 22.0598 36.6948 22.0598 35.7679V23.5777C22.0598 22.6508 22.8112 21.8994 23.7381 21.8994H35.9284C36.8552 21.8994 37.6066 22.6508 37.6066 23.5777V35.768C37.6066 36.6949 36.8552 37.4461 35.9284 37.4461Z" fill="#585A6A"/>
<path d="M35.9284 21.8994H32.5588C33.4857 21.8994 34.2371 22.6508 34.2371 23.5777V35.768C34.2371 36.6948 33.4857 37.4462 32.5588 37.4462H35.9284C36.8553 37.4462 37.6067 36.6948 37.6067 35.768V23.5777C37.6067 22.6508 36.8553 21.8994 35.9284 21.8994Z" fill="#4A4C5F"/>
<path d="M29.8163 33.025C27.9647 33.025 26.4637 31.524 26.4637 29.6724C26.4637 27.8208 27.9647 26.3198 29.8163 26.3198C31.6679 26.3198 33.1689 27.8208 33.1689 29.6724C33.1689 31.524 31.6679 33.025 29.8163 33.025Z" fill="#6DE27B"/>
<path d="M9.00416 13.502C7.43578 13.502 6.15967 12.226 6.15967 10.6575C6.15967 9.08899 7.43567 7.81299 9.00416 7.81299C10.5727 7.81299 11.8487 9.08899 11.8487 10.6575C11.8487 12.226 10.5727 13.502 9.00416 13.502ZM9.00416 9.70943C8.48137 9.70943 8.056 10.1347 8.056 10.6576C8.056 11.1804 8.48125 11.6058 9.00416 11.6058C9.52695 11.6058 9.95232 11.1805 9.95232 10.6576C9.95232 10.1347 9.52707 9.70943 9.00416 9.70943Z" fill="#EDEDED"/>
<path d="M9.00416 21.8687C7.43578 21.8687 6.15967 20.5927 6.15967 19.0242C6.15967 17.4557 7.43567 16.1797 9.00416 16.1797C10.5727 16.1797 11.8487 17.4557 11.8487 19.0242C11.8487 20.5927 10.5727 21.8687 9.00416 21.8687ZM9.00416 18.0761C8.48137 18.0761 8.056 18.5014 8.056 19.0243C8.056 19.5472 8.48125 19.9725 9.00416 19.9725C9.52695 19.9725 9.95232 19.5472 9.95232 19.0243C9.95232 18.5014 9.52707 18.0761 9.00416 18.0761Z" fill="#EDEDED"/>
<path d="M32.054 18.0761C30.4856 18.0761 29.2095 16.8001 29.2095 15.2317C29.2095 13.6633 30.4855 12.3872 32.054 12.3872C33.6224 12.3872 34.8983 13.6632 34.8983 15.2317C34.8983 16.8002 33.6224 18.0761 32.054 18.0761ZM32.054 14.2834C31.5312 14.2834 31.1058 14.7087 31.1058 15.2316C31.1058 15.7544 31.5311 16.1798 32.054 16.1798C32.5768 16.1798 33.0021 15.7545 33.0021 15.2316C33.002 14.7088 32.5768 14.2834 32.054 14.2834Z" fill="#EDEDED"/>
<path d="M47.57 22.5238C46.0016 22.5238 44.7256 21.2478 44.7256 19.6795C44.7256 18.111 46.0016 16.835 47.57 16.835C49.1384 16.835 50.4145 18.111 50.4145 19.6795C50.4144 21.2478 49.1384 22.5238 47.57 22.5238ZM47.57 18.7313C47.0472 18.7313 46.6219 19.1565 46.6219 19.6795C46.6219 20.2022 47.0471 20.6276 47.57 20.6276C48.0928 20.6276 48.5182 20.2024 48.5182 19.6795C48.5181 19.1565 48.0928 18.7313 47.57 18.7313Z" fill="#EDEDED"/>
<path d="M9.00416 50.657C7.43578 50.657 6.15967 49.381 6.15967 47.8126C6.15967 46.2443 7.43567 44.9683 9.00416 44.9683C10.5727 44.9683 11.8487 46.2443 11.8487 47.8126C11.8487 49.381 10.5727 50.657 9.00416 50.657ZM9.00416 46.8645C8.48137 46.8645 8.056 47.2897 8.056 47.8126C8.056 48.3356 8.48125 48.7608 9.00416 48.7608C9.52695 48.7608 9.95232 48.3356 9.95232 47.8126C9.95232 47.2897 9.52707 46.8645 9.00416 46.8645Z" fill="#EDEDED"/>
<path d="M16.0259 44.538C14.4575 44.538 13.1814 43.262 13.1814 41.6936C13.1814 40.1252 14.4574 38.8491 16.0259 38.8491C17.5943 38.8491 18.8703 40.1251 18.8703 41.6936C18.8704 43.262 17.5943 44.538 16.0259 44.538ZM16.0259 40.7454C15.5031 40.7454 15.0777 41.1707 15.0777 41.6936C15.0777 42.2164 15.503 42.6418 16.0259 42.6418C16.5487 42.6418 16.9741 42.2165 16.9741 41.6936C16.9741 41.1707 16.5488 40.7454 16.0259 40.7454Z" fill="#EDEDED"/>
<path d="M47.57 50.657C46.0016 50.657 44.7256 49.381 44.7256 47.8126C44.7256 46.2443 46.0016 44.9683 47.57 44.9683C49.1384 44.9683 50.4145 46.2443 50.4145 47.8126C50.4145 49.381 49.1384 50.657 47.57 50.657ZM47.57 46.8645C47.0472 46.8645 46.6219 47.2897 46.6219 47.8126C46.6219 48.3356 47.0471 48.7608 47.57 48.7608C48.0928 48.7608 48.5182 48.3356 48.5182 47.8126C48.5182 47.2897 48.0928 46.8645 47.57 46.8645Z" fill="#EDEDED"/>
<path d="M41.7083 40.7455C40.1399 40.7455 38.8639 39.4695 38.8639 37.901C38.8639 36.3326 40.1399 35.0566 41.7083 35.0566C43.2766 35.0566 44.5526 36.3326 44.5526 37.901C44.5526 39.4694 43.2766 40.7455 41.7083 40.7455ZM41.7083 36.9529C41.1855 36.9529 40.7601 37.3781 40.7601 37.901C40.7601 38.4238 41.1854 38.8492 41.7083 38.8492C42.2312 38.8492 42.6564 38.4239 42.6564 37.901C42.6564 37.3782 42.2311 36.9529 41.7083 36.9529Z" fill="#EDEDED"/>
<path d="M13.7766 36.5639C12.2082 36.5639 10.9321 35.2879 10.9321 33.7195C10.9321 32.1511 12.2081 30.875 13.7766 30.875C15.3449 30.875 16.6209 32.151 16.6209 33.7195C16.6209 35.2879 15.3449 36.5639 13.7766 36.5639ZM13.7766 32.7713C13.2538 32.7713 12.8284 33.1966 12.8284 33.7195C12.8284 34.2423 13.2537 34.6677 13.7766 34.6677C14.2994 34.6677 14.7247 34.2424 14.7247 33.7195C14.7246 33.1966 14.2994 32.7713 13.7766 32.7713Z" fill="#EDEDED"/>
<path d="M47.57 13.502C46.0016 13.502 44.7256 12.226 44.7256 10.6575C44.7256 9.08899 46.0016 7.81299 47.57 7.81299C49.1384 7.81299 50.4145 9.08899 50.4145 10.6575C50.4145 12.226 49.1384 13.502 47.57 13.502ZM47.57 9.70943C47.0472 9.70943 46.6219 10.1347 46.6219 10.6576C46.6219 11.1804 47.0471 11.6058 47.57 11.6058C48.0928 11.6058 48.5182 11.1805 48.5182 10.6576C48.5181 10.1347 48.0928 9.70943 47.57 9.70943Z" fill="#EDEDED"/>
</svg>
