<svg width="512" height="512" viewBox="0 0 512 512" fill="none" xmlns="http://www.w3.org/2000/svg">
<g clip-path="url(#clip0)">
<circle cx="251" cy="70" r="50" fill="#1565D8"/>
<path d="M74.8365 232.363C70.8806 242.914 73.9695 254.817 82.5646 262.108C98.8487 278.404 132.338 337.229 148.915 378.682C160.228 406.954 185.069 434.704 203.914 453.01C212.025 460.992 216.578 471.903 216.555 483.286V486.407C216.555 500.543 228.012 512 242.149 512H378.638C392.775 512 404.232 500.543 404.232 486.407V460.2C404.154 458.032 404.978 455.928 406.509 454.393C437.995 425.601 438.355 377.537 438.355 375.507V240.458C438.671 222.19 424.898 206.746 406.716 204.981C399.882 204.531 393.072 206.152 387.171 209.628V196.362C387.241 184.069 380.657 172.701 369.958 166.645C359.262 160.588 346.125 160.791 335.62 167.18C334.527 155.671 327.615 145.526 317.309 140.297C307 135.068 294.734 135.478 284.8 141.391V127.262C305.973 115.246 319.016 92.7452 318.926 68.4011C318.926 30.7094 288.369 0.15625 250.677 0.15625C212.986 0.15625 182.433 30.7094 182.433 68.4011C182.343 92.7452 195.386 115.246 216.555 127.262V264.607C216.797 274.678 215.426 284.718 212.494 294.356C211.58 297.202 209.249 299.374 206.343 300.088C203.61 300.78 200.712 300.018 198.666 298.073C192.004 291.72 186.084 284.628 181.027 276.935C166.223 254.79 128.972 213.423 105.655 213.423C92.5576 213.15 80.5105 220.554 74.8365 232.363ZM199.494 68.4011C199.494 40.1324 222.409 17.2175 250.677 17.2175C278.946 17.2175 301.861 40.1324 301.861 68.4011C301.943 82.9982 295.726 96.9197 284.8 106.604V68.4011C284.8 49.5553 269.523 34.2787 250.677 34.2787C231.832 34.2787 216.555 49.5553 216.555 68.4011V106.604C205.633 96.9197 199.412 82.9982 199.494 68.4011ZM166.805 286.405C172.588 295.176 179.352 303.259 186.962 310.503C193.238 316.439 202.114 318.755 210.49 316.638C219.027 314.51 225.88 308.16 228.661 299.815C232.191 288.42 233.866 276.533 233.616 264.607V68.4011C233.616 58.9782 241.255 51.3399 250.677 51.3399C260.1 51.3399 267.739 58.9782 267.739 68.4011V247.546C267.739 252.259 271.558 256.078 276.271 256.078C280.981 256.078 284.8 252.259 284.8 247.546V170.772C284.8 161.349 292.442 153.711 301.861 153.711C311.284 153.711 318.926 161.349 318.926 170.772V247.546C318.926 252.259 322.745 256.078 327.455 256.078C332.168 256.078 335.987 252.259 335.987 247.546V196.362C335.987 186.939 343.626 179.301 353.049 179.301C362.471 179.301 370.11 186.939 370.11 196.362V256.078C370.11 260.788 373.929 264.607 378.638 264.607C383.352 264.607 387.171 260.788 387.171 256.078V239.017C387.159 234.491 388.963 230.149 392.177 226.962C395.696 223.475 400.542 221.667 405.486 221.999C414.702 223.202 421.52 231.168 421.293 240.458V375.507C421.293 375.925 420.86 418.162 394.985 441.811C389.928 446.579 387.093 453.249 387.171 460.2V486.407C387.171 491.12 383.352 494.939 378.638 494.939H242.149C237.435 494.939 233.616 491.12 233.616 486.407V483.286C233.628 467.295 227.204 451.972 215.797 440.768C201.345 426.737 175.497 399.171 164.766 372.336C147.209 328.47 112.473 267.891 94.6273 250.045C90.5661 245.988 89.2071 242.231 90.5895 238.888C93.6823 233.53 99.4696 230.301 105.655 230.485C117.249 230.485 148.685 259.226 166.805 286.405Z" fill="black"/>
<path d="M395.7 366.978C400.413 366.978 404.232 363.159 404.232 358.445V307.262C404.232 302.552 400.413 298.733 395.7 298.733C390.99 298.733 387.171 302.552 387.171 307.262V358.445C387.171 363.159 390.99 366.978 395.7 366.978V366.978Z" fill="black"/>
<path d="M387.171 418.162C389.432 418.162 391.603 417.264 393.2 415.662C399.691 409.656 403.639 401.393 404.232 392.568C404.224 387.96 400.515 384.215 395.907 384.16C391.248 384.07 387.37 387.718 387.171 392.373C386.531 396.703 384.398 400.675 381.138 403.6C378.701 406.04 377.971 409.707 379.291 412.894C380.611 416.084 383.719 418.162 387.171 418.162V418.162Z" fill="black"/>
<path d="M259.21 477.878H267.739C272.452 477.878 276.271 474.059 276.271 469.345C276.271 464.636 272.452 460.817 267.739 460.817H259.21C254.497 460.817 250.677 464.636 250.677 469.345C250.677 474.059 254.497 477.878 259.21 477.878Z" fill="black"/>
<path d="M301.861 477.878H361.577C366.291 477.878 370.11 474.059 370.11 469.345C370.11 464.636 366.291 460.817 361.577 460.817H301.861C297.152 460.817 293.332 464.636 293.332 469.345C293.332 474.059 297.152 477.878 301.861 477.878Z" fill="black"/>
<path d="M182.433 141.246C185.838 141.246 188.915 139.227 190.266 136.103C191.617 132.979 190.985 129.351 188.653 126.871C159.096 95.631 157.491 47.2512 184.916 14.1207C186.943 11.7816 187.544 8.52865 186.49 5.61938C185.432 2.71011 182.882 0.601372 179.824 0.109335C176.766 -0.382702 173.685 0.820056 171.768 3.25291C138.872 43.0064 140.777 101.051 176.216 138.559C177.828 140.274 180.078 141.246 182.433 141.246Z" fill="black"/>
<path d="M330.298 118.647C332.309 119.678 334.652 119.87 336.804 119.175C338.959 118.48 340.748 116.96 341.779 114.945C360.429 78.6284 355.634 34.6886 329.587 3.25291C327.674 0.820056 324.589 -0.382702 321.531 0.109335C318.477 0.601372 315.927 2.71011 314.869 5.61938C313.811 8.52865 314.412 11.7816 316.443 14.1207C338.147 40.308 342.142 76.9141 326.604 107.167C324.452 111.357 326.108 116.496 330.298 118.647Z" fill="black"/>
</g>
<defs>
<clipPath id="clip0">
<rect width="512" height="512" fill="white"/>
</clipPath>
</defs>
</svg>
