<svg width="365" height="512" viewBox="0 0 365 512" fill="none" xmlns="http://www.w3.org/2000/svg">
<g clip-path="url(#clip0)">
<path d="M178 120C205.614 120 228 97.6142 228 70C228 42.3858 205.614 20 178 20C150.386 20 128 42.3858 128 70C128 97.6142 150.386 120 178 120Z" fill="#76CCD6"/>
<path d="M1.83652 232.363C-2.11938 242.914 0.969518 254.817 9.56462 262.108C25.8487 278.404 59.338 337.229 75.915 378.682C87.228 406.954 112.069 434.704 130.914 453.01C139.025 460.992 143.578 471.903 143.555 483.286V486.407C143.555 500.543 155.012 512 169.149 512H305.638C319.775 512 331.232 500.543 331.232 486.407V460.2C331.154 458.032 331.978 455.928 333.509 454.393C364.995 425.601 365.355 377.537 365.355 375.507V240.458C365.671 222.19 351.898 206.746 333.716 204.981C326.882 204.531 320.072 206.152 314.171 209.628V196.362C314.241 184.069 307.657 172.701 296.958 166.645C286.262 160.588 273.125 160.791 262.62 167.18C261.527 155.671 254.615 145.526 244.309 140.297C234 135.068 221.734 135.478 211.8 141.391V127.262C232.973 115.246 246.016 92.7452 245.926 68.4011C245.926 30.7094 215.369 0.15625 177.677 0.15625C139.986 0.15625 109.433 30.7094 109.433 68.4011C109.343 92.7452 122.386 115.246 143.555 127.262V264.607C143.797 274.678 142.426 284.718 139.494 294.356C138.58 297.202 136.249 299.374 133.343 300.088C130.61 300.78 127.712 300.018 125.666 298.073C119.004 291.72 113.084 284.628 108.027 276.935C93.223 254.79 55.972 213.423 32.655 213.423C19.5576 213.15 7.51052 220.554 1.83652 232.363ZM126.494 68.4011C126.494 40.1324 149.409 17.2175 177.677 17.2175C205.946 17.2175 228.861 40.1324 228.861 68.4011C228.943 82.9982 222.726 96.9197 211.8 106.604V68.4011C211.8 49.5553 196.523 34.2787 177.677 34.2787C158.832 34.2787 143.555 49.5553 143.555 68.4011V106.604C132.633 96.9197 126.412 82.9982 126.494 68.4011ZM93.805 286.405C99.588 295.176 106.352 303.259 113.962 310.503C120.238 316.439 129.114 318.755 137.49 316.638C146.027 314.51 152.88 308.16 155.661 299.815C159.191 288.42 160.866 276.533 160.616 264.607V68.4011C160.616 58.9782 168.255 51.3399 177.677 51.3399C187.1 51.3399 194.739 58.9782 194.739 68.4011V247.546C194.739 252.259 198.558 256.078 203.271 256.078C207.981 256.078 211.8 252.259 211.8 247.546V170.772C211.8 161.349 219.442 153.711 228.861 153.711C238.284 153.711 245.926 161.349 245.926 170.772V247.546C245.926 252.259 249.745 256.078 254.455 256.078C259.168 256.078 262.987 252.259 262.987 247.546V196.362C262.987 186.939 270.626 179.301 280.049 179.301C289.471 179.301 297.11 186.939 297.11 196.362V256.078C297.11 260.788 300.929 264.607 305.638 264.607C310.352 264.607 314.171 260.788 314.171 256.078V239.017C314.159 234.491 315.963 230.149 319.177 226.962C322.696 223.475 327.542 221.667 332.486 221.999C341.702 223.202 348.52 231.168 348.293 240.458V375.507C348.293 375.925 347.86 418.162 321.985 441.811C316.928 446.579 314.093 453.249 314.171 460.2V486.407C314.171 491.12 310.352 494.939 305.638 494.939H169.149C164.435 494.939 160.616 491.12 160.616 486.407V483.286C160.628 467.295 154.204 451.972 142.797 440.768C128.345 426.737 102.497 399.171 91.766 372.336C74.209 328.47 39.473 267.891 21.6273 250.045C17.5661 245.988 16.2071 242.231 17.5895 238.888C20.6823 233.53 26.4696 230.301 32.655 230.485C44.249 230.485 75.685 259.226 93.805 286.405Z" fill="#4147D6"/>
<path d="M322.7 366.978C327.413 366.978 331.232 363.159 331.232 358.445V307.262C331.232 302.552 327.413 298.733 322.7 298.733C317.99 298.733 314.171 302.552 314.171 307.262V358.445C314.171 363.159 317.99 366.978 322.7 366.978Z" fill="#4147D6"/>
<path d="M314.171 418.163C316.432 418.163 318.603 417.265 320.2 415.663C326.691 409.657 330.639 401.394 331.232 392.569C331.224 387.961 327.515 384.216 322.907 384.161C318.248 384.071 314.37 387.719 314.171 392.374C313.531 396.704 311.398 400.676 308.138 403.601C305.701 406.041 304.971 409.708 306.291 412.895C307.611 416.085 310.719 418.163 314.171 418.163Z" fill="#4147D6"/>
<path d="M186.21 477.878H194.739C199.452 477.878 203.271 474.059 203.271 469.345C203.271 464.636 199.452 460.817 194.739 460.817H186.21C181.497 460.817 177.677 464.636 177.677 469.345C177.677 474.059 181.497 477.878 186.21 477.878Z" fill="#4147D6"/>
<path d="M228.861 477.878H288.577C293.291 477.878 297.11 474.059 297.11 469.345C297.11 464.636 293.291 460.817 288.577 460.817H228.861C224.152 460.817 220.332 464.636 220.332 469.345C220.332 474.059 224.152 477.878 228.861 477.878Z" fill="#4147D6"/>
<path d="M109.433 141.246C112.838 141.246 115.915 139.227 117.266 136.103C118.617 132.979 117.985 129.351 115.653 126.871C86.096 95.6313 84.491 47.2515 111.916 14.121C113.943 11.7819 114.544 8.5289 113.49 5.61963C112.432 2.71036 109.882 0.601616 106.824 0.109579C103.766 -0.382458 100.685 0.8203 98.768 3.25316C65.872 43.0067 67.777 101.051 103.216 138.559C104.828 140.274 107.078 141.246 109.433 141.246Z" fill="#4147D6"/>
<path d="M257.298 118.647C259.309 119.678 261.652 119.87 263.804 119.175C265.959 118.48 267.748 116.96 268.779 114.945C287.429 78.6287 282.634 34.6889 256.587 3.25316C254.674 0.8203 251.589 -0.382458 248.531 0.109579C245.477 0.601616 242.927 2.71036 241.869 5.61963C240.811 8.5289 241.412 11.7819 243.443 14.121C265.147 40.3083 269.142 76.9144 253.604 107.167C251.452 111.357 253.108 116.496 257.298 118.647Z" fill="#4147D6"/>
</g>
<defs>
<clipPath id="clip0">
<rect width="365" height="512" fill="white"/>
</clipPath>
</defs>
</svg>
