<svg width="56" height="42" viewBox="0 0 56 42" fill="none" xmlns="http://www.w3.org/2000/svg">
<path d="M45.556 6.4458H8.92976C6.75182 6.4458 4.97949 8.2023 4.97949 10.3608V33.1398C4.97949 35.299 6.75182 37.0556 8.92976 37.0556H45.556C47.7332 37.0556 49.5071 35.299 49.5071 33.1398V10.3608C49.5071 8.2023 47.7332 6.4458 45.556 6.4458ZM8.92976 8.5818H45.556C46.5466 8.5818 47.3518 9.37905 47.3518 10.3608V14.2766H7.13398V10.3608C7.13398 9.37905 7.93992 8.5818 8.92976 8.5818ZM45.556 34.9196H8.92976C7.93917 34.9196 7.13398 34.1215 7.13398 33.1398V20.3268H47.3518V33.139C47.3518 34.1208 46.5466 34.9196 45.556 34.9196Z" fill="#76CBD7"/>
<path d="M32.1486 29.8174H11.558V31.9534H32.1486V29.8174Z" fill="#76CBD7"/>
<path d="M42.9278 29.8174H35.0204V31.9534H42.9278V29.8174Z" fill="#76CBD7"/>
</svg>
