<svg width="11" height="11" viewBox="0 0 11 11" fill="none" xmlns="http://www.w3.org/2000/svg">
<path fill-rule="evenodd" clip-rule="evenodd" d="M0 1C0 0.418605 0.409639 0 1 0C1.59036 0 2 0.418605 2 1C2 1.5814 1.59036 2 1 2C0.409639 2 0 1.5814 0 1ZM0 11V3H2V11H0ZM4 3.08824V11H6.00745V7.10294C6.00745 5.94118 6.60708 5.08824 7.6108 5.07353C8.47114 5.07353 8.99255 5.69118 8.99255 6.69118V11H11V6.02941C11 4.17647 9.99628 3 8.43203 3C7.33706 3.01471 6.50279 3.48529 6.00745 4.47059V3.08824H4Z" fill="white"/>
</svg>
