<svg width="27" height="48" viewBox="0 0 27 48" fill="none" xmlns="http://www.w3.org/2000/svg">
<path fill-rule="evenodd" clip-rule="evenodd" d="M25.1725 27.1346V32.1698H1.10178C1.10178 30.4914 1.10178 28.813 1.10178 27.1346H25.1725ZM10.1772 8.06186L11.6115 7.91958C11.7287 8.56815 12.0088 9.00299 12.506 9.19701V7.16877C11.4394 6.86573 10.4511 6.33234 10.4511 5.04936C10.4511 3.81197 11.4264 3.21267 12.506 3.05684V2.23212H13.7689V3.05931C14.9373 3.22437 15.8355 3.86371 15.8843 5.23907L14.4086 5.28957C14.3235 4.77959 14.1156 4.48579 13.7689 4.3429V5.96648C15.036 6.29169 16.0971 6.77088 16.0971 8.30207C16.0971 9.73841 14.9934 10.3704 13.7689 10.5163V11.3324H12.506V10.5065C11.1902 10.3242 10.3561 9.56657 10.1772 8.06186ZM13.7689 9.23951C14.2229 9.1194 14.6221 8.83916 14.6221 8.31131C14.6221 7.87092 14.2235 7.63441 13.7689 7.48412V9.23951ZM12.506 4.30409C12.1643 4.39402 11.8546 4.58311 11.8546 4.95082C11.8546 5.27664 12.1544 5.48606 12.506 5.6271V4.30409ZM13.1371 0C16.8892 0 19.93 3.03713 19.93 6.78258C19.93 10.2367 17.3248 13.1445 13.891 13.5233V25.8707H12.3833V13.5233C8.94954 13.1445 6.34431 10.2367 6.34431 6.78258C6.34431 3.03713 9.38631 0 13.1371 0ZM13.1371 1.50656C10.2179 1.50656 7.85205 3.86802 7.85205 6.78258C7.85205 9.69653 10.2179 12.0592 13.1371 12.0592C16.0564 12.0592 18.4222 9.69653 18.4222 6.78258C18.4222 3.86802 16.0564 1.50656 13.1371 1.50656ZM10.0643 16.4231C7.95076 14.2593 1.62431 15.3901 0.192454 17.0458C-0.0944103 17.3777 -0.0703513 17.7916 0.330642 18.0128C0.721148 18.2283 1.68168 18.3435 2.14869 18.4846C2.9223 18.7174 3.39053 19.0426 3.89455 19.6536C5.56392 21.672 6.18268 22.886 9.16916 22.1062C9.7725 21.9491 10.3783 21.7176 10.9817 21.5143C10.3598 20.9304 9.62136 20.3397 8.72745 19.8026C7.19997 18.8861 5.21475 18.1267 4.2246 17.7491C3.23445 17.3716 3.23692 17.3759 4.10492 17.4892C4.97168 17.6038 6.70459 17.8268 8.28883 18.4636C9.37336 18.8978 10.3888 19.5279 11.2821 20.2018C11.1766 18.8529 10.9286 17.3081 10.0643 16.4231ZM16.21 16.4231C18.3248 14.2593 24.65 15.3901 26.0825 17.0458C26.3687 17.3777 26.3446 17.7916 25.943 18.0128C25.5531 18.2277 24.5926 18.3435 24.1256 18.4846C23.352 18.7174 22.8844 19.0426 22.3797 19.6536C20.7104 21.672 20.0916 22.886 17.1051 22.1062C16.5018 21.9491 15.896 21.7176 15.2939 21.5143C15.9145 20.9298 16.6529 20.3397 17.5468 19.8026C19.0749 18.8861 21.0595 18.1267 22.0497 17.7491C23.0411 17.3716 23.0374 17.3759 22.17 17.4892C21.3014 17.6038 19.5697 17.8268 17.9849 18.4636C16.9009 18.8978 15.8855 19.5279 14.9928 20.2018C15.0983 18.8529 15.3457 17.3081 16.21 16.4231ZM23.0022 30.6996L23.5198 28.6048H21.6129L21.1071 30.6996H23.0022ZM24.0596 33.196L20.7992 47.3734C15.6912 47.3734 10.5831 47.3734 5.47508 47.3734L2.2147 33.196C9.49612 33.196 16.7782 33.196 24.0596 33.196ZM17.9916 45.9031H19.6295L22.2138 34.6656H20.2002L17.9916 45.9031Z" fill="#76CBD7"/>
</svg>
