<svg width="68" height="68" viewBox="0 0 68 68" fill="none" xmlns="http://www.w3.org/2000/svg">
<g clip-path="url(#clip0)">
<path d="M63.4036 55.3119C63.4036 68.6474 50.2867 67.8823 34 67.8823C17.7132 67.8823 4.59634 68.5381 4.59634 55.3119C4.59634 41.9765 17.7132 19.7871 34 19.7871C50.2867 19.8964 63.4036 42.0858 63.4036 55.3119Z" fill="#F2B233"/>
<path d="M34 19.8965C50.2868 19.8965 63.4037 42.0858 63.4037 55.4213C63.4037 68.7568 50.2868 67.9916 34 67.9916" fill="#DD981D"/>
<path d="M19.6808 6.124C19.6808 -0.325128 26.1299 0.00279413 34 0.00279413C41.8701 0.00279413 48.3193 -0.325128 48.3193 6.124C48.3193 12.5731 41.8701 23.3945 34 23.3945C26.1299 23.3945 19.6808 12.5731 19.6808 6.124Z" fill="#F2B233"/>
<path d="M34 0.00279413C41.8702 0.00279413 48.3193 -0.325128 48.3193 6.124C48.3193 12.5731 41.8702 23.3945 34 23.3945" fill="#DD981D"/>
<path d="M46.5703 21.099C46.5703 22.1921 45.6959 23.0666 44.6028 23.0666H23.3972C22.3041 23.0666 21.4297 22.1921 21.4297 21.099V20.5525C21.4297 19.4594 22.3041 18.585 23.3972 18.585H44.7121C45.8052 18.585 46.6797 19.4594 46.6797 20.5525V21.099H46.5703Z" fill="#04AF76"/>
<path d="M23.0693 18.6943H44.7121C45.8052 18.6943 46.6797 19.5688 46.6797 20.6619V21.2084C46.6797 22.3015 45.5866 23.1759 44.4935 23.1759" fill="#008C61"/>
<path d="M34 59.4657C41.2443 59.4657 47.1169 53.593 47.1169 46.3488C47.1169 39.1046 41.2443 33.2319 34 33.2319C26.7558 33.2319 20.8831 39.1046 20.8831 46.3488C20.8831 53.593 26.7558 59.4657 34 59.4657Z" fill="#04AF76"/>
<path d="M24.7089 37.0577C29.8464 31.9202 38.1537 31.9202 43.2911 37.0577C48.4286 42.1951 48.4286 50.5025 43.2911 55.6399" fill="#008C61"/>
<path d="M32.907 56.9515V54.2188C30.7208 54.1095 29.5184 53.6723 28.5347 53.1257L29.1905 50.1744C30.2836 50.721 31.7046 51.2675 33.3442 51.2675C34.7652 51.2675 35.7489 50.721 35.7489 49.7372C35.7489 48.7534 34.9838 48.2069 33.0163 47.5511C30.2836 46.6766 28.5347 45.3649 28.5347 42.9602C28.5347 40.774 29.5184 39.0251 32.7976 38.4786V36.1831H34.9838V38.3692C37.1699 38.4786 37.9351 38.8065 38.7002 39.2437L38.0444 42.0857C37.3885 41.7578 36.2955 41.2112 34.4373 41.2112C32.7976 41.2112 32.2511 41.8671 32.2511 42.6322C32.2511 43.5067 33.1256 43.9439 35.3117 44.8184C38.263 45.9114 39.4654 47.2231 39.4654 49.5186C39.4654 51.814 38.263 53.6723 34.9838 54.2188V56.9515H32.907Z" fill="#FFF6E1"/>
<path d="M34 36.1831V41.2112C34 41.2112 34.328 41.2112 34.5466 41.2112C36.4048 41.2112 37.4979 41.7578 38.1537 42.0857L38.8095 39.2437C37.9351 38.8065 37.2792 38.3692 35.0931 38.3692V36.1831H34Z" fill="#FFEEBD"/>
<path d="M35.421 44.7091C34.8745 44.4905 34.328 44.2719 34 44.1626V47.879C35.0931 48.4256 35.7489 48.9721 35.7489 49.7373C35.7489 50.6117 35.0931 51.049 34 51.2676V56.9515H35.0931V54.1095C38.3723 53.563 39.5747 51.7048 39.5747 49.4093C39.5747 47.1139 38.3723 45.8022 35.421 44.7091Z" fill="#FFEEBD"/>
</g>
<defs>
<clipPath id="clip0">
<rect width="68" height="68" fill="white"/>
</clipPath>
</defs>
</svg>
