<svg width="512" height="512" viewBox="0 0 512 512" fill="none" xmlns="http://www.w3.org/2000/svg">
<path d="M212.01 228C257.297 228 294.01 191.287 294.01 146C294.01 100.713 257.297 64 212.01 64C166.723 64 130.01 100.713 130.01 146C130.01 191.287 166.723 228 212.01 228Z" fill="#76CCD6"/>
<path d="M238.007 135.5V142C238.007 156.359 226.366 168 212.007 168C197.648 168 186.007 156.359 186.007 142V135.5C186.007 121.141 197.648 109.5 212.007 109.5C226.366 109.5 238.007 121.141 238.007 135.5Z" fill="#4147D6"/>
<path d="M212.007 168C186.627 168 164.943 183.767 156.175 206.033C170.815 219.655 190.432 228 212.007 228C233.582 228 253.199 219.655 267.839 206.033C259.071 183.767 237.387 168 212.007 168Z" fill="#A5DDFF"/>
<path d="M436.574 160.59L442.288 150.693C451.125 135.388 470.695 130.144 486.001 138.98C501.306 147.817 506.55 167.387 497.714 182.693L371.873 400.656L316.447 368.656L370.729 274.636L436.574 160.59Z" fill="#4147D6"/>
<path d="M486.002 138.98C470.697 130.143 451.126 135.387 442.289 150.693L427.432 176.426L482.858 208.426L497.715 182.693C506.551 167.388 501.307 147.817 486.002 138.98Z" fill="#76CCD6"/>
<path d="M371.873 400.656L307.589 448L316.447 368.656L371.873 400.656Z" fill="#9AD8FF"/>
<path d="M414.007 398.328C408.485 398.328 404.007 402.805 404.007 408.328V482C404.007 487.514 399.521 492 394.007 492H30.0071C24.4931 492 20.0071 487.514 20.0071 482V30C20.0071 24.486 24.4931 20 30.0071 20H394.007C399.521 20 404.007 24.486 404.007 30V138.75C404.007 144.273 408.485 148.75 414.007 148.75C419.529 148.75 424.007 144.273 424.007 138.75V30C424.007 13.458 410.549 0 394.007 0H30.0071C13.4651 0 0.00708008 13.458 0.00708008 30V482C0.00708008 498.542 13.4651 512 30.0071 512H394.007C410.549 512 424.007 498.542 424.007 482V408.328C424.007 402.805 419.529 398.328 414.007 398.328Z" fill="#4147D6"/>
<path d="M304.007 146C304.007 95.271 262.736 54 212.007 54C161.278 54 120.007 95.271 120.007 146C120.007 172.317 131.117 196.085 148.889 212.869C149.222 213.225 149.576 213.562 149.963 213.869C166.334 228.848 188.121 237.999 212.006 237.999C235.891 237.999 257.678 228.847 274.049 213.869C274.436 213.562 274.79 213.224 275.123 212.869C292.897 196.085 304.007 172.317 304.007 146ZM212.007 74C251.708 74 284.007 106.299 284.007 146C284.007 161.967 278.776 176.73 269.947 188.683C262.572 177.745 252.351 169.238 240.484 163.986C245.194 157.899 248.007 150.274 248.007 142V135.5C248.007 115.649 231.858 99.5 212.007 99.5C192.156 99.5 176.007 115.649 176.007 135.5V142C176.007 150.274 178.82 157.899 183.53 163.986C171.663 169.238 161.442 177.745 154.067 188.683C145.238 176.73 140.007 161.967 140.007 146C140.007 106.299 172.306 74 212.007 74ZM196.007 142V135.5C196.007 126.678 203.185 119.5 212.007 119.5C220.829 119.5 228.007 126.678 228.007 135.5V142C228.007 150.822 220.829 158 212.007 158C203.185 158 196.007 150.822 196.007 142ZM168.516 203.332C177.305 187.747 193.706 178 212.007 178C230.308 178 246.709 187.747 255.498 203.332C243.405 212.528 228.336 218 212.007 218C195.678 218 180.608 212.528 168.516 203.332Z" fill="#4147D6"/>
<path d="M266.007 438H212.007C206.485 438 202.007 442.477 202.007 448C202.007 453.523 206.485 458 212.007 458H266.007C271.529 458 276.007 453.523 276.007 448C276.007 442.477 271.529 438 266.007 438Z" fill="#4147D6"/>
<path d="M266.007 382H124.007C118.485 382 114.007 386.477 114.007 392C114.007 397.523 118.485 402 124.007 402H266.007C271.529 402 276.007 397.523 276.007 392C276.007 386.477 271.529 382 266.007 382Z" fill="#4147D6"/>
<path d="M266.007 326H124.007C118.485 326 114.007 330.477 114.007 336C114.007 341.523 118.485 346 124.007 346H266.007C271.529 346 276.007 341.523 276.007 336C276.007 330.477 271.529 326 266.007 326Z" fill="#4147D6"/>
<path d="M88.3661 272.93C86.5071 271.07 83.9271 270 81.2871 270C78.6561 270 76.0761 271.07 74.2171 272.93C72.3571 274.79 71.2871 277.37 71.2871 280C71.2871 282.63 72.3561 285.21 74.2171 287.07C76.0871 288.93 78.6561 290 81.2871 290C83.9271 290 86.4971 288.93 88.3661 287.07C90.2261 285.21 91.2971 282.63 91.2971 280C91.2971 277.37 90.2271 274.79 88.3661 272.93Z" fill="#4147D6"/>
<path d="M88.3661 328.93C86.4971 327.07 83.9271 326 81.2871 326C78.6561 326 76.0871 327.07 74.2171 328.93C72.3571 330.79 71.2871 333.37 71.2871 336C71.2871 338.63 72.3561 341.21 74.2171 343.07C76.0871 344.93 78.6561 346 81.2871 346C83.9271 346 86.4971 344.93 88.3661 343.07C90.2261 341.21 91.2971 338.63 91.2971 336C91.2971 333.37 90.2271 330.79 88.3661 328.93Z" fill="#4147D6"/>
<path d="M81.2871 382C78.6561 382 76.0871 383.07 74.2171 384.93C72.3571 386.79 71.2871 389.37 71.2871 392C71.2871 394.63 72.3561 397.21 74.2171 399.07C76.0761 400.93 78.6561 402 81.2871 402C83.9271 402 86.5071 400.93 88.3661 399.07C90.2261 397.21 91.2971 394.63 91.2971 392C91.2971 389.37 90.2271 386.79 88.3661 384.93C86.4971 383.07 83.9271 382 81.2871 382Z" fill="#4147D6"/>
<path d="M266.007 270H124.007C118.485 270 114.007 274.477 114.007 280C114.007 285.523 118.485 290 124.007 290H266.007C271.529 290 276.007 285.523 276.007 280C276.007 274.477 271.529 270 266.007 270Z" fill="#4147D6"/>
<path d="M491.002 130.32C481.287 124.711 469.969 123.221 459.131 126.124C448.295 129.028 439.237 135.978 433.629 145.693L307.787 363.656C307.098 364.851 306.662 366.176 306.509 367.547L297.651 446.891C297.211 450.839 299.149 454.674 302.589 456.661C304.142 457.557 305.867 458.001 307.588 458.001C309.68 458.001 311.764 457.346 313.519 456.053L377.803 408.709C378.914 407.891 379.844 406.852 380.533 405.657L506.374 187.694C517.954 167.638 511.058 141.9 491.002 130.32ZM324.689 384.962L353.631 401.672L320.063 426.394L324.689 384.962ZM368.213 386.996L330.108 364.996L431.093 190.086L469.198 212.086L418.706 299.541L368.213 386.996ZM489.054 177.693L479.197 194.766L441.092 172.766L450.949 155.693C453.887 150.604 458.631 146.964 464.307 145.443C469.985 143.921 475.913 144.703 481.001 147.641C486.09 150.579 489.73 155.323 491.251 160.999C492.772 166.675 491.992 172.604 489.054 177.693Z" fill="#4147D6"/>
</svg>
