<svg width="512" height="512" viewBox="0 0 512 512" fill="none" xmlns="http://www.w3.org/2000/svg">
<g clip-path="url(#clip0)">
<path d="M44.553 33.4609V289.422H233.741V211.521H278.256V289.422H467.445V33.4609H44.553Z" fill="#76CCD6"/>
<path d="M255.954 167.04C298.978 167.04 333.855 132.162 333.855 89.1383C333.855 46.1148 298.978 11.2373 255.954 11.2373C212.93 11.2373 178.053 46.1148 178.053 89.1383C178.053 132.162 212.93 167.04 255.954 167.04Z" fill="#4147D6"/>
<path d="M479.686 0.0751953H333.9V22.3322H479.687C485.218 22.3322 489.703 26.8172 489.703 32.3482V346.179C489.703 351.71 485.218 356.195 479.687 356.195H32.311C26.78 356.195 22.295 351.71 22.295 346.179V32.3482C22.295 26.8172 26.78 22.3322 32.311 22.3322H178.098V0.0751953H32.311C14.483 0.0751953 0.0379639 14.5202 0.0379639 32.3482V346.179C0.0379639 364.007 14.483 378.452 32.311 378.452H178.098V445.224H166.969C160.826 445.224 155.84 450.21 155.84 456.353V489.739H122.454V511.996H389.544V489.74H356.158V456.354C356.158 450.211 351.172 445.225 345.029 445.225H333.9V378.453H479.686C497.514 378.453 511.959 364.008 511.959 346.18V32.3482C511.96 14.5202 497.503 0.0751953 479.686 0.0751953ZM178.097 489.74V467.483H333.9V489.74H178.097ZM311.642 445.225H200.355V378.453H311.642V445.225Z" fill="#4147D6"/>
<path d="M478.529 278.327H311.598V300.584H478.529V278.327Z" fill="#4147D6"/>
<path d="M200.31 278.327H33.379V300.584H200.31V278.327Z" fill="#4147D6"/>
<path d="M467.445 256.036V44.5899C467.445 38.4469 462.459 33.4609 456.316 33.4609H356.157V55.7179H445.187V256.035H467.445V256.036Z" fill="#4147D6"/>
<path d="M155.84 55.7189V33.4609H55.681C49.538 33.4609 44.552 38.4469 44.552 44.5899V256.036H66.81V55.7189H155.84Z" fill="#4147D6"/>
<path d="M244.87 177.367V202.44C231.582 207.136 222.668 219.678 222.613 233.779V300.551C222.613 318.991 237.559 333.938 255.999 333.938C274.439 333.938 289.385 318.991 289.385 300.551V233.779C289.329 219.679 280.415 207.137 267.128 202.44V177.367C315.916 171.224 350.482 126.687 344.328 77.9094C338.185 29.1214 293.648 -5.44458 244.87 0.709416C196.092 6.86342 161.516 51.3894 167.67 100.167C172.745 140.509 204.517 172.281 244.87 177.367ZM267.127 300.551C267.127 306.694 262.141 311.68 255.998 311.68C249.855 311.68 244.869 306.694 244.869 300.551V233.779C244.869 227.636 249.855 222.65 255.998 222.65C262.141 222.65 267.127 227.636 267.127 233.779V300.551ZM255.999 22.3334C292.88 22.3334 322.771 52.2254 322.771 89.1054C322.771 125.985 292.879 155.877 255.999 155.877C219.119 155.877 189.227 125.985 189.227 89.1054C189.26 52.2474 219.129 22.3664 255.999 22.3334Z" fill="#4147D6"/>
<path d="M255.999 66.8478V44.5898C231.416 44.5898 211.484 64.5218 211.484 89.1048H233.741C233.741 76.8188 243.701 66.8478 255.999 66.8478Z" fill="#4147D6"/>
</g>
<defs>
<clipPath id="clip0">
<rect width="512" height="512" fill="white"/>
</clipPath>
</defs>
</svg>
