<svg width="52" height="40" viewBox="0 0 52 40" fill="none" xmlns="http://www.w3.org/2000/svg">
<path d="M33.9999 34.3518C34.5191 34.3518 35.0266 34.5027 35.4583 34.7855C35.89 35.0683 36.2264 35.4703 36.4251 35.9405C36.6238 36.4108 36.6758 36.9282 36.5745 37.4275C36.4732 37.9267 36.2232 38.3852 35.8561 38.7452C35.4889 39.1051 35.0212 39.3502 34.512 39.4495C34.0028 39.5488 33.475 39.4978 32.9954 39.303C32.5157 39.1083 32.1057 38.7784 31.8173 38.3552C31.5289 37.932 31.3749 37.4344 31.3749 36.9254C31.3757 36.2431 31.6525 35.5889 32.1446 35.1065C32.6368 34.624 33.304 34.3526 33.9999 34.3518ZM6.87495 36.9254C6.87495 37.4344 7.0289 37.932 7.31734 38.3552C7.60578 38.7784 8.01575 39.1083 8.4954 39.303C8.97506 39.4978 9.50286 39.5488 10.012 39.4495C10.5212 39.3502 10.9889 39.1051 11.3561 38.7452C11.7232 38.3852 11.9732 37.9267 12.0745 37.4275C12.1758 36.9282 12.1238 36.4108 11.9251 35.9405C11.7264 35.4703 11.39 35.0683 10.9583 34.7855C10.5266 34.5027 10.0191 34.3518 9.49995 34.3518C8.804 34.3526 8.13679 34.624 7.64469 35.1065C7.15258 35.5889 6.87576 36.2431 6.87495 36.9254ZM51.4999 0.895453C51.4996 1.12289 51.4074 1.34094 51.2433 1.50177C51.0793 1.66259 50.8569 1.75305 50.6249 1.75331H44.3592L42.7499 9.64225L39.4269 25.9319C40.2243 26.1782 40.9054 26.6962 41.3471 27.3922C41.7887 28.0882 41.9615 28.9163 41.8344 29.7264C41.7073 30.5366 41.2886 31.2754 40.654 31.8091C40.0194 32.3428 39.211 32.6361 38.3749 32.6361H37.4999V34.3518H5.99995V30.9204H38.3749C38.839 30.9204 39.2842 30.7396 39.6123 30.4179C39.9405 30.0961 40.1249 29.6597 40.1249 29.2047C40.1249 28.7496 39.9405 28.3132 39.6123 27.9915C39.2842 27.6697 38.839 27.489 38.3749 27.489H5.1419C4.93963 27.489 4.74362 27.4202 4.5872 27.2945C4.43079 27.1688 4.32363 26.9938 4.28396 26.7994L0.783961 9.64225C0.758572 9.5178 0.761666 9.38938 0.793018 9.26624C0.824371 9.1431 0.883202 9.02832 0.965269 8.93016C1.04734 8.83201 1.1506 8.75293 1.2676 8.69863C1.38461 8.64433 1.51245 8.61616 1.6419 8.61615H41.1749L42.7499 0.893201C42.7508 0.666152 42.8433 0.44868 43.0073 0.288342C43.1713 0.128005 43.3933 0.0378512 43.6249 0.0375977H50.6249C50.8569 0.0378531 51.0793 0.128316 51.2433 0.28914C51.4074 0.449964 51.4996 0.668014 51.4999 0.895453ZM39.4076 17.1947H34.5785L35.6285 10.3319H33.8588L32.8088 17.1947H26.6072L26.9572 10.3319H25.2051L24.8551 17.1947H18.6447L18.2948 10.3319H16.5426L16.8926 17.1947H10.691L9.64104 10.3319H7.87135L8.92135 17.1947H4.10885L4.45885 18.9104H9.18385L10.2338 25.7733H12.0035L10.9535 18.9104H16.9801L17.3301 25.7733H19.0822L18.7323 18.9104H24.7676L24.4176 25.7733H26.1697L26.5197 18.9104H32.5463L31.4963 25.7733H33.266L34.316 18.9104H39.0575" fill="#76CBD7"/>
</svg>
