<svg width="14" height="11" viewBox="0 0 14 11" fill="none" xmlns="http://www.w3.org/2000/svg">
<path d="M1.07422 0.425883C2.43808 2.13284 4.46144 3.20511 6.66016 3.38614C6.45963 2.55539 6.66274 1.68011 7.20983 1.01741C7.75692 0.354715 8.58586 -0.0201324 9.45312 0.00298903C10.2598 -0.0340401 11.0433 0.274407 11.6016 0.848776C12.2307 0.833953 12.8364 0.610428 13.3203 0.214436C13.1433 0.813493 12.7645 1.33546 12.2461 1.69456C12.7781 1.69744 13.2999 1.55072 13.75 1.27167C13.4667 1.94094 12.9261 2.47293 12.2461 2.7518C12.3629 4.86274 11.6067 6.93036 10.1498 8.48379C8.69278 10.0372 6.65905 10.9442 4.51172 10.9982C2.91237 11.0318 1.33994 10.5896 0 9.72954C1.43262 9.74561 2.84302 9.38032 4.08203 8.67231C2.95505 8.49829 1.9892 7.78535 1.50391 6.76929C1.94338 6.78058 2.38097 6.7088 2.79297 6.55784C1.53404 6.16452 0.615436 5.09606 0.429688 3.80903C0.826505 4.03301 1.26475 4.17678 1.71875 4.23193C0.577904 3.29425 0.304038 1.67703 1.07422 0.425883Z" fill="#E8E8E8"/>
</svg>
